M48
; DRILL file {KiCad (5.1.9)-1} date 03/04/21 13:54:24
; FORMAT={-:-/ absolute / inch / decimal}
; #@! TF.CreationDate,2021-03-04T13:54:24-05:00
; #@! TF.GenerationSoftware,Kicad,Pcbnew,(5.1.9)-1
FMAT,2
INCH
T1C0.0157
T2C0.0197
T3C0.0394
T4C0.0512
T5C0.0984
%
G90
G05
T1
X2.4254Y-4.5545
X2.4254Y-4.653
X2.4254Y-4.7514
X2.4254Y-4.8498
X2.4254Y-4.9482
X2.4254Y-5.0467
X2.4254Y-5.1451
X2.4254Y-5.2435
X2.4254Y-5.3419
X2.4254Y-5.4404
X2.4254Y-5.5388
X2.4254Y-5.6372
X2.4254Y-5.7356
X2.4254Y-5.8341
X2.4254Y-5.9325
X2.4254Y-6.0309
X2.4254Y-6.1293
X2.4254Y-6.2278
X2.701Y-5.0467
X2.701Y-5.1254
X2.701Y-5.2435
X2.701Y-5.3616
X2.701Y-5.4404
X2.701Y-5.5585
X2.701Y-5.6766
X2.701Y-5.7947
X2.701Y-5.9128
X2.701Y-6.0309
X2.7207Y-4.7514
X2.7207Y-4.8498
X2.7797Y-5.0467
X2.7797Y-5.1254
X2.7797Y-6.1096
X2.8191Y-4.5545
X2.8191Y-4.653
X2.8191Y-4.7514
X2.8191Y-5.315
X2.8191Y-6.2278
X2.865Y-5.1648
X2.8978Y-5.3222
X2.8978Y-5.401
X2.8978Y-5.4797
X2.8978Y-5.5585
X2.8978Y-5.6766
X2.8978Y-6.1096
X2.9175Y-4.5545
X2.9175Y-4.653
X2.9175Y-4.7514
X2.9175Y-6.2278
X2.935Y-5.615
X2.9372Y-5.9915
X2.9766Y-4.8104
X2.9963Y-5.5781
X3.0159Y-4.5545
X3.0159Y-6.2278
X3.0553Y-4.8104
X3.075Y-5.5781
X3.1144Y-4.5545
X3.1144Y-6.2278
X3.1341Y-4.8498
X3.1537Y-6.0703
X3.16Y-5.415
X3.16Y-5.735
X3.2128Y-4.5545
X3.2128Y-5.1451
X3.2128Y-5.3419
X3.2128Y-5.9325
X3.2128Y-6.1293
X3.2128Y-6.2278
X3.2325Y-5.4207
X3.2719Y-5.9915
X3.3112Y-4.5545
X3.3112Y-5.1451
X3.3112Y-5.3419
X3.3112Y-5.9325
X3.3112Y-6.1293
X3.3112Y-6.2278
X3.4096Y-4.5545
X3.4096Y-4.653
X3.4096Y-4.7514
X3.4096Y-4.8498
X3.4096Y-4.9285
X3.4096Y-5.4404
X3.4096Y-5.5388
X3.4096Y-5.6372
X3.4096Y-5.7159
X3.4096Y-6.2278
X3.5Y-5.65
X3.5Y-6.1
X3.505Y-4.875
X3.505Y-5.325
X3.5081Y-4.5545
X3.5081Y-4.653
X3.5081Y-4.7514
X3.5081Y-5.4404
X3.5081Y-5.5191
X3.5081Y-6.2278
X3.545Y-5.105
X3.55Y-5.9
X3.6065Y-4.5545
X3.6065Y-6.2278
X3.7049Y-4.5545
X3.7049Y-4.653
X3.7049Y-4.7514
X3.7049Y-4.8498
X3.7049Y-4.9482
X3.7049Y-5.0467
X3.7049Y-5.1254
X3.7049Y-5.2435
X3.7049Y-5.3419
X3.7049Y-5.4404
X3.7049Y-5.5388
X3.7049Y-5.6372
X3.7049Y-5.7356
X3.7049Y-5.8341
X3.7049Y-5.9128
X3.7049Y-6.0309
X3.7049Y-6.1293
X3.7049Y-6.2278
X3.8033Y-4.5545
X3.8033Y-6.2278
X3.85Y-5.1787
X3.85Y-5.9606
X3.8821Y-5.0073
X3.8821Y-5.401
X3.9018Y-4.5545
X3.9018Y-4.7514
X3.9018Y-5.1451
X3.9018Y-5.2435
X3.9018Y-5.5388
X3.9018Y-5.9325
X3.9018Y-6.0309
X3.9018Y-6.2278
X3.9215Y-5.7553
X3.9608Y-4.8104
X3.9608Y-5.5978
X4.0002Y-4.5545
X4.0002Y-4.7514
X4.0002Y-5.0073
X4.0002Y-5.1451
X4.0002Y-5.2435
X4.0002Y-5.5388
X4.0002Y-5.7553
X4.0002Y-5.9325
X4.0002Y-6.0309
X4.0002Y-6.2278
X4.0396Y-4.8104
X4.0396Y-5.5978
X4.0789Y-5.401
X4.0789Y-5.7553
X4.0986Y-4.5545
X4.0986Y-4.7514
X4.0986Y-4.9482
X4.0986Y-5.1451
X4.0986Y-5.5388
X4.0986Y-5.9325
X4.0986Y-6.2278
X4.1577Y-5.0073
X4.1577Y-5.3222
X4.1577Y-5.401
X4.1577Y-5.7553
X4.197Y-4.5545
X4.197Y-4.8498
X4.197Y-6.2278
X4.2955Y-4.5545
X4.2955Y-4.8498
X4.2955Y-5.2435
X4.2955Y-5.6372
X4.2955Y-6.0309
X4.2955Y-6.2278
X4.3152Y-4.7711
X4.3152Y-5.1648
X4.3152Y-5.5585
X4.3939Y-4.5545
X4.3939Y-4.8104
X4.3939Y-5.2041
X4.3939Y-5.5978
X4.3939Y-6.2278
X4.4923Y-4.5545
X4.4923Y-6.2278
X4.5907Y-4.5545
X4.5907Y-4.653
X4.5907Y-6.1293
X4.5907Y-6.2278
X4.8663Y-4.8104
X4.8663Y-6.0309
X4.9844Y-4.5545
X4.9844Y-4.653
X4.9844Y-4.7514
X4.9844Y-4.8498
X4.9844Y-4.9482
X4.9844Y-5.0467
X4.9844Y-5.1451
X4.9844Y-5.2435
X4.9844Y-5.3419
X4.9844Y-5.4404
X4.9844Y-5.5388
X4.9844Y-5.6372
X4.9844Y-5.7356
X4.9844Y-5.8341
X4.9844Y-5.9325
X4.9844Y-6.0309
X4.9844Y-6.1293
X4.9844Y-6.2278
X5.0829Y-4.5545
X5.0829Y-4.653
X5.0829Y-4.7514
X5.0829Y-4.8498
X5.0829Y-4.9482
X5.0829Y-5.0467
X5.0829Y-5.1451
X5.0829Y-5.2435
X5.0829Y-5.3419
X5.0829Y-5.4404
X5.0829Y-5.5388
X5.0829Y-5.6372
X5.0829Y-5.7356
X5.0829Y-5.8341
X5.0829Y-5.9325
X5.0829Y-6.0309
X5.0829Y-6.1293
X5.0829Y-6.2278
T2
X2.5484Y-4.6408
X2.5484Y-6.1884
X2.57Y-4.5886
X2.57Y-4.693
X2.57Y-6.1362
X2.57Y-6.2406
X2.6222Y-4.567
X2.6222Y-4.7146
X2.6222Y-6.1146
X2.6222Y-6.2622
X2.6744Y-4.5886
X2.6744Y-4.693
X2.6744Y-6.1362
X2.6744Y-6.2406
X2.6961Y-4.6408
X2.6961Y-6.1884
X4.7138Y-4.653
X4.7138Y-6.1884
X4.7354Y-4.6008
X4.7354Y-4.7052
X4.7354Y-6.1362
X4.7354Y-6.2406
X4.7876Y-4.5791
X4.7876Y-4.7268
X4.7876Y-6.1146
X4.7876Y-6.2622
X4.8398Y-4.6008
X4.8398Y-4.7052
X4.8398Y-6.1362
X4.8398Y-6.2406
X4.8614Y-4.653
X4.8614Y-6.1884
T3
X4.545Y-5.335
T4
X2.5632Y-4.886
X2.5632Y-5.086
X2.5632Y-5.3191
X2.5632Y-5.5191
X2.5632Y-5.7553
X2.5632Y-5.9553
X4.775Y-5.05
X4.775Y-5.25
X4.775Y-5.565
X4.775Y-5.765
T5
X2.6222Y-4.6408
X2.6222Y-6.1884
X4.7876Y-4.653
X4.7876Y-6.1884
T0
M30
