%TF.GenerationSoftware,KiCad,Pcbnew,(5.1.9)-1*%
%TF.CreationDate,2021-03-05T12:04:40-05:00*%
%TF.ProjectId,driver_board,64726976-6572-45f6-926f-6172642e6b69,rev?*%
%TF.SameCoordinates,Original*%
%TF.FileFunction,Copper,L1,Top*%
%TF.FilePolarity,Positive*%
%FSLAX46Y46*%
G04 Gerber Fmt 4.6, Leading zero omitted, Abs format (unit mm)*
G04 Created by KiCad (PCBNEW (5.1.9)-1) date 2021-03-05 12:04:40*
%MOMM*%
%LPD*%
G01*
G04 APERTURE LIST*
%TA.AperFunction,ComponentPad*%
%ADD10C,0.810000*%
%TD*%
%TA.AperFunction,SMDPad,CuDef*%
%ADD11R,4.570000X3.600000*%
%TD*%
%TA.AperFunction,ComponentPad*%
%ADD12C,0.800000*%
%TD*%
%TA.AperFunction,ComponentPad*%
%ADD13C,5.000000*%
%TD*%
%TA.AperFunction,ComponentPad*%
%ADD14C,2.600000*%
%TD*%
%TA.AperFunction,ComponentPad*%
%ADD15R,2.600000X2.600000*%
%TD*%
%TA.AperFunction,SMDPad,CuDef*%
%ADD16R,2.700000X1.500000*%
%TD*%
%TA.AperFunction,SMDPad,CuDef*%
%ADD17R,1.500000X2.700000*%
%TD*%
%TA.AperFunction,SMDPad,CuDef*%
%ADD18R,1.100000X1.100000*%
%TD*%
%TA.AperFunction,ViaPad*%
%ADD19C,0.800000*%
%TD*%
%TA.AperFunction,Conductor*%
%ADD20C,0.250000*%
%TD*%
%TA.AperFunction,Conductor*%
%ADD21C,0.500000*%
%TD*%
%TA.AperFunction,Conductor*%
%ADD22C,2.500000*%
%TD*%
%TA.AperFunction,Conductor*%
%ADD23C,1.000000*%
%TD*%
%TA.AperFunction,Conductor*%
%ADD24C,1.600000*%
%TD*%
%TA.AperFunction,Conductor*%
%ADD25C,0.254000*%
%TD*%
%TA.AperFunction,Conductor*%
%ADD26C,0.100000*%
%TD*%
%TA.AperFunction,Conductor*%
%ADD27C,0.508000*%
%TD*%
G04 APERTURE END LIST*
%TO.P,U2,16*%
%TO.N,Net-(U2-Pad16)*%
%TA.AperFunction,SMDPad,CuDef*%
G36*
G01*
X78195000Y-135835000D02*
X78195000Y-136135000D01*
G75*
G02*
X78045000Y-136285000I-150000J0D01*
G01*
X76295000Y-136285000D01*
G75*
G02*
X76145000Y-136135000I0J150000D01*
G01*
X76145000Y-135835000D01*
G75*
G02*
X76295000Y-135685000I150000J0D01*
G01*
X78045000Y-135685000D01*
G75*
G02*
X78195000Y-135835000I0J-150000D01*
G01*
G37*
%TD.AperFunction*%
%TO.P,U2,15*%
%TO.N,GND*%
%TA.AperFunction,SMDPad,CuDef*%
G36*
G01*
X78195000Y-134565000D02*
X78195000Y-134865000D01*
G75*
G02*
X78045000Y-135015000I-150000J0D01*
G01*
X76295000Y-135015000D01*
G75*
G02*
X76145000Y-134865000I0J150000D01*
G01*
X76145000Y-134565000D01*
G75*
G02*
X76295000Y-134415000I150000J0D01*
G01*
X78045000Y-134415000D01*
G75*
G02*
X78195000Y-134565000I0J-150000D01*
G01*
G37*
%TD.AperFunction*%
%TO.P,U2,14*%
%TO.N,PWM0*%
%TA.AperFunction,SMDPad,CuDef*%
G36*
G01*
X78195000Y-133295000D02*
X78195000Y-133595000D01*
G75*
G02*
X78045000Y-133745000I-150000J0D01*
G01*
X76295000Y-133745000D01*
G75*
G02*
X76145000Y-133595000I0J150000D01*
G01*
X76145000Y-133295000D01*
G75*
G02*
X76295000Y-133145000I150000J0D01*
G01*
X78045000Y-133145000D01*
G75*
G02*
X78195000Y-133295000I0J-150000D01*
G01*
G37*
%TD.AperFunction*%
%TO.P,U2,13*%
%TO.N,GND*%
%TA.AperFunction,SMDPad,CuDef*%
G36*
G01*
X78195000Y-132025000D02*
X78195000Y-132325000D01*
G75*
G02*
X78045000Y-132475000I-150000J0D01*
G01*
X76295000Y-132475000D01*
G75*
G02*
X76145000Y-132325000I0J150000D01*
G01*
X76145000Y-132025000D01*
G75*
G02*
X76295000Y-131875000I150000J0D01*
G01*
X78045000Y-131875000D01*
G75*
G02*
X78195000Y-132025000I0J-150000D01*
G01*
G37*
%TD.AperFunction*%
%TO.P,U2,12*%
%TO.N,PWM1*%
%TA.AperFunction,SMDPad,CuDef*%
G36*
G01*
X78195000Y-130755000D02*
X78195000Y-131055000D01*
G75*
G02*
X78045000Y-131205000I-150000J0D01*
G01*
X76295000Y-131205000D01*
G75*
G02*
X76145000Y-131055000I0J150000D01*
G01*
X76145000Y-130755000D01*
G75*
G02*
X76295000Y-130605000I150000J0D01*
G01*
X78045000Y-130605000D01*
G75*
G02*
X78195000Y-130755000I0J-150000D01*
G01*
G37*
%TD.AperFunction*%
%TO.P,U2,11*%
%TO.N,+3V3*%
%TA.AperFunction,SMDPad,CuDef*%
G36*
G01*
X78195000Y-129485000D02*
X78195000Y-129785000D01*
G75*
G02*
X78045000Y-129935000I-150000J0D01*
G01*
X76295000Y-129935000D01*
G75*
G02*
X76145000Y-129785000I0J150000D01*
G01*
X76145000Y-129485000D01*
G75*
G02*
X76295000Y-129335000I150000J0D01*
G01*
X78045000Y-129335000D01*
G75*
G02*
X78195000Y-129485000I0J-150000D01*
G01*
G37*
%TD.AperFunction*%
%TO.P,U2,10*%
%TO.N,Net-(U2-Pad10)*%
%TA.AperFunction,SMDPad,CuDef*%
G36*
G01*
X78195000Y-128215000D02*
X78195000Y-128515000D01*
G75*
G02*
X78045000Y-128665000I-150000J0D01*
G01*
X76295000Y-128665000D01*
G75*
G02*
X76145000Y-128515000I0J150000D01*
G01*
X76145000Y-128215000D01*
G75*
G02*
X76295000Y-128065000I150000J0D01*
G01*
X78045000Y-128065000D01*
G75*
G02*
X78195000Y-128215000I0J-150000D01*
G01*
G37*
%TD.AperFunction*%
%TO.P,U2,9*%
%TO.N,Net-(U2-Pad9)*%
%TA.AperFunction,SMDPad,CuDef*%
G36*
G01*
X78195000Y-126945000D02*
X78195000Y-127245000D01*
G75*
G02*
X78045000Y-127395000I-150000J0D01*
G01*
X76295000Y-127395000D01*
G75*
G02*
X76145000Y-127245000I0J150000D01*
G01*
X76145000Y-126945000D01*
G75*
G02*
X76295000Y-126795000I150000J0D01*
G01*
X78045000Y-126795000D01*
G75*
G02*
X78195000Y-126945000I0J-150000D01*
G01*
G37*
%TD.AperFunction*%
%TO.P,U2,8*%
%TO.N,Net-(D5-Pad1)*%
%TA.AperFunction,SMDPad,CuDef*%
G36*
G01*
X87495000Y-126945000D02*
X87495000Y-127245000D01*
G75*
G02*
X87345000Y-127395000I-150000J0D01*
G01*
X85595000Y-127395000D01*
G75*
G02*
X85445000Y-127245000I0J150000D01*
G01*
X85445000Y-126945000D01*
G75*
G02*
X85595000Y-126795000I150000J0D01*
G01*
X87345000Y-126795000D01*
G75*
G02*
X87495000Y-126945000I0J-150000D01*
G01*
G37*
%TD.AperFunction*%
%TO.P,U2,7*%
%TO.N,Net-(C5-Pad1)*%
%TA.AperFunction,SMDPad,CuDef*%
G36*
G01*
X87495000Y-128215000D02*
X87495000Y-128515000D01*
G75*
G02*
X87345000Y-128665000I-150000J0D01*
G01*
X85595000Y-128665000D01*
G75*
G02*
X85445000Y-128515000I0J150000D01*
G01*
X85445000Y-128215000D01*
G75*
G02*
X85595000Y-128065000I150000J0D01*
G01*
X87345000Y-128065000D01*
G75*
G02*
X87495000Y-128215000I0J-150000D01*
G01*
G37*
%TD.AperFunction*%
%TO.P,U2,6*%
%TO.N,M-*%
%TA.AperFunction,SMDPad,CuDef*%
G36*
G01*
X87495000Y-129485000D02*
X87495000Y-129785000D01*
G75*
G02*
X87345000Y-129935000I-150000J0D01*
G01*
X85595000Y-129935000D01*
G75*
G02*
X85445000Y-129785000I0J150000D01*
G01*
X85445000Y-129485000D01*
G75*
G02*
X85595000Y-129335000I150000J0D01*
G01*
X87345000Y-129335000D01*
G75*
G02*
X87495000Y-129485000I0J-150000D01*
G01*
G37*
%TD.AperFunction*%
%TO.P,U2,5*%
%TO.N,Net-(U2-Pad5)*%
%TA.AperFunction,SMDPad,CuDef*%
G36*
G01*
X87495000Y-130755000D02*
X87495000Y-131055000D01*
G75*
G02*
X87345000Y-131205000I-150000J0D01*
G01*
X85595000Y-131205000D01*
G75*
G02*
X85445000Y-131055000I0J150000D01*
G01*
X85445000Y-130755000D01*
G75*
G02*
X85595000Y-130605000I150000J0D01*
G01*
X87345000Y-130605000D01*
G75*
G02*
X87495000Y-130755000I0J-150000D01*
G01*
G37*
%TD.AperFunction*%
%TO.P,U2,4*%
%TO.N,Net-(U2-Pad4)*%
%TA.AperFunction,SMDPad,CuDef*%
G36*
G01*
X87495000Y-132025000D02*
X87495000Y-132325000D01*
G75*
G02*
X87345000Y-132475000I-150000J0D01*
G01*
X85595000Y-132475000D01*
G75*
G02*
X85445000Y-132325000I0J150000D01*
G01*
X85445000Y-132025000D01*
G75*
G02*
X85595000Y-131875000I150000J0D01*
G01*
X87345000Y-131875000D01*
G75*
G02*
X87495000Y-132025000I0J-150000D01*
G01*
G37*
%TD.AperFunction*%
%TO.P,U2,3*%
%TO.N,+12V*%
%TA.AperFunction,SMDPad,CuDef*%
G36*
G01*
X87495000Y-133295000D02*
X87495000Y-133595000D01*
G75*
G02*
X87345000Y-133745000I-150000J0D01*
G01*
X85595000Y-133745000D01*
G75*
G02*
X85445000Y-133595000I0J150000D01*
G01*
X85445000Y-133295000D01*
G75*
G02*
X85595000Y-133145000I150000J0D01*
G01*
X87345000Y-133145000D01*
G75*
G02*
X87495000Y-133295000I0J-150000D01*
G01*
G37*
%TD.AperFunction*%
%TO.P,U2,2*%
%TO.N,GND*%
%TA.AperFunction,SMDPad,CuDef*%
G36*
G01*
X87495000Y-134565000D02*
X87495000Y-134865000D01*
G75*
G02*
X87345000Y-135015000I-150000J0D01*
G01*
X85595000Y-135015000D01*
G75*
G02*
X85445000Y-134865000I0J150000D01*
G01*
X85445000Y-134565000D01*
G75*
G02*
X85595000Y-134415000I150000J0D01*
G01*
X87345000Y-134415000D01*
G75*
G02*
X87495000Y-134565000I0J-150000D01*
G01*
G37*
%TD.AperFunction*%
%TO.P,U2,1*%
%TO.N,Net-(D6-Pad1)*%
%TA.AperFunction,SMDPad,CuDef*%
G36*
G01*
X87495000Y-135835000D02*
X87495000Y-136135000D01*
G75*
G02*
X87345000Y-136285000I-150000J0D01*
G01*
X85595000Y-136285000D01*
G75*
G02*
X85445000Y-136135000I0J150000D01*
G01*
X85445000Y-135835000D01*
G75*
G02*
X85595000Y-135685000I150000J0D01*
G01*
X87345000Y-135685000D01*
G75*
G02*
X87495000Y-135835000I0J-150000D01*
G01*
G37*
%TD.AperFunction*%
%TD*%
%TO.P,U1,16*%
%TO.N,Net-(U1-Pad16)*%
%TA.AperFunction,SMDPad,CuDef*%
G36*
G01*
X78330000Y-155925000D02*
X78330000Y-156225000D01*
G75*
G02*
X78180000Y-156375000I-150000J0D01*
G01*
X76430000Y-156375000D01*
G75*
G02*
X76280000Y-156225000I0J150000D01*
G01*
X76280000Y-155925000D01*
G75*
G02*
X76430000Y-155775000I150000J0D01*
G01*
X78180000Y-155775000D01*
G75*
G02*
X78330000Y-155925000I0J-150000D01*
G01*
G37*
%TD.AperFunction*%
%TO.P,U1,15*%
%TO.N,GND*%
%TA.AperFunction,SMDPad,CuDef*%
G36*
G01*
X78330000Y-154655000D02*
X78330000Y-154955000D01*
G75*
G02*
X78180000Y-155105000I-150000J0D01*
G01*
X76430000Y-155105000D01*
G75*
G02*
X76280000Y-154955000I0J150000D01*
G01*
X76280000Y-154655000D01*
G75*
G02*
X76430000Y-154505000I150000J0D01*
G01*
X78180000Y-154505000D01*
G75*
G02*
X78330000Y-154655000I0J-150000D01*
G01*
G37*
%TD.AperFunction*%
%TO.P,U1,14*%
%TO.N,PWM1*%
%TA.AperFunction,SMDPad,CuDef*%
G36*
G01*
X78330000Y-153385000D02*
X78330000Y-153685000D01*
G75*
G02*
X78180000Y-153835000I-150000J0D01*
G01*
X76430000Y-153835000D01*
G75*
G02*
X76280000Y-153685000I0J150000D01*
G01*
X76280000Y-153385000D01*
G75*
G02*
X76430000Y-153235000I150000J0D01*
G01*
X78180000Y-153235000D01*
G75*
G02*
X78330000Y-153385000I0J-150000D01*
G01*
G37*
%TD.AperFunction*%
%TO.P,U1,13*%
%TO.N,GND*%
%TA.AperFunction,SMDPad,CuDef*%
G36*
G01*
X78330000Y-152115000D02*
X78330000Y-152415000D01*
G75*
G02*
X78180000Y-152565000I-150000J0D01*
G01*
X76430000Y-152565000D01*
G75*
G02*
X76280000Y-152415000I0J150000D01*
G01*
X76280000Y-152115000D01*
G75*
G02*
X76430000Y-151965000I150000J0D01*
G01*
X78180000Y-151965000D01*
G75*
G02*
X78330000Y-152115000I0J-150000D01*
G01*
G37*
%TD.AperFunction*%
%TO.P,U1,12*%
%TO.N,PWM0*%
%TA.AperFunction,SMDPad,CuDef*%
G36*
G01*
X78330000Y-150845000D02*
X78330000Y-151145000D01*
G75*
G02*
X78180000Y-151295000I-150000J0D01*
G01*
X76430000Y-151295000D01*
G75*
G02*
X76280000Y-151145000I0J150000D01*
G01*
X76280000Y-150845000D01*
G75*
G02*
X76430000Y-150695000I150000J0D01*
G01*
X78180000Y-150695000D01*
G75*
G02*
X78330000Y-150845000I0J-150000D01*
G01*
G37*
%TD.AperFunction*%
%TO.P,U1,11*%
%TO.N,+3V3*%
%TA.AperFunction,SMDPad,CuDef*%
G36*
G01*
X78330000Y-149575000D02*
X78330000Y-149875000D01*
G75*
G02*
X78180000Y-150025000I-150000J0D01*
G01*
X76430000Y-150025000D01*
G75*
G02*
X76280000Y-149875000I0J150000D01*
G01*
X76280000Y-149575000D01*
G75*
G02*
X76430000Y-149425000I150000J0D01*
G01*
X78180000Y-149425000D01*
G75*
G02*
X78330000Y-149575000I0J-150000D01*
G01*
G37*
%TD.AperFunction*%
%TO.P,U1,10*%
%TO.N,Net-(U1-Pad10)*%
%TA.AperFunction,SMDPad,CuDef*%
G36*
G01*
X78330000Y-148305000D02*
X78330000Y-148605000D01*
G75*
G02*
X78180000Y-148755000I-150000J0D01*
G01*
X76430000Y-148755000D01*
G75*
G02*
X76280000Y-148605000I0J150000D01*
G01*
X76280000Y-148305000D01*
G75*
G02*
X76430000Y-148155000I150000J0D01*
G01*
X78180000Y-148155000D01*
G75*
G02*
X78330000Y-148305000I0J-150000D01*
G01*
G37*
%TD.AperFunction*%
%TO.P,U1,9*%
%TO.N,Net-(U1-Pad9)*%
%TA.AperFunction,SMDPad,CuDef*%
G36*
G01*
X78330000Y-147035000D02*
X78330000Y-147335000D01*
G75*
G02*
X78180000Y-147485000I-150000J0D01*
G01*
X76430000Y-147485000D01*
G75*
G02*
X76280000Y-147335000I0J150000D01*
G01*
X76280000Y-147035000D01*
G75*
G02*
X76430000Y-146885000I150000J0D01*
G01*
X78180000Y-146885000D01*
G75*
G02*
X78330000Y-147035000I0J-150000D01*
G01*
G37*
%TD.AperFunction*%
%TO.P,U1,8*%
%TO.N,Net-(D3-Pad1)*%
%TA.AperFunction,SMDPad,CuDef*%
G36*
G01*
X87630000Y-147035000D02*
X87630000Y-147335000D01*
G75*
G02*
X87480000Y-147485000I-150000J0D01*
G01*
X85730000Y-147485000D01*
G75*
G02*
X85580000Y-147335000I0J150000D01*
G01*
X85580000Y-147035000D01*
G75*
G02*
X85730000Y-146885000I150000J0D01*
G01*
X87480000Y-146885000D01*
G75*
G02*
X87630000Y-147035000I0J-150000D01*
G01*
G37*
%TD.AperFunction*%
%TO.P,U1,7*%
%TO.N,Net-(C3-Pad1)*%
%TA.AperFunction,SMDPad,CuDef*%
G36*
G01*
X87630000Y-148305000D02*
X87630000Y-148605000D01*
G75*
G02*
X87480000Y-148755000I-150000J0D01*
G01*
X85730000Y-148755000D01*
G75*
G02*
X85580000Y-148605000I0J150000D01*
G01*
X85580000Y-148305000D01*
G75*
G02*
X85730000Y-148155000I150000J0D01*
G01*
X87480000Y-148155000D01*
G75*
G02*
X87630000Y-148305000I0J-150000D01*
G01*
G37*
%TD.AperFunction*%
%TO.P,U1,6*%
%TO.N,M+*%
%TA.AperFunction,SMDPad,CuDef*%
G36*
G01*
X87630000Y-149575000D02*
X87630000Y-149875000D01*
G75*
G02*
X87480000Y-150025000I-150000J0D01*
G01*
X85730000Y-150025000D01*
G75*
G02*
X85580000Y-149875000I0J150000D01*
G01*
X85580000Y-149575000D01*
G75*
G02*
X85730000Y-149425000I150000J0D01*
G01*
X87480000Y-149425000D01*
G75*
G02*
X87630000Y-149575000I0J-150000D01*
G01*
G37*
%TD.AperFunction*%
%TO.P,U1,5*%
%TO.N,Net-(U1-Pad5)*%
%TA.AperFunction,SMDPad,CuDef*%
G36*
G01*
X87630000Y-150845000D02*
X87630000Y-151145000D01*
G75*
G02*
X87480000Y-151295000I-150000J0D01*
G01*
X85730000Y-151295000D01*
G75*
G02*
X85580000Y-151145000I0J150000D01*
G01*
X85580000Y-150845000D01*
G75*
G02*
X85730000Y-150695000I150000J0D01*
G01*
X87480000Y-150695000D01*
G75*
G02*
X87630000Y-150845000I0J-150000D01*
G01*
G37*
%TD.AperFunction*%
%TO.P,U1,4*%
%TO.N,Net-(U1-Pad4)*%
%TA.AperFunction,SMDPad,CuDef*%
G36*
G01*
X87630000Y-152115000D02*
X87630000Y-152415000D01*
G75*
G02*
X87480000Y-152565000I-150000J0D01*
G01*
X85730000Y-152565000D01*
G75*
G02*
X85580000Y-152415000I0J150000D01*
G01*
X85580000Y-152115000D01*
G75*
G02*
X85730000Y-151965000I150000J0D01*
G01*
X87480000Y-151965000D01*
G75*
G02*
X87630000Y-152115000I0J-150000D01*
G01*
G37*
%TD.AperFunction*%
%TO.P,U1,3*%
%TO.N,+12V*%
%TA.AperFunction,SMDPad,CuDef*%
G36*
G01*
X87630000Y-153385000D02*
X87630000Y-153685000D01*
G75*
G02*
X87480000Y-153835000I-150000J0D01*
G01*
X85730000Y-153835000D01*
G75*
G02*
X85580000Y-153685000I0J150000D01*
G01*
X85580000Y-153385000D01*
G75*
G02*
X85730000Y-153235000I150000J0D01*
G01*
X87480000Y-153235000D01*
G75*
G02*
X87630000Y-153385000I0J-150000D01*
G01*
G37*
%TD.AperFunction*%
%TO.P,U1,2*%
%TO.N,GND*%
%TA.AperFunction,SMDPad,CuDef*%
G36*
G01*
X87630000Y-154655000D02*
X87630000Y-154955000D01*
G75*
G02*
X87480000Y-155105000I-150000J0D01*
G01*
X85730000Y-155105000D01*
G75*
G02*
X85580000Y-154955000I0J150000D01*
G01*
X85580000Y-154655000D01*
G75*
G02*
X85730000Y-154505000I150000J0D01*
G01*
X87480000Y-154505000D01*
G75*
G02*
X87630000Y-154655000I0J-150000D01*
G01*
G37*
%TD.AperFunction*%
%TO.P,U1,1*%
%TO.N,Net-(D4-Pad1)*%
%TA.AperFunction,SMDPad,CuDef*%
G36*
G01*
X87630000Y-155925000D02*
X87630000Y-156225000D01*
G75*
G02*
X87480000Y-156375000I-150000J0D01*
G01*
X85730000Y-156375000D01*
G75*
G02*
X85580000Y-156225000I0J150000D01*
G01*
X85580000Y-155925000D01*
G75*
G02*
X85730000Y-155775000I150000J0D01*
G01*
X87480000Y-155775000D01*
G75*
G02*
X87630000Y-155925000I0J-150000D01*
G01*
G37*
%TD.AperFunction*%
%TD*%
%TO.P,Q1,2*%
%TO.N,Net-(D3-Pad2)*%
%TA.AperFunction,SMDPad,CuDef*%
G36*
G01*
X104600000Y-149025000D02*
X104950000Y-149025000D01*
G75*
G02*
X105125000Y-149200000I0J-175000D01*
G01*
X105125000Y-150120000D01*
G75*
G02*
X104950000Y-150295000I-175000J0D01*
G01*
X104600000Y-150295000D01*
G75*
G02*
X104425000Y-150120000I0J175000D01*
G01*
X104425000Y-149200000D01*
G75*
G02*
X104600000Y-149025000I175000J0D01*
G01*
G37*
%TD.AperFunction*%
%TO.P,Q1,1*%
%TO.N,M+*%
%TA.AperFunction,SMDPad,CuDef*%
G36*
G01*
X105870000Y-149025000D02*
X106220000Y-149025000D01*
G75*
G02*
X106395000Y-149200000I0J-175000D01*
G01*
X106395000Y-150120000D01*
G75*
G02*
X106220000Y-150295000I-175000J0D01*
G01*
X105870000Y-150295000D01*
G75*
G02*
X105695000Y-150120000I0J175000D01*
G01*
X105695000Y-149200000D01*
G75*
G02*
X105870000Y-149025000I175000J0D01*
G01*
G37*
%TD.AperFunction*%
%TA.AperFunction,SMDPad,CuDef*%
G36*
G01*
X107140000Y-149025000D02*
X107490000Y-149025000D01*
G75*
G02*
X107665000Y-149200000I0J-175000D01*
G01*
X107665000Y-150120000D01*
G75*
G02*
X107490000Y-150295000I-175000J0D01*
G01*
X107140000Y-150295000D01*
G75*
G02*
X106965000Y-150120000I0J175000D01*
G01*
X106965000Y-149200000D01*
G75*
G02*
X107140000Y-149025000I175000J0D01*
G01*
G37*
%TD.AperFunction*%
D10*
%TO.P,Q1,9*%
%TO.N,N/C*%
X105410000Y-153460000D03*
X105410000Y-151460000D03*
X106680000Y-153460000D03*
X106680000Y-151460000D03*
X107950000Y-153460000D03*
X107950000Y-151460000D03*
D11*
X106680000Y-152460000D03*
%TO.P,Q1,3*%
%TO.N,HV+*%
%TA.AperFunction,SMDPad,CuDef*%
G36*
G01*
X108410000Y-154625000D02*
X108760000Y-154625000D01*
G75*
G02*
X108935000Y-154800000I0J-175000D01*
G01*
X108935000Y-155720000D01*
G75*
G02*
X108760000Y-155895000I-175000J0D01*
G01*
X108410000Y-155895000D01*
G75*
G02*
X108235000Y-155720000I0J175000D01*
G01*
X108235000Y-154800000D01*
G75*
G02*
X108410000Y-154625000I175000J0D01*
G01*
G37*
%TD.AperFunction*%
%TA.AperFunction,SMDPad,CuDef*%
G36*
G01*
X107140000Y-154625000D02*
X107490000Y-154625000D01*
G75*
G02*
X107665000Y-154800000I0J-175000D01*
G01*
X107665000Y-155720000D01*
G75*
G02*
X107490000Y-155895000I-175000J0D01*
G01*
X107140000Y-155895000D01*
G75*
G02*
X106965000Y-155720000I0J175000D01*
G01*
X106965000Y-154800000D01*
G75*
G02*
X107140000Y-154625000I175000J0D01*
G01*
G37*
%TD.AperFunction*%
%TA.AperFunction,SMDPad,CuDef*%
G36*
G01*
X105870000Y-154625000D02*
X106220000Y-154625000D01*
G75*
G02*
X106395000Y-154800000I0J-175000D01*
G01*
X106395000Y-155720000D01*
G75*
G02*
X106220000Y-155895000I-175000J0D01*
G01*
X105870000Y-155895000D01*
G75*
G02*
X105695000Y-155720000I0J175000D01*
G01*
X105695000Y-154800000D01*
G75*
G02*
X105870000Y-154625000I175000J0D01*
G01*
G37*
%TD.AperFunction*%
%TA.AperFunction,SMDPad,CuDef*%
G36*
G01*
X104600000Y-154625000D02*
X104950000Y-154625000D01*
G75*
G02*
X105125000Y-154800000I0J-175000D01*
G01*
X105125000Y-155720000D01*
G75*
G02*
X104950000Y-155895000I-175000J0D01*
G01*
X104600000Y-155895000D01*
G75*
G02*
X104425000Y-155720000I0J175000D01*
G01*
X104425000Y-154800000D01*
G75*
G02*
X104600000Y-154625000I175000J0D01*
G01*
G37*
%TD.AperFunction*%
%TO.P,Q1,1*%
%TO.N,M+*%
%TA.AperFunction,SMDPad,CuDef*%
G36*
G01*
X108410000Y-149025000D02*
X108760000Y-149025000D01*
G75*
G02*
X108935000Y-149200000I0J-175000D01*
G01*
X108935000Y-150120000D01*
G75*
G02*
X108760000Y-150295000I-175000J0D01*
G01*
X108410000Y-150295000D01*
G75*
G02*
X108235000Y-150120000I0J175000D01*
G01*
X108235000Y-149200000D01*
G75*
G02*
X108410000Y-149025000I175000J0D01*
G01*
G37*
%TD.AperFunction*%
%TD*%
%TO.P,Q2,2*%
%TO.N,Net-(D4-Pad2)*%
%TA.AperFunction,SMDPad,CuDef*%
G36*
G01*
X104600000Y-138865000D02*
X104950000Y-138865000D01*
G75*
G02*
X105125000Y-139040000I0J-175000D01*
G01*
X105125000Y-139960000D01*
G75*
G02*
X104950000Y-140135000I-175000J0D01*
G01*
X104600000Y-140135000D01*
G75*
G02*
X104425000Y-139960000I0J175000D01*
G01*
X104425000Y-139040000D01*
G75*
G02*
X104600000Y-138865000I175000J0D01*
G01*
G37*
%TD.AperFunction*%
%TO.P,Q2,1*%
%TO.N,HV-*%
%TA.AperFunction,SMDPad,CuDef*%
G36*
G01*
X105870000Y-138865000D02*
X106220000Y-138865000D01*
G75*
G02*
X106395000Y-139040000I0J-175000D01*
G01*
X106395000Y-139960000D01*
G75*
G02*
X106220000Y-140135000I-175000J0D01*
G01*
X105870000Y-140135000D01*
G75*
G02*
X105695000Y-139960000I0J175000D01*
G01*
X105695000Y-139040000D01*
G75*
G02*
X105870000Y-138865000I175000J0D01*
G01*
G37*
%TD.AperFunction*%
%TA.AperFunction,SMDPad,CuDef*%
G36*
G01*
X107140000Y-138865000D02*
X107490000Y-138865000D01*
G75*
G02*
X107665000Y-139040000I0J-175000D01*
G01*
X107665000Y-139960000D01*
G75*
G02*
X107490000Y-140135000I-175000J0D01*
G01*
X107140000Y-140135000D01*
G75*
G02*
X106965000Y-139960000I0J175000D01*
G01*
X106965000Y-139040000D01*
G75*
G02*
X107140000Y-138865000I175000J0D01*
G01*
G37*
%TD.AperFunction*%
D10*
%TO.P,Q2,9*%
%TO.N,N/C*%
X105410000Y-143300000D03*
X105410000Y-141300000D03*
X106680000Y-143300000D03*
X106680000Y-141300000D03*
X107950000Y-143300000D03*
X107950000Y-141300000D03*
D11*
X106680000Y-142300000D03*
%TO.P,Q2,3*%
%TO.N,M+*%
%TA.AperFunction,SMDPad,CuDef*%
G36*
G01*
X108410000Y-144465000D02*
X108760000Y-144465000D01*
G75*
G02*
X108935000Y-144640000I0J-175000D01*
G01*
X108935000Y-145560000D01*
G75*
G02*
X108760000Y-145735000I-175000J0D01*
G01*
X108410000Y-145735000D01*
G75*
G02*
X108235000Y-145560000I0J175000D01*
G01*
X108235000Y-144640000D01*
G75*
G02*
X108410000Y-144465000I175000J0D01*
G01*
G37*
%TD.AperFunction*%
%TA.AperFunction,SMDPad,CuDef*%
G36*
G01*
X107140000Y-144465000D02*
X107490000Y-144465000D01*
G75*
G02*
X107665000Y-144640000I0J-175000D01*
G01*
X107665000Y-145560000D01*
G75*
G02*
X107490000Y-145735000I-175000J0D01*
G01*
X107140000Y-145735000D01*
G75*
G02*
X106965000Y-145560000I0J175000D01*
G01*
X106965000Y-144640000D01*
G75*
G02*
X107140000Y-144465000I175000J0D01*
G01*
G37*
%TD.AperFunction*%
%TA.AperFunction,SMDPad,CuDef*%
G36*
G01*
X105870000Y-144465000D02*
X106220000Y-144465000D01*
G75*
G02*
X106395000Y-144640000I0J-175000D01*
G01*
X106395000Y-145560000D01*
G75*
G02*
X106220000Y-145735000I-175000J0D01*
G01*
X105870000Y-145735000D01*
G75*
G02*
X105695000Y-145560000I0J175000D01*
G01*
X105695000Y-144640000D01*
G75*
G02*
X105870000Y-144465000I175000J0D01*
G01*
G37*
%TD.AperFunction*%
%TA.AperFunction,SMDPad,CuDef*%
G36*
G01*
X104600000Y-144465000D02*
X104950000Y-144465000D01*
G75*
G02*
X105125000Y-144640000I0J-175000D01*
G01*
X105125000Y-145560000D01*
G75*
G02*
X104950000Y-145735000I-175000J0D01*
G01*
X104600000Y-145735000D01*
G75*
G02*
X104425000Y-145560000I0J175000D01*
G01*
X104425000Y-144640000D01*
G75*
G02*
X104600000Y-144465000I175000J0D01*
G01*
G37*
%TD.AperFunction*%
%TO.P,Q2,1*%
%TO.N,HV-*%
%TA.AperFunction,SMDPad,CuDef*%
G36*
G01*
X108410000Y-138865000D02*
X108760000Y-138865000D01*
G75*
G02*
X108935000Y-139040000I0J-175000D01*
G01*
X108935000Y-139960000D01*
G75*
G02*
X108760000Y-140135000I-175000J0D01*
G01*
X108410000Y-140135000D01*
G75*
G02*
X108235000Y-139960000I0J175000D01*
G01*
X108235000Y-139040000D01*
G75*
G02*
X108410000Y-138865000I175000J0D01*
G01*
G37*
%TD.AperFunction*%
%TD*%
%TO.P,Q5,2*%
%TO.N,Net-(D5-Pad2)*%
%TA.AperFunction,SMDPad,CuDef*%
G36*
G01*
X104600000Y-129165000D02*
X104950000Y-129165000D01*
G75*
G02*
X105125000Y-129340000I0J-175000D01*
G01*
X105125000Y-130260000D01*
G75*
G02*
X104950000Y-130435000I-175000J0D01*
G01*
X104600000Y-130435000D01*
G75*
G02*
X104425000Y-130260000I0J175000D01*
G01*
X104425000Y-129340000D01*
G75*
G02*
X104600000Y-129165000I175000J0D01*
G01*
G37*
%TD.AperFunction*%
%TO.P,Q5,1*%
%TO.N,M-*%
%TA.AperFunction,SMDPad,CuDef*%
G36*
G01*
X105870000Y-129165000D02*
X106220000Y-129165000D01*
G75*
G02*
X106395000Y-129340000I0J-175000D01*
G01*
X106395000Y-130260000D01*
G75*
G02*
X106220000Y-130435000I-175000J0D01*
G01*
X105870000Y-130435000D01*
G75*
G02*
X105695000Y-130260000I0J175000D01*
G01*
X105695000Y-129340000D01*
G75*
G02*
X105870000Y-129165000I175000J0D01*
G01*
G37*
%TD.AperFunction*%
%TA.AperFunction,SMDPad,CuDef*%
G36*
G01*
X107140000Y-129165000D02*
X107490000Y-129165000D01*
G75*
G02*
X107665000Y-129340000I0J-175000D01*
G01*
X107665000Y-130260000D01*
G75*
G02*
X107490000Y-130435000I-175000J0D01*
G01*
X107140000Y-130435000D01*
G75*
G02*
X106965000Y-130260000I0J175000D01*
G01*
X106965000Y-129340000D01*
G75*
G02*
X107140000Y-129165000I175000J0D01*
G01*
G37*
%TD.AperFunction*%
D10*
%TO.P,Q5,9*%
%TO.N,N/C*%
X105410000Y-133600000D03*
X105410000Y-131600000D03*
X106680000Y-133600000D03*
X106680000Y-131600000D03*
X107950000Y-133600000D03*
X107950000Y-131600000D03*
D11*
X106680000Y-132600000D03*
%TO.P,Q5,3*%
%TO.N,HV+*%
%TA.AperFunction,SMDPad,CuDef*%
G36*
G01*
X108410000Y-134765000D02*
X108760000Y-134765000D01*
G75*
G02*
X108935000Y-134940000I0J-175000D01*
G01*
X108935000Y-135860000D01*
G75*
G02*
X108760000Y-136035000I-175000J0D01*
G01*
X108410000Y-136035000D01*
G75*
G02*
X108235000Y-135860000I0J175000D01*
G01*
X108235000Y-134940000D01*
G75*
G02*
X108410000Y-134765000I175000J0D01*
G01*
G37*
%TD.AperFunction*%
%TA.AperFunction,SMDPad,CuDef*%
G36*
G01*
X107140000Y-134765000D02*
X107490000Y-134765000D01*
G75*
G02*
X107665000Y-134940000I0J-175000D01*
G01*
X107665000Y-135860000D01*
G75*
G02*
X107490000Y-136035000I-175000J0D01*
G01*
X107140000Y-136035000D01*
G75*
G02*
X106965000Y-135860000I0J175000D01*
G01*
X106965000Y-134940000D01*
G75*
G02*
X107140000Y-134765000I175000J0D01*
G01*
G37*
%TD.AperFunction*%
%TA.AperFunction,SMDPad,CuDef*%
G36*
G01*
X105870000Y-134765000D02*
X106220000Y-134765000D01*
G75*
G02*
X106395000Y-134940000I0J-175000D01*
G01*
X106395000Y-135860000D01*
G75*
G02*
X106220000Y-136035000I-175000J0D01*
G01*
X105870000Y-136035000D01*
G75*
G02*
X105695000Y-135860000I0J175000D01*
G01*
X105695000Y-134940000D01*
G75*
G02*
X105870000Y-134765000I175000J0D01*
G01*
G37*
%TD.AperFunction*%
%TA.AperFunction,SMDPad,CuDef*%
G36*
G01*
X104600000Y-134765000D02*
X104950000Y-134765000D01*
G75*
G02*
X105125000Y-134940000I0J-175000D01*
G01*
X105125000Y-135860000D01*
G75*
G02*
X104950000Y-136035000I-175000J0D01*
G01*
X104600000Y-136035000D01*
G75*
G02*
X104425000Y-135860000I0J175000D01*
G01*
X104425000Y-134940000D01*
G75*
G02*
X104600000Y-134765000I175000J0D01*
G01*
G37*
%TD.AperFunction*%
%TO.P,Q5,1*%
%TO.N,M-*%
%TA.AperFunction,SMDPad,CuDef*%
G36*
G01*
X108410000Y-129165000D02*
X108760000Y-129165000D01*
G75*
G02*
X108935000Y-129340000I0J-175000D01*
G01*
X108935000Y-130260000D01*
G75*
G02*
X108760000Y-130435000I-175000J0D01*
G01*
X108410000Y-130435000D01*
G75*
G02*
X108235000Y-130260000I0J175000D01*
G01*
X108235000Y-129340000D01*
G75*
G02*
X108410000Y-129165000I175000J0D01*
G01*
G37*
%TD.AperFunction*%
%TD*%
%TO.P,Q6,2*%
%TO.N,Net-(D6-Pad2)*%
%TA.AperFunction,SMDPad,CuDef*%
G36*
G01*
X104600000Y-119005000D02*
X104950000Y-119005000D01*
G75*
G02*
X105125000Y-119180000I0J-175000D01*
G01*
X105125000Y-120100000D01*
G75*
G02*
X104950000Y-120275000I-175000J0D01*
G01*
X104600000Y-120275000D01*
G75*
G02*
X104425000Y-120100000I0J175000D01*
G01*
X104425000Y-119180000D01*
G75*
G02*
X104600000Y-119005000I175000J0D01*
G01*
G37*
%TD.AperFunction*%
%TO.P,Q6,1*%
%TO.N,HV-*%
%TA.AperFunction,SMDPad,CuDef*%
G36*
G01*
X105870000Y-119005000D02*
X106220000Y-119005000D01*
G75*
G02*
X106395000Y-119180000I0J-175000D01*
G01*
X106395000Y-120100000D01*
G75*
G02*
X106220000Y-120275000I-175000J0D01*
G01*
X105870000Y-120275000D01*
G75*
G02*
X105695000Y-120100000I0J175000D01*
G01*
X105695000Y-119180000D01*
G75*
G02*
X105870000Y-119005000I175000J0D01*
G01*
G37*
%TD.AperFunction*%
%TA.AperFunction,SMDPad,CuDef*%
G36*
G01*
X107140000Y-119005000D02*
X107490000Y-119005000D01*
G75*
G02*
X107665000Y-119180000I0J-175000D01*
G01*
X107665000Y-120100000D01*
G75*
G02*
X107490000Y-120275000I-175000J0D01*
G01*
X107140000Y-120275000D01*
G75*
G02*
X106965000Y-120100000I0J175000D01*
G01*
X106965000Y-119180000D01*
G75*
G02*
X107140000Y-119005000I175000J0D01*
G01*
G37*
%TD.AperFunction*%
D10*
%TO.P,Q6,9*%
%TO.N,N/C*%
X105410000Y-123440000D03*
X105410000Y-121440000D03*
X106680000Y-123440000D03*
X106680000Y-121440000D03*
X107950000Y-123440000D03*
X107950000Y-121440000D03*
D11*
X106680000Y-122440000D03*
%TO.P,Q6,3*%
%TO.N,M-*%
%TA.AperFunction,SMDPad,CuDef*%
G36*
G01*
X108410000Y-124605000D02*
X108760000Y-124605000D01*
G75*
G02*
X108935000Y-124780000I0J-175000D01*
G01*
X108935000Y-125700000D01*
G75*
G02*
X108760000Y-125875000I-175000J0D01*
G01*
X108410000Y-125875000D01*
G75*
G02*
X108235000Y-125700000I0J175000D01*
G01*
X108235000Y-124780000D01*
G75*
G02*
X108410000Y-124605000I175000J0D01*
G01*
G37*
%TD.AperFunction*%
%TA.AperFunction,SMDPad,CuDef*%
G36*
G01*
X107140000Y-124605000D02*
X107490000Y-124605000D01*
G75*
G02*
X107665000Y-124780000I0J-175000D01*
G01*
X107665000Y-125700000D01*
G75*
G02*
X107490000Y-125875000I-175000J0D01*
G01*
X107140000Y-125875000D01*
G75*
G02*
X106965000Y-125700000I0J175000D01*
G01*
X106965000Y-124780000D01*
G75*
G02*
X107140000Y-124605000I175000J0D01*
G01*
G37*
%TD.AperFunction*%
%TA.AperFunction,SMDPad,CuDef*%
G36*
G01*
X105870000Y-124605000D02*
X106220000Y-124605000D01*
G75*
G02*
X106395000Y-124780000I0J-175000D01*
G01*
X106395000Y-125700000D01*
G75*
G02*
X106220000Y-125875000I-175000J0D01*
G01*
X105870000Y-125875000D01*
G75*
G02*
X105695000Y-125700000I0J175000D01*
G01*
X105695000Y-124780000D01*
G75*
G02*
X105870000Y-124605000I175000J0D01*
G01*
G37*
%TD.AperFunction*%
%TA.AperFunction,SMDPad,CuDef*%
G36*
G01*
X104600000Y-124605000D02*
X104950000Y-124605000D01*
G75*
G02*
X105125000Y-124780000I0J-175000D01*
G01*
X105125000Y-125700000D01*
G75*
G02*
X104950000Y-125875000I-175000J0D01*
G01*
X104600000Y-125875000D01*
G75*
G02*
X104425000Y-125700000I0J175000D01*
G01*
X104425000Y-124780000D01*
G75*
G02*
X104600000Y-124605000I175000J0D01*
G01*
G37*
%TD.AperFunction*%
%TO.P,Q6,1*%
%TO.N,HV-*%
%TA.AperFunction,SMDPad,CuDef*%
G36*
G01*
X108410000Y-119005000D02*
X108760000Y-119005000D01*
G75*
G02*
X108935000Y-119180000I0J-175000D01*
G01*
X108935000Y-120100000D01*
G75*
G02*
X108760000Y-120275000I-175000J0D01*
G01*
X108410000Y-120275000D01*
G75*
G02*
X108235000Y-120100000I0J175000D01*
G01*
X108235000Y-119180000D01*
G75*
G02*
X108410000Y-119005000I175000J0D01*
G01*
G37*
%TD.AperFunction*%
%TD*%
D12*
%TO.P,REF\u002A\u002A,1*%
%TO.N,N/C*%
X122930825Y-116859175D03*
X121605000Y-116310000D03*
X120279175Y-116859175D03*
X119730000Y-118185000D03*
X120279175Y-119510825D03*
X121605000Y-120060000D03*
X122930825Y-119510825D03*
X123480000Y-118185000D03*
D13*
X121605000Y-118185000D03*
%TD*%
D12*
%TO.P,REF\u002A\u002A,1*%
%TO.N,N/C*%
X122930825Y-155859175D03*
X121605000Y-155310000D03*
X120279175Y-155859175D03*
X119730000Y-157185000D03*
X120279175Y-158510825D03*
X121605000Y-159060000D03*
X122930825Y-158510825D03*
X123480000Y-157185000D03*
D13*
X121605000Y-157185000D03*
%TD*%
%TO.P,REF\u002A\u002A,1*%
%TO.N,N/C*%
X66605000Y-157185000D03*
D12*
X68480000Y-157185000D03*
X67930825Y-158510825D03*
X66605000Y-159060000D03*
X65279175Y-158510825D03*
X64730000Y-157185000D03*
X65279175Y-155859175D03*
X66605000Y-155310000D03*
X67930825Y-155859175D03*
%TD*%
%TO.P,REF\u002A\u002A,1*%
%TO.N,N/C*%
X67930825Y-116550550D03*
X66605000Y-116001375D03*
X65279175Y-116550550D03*
X64730000Y-117876375D03*
X65279175Y-119202200D03*
X66605000Y-119751375D03*
X67930825Y-119202200D03*
X68480000Y-117876375D03*
D13*
X66605000Y-117876375D03*
%TD*%
%TO.P,C5,2*%
%TO.N,M-*%
%TA.AperFunction,SMDPad,CuDef*%
G36*
G01*
X82180000Y-123534999D02*
X82180000Y-124835001D01*
G75*
G02*
X81930001Y-125085000I-249999J0D01*
G01*
X81279999Y-125085000D01*
G75*
G02*
X81030000Y-124835001I0J249999D01*
G01*
X81030000Y-123534999D01*
G75*
G02*
X81279999Y-123285000I249999J0D01*
G01*
X81930001Y-123285000D01*
G75*
G02*
X82180000Y-123534999I0J-249999D01*
G01*
G37*
%TD.AperFunction*%
%TO.P,C5,1*%
%TO.N,Net-(C5-Pad1)*%
%TA.AperFunction,SMDPad,CuDef*%
G36*
G01*
X85130000Y-123534999D02*
X85130000Y-124835001D01*
G75*
G02*
X84880001Y-125085000I-249999J0D01*
G01*
X84229999Y-125085000D01*
G75*
G02*
X83980000Y-124835001I0J249999D01*
G01*
X83980000Y-123534999D01*
G75*
G02*
X84229999Y-123285000I249999J0D01*
G01*
X84880001Y-123285000D01*
G75*
G02*
X85130000Y-123534999I0J-249999D01*
G01*
G37*
%TD.AperFunction*%
%TD*%
%TO.P,C3,2*%
%TO.N,M+*%
%TA.AperFunction,SMDPad,CuDef*%
G36*
G01*
X82180000Y-143534999D02*
X82180000Y-144835001D01*
G75*
G02*
X81930001Y-145085000I-249999J0D01*
G01*
X81279999Y-145085000D01*
G75*
G02*
X81030000Y-144835001I0J249999D01*
G01*
X81030000Y-143534999D01*
G75*
G02*
X81279999Y-143285000I249999J0D01*
G01*
X81930001Y-143285000D01*
G75*
G02*
X82180000Y-143534999I0J-249999D01*
G01*
G37*
%TD.AperFunction*%
%TO.P,C3,1*%
%TO.N,Net-(C3-Pad1)*%
%TA.AperFunction,SMDPad,CuDef*%
G36*
G01*
X85130000Y-143534999D02*
X85130000Y-144835001D01*
G75*
G02*
X84880001Y-145085000I-249999J0D01*
G01*
X84229999Y-145085000D01*
G75*
G02*
X83980000Y-144835001I0J249999D01*
G01*
X83980000Y-143534999D01*
G75*
G02*
X84229999Y-143285000I249999J0D01*
G01*
X84880001Y-143285000D01*
G75*
G02*
X85130000Y-143534999I0J-249999D01*
G01*
G37*
%TD.AperFunction*%
%TD*%
D14*
%TO.P,J5,2*%
%TO.N,+3V3*%
X65105000Y-151265000D03*
D15*
%TO.P,J5,1*%
%TO.N,GND*%
X65105000Y-146185000D03*
%TD*%
D14*
%TO.P,J4,2*%
%TO.N,PWM1*%
X65105000Y-140185000D03*
D15*
%TO.P,J4,1*%
%TO.N,PWM0*%
X65105000Y-135105000D03*
%TD*%
D14*
%TO.P,J3,2*%
%TO.N,+12V*%
X65105000Y-129185000D03*
D15*
%TO.P,J3,1*%
%TO.N,Net-(J3-Pad1)*%
X65105000Y-124105000D03*
%TD*%
D14*
%TO.P,J2,2*%
%TO.N,M-*%
X118745000Y-128270000D03*
D15*
%TO.P,J2,1*%
%TO.N,HV-*%
X118745000Y-133350000D03*
%TD*%
D14*
%TO.P,J1,2*%
%TO.N,HV+*%
X118745000Y-141351000D03*
D15*
%TO.P,J1,1*%
%TO.N,M+*%
X118745000Y-146431000D03*
%TD*%
%TO.P,C7,2*%
%TO.N,M-*%
%TA.AperFunction,SMDPad,CuDef*%
G36*
G01*
X83505000Y-120935000D02*
X83505000Y-121435000D01*
G75*
G02*
X83280000Y-121660000I-225000J0D01*
G01*
X82830000Y-121660000D01*
G75*
G02*
X82605000Y-121435000I0J225000D01*
G01*
X82605000Y-120935000D01*
G75*
G02*
X82830000Y-120710000I225000J0D01*
G01*
X83280000Y-120710000D01*
G75*
G02*
X83505000Y-120935000I0J-225000D01*
G01*
G37*
%TD.AperFunction*%
%TO.P,C7,1*%
%TO.N,Net-(C5-Pad1)*%
%TA.AperFunction,SMDPad,CuDef*%
G36*
G01*
X85055000Y-120935000D02*
X85055000Y-121435000D01*
G75*
G02*
X84830000Y-121660000I-225000J0D01*
G01*
X84380000Y-121660000D01*
G75*
G02*
X84155000Y-121435000I0J225000D01*
G01*
X84155000Y-120935000D01*
G75*
G02*
X84380000Y-120710000I225000J0D01*
G01*
X84830000Y-120710000D01*
G75*
G02*
X85055000Y-120935000I0J-225000D01*
G01*
G37*
%TD.AperFunction*%
%TD*%
%TO.P,C4,2*%
%TO.N,M+*%
%TA.AperFunction,SMDPad,CuDef*%
G36*
G01*
X83505000Y-140935000D02*
X83505000Y-141435000D01*
G75*
G02*
X83280000Y-141660000I-225000J0D01*
G01*
X82830000Y-141660000D01*
G75*
G02*
X82605000Y-141435000I0J225000D01*
G01*
X82605000Y-140935000D01*
G75*
G02*
X82830000Y-140710000I225000J0D01*
G01*
X83280000Y-140710000D01*
G75*
G02*
X83505000Y-140935000I0J-225000D01*
G01*
G37*
%TD.AperFunction*%
%TO.P,C4,1*%
%TO.N,Net-(C3-Pad1)*%
%TA.AperFunction,SMDPad,CuDef*%
G36*
G01*
X85055000Y-140935000D02*
X85055000Y-141435000D01*
G75*
G02*
X84830000Y-141660000I-225000J0D01*
G01*
X84380000Y-141660000D01*
G75*
G02*
X84155000Y-141435000I0J225000D01*
G01*
X84155000Y-140935000D01*
G75*
G02*
X84380000Y-140710000I225000J0D01*
G01*
X84830000Y-140710000D01*
G75*
G02*
X85055000Y-140935000I0J-225000D01*
G01*
G37*
%TD.AperFunction*%
%TD*%
D16*
%TO.P,D1,2*%
%TO.N,+12V*%
X77605000Y-144185000D03*
%TO.P,D1,1*%
%TO.N,Net-(C3-Pad1)*%
X77605000Y-139385000D03*
%TD*%
%TO.P,C10,2*%
%TO.N,GND*%
%TA.AperFunction,SMDPad,CuDef*%
G36*
G01*
X73205000Y-128710000D02*
X73205000Y-129660000D01*
G75*
G02*
X72955000Y-129910000I-250000J0D01*
G01*
X72455000Y-129910000D01*
G75*
G02*
X72205000Y-129660000I0J250000D01*
G01*
X72205000Y-128710000D01*
G75*
G02*
X72455000Y-128460000I250000J0D01*
G01*
X72955000Y-128460000D01*
G75*
G02*
X73205000Y-128710000I0J-250000D01*
G01*
G37*
%TD.AperFunction*%
%TO.P,C10,1*%
%TO.N,+3V3*%
%TA.AperFunction,SMDPad,CuDef*%
G36*
G01*
X75105000Y-128710000D02*
X75105000Y-129660000D01*
G75*
G02*
X74855000Y-129910000I-250000J0D01*
G01*
X74355000Y-129910000D01*
G75*
G02*
X74105000Y-129660000I0J250000D01*
G01*
X74105000Y-128710000D01*
G75*
G02*
X74355000Y-128460000I250000J0D01*
G01*
X74855000Y-128460000D01*
G75*
G02*
X75105000Y-128710000I0J-250000D01*
G01*
G37*
%TD.AperFunction*%
%TD*%
%TO.P,C9,2*%
%TO.N,GND*%
%TA.AperFunction,SMDPad,CuDef*%
G36*
G01*
X73505000Y-126435000D02*
X73505000Y-126935000D01*
G75*
G02*
X73280000Y-127160000I-225000J0D01*
G01*
X72830000Y-127160000D01*
G75*
G02*
X72605000Y-126935000I0J225000D01*
G01*
X72605000Y-126435000D01*
G75*
G02*
X72830000Y-126210000I225000J0D01*
G01*
X73280000Y-126210000D01*
G75*
G02*
X73505000Y-126435000I0J-225000D01*
G01*
G37*
%TD.AperFunction*%
%TO.P,C9,1*%
%TO.N,+3V3*%
%TA.AperFunction,SMDPad,CuDef*%
G36*
G01*
X75055000Y-126435000D02*
X75055000Y-126935000D01*
G75*
G02*
X74830000Y-127160000I-225000J0D01*
G01*
X74380000Y-127160000D01*
G75*
G02*
X74155000Y-126935000I0J225000D01*
G01*
X74155000Y-126435000D01*
G75*
G02*
X74380000Y-126210000I225000J0D01*
G01*
X74830000Y-126210000D01*
G75*
G02*
X75055000Y-126435000I0J-225000D01*
G01*
G37*
%TD.AperFunction*%
%TD*%
%TO.P,C2,2*%
%TO.N,GND*%
%TA.AperFunction,SMDPad,CuDef*%
G36*
G01*
X73505000Y-146435000D02*
X73505000Y-146935000D01*
G75*
G02*
X73280000Y-147160000I-225000J0D01*
G01*
X72830000Y-147160000D01*
G75*
G02*
X72605000Y-146935000I0J225000D01*
G01*
X72605000Y-146435000D01*
G75*
G02*
X72830000Y-146210000I225000J0D01*
G01*
X73280000Y-146210000D01*
G75*
G02*
X73505000Y-146435000I0J-225000D01*
G01*
G37*
%TD.AperFunction*%
%TO.P,C2,1*%
%TO.N,+3V3*%
%TA.AperFunction,SMDPad,CuDef*%
G36*
G01*
X75055000Y-146435000D02*
X75055000Y-146935000D01*
G75*
G02*
X74830000Y-147160000I-225000J0D01*
G01*
X74380000Y-147160000D01*
G75*
G02*
X74155000Y-146935000I0J225000D01*
G01*
X74155000Y-146435000D01*
G75*
G02*
X74380000Y-146210000I225000J0D01*
G01*
X74830000Y-146210000D01*
G75*
G02*
X75055000Y-146435000I0J-225000D01*
G01*
G37*
%TD.AperFunction*%
%TD*%
%TO.P,C1,2*%
%TO.N,GND*%
%TA.AperFunction,SMDPad,CuDef*%
G36*
G01*
X73205000Y-148710000D02*
X73205000Y-149660000D01*
G75*
G02*
X72955000Y-149910000I-250000J0D01*
G01*
X72455000Y-149910000D01*
G75*
G02*
X72205000Y-149660000I0J250000D01*
G01*
X72205000Y-148710000D01*
G75*
G02*
X72455000Y-148460000I250000J0D01*
G01*
X72955000Y-148460000D01*
G75*
G02*
X73205000Y-148710000I0J-250000D01*
G01*
G37*
%TD.AperFunction*%
%TO.P,C1,1*%
%TO.N,+3V3*%
%TA.AperFunction,SMDPad,CuDef*%
G36*
G01*
X75105000Y-148710000D02*
X75105000Y-149660000D01*
G75*
G02*
X74855000Y-149910000I-250000J0D01*
G01*
X74355000Y-149910000D01*
G75*
G02*
X74105000Y-149660000I0J250000D01*
G01*
X74105000Y-148710000D01*
G75*
G02*
X74355000Y-148460000I250000J0D01*
G01*
X74855000Y-148460000D01*
G75*
G02*
X75105000Y-148710000I0J-250000D01*
G01*
G37*
%TD.AperFunction*%
%TD*%
D17*
%TO.P,D3,2*%
%TO.N,Net-(D3-Pad2)*%
X96520000Y-148860000D03*
%TO.P,D3,1*%
%TO.N,Net-(D3-Pad1)*%
X91720000Y-148860000D03*
%TD*%
D18*
%TO.P,D10,2*%
%TO.N,HV-*%
X111125000Y-123565000D03*
%TO.P,D10,1*%
%TO.N,M-*%
X111125000Y-126365000D03*
%TD*%
%TO.P,D8,2*%
%TO.N,M-*%
X111125000Y-128270000D03*
%TO.P,D8,1*%
%TO.N,HV+*%
X111125000Y-131070000D03*
%TD*%
%TO.P,D7,2*%
%TO.N,HV-*%
X111125000Y-143250000D03*
%TO.P,D7,1*%
%TO.N,M+*%
X111125000Y-146050000D03*
%TD*%
%TO.P,D2,2*%
%TO.N,M+*%
X111125000Y-147955000D03*
%TO.P,D2,1*%
%TO.N,HV+*%
X111125000Y-150755000D03*
%TD*%
%TO.P,R17,2*%
%TO.N,Net-(D3-Pad2)*%
%TA.AperFunction,SMDPad,CuDef*%
G36*
G01*
X102390001Y-149472500D02*
X99539999Y-149472500D01*
G75*
G02*
X99290000Y-149222501I0J249999D01*
G01*
X99290000Y-148497499D01*
G75*
G02*
X99539999Y-148247500I249999J0D01*
G01*
X102390001Y-148247500D01*
G75*
G02*
X102640000Y-148497499I0J-249999D01*
G01*
X102640000Y-149222501D01*
G75*
G02*
X102390001Y-149472500I-249999J0D01*
G01*
G37*
%TD.AperFunction*%
%TO.P,R17,1*%
%TO.N,M+*%
%TA.AperFunction,SMDPad,CuDef*%
G36*
G01*
X102390001Y-155397500D02*
X99539999Y-155397500D01*
G75*
G02*
X99290000Y-155147501I0J249999D01*
G01*
X99290000Y-154422499D01*
G75*
G02*
X99539999Y-154172500I249999J0D01*
G01*
X102390001Y-154172500D01*
G75*
G02*
X102640000Y-154422499I0J-249999D01*
G01*
X102640000Y-155147501D01*
G75*
G02*
X102390001Y-155397500I-249999J0D01*
G01*
G37*
%TD.AperFunction*%
%TD*%
%TO.P,R10,2*%
%TO.N,Net-(D4-Pad2)*%
%TA.AperFunction,SMDPad,CuDef*%
G36*
G01*
X95907500Y-145205001D02*
X95907500Y-142354999D01*
G75*
G02*
X96157499Y-142105000I249999J0D01*
G01*
X96882501Y-142105000D01*
G75*
G02*
X97132500Y-142354999I0J-249999D01*
G01*
X97132500Y-145205001D01*
G75*
G02*
X96882501Y-145455000I-249999J0D01*
G01*
X96157499Y-145455000D01*
G75*
G02*
X95907500Y-145205001I0J249999D01*
G01*
G37*
%TD.AperFunction*%
%TO.P,R10,1*%
%TO.N,Net-(D4-Pad1)*%
%TA.AperFunction,SMDPad,CuDef*%
G36*
G01*
X89982500Y-145205001D02*
X89982500Y-142354999D01*
G75*
G02*
X90232499Y-142105000I249999J0D01*
G01*
X90957501Y-142105000D01*
G75*
G02*
X91207500Y-142354999I0J-249999D01*
G01*
X91207500Y-145205001D01*
G75*
G02*
X90957501Y-145455000I-249999J0D01*
G01*
X90232499Y-145455000D01*
G75*
G02*
X89982500Y-145205001I0J249999D01*
G01*
G37*
%TD.AperFunction*%
%TD*%
%TO.P,R9,2*%
%TO.N,Net-(D3-Pad2)*%
%TA.AperFunction,SMDPad,CuDef*%
G36*
G01*
X95907500Y-155365001D02*
X95907500Y-152514999D01*
G75*
G02*
X96157499Y-152265000I249999J0D01*
G01*
X96882501Y-152265000D01*
G75*
G02*
X97132500Y-152514999I0J-249999D01*
G01*
X97132500Y-155365001D01*
G75*
G02*
X96882501Y-155615000I-249999J0D01*
G01*
X96157499Y-155615000D01*
G75*
G02*
X95907500Y-155365001I0J249999D01*
G01*
G37*
%TD.AperFunction*%
%TO.P,R9,1*%
%TO.N,Net-(D3-Pad1)*%
%TA.AperFunction,SMDPad,CuDef*%
G36*
G01*
X89982500Y-155365001D02*
X89982500Y-152514999D01*
G75*
G02*
X90232499Y-152265000I249999J0D01*
G01*
X90957501Y-152265000D01*
G75*
G02*
X91207500Y-152514999I0J-249999D01*
G01*
X91207500Y-155365001D01*
G75*
G02*
X90957501Y-155615000I-249999J0D01*
G01*
X90232499Y-155615000D01*
G75*
G02*
X89982500Y-155365001I0J249999D01*
G01*
G37*
%TD.AperFunction*%
%TD*%
%TO.P,R5,2*%
%TO.N,Net-(D6-Pad2)*%
%TA.AperFunction,SMDPad,CuDef*%
G36*
G01*
X95907500Y-125345001D02*
X95907500Y-122494999D01*
G75*
G02*
X96157499Y-122245000I249999J0D01*
G01*
X96882501Y-122245000D01*
G75*
G02*
X97132500Y-122494999I0J-249999D01*
G01*
X97132500Y-125345001D01*
G75*
G02*
X96882501Y-125595000I-249999J0D01*
G01*
X96157499Y-125595000D01*
G75*
G02*
X95907500Y-125345001I0J249999D01*
G01*
G37*
%TD.AperFunction*%
%TO.P,R5,1*%
%TO.N,Net-(D6-Pad1)*%
%TA.AperFunction,SMDPad,CuDef*%
G36*
G01*
X89982500Y-125345001D02*
X89982500Y-122494999D01*
G75*
G02*
X90232499Y-122245000I249999J0D01*
G01*
X90957501Y-122245000D01*
G75*
G02*
X91207500Y-122494999I0J-249999D01*
G01*
X91207500Y-125345001D01*
G75*
G02*
X90957501Y-125595000I-249999J0D01*
G01*
X90232499Y-125595000D01*
G75*
G02*
X89982500Y-125345001I0J249999D01*
G01*
G37*
%TD.AperFunction*%
%TD*%
%TO.P,R4,2*%
%TO.N,Net-(D5-Pad2)*%
%TA.AperFunction,SMDPad,CuDef*%
G36*
G01*
X95907500Y-135505001D02*
X95907500Y-132654999D01*
G75*
G02*
X96157499Y-132405000I249999J0D01*
G01*
X96882501Y-132405000D01*
G75*
G02*
X97132500Y-132654999I0J-249999D01*
G01*
X97132500Y-135505001D01*
G75*
G02*
X96882501Y-135755000I-249999J0D01*
G01*
X96157499Y-135755000D01*
G75*
G02*
X95907500Y-135505001I0J249999D01*
G01*
G37*
%TD.AperFunction*%
%TO.P,R4,1*%
%TO.N,Net-(D5-Pad1)*%
%TA.AperFunction,SMDPad,CuDef*%
G36*
G01*
X89982500Y-135505001D02*
X89982500Y-132654999D01*
G75*
G02*
X90232499Y-132405000I249999J0D01*
G01*
X90957501Y-132405000D01*
G75*
G02*
X91207500Y-132654999I0J-249999D01*
G01*
X91207500Y-135505001D01*
G75*
G02*
X90957501Y-135755000I-249999J0D01*
G01*
X90232499Y-135755000D01*
G75*
G02*
X89982500Y-135505001I0J249999D01*
G01*
G37*
%TD.AperFunction*%
%TD*%
%TO.P,R3,2*%
%TO.N,Net-(D6-Pad2)*%
%TA.AperFunction,SMDPad,CuDef*%
G36*
G01*
X102390001Y-119452500D02*
X99539999Y-119452500D01*
G75*
G02*
X99290000Y-119202501I0J249999D01*
G01*
X99290000Y-118477499D01*
G75*
G02*
X99539999Y-118227500I249999J0D01*
G01*
X102390001Y-118227500D01*
G75*
G02*
X102640000Y-118477499I0J-249999D01*
G01*
X102640000Y-119202501D01*
G75*
G02*
X102390001Y-119452500I-249999J0D01*
G01*
G37*
%TD.AperFunction*%
%TO.P,R3,1*%
%TO.N,HV-*%
%TA.AperFunction,SMDPad,CuDef*%
G36*
G01*
X102390001Y-125377500D02*
X99539999Y-125377500D01*
G75*
G02*
X99290000Y-125127501I0J249999D01*
G01*
X99290000Y-124402499D01*
G75*
G02*
X99539999Y-124152500I249999J0D01*
G01*
X102390001Y-124152500D01*
G75*
G02*
X102640000Y-124402499I0J-249999D01*
G01*
X102640000Y-125127501D01*
G75*
G02*
X102390001Y-125377500I-249999J0D01*
G01*
G37*
%TD.AperFunction*%
%TD*%
%TO.P,R2,2*%
%TO.N,Net-(D5-Pad2)*%
%TA.AperFunction,SMDPad,CuDef*%
G36*
G01*
X102390001Y-129612500D02*
X99539999Y-129612500D01*
G75*
G02*
X99290000Y-129362501I0J249999D01*
G01*
X99290000Y-128637499D01*
G75*
G02*
X99539999Y-128387500I249999J0D01*
G01*
X102390001Y-128387500D01*
G75*
G02*
X102640000Y-128637499I0J-249999D01*
G01*
X102640000Y-129362501D01*
G75*
G02*
X102390001Y-129612500I-249999J0D01*
G01*
G37*
%TD.AperFunction*%
%TO.P,R2,1*%
%TO.N,M-*%
%TA.AperFunction,SMDPad,CuDef*%
G36*
G01*
X102390001Y-135537500D02*
X99539999Y-135537500D01*
G75*
G02*
X99290000Y-135287501I0J249999D01*
G01*
X99290000Y-134562499D01*
G75*
G02*
X99539999Y-134312500I249999J0D01*
G01*
X102390001Y-134312500D01*
G75*
G02*
X102640000Y-134562499I0J-249999D01*
G01*
X102640000Y-135287501D01*
G75*
G02*
X102390001Y-135537500I-249999J0D01*
G01*
G37*
%TD.AperFunction*%
%TD*%
%TO.P,R1,2*%
%TO.N,Net-(D4-Pad2)*%
%TA.AperFunction,SMDPad,CuDef*%
G36*
G01*
X102390001Y-139312500D02*
X99539999Y-139312500D01*
G75*
G02*
X99290000Y-139062501I0J249999D01*
G01*
X99290000Y-138337499D01*
G75*
G02*
X99539999Y-138087500I249999J0D01*
G01*
X102390001Y-138087500D01*
G75*
G02*
X102640000Y-138337499I0J-249999D01*
G01*
X102640000Y-139062501D01*
G75*
G02*
X102390001Y-139312500I-249999J0D01*
G01*
G37*
%TD.AperFunction*%
%TO.P,R1,1*%
%TO.N,HV-*%
%TA.AperFunction,SMDPad,CuDef*%
G36*
G01*
X102390001Y-145237500D02*
X99539999Y-145237500D01*
G75*
G02*
X99290000Y-144987501I0J249999D01*
G01*
X99290000Y-144262499D01*
G75*
G02*
X99539999Y-144012500I249999J0D01*
G01*
X102390001Y-144012500D01*
G75*
G02*
X102640000Y-144262499I0J-249999D01*
G01*
X102640000Y-144987501D01*
G75*
G02*
X102390001Y-145237500I-249999J0D01*
G01*
G37*
%TD.AperFunction*%
%TD*%
D16*
%TO.P,D9,2*%
%TO.N,+12V*%
X76605000Y-124185000D03*
%TO.P,D9,1*%
%TO.N,Net-(C5-Pad1)*%
X76605000Y-119385000D03*
%TD*%
D17*
%TO.P,D6,2*%
%TO.N,Net-(D6-Pad2)*%
X96520000Y-118840000D03*
%TO.P,D6,1*%
%TO.N,Net-(D6-Pad1)*%
X91720000Y-118840000D03*
%TD*%
%TO.P,D5,2*%
%TO.N,Net-(D5-Pad2)*%
X96520000Y-129000000D03*
%TO.P,D5,1*%
%TO.N,Net-(D5-Pad1)*%
X91720000Y-129000000D03*
%TD*%
%TO.P,D4,2*%
%TO.N,Net-(D4-Pad2)*%
X96520000Y-138700000D03*
%TO.P,D4,1*%
%TO.N,Net-(D4-Pad1)*%
X91720000Y-138700000D03*
%TD*%
D19*
%TO.N,GND*%
X71605000Y-158185000D03*
X74105000Y-158185000D03*
X76605000Y-158185000D03*
X79105000Y-158185000D03*
X81605000Y-158185000D03*
X84105000Y-158185000D03*
X86605000Y-158185000D03*
X89105000Y-158185000D03*
X91605000Y-158185000D03*
X94105000Y-158185000D03*
X96605000Y-158185000D03*
X101605000Y-158185000D03*
X99105000Y-158185000D03*
X104105000Y-158185000D03*
X106605000Y-158185000D03*
X109105000Y-158185000D03*
X111605000Y-158185000D03*
X114105000Y-158185000D03*
X116605000Y-158185000D03*
X114065000Y-155685000D03*
X125208000Y-150685000D03*
X125208000Y-148185000D03*
X125208000Y-145685000D03*
X125208000Y-143185000D03*
X125208000Y-140685000D03*
X125208000Y-138185000D03*
X125208000Y-135685000D03*
X125208000Y-133185000D03*
X125208000Y-130685000D03*
X125208000Y-128185000D03*
X125208000Y-125685000D03*
X125208000Y-123185000D03*
X116605000Y-115685000D03*
X116605000Y-118185000D03*
X114105000Y-115685000D03*
X109105000Y-115685000D03*
X111605000Y-115685000D03*
X106605000Y-115685000D03*
X104105000Y-115685000D03*
X101605000Y-115685000D03*
X99105000Y-115685000D03*
X94105000Y-115685000D03*
X96605000Y-115685000D03*
X91605000Y-115685000D03*
X86605000Y-115685000D03*
X89105000Y-115685000D03*
X84105000Y-115685000D03*
X79105000Y-115685000D03*
X81605000Y-115685000D03*
X76605000Y-115685000D03*
X74105000Y-115685000D03*
X71605000Y-115685000D03*
X71605000Y-118185000D03*
X74105000Y-118185000D03*
X71605000Y-120685000D03*
X74105000Y-120685000D03*
X69105000Y-120685000D03*
X69105000Y-123185000D03*
X61605000Y-123185000D03*
X94105000Y-118185000D03*
X94105000Y-120685000D03*
X94105000Y-123185000D03*
X94105000Y-125685000D03*
X94105000Y-128185000D03*
X94105000Y-133185000D03*
X94105000Y-135685000D03*
X94105000Y-138185000D03*
X94105000Y-140685000D03*
X94105000Y-143185000D03*
X94105000Y-145685000D03*
X94105000Y-148185000D03*
X94105000Y-153185000D03*
X94105000Y-155685000D03*
X84105000Y-130685000D03*
X81605000Y-130685000D03*
X81605000Y-135685000D03*
X84105000Y-135685000D03*
X84105000Y-150685000D03*
X81605000Y-150685000D03*
X81605000Y-155685000D03*
X84105000Y-155685000D03*
X99105000Y-140685000D03*
X101605000Y-140685000D03*
X99105000Y-130685000D03*
X101605000Y-130685000D03*
X99105000Y-133185000D03*
X101605000Y-133185000D03*
X99105000Y-120685000D03*
X101605000Y-120685000D03*
X99105000Y-150685000D03*
X101605000Y-150685000D03*
X99105000Y-153185000D03*
X101605000Y-153185000D03*
X73605000Y-137185000D03*
X73605000Y-139185000D03*
X73605000Y-141185000D03*
X73605000Y-144185000D03*
X100605000Y-142185000D03*
X102605000Y-142185000D03*
X101605000Y-146185000D03*
X99605000Y-146185000D03*
X98605000Y-137185000D03*
X98605000Y-127185000D03*
X101605000Y-127185000D03*
X100605000Y-122185000D03*
X102605000Y-122185000D03*
X121065000Y-122185000D03*
X121065000Y-153185000D03*
X73605000Y-155185000D03*
X70605000Y-155185000D03*
X68605000Y-153185000D03*
X77605000Y-122185000D03*
X75605000Y-122185000D03*
X79605000Y-123185000D03*
X78105000Y-141685000D03*
X76105000Y-141685000D03*
X82105000Y-137685000D03*
X83105000Y-152185000D03*
X80105000Y-154185000D03*
X94105000Y-130185000D03*
X94105000Y-150185000D03*
X61605000Y-135685000D03*
X61605000Y-125685000D03*
X61605000Y-128185000D03*
X61605000Y-133185000D03*
X61605000Y-130685000D03*
X61605000Y-140685000D03*
X61605000Y-138185000D03*
X61605000Y-148185000D03*
X61605000Y-153185000D03*
X61605000Y-150685000D03*
X61605000Y-145685000D03*
X61605000Y-143185000D03*
X68605000Y-150185000D03*
X68605000Y-147185000D03*
X68605000Y-144185000D03*
X68605000Y-141185000D03*
X68605000Y-138185000D03*
X68605000Y-136185000D03*
X68605000Y-133185000D03*
X68605000Y-130185000D03*
X68605000Y-128185000D03*
X70605000Y-128185000D03*
X70605000Y-130185000D03*
X73605000Y-135185000D03*
X74605000Y-152185000D03*
X61605000Y-158185000D03*
X61605000Y-155685000D03*
X61605000Y-115685000D03*
X61605000Y-118185000D03*
X61605000Y-120685000D03*
X86605000Y-118185000D03*
X89105000Y-118185000D03*
X86605000Y-120685000D03*
X89105000Y-120685000D03*
X86605000Y-123185000D03*
X86605000Y-125185000D03*
X86605000Y-138185000D03*
X89105000Y-138185000D03*
X86605000Y-140685000D03*
X89105000Y-140185000D03*
X86605000Y-143185000D03*
X86605000Y-145185000D03*
X111605000Y-118185000D03*
X114105000Y-118185000D03*
X114105000Y-120685000D03*
X116605000Y-120685000D03*
X121605000Y-133185000D03*
X121605000Y-135685000D03*
X121605000Y-138185000D03*
X121605000Y-140685000D03*
X124105000Y-153185000D03*
X116605000Y-153185000D03*
X116605000Y-155685000D03*
X114105000Y-153185000D03*
X114105000Y-133185000D03*
X114105000Y-130685000D03*
X116605000Y-130685000D03*
X114105000Y-144145000D03*
X116967000Y-143637000D03*
X114427000Y-140843000D03*
X108331000Y-137795000D03*
X111379000Y-136525000D03*
X111125000Y-138049000D03*
X103505000Y-146177000D03*
X103251000Y-136525000D03*
X100965000Y-136779000D03*
X100457000Y-152019000D03*
X81661000Y-148209000D03*
X82931000Y-149733000D03*
X81661000Y-140335000D03*
X84201000Y-137795000D03*
X81661000Y-127889000D03*
X82931000Y-129413000D03*
X82169000Y-131953000D03*
X84201000Y-131953000D03*
X83947000Y-117729000D03*
X81661000Y-117729000D03*
X79121000Y-117729000D03*
X107315000Y-137033000D03*
%TO.N,+12V*%
X80264000Y-137541000D03*
X80264000Y-145669000D03*
%TO.N,Net-(D6-Pad1)*%
X89027000Y-135255000D03*
X89027000Y-123825000D03*
%TO.N,+3V3*%
X74549000Y-142621000D03*
X72771000Y-131185000D03*
%TO.N,M+*%
X97790000Y-151400000D03*
X90170000Y-149860000D03*
X103505000Y-154305000D03*
X104140000Y-147955000D03*
%TO.N,M-*%
X97790000Y-131540000D03*
X90043000Y-129667000D03*
X103505000Y-134620000D03*
X104162396Y-128270000D03*
%TO.N,Net-(D4-Pad1)*%
X88900000Y-154940000D03*
X88900000Y-143510000D03*
%TO.N,HV+*%
X113030000Y-135636000D03*
%TO.N,HV-*%
X103505000Y-124460000D03*
X106045000Y-118110000D03*
X103505000Y-144145000D03*
X106045000Y-137795000D03*
%TO.N,PWM0*%
X71605000Y-135001000D03*
%TD*%
D20*
%TO.N,GND*%
X72705000Y-149185000D02*
X72705000Y-148585000D01*
X73055000Y-148235000D02*
X73055000Y-146685000D01*
X72705000Y-148585000D02*
X73055000Y-148235000D01*
X72705000Y-129185000D02*
X72705000Y-128585000D01*
X73055000Y-128235000D02*
X73055000Y-126685000D01*
X72705000Y-128585000D02*
X73055000Y-128235000D01*
D21*
%TO.N,+12V*%
X76605000Y-124185000D02*
X78465000Y-124185000D01*
X80304990Y-126024990D02*
X80304990Y-132374990D01*
X78465000Y-124185000D02*
X80304990Y-126024990D01*
X81375000Y-133445000D02*
X86470000Y-133445000D01*
X80304990Y-132374990D02*
X81375000Y-133445000D01*
X77605000Y-144185000D02*
X78780000Y-144185000D01*
X80304990Y-137500010D02*
X80264000Y-137541000D01*
X80304990Y-132374990D02*
X80304990Y-137500010D01*
X78780000Y-144185000D02*
X80264000Y-145669000D01*
X81780000Y-153535000D02*
X86605000Y-153535000D01*
X80264000Y-152019000D02*
X81780000Y-153535000D01*
X80264000Y-145669000D02*
X80264000Y-152019000D01*
X70185000Y-124185000D02*
X76605000Y-124185000D01*
X65105000Y-129265000D02*
X70185000Y-124185000D01*
%TO.N,Net-(D5-Pad2)*%
X96520000Y-129000000D02*
X96520000Y-134080000D01*
X96520000Y-129000000D02*
X100965000Y-129000000D01*
X101765000Y-129800000D02*
X104775000Y-129800000D01*
X100965000Y-129000000D02*
X101765000Y-129800000D01*
%TO.N,Net-(D5-Pad1)*%
X91720000Y-133165000D02*
X91720000Y-129000000D01*
X90805000Y-134080000D02*
X91720000Y-133165000D01*
X90595000Y-134080000D02*
X90805000Y-134080000D01*
X89815000Y-127095000D02*
X91720000Y-129000000D01*
X86470000Y-127095000D02*
X89815000Y-127095000D01*
%TO.N,Net-(D6-Pad2)*%
X96520000Y-123920000D02*
X96520000Y-118840000D01*
X96520000Y-118840000D02*
X100965000Y-118840000D01*
X103975000Y-118840000D02*
X104775000Y-119640000D01*
X100965000Y-118840000D02*
X103975000Y-118840000D01*
%TO.N,Net-(D6-Pad1)*%
X91720000Y-122795000D02*
X90595000Y-123920000D01*
X91720000Y-118840000D02*
X91720000Y-122795000D01*
X88297000Y-135985000D02*
X89027000Y-135255000D01*
X86470000Y-135985000D02*
X88297000Y-135985000D01*
X90500000Y-123825000D02*
X90595000Y-123920000D01*
X89027000Y-123825000D02*
X90500000Y-123825000D01*
D20*
%TO.N,+3V3*%
X75055000Y-129635000D02*
X74605000Y-129185000D01*
X77170000Y-129635000D02*
X75055000Y-129635000D01*
X75145000Y-149725000D02*
X74605000Y-149185000D01*
X77305000Y-149725000D02*
X75145000Y-149725000D01*
X74523000Y-129185000D02*
X74605000Y-129185000D01*
X74605000Y-129351000D02*
X74605000Y-129185000D01*
X72771000Y-131185000D02*
X74605000Y-129351000D01*
X74605000Y-126685000D02*
X74605000Y-129185000D01*
X74549000Y-149129000D02*
X74605000Y-149185000D01*
X74549000Y-142621000D02*
X74549000Y-149129000D01*
D21*
%TO.N,M+*%
X97790000Y-151400000D02*
X97790000Y-153940000D01*
X98635000Y-154785000D02*
X100965000Y-154785000D01*
X97790000Y-153940000D02*
X98635000Y-154785000D01*
X90035000Y-149725000D02*
X90170000Y-149860000D01*
X86605000Y-149725000D02*
X90035000Y-149725000D01*
X83055000Y-141185000D02*
X82335000Y-141185000D01*
X81605000Y-141915000D02*
X81605000Y-144185000D01*
X82335000Y-141185000D02*
X81605000Y-141915000D01*
X85580000Y-149725000D02*
X86605000Y-149725000D01*
X81605000Y-145750000D02*
X85580000Y-149725000D01*
X81605000Y-144185000D02*
X81605000Y-145750000D01*
D22*
X118160800Y-147015200D02*
X107670600Y-147015200D01*
X118745000Y-146431000D02*
X118160800Y-147015200D01*
D21*
X103025000Y-154785000D02*
X103505000Y-154305000D01*
X100965000Y-154785000D02*
X103025000Y-154785000D01*
X104140000Y-147955000D02*
X106680000Y-147955000D01*
%TO.N,Net-(C3-Pad1)*%
X84605000Y-144135000D02*
X84555000Y-144185000D01*
X84605000Y-141185000D02*
X84605000Y-144135000D01*
X86001456Y-148455000D02*
X86605000Y-148455000D01*
X84555000Y-147008544D02*
X86001456Y-148455000D01*
X84555000Y-144185000D02*
X84555000Y-147008544D01*
X77605000Y-139385000D02*
X83805000Y-139385000D01*
X84605000Y-140185000D02*
X84605000Y-141185000D01*
X83805000Y-139385000D02*
X84605000Y-140185000D01*
%TO.N,M-*%
X97790000Y-134080000D02*
X98635000Y-134925000D01*
X98635000Y-134925000D02*
X100965000Y-134925000D01*
X97790000Y-131540000D02*
X97790000Y-134080000D01*
X90011000Y-129635000D02*
X90043000Y-129667000D01*
X86470000Y-129635000D02*
X90011000Y-129635000D01*
X85725037Y-129635000D02*
X86470000Y-129635000D01*
X81605000Y-125514963D02*
X85725037Y-129635000D01*
X81605000Y-124185000D02*
X81605000Y-125514963D01*
X83055000Y-121185000D02*
X82015000Y-121185000D01*
X81605000Y-121595000D02*
X81605000Y-124185000D01*
X82015000Y-121185000D02*
X81605000Y-121595000D01*
D23*
X111125000Y-126365000D02*
X111125000Y-128270000D01*
D22*
X118745000Y-128270000D02*
X118745000Y-128143000D01*
X117754400Y-127279400D02*
X118745000Y-128270000D01*
X108000800Y-127279400D02*
X117754400Y-127279400D01*
D21*
X100965000Y-134925000D02*
X103200000Y-134925000D01*
X103200000Y-134925000D02*
X103505000Y-134620000D01*
X104162396Y-128270000D02*
X106045000Y-128270000D01*
%TO.N,Net-(D3-Pad2)*%
X96520000Y-148860000D02*
X100965000Y-148860000D01*
X96520000Y-148860000D02*
X96520000Y-153940000D01*
X103975000Y-148860000D02*
X104775000Y-149660000D01*
X100965000Y-148860000D02*
X103975000Y-148860000D01*
%TO.N,Net-(D3-Pad1)*%
X91720000Y-152815000D02*
X90595000Y-153940000D01*
X91720000Y-148860000D02*
X91720000Y-152815000D01*
X90045000Y-147185000D02*
X91720000Y-148860000D01*
X86605000Y-147185000D02*
X90045000Y-147185000D01*
%TO.N,Net-(D4-Pad2)*%
X96520000Y-138700000D02*
X96520000Y-143780000D01*
X96520000Y-138700000D02*
X100965000Y-138700000D01*
X103975000Y-138700000D02*
X104775000Y-139500000D01*
X100965000Y-138700000D02*
X103975000Y-138700000D01*
%TO.N,Net-(D4-Pad1)*%
X91720000Y-142655000D02*
X90595000Y-143780000D01*
X91720000Y-138700000D02*
X91720000Y-142655000D01*
X87765000Y-156075000D02*
X88900000Y-154940000D01*
X86605000Y-156075000D02*
X87765000Y-156075000D01*
X90325000Y-143510000D02*
X90595000Y-143780000D01*
X88900000Y-143510000D02*
X90325000Y-143510000D01*
D24*
%TO.N,HV+*%
X118821002Y-150755000D02*
X111125000Y-150755000D01*
X121045001Y-148531001D02*
X118821002Y-150755000D01*
X121045001Y-143651001D02*
X121045001Y-148531001D01*
X118745000Y-141351000D02*
X121045001Y-143651001D01*
X111125000Y-153900002D02*
X111125000Y-150755000D01*
X109765001Y-155260001D02*
X111125000Y-153900002D01*
X108585000Y-155260000D02*
X109765001Y-155260001D01*
X111125000Y-134040002D02*
X111125000Y-131070000D01*
X109765001Y-135400001D02*
X111125000Y-134040002D01*
X108585000Y-135400000D02*
X109765001Y-135400001D01*
X111434002Y-134040002D02*
X111125000Y-134040002D01*
X113030000Y-135636000D02*
X111434002Y-134040002D01*
%TO.N,HV-*%
X111125000Y-120999998D02*
X111125000Y-123565000D01*
X109765001Y-119639999D02*
X111125000Y-120999998D01*
X108585000Y-119640000D02*
X109765001Y-119639999D01*
X121045001Y-131049999D02*
X118745000Y-133350000D01*
X121045001Y-127261007D02*
X121045001Y-131049999D01*
X117348994Y-123565000D02*
X121045001Y-127261007D01*
X111125000Y-123565000D02*
X117348994Y-123565000D01*
X111125000Y-140859998D02*
X111125000Y-143250000D01*
X109765001Y-139499999D02*
X111125000Y-140859998D01*
X108585000Y-139500000D02*
X109765001Y-139499999D01*
X118634998Y-133350000D02*
X111125000Y-140859998D01*
X118745000Y-133350000D02*
X118634998Y-133350000D01*
D21*
X103200000Y-124765000D02*
X103505000Y-124460000D01*
X100965000Y-124765000D02*
X103200000Y-124765000D01*
X106045000Y-119640000D02*
X106045000Y-118110000D01*
X103025000Y-144625000D02*
X103505000Y-144145000D01*
X100965000Y-144625000D02*
X103025000Y-144625000D01*
X106045000Y-137795000D02*
X106045000Y-139500000D01*
D20*
%TO.N,PWM1*%
X70605000Y-134434590D02*
X70605000Y-139822980D01*
X74134590Y-130905000D02*
X70605000Y-134434590D01*
X77170000Y-130905000D02*
X74134590Y-130905000D01*
X72763000Y-153535000D02*
X77305000Y-153535000D01*
X70605000Y-151377000D02*
X72763000Y-153535000D01*
X70605000Y-139822980D02*
X70605000Y-151377000D01*
X70501000Y-140081000D02*
X70605000Y-140185000D01*
X65105000Y-140081000D02*
X70501000Y-140081000D01*
%TO.N,PWM0*%
X77170000Y-133445000D02*
X73161000Y-133445000D01*
X71605000Y-149623190D02*
X71605000Y-135001000D01*
X77305000Y-150995000D02*
X72976810Y-150995000D01*
X73161000Y-133445000D02*
X71605000Y-135001000D01*
X72976810Y-150995000D02*
X71605000Y-149623190D01*
D21*
%TO.N,Net-(C5-Pad1)*%
X85445000Y-128365000D02*
X86470000Y-128365000D01*
X84555000Y-127475000D02*
X85445000Y-128365000D01*
X84555000Y-124185000D02*
X84555000Y-127475000D01*
X76605000Y-119385000D02*
X83825000Y-119385000D01*
X84605000Y-120165000D02*
X84605000Y-121185000D01*
X83825000Y-119385000D02*
X84605000Y-120165000D01*
X84605000Y-124135000D02*
X84555000Y-124185000D01*
X84605000Y-121185000D02*
X84605000Y-124135000D01*
%TD*%
D25*
%TO.N,HV-*%
X108883651Y-119141467D02*
X108938970Y-119178430D01*
X108975933Y-119233749D01*
X108991400Y-119311509D01*
X108991400Y-119956491D01*
X108975933Y-120034251D01*
X108938970Y-120089570D01*
X108883651Y-120126533D01*
X108805891Y-120142000D01*
X105824109Y-120142000D01*
X105746349Y-120126533D01*
X105691030Y-120089570D01*
X105654067Y-120034251D01*
X105638600Y-119956491D01*
X105638600Y-119311509D01*
X105654067Y-119233749D01*
X105691030Y-119178430D01*
X105746349Y-119141467D01*
X105824109Y-119126000D01*
X108805891Y-119126000D01*
X108883651Y-119141467D01*
%TA.AperFunction,Conductor*%
D26*
G36*
X108883651Y-119141467D02*
G01*
X108938970Y-119178430D01*
X108975933Y-119233749D01*
X108991400Y-119311509D01*
X108991400Y-119956491D01*
X108975933Y-120034251D01*
X108938970Y-120089570D01*
X108883651Y-120126533D01*
X108805891Y-120142000D01*
X105824109Y-120142000D01*
X105746349Y-120126533D01*
X105691030Y-120089570D01*
X105654067Y-120034251D01*
X105638600Y-119956491D01*
X105638600Y-119311509D01*
X105654067Y-119233749D01*
X105691030Y-119178430D01*
X105746349Y-119141467D01*
X105824109Y-119126000D01*
X108805891Y-119126000D01*
X108883651Y-119141467D01*
G37*
%TD.AperFunction*%
%TD*%
D25*
%TO.N,HV+*%
X108858251Y-134914867D02*
X108913570Y-134951830D01*
X108950533Y-135007149D01*
X108966000Y-135084909D01*
X108966000Y-135729891D01*
X108950533Y-135807651D01*
X108913570Y-135862970D01*
X108858251Y-135899933D01*
X108780491Y-135915400D01*
X104579509Y-135915400D01*
X104501749Y-135899933D01*
X104446430Y-135862970D01*
X104409467Y-135807651D01*
X104394000Y-135729891D01*
X104394000Y-135084909D01*
X104409467Y-135007149D01*
X104446430Y-134951830D01*
X104501749Y-134914867D01*
X104579509Y-134899400D01*
X108780491Y-134899400D01*
X108858251Y-134914867D01*
%TA.AperFunction,Conductor*%
D26*
G36*
X108858251Y-134914867D02*
G01*
X108913570Y-134951830D01*
X108950533Y-135007149D01*
X108966000Y-135084909D01*
X108966000Y-135729891D01*
X108950533Y-135807651D01*
X108913570Y-135862970D01*
X108858251Y-135899933D01*
X108780491Y-135915400D01*
X104579509Y-135915400D01*
X104501749Y-135899933D01*
X104446430Y-135862970D01*
X104409467Y-135807651D01*
X104394000Y-135729891D01*
X104394000Y-135084909D01*
X104409467Y-135007149D01*
X104446430Y-134951830D01*
X104501749Y-134914867D01*
X104579509Y-134899400D01*
X108780491Y-134899400D01*
X108858251Y-134914867D01*
G37*
%TD.AperFunction*%
%TD*%
D25*
%TO.N,HV-*%
X108858251Y-139004267D02*
X108913570Y-139041230D01*
X108950533Y-139096549D01*
X108966000Y-139174309D01*
X108966000Y-139819291D01*
X108950533Y-139897051D01*
X108913570Y-139952370D01*
X108858251Y-139989333D01*
X108780491Y-140004800D01*
X105849509Y-140004800D01*
X105771749Y-139989333D01*
X105716430Y-139952370D01*
X105679467Y-139897051D01*
X105664000Y-139819291D01*
X105664000Y-139174309D01*
X105679467Y-139096549D01*
X105716430Y-139041230D01*
X105771749Y-139004267D01*
X105849509Y-138988800D01*
X108780491Y-138988800D01*
X108858251Y-139004267D01*
%TA.AperFunction,Conductor*%
D26*
G36*
X108858251Y-139004267D02*
G01*
X108913570Y-139041230D01*
X108950533Y-139096549D01*
X108966000Y-139174309D01*
X108966000Y-139819291D01*
X108950533Y-139897051D01*
X108913570Y-139952370D01*
X108858251Y-139989333D01*
X108780491Y-140004800D01*
X105849509Y-140004800D01*
X105771749Y-139989333D01*
X105716430Y-139952370D01*
X105679467Y-139897051D01*
X105664000Y-139819291D01*
X105664000Y-139174309D01*
X105679467Y-139096549D01*
X105716430Y-139041230D01*
X105771749Y-139004267D01*
X105849509Y-138988800D01*
X108780491Y-138988800D01*
X108858251Y-139004267D01*
G37*
%TD.AperFunction*%
%TD*%
D25*
%TO.N,M+*%
X108858251Y-144592267D02*
X108913570Y-144629230D01*
X108950533Y-144684549D01*
X108966000Y-144762309D01*
X108966000Y-150004691D01*
X108950533Y-150082451D01*
X108913570Y-150137770D01*
X108858251Y-150174733D01*
X108780491Y-150190200D01*
X105976509Y-150190200D01*
X105898749Y-150174733D01*
X105843430Y-150137770D01*
X105806467Y-150082451D01*
X105791000Y-150004691D01*
X105791000Y-146045200D01*
X105788560Y-146020424D01*
X105765724Y-145905619D01*
X105758497Y-145881794D01*
X105746761Y-145859837D01*
X105681729Y-145762510D01*
X105665934Y-145743265D01*
X105646690Y-145727471D01*
X105549363Y-145662439D01*
X105527406Y-145650703D01*
X105503581Y-145643476D01*
X105388776Y-145620640D01*
X105364000Y-145618200D01*
X104579509Y-145618200D01*
X104501749Y-145602733D01*
X104446430Y-145565770D01*
X104409467Y-145510451D01*
X104394000Y-145432691D01*
X104394000Y-144762309D01*
X104409467Y-144684549D01*
X104446430Y-144629230D01*
X104501749Y-144592267D01*
X104579509Y-144576800D01*
X108780491Y-144576800D01*
X108858251Y-144592267D01*
%TA.AperFunction,Conductor*%
D26*
G36*
X108858251Y-144592267D02*
G01*
X108913570Y-144629230D01*
X108950533Y-144684549D01*
X108966000Y-144762309D01*
X108966000Y-150004691D01*
X108950533Y-150082451D01*
X108913570Y-150137770D01*
X108858251Y-150174733D01*
X108780491Y-150190200D01*
X105976509Y-150190200D01*
X105898749Y-150174733D01*
X105843430Y-150137770D01*
X105806467Y-150082451D01*
X105791000Y-150004691D01*
X105791000Y-146045200D01*
X105788560Y-146020424D01*
X105765724Y-145905619D01*
X105758497Y-145881794D01*
X105746761Y-145859837D01*
X105681729Y-145762510D01*
X105665934Y-145743265D01*
X105646690Y-145727471D01*
X105549363Y-145662439D01*
X105527406Y-145650703D01*
X105503581Y-145643476D01*
X105388776Y-145620640D01*
X105364000Y-145618200D01*
X104579509Y-145618200D01*
X104501749Y-145602733D01*
X104446430Y-145565770D01*
X104409467Y-145510451D01*
X104394000Y-145432691D01*
X104394000Y-144762309D01*
X104409467Y-144684549D01*
X104446430Y-144629230D01*
X104501749Y-144592267D01*
X104579509Y-144576800D01*
X108780491Y-144576800D01*
X108858251Y-144592267D01*
G37*
%TD.AperFunction*%
%TD*%
D25*
%TO.N,M-*%
X108858251Y-124729467D02*
X108913570Y-124766430D01*
X108950533Y-124821749D01*
X108966000Y-124899509D01*
X108966000Y-130116491D01*
X108950533Y-130194251D01*
X108913570Y-130249570D01*
X108858251Y-130286533D01*
X108780491Y-130302000D01*
X105849509Y-130302000D01*
X105771749Y-130286533D01*
X105716430Y-130249570D01*
X105679467Y-130194251D01*
X105664000Y-130116491D01*
X105664000Y-126411000D01*
X105661560Y-126386224D01*
X105638724Y-126271419D01*
X105631497Y-126247594D01*
X105619761Y-126225637D01*
X105554729Y-126128310D01*
X105538934Y-126109065D01*
X105519690Y-126093271D01*
X105422363Y-126028239D01*
X105400406Y-126016503D01*
X105376581Y-126009276D01*
X105261776Y-125986440D01*
X105237000Y-125984000D01*
X104579509Y-125984000D01*
X104501749Y-125968533D01*
X104446430Y-125931570D01*
X104409467Y-125876251D01*
X104394000Y-125798491D01*
X104394000Y-124899509D01*
X104409467Y-124821749D01*
X104446430Y-124766430D01*
X104501749Y-124729467D01*
X104579509Y-124714000D01*
X108780491Y-124714000D01*
X108858251Y-124729467D01*
%TA.AperFunction,Conductor*%
D26*
G36*
X108858251Y-124729467D02*
G01*
X108913570Y-124766430D01*
X108950533Y-124821749D01*
X108966000Y-124899509D01*
X108966000Y-130116491D01*
X108950533Y-130194251D01*
X108913570Y-130249570D01*
X108858251Y-130286533D01*
X108780491Y-130302000D01*
X105849509Y-130302000D01*
X105771749Y-130286533D01*
X105716430Y-130249570D01*
X105679467Y-130194251D01*
X105664000Y-130116491D01*
X105664000Y-126411000D01*
X105661560Y-126386224D01*
X105638724Y-126271419D01*
X105631497Y-126247594D01*
X105619761Y-126225637D01*
X105554729Y-126128310D01*
X105538934Y-126109065D01*
X105519690Y-126093271D01*
X105422363Y-126028239D01*
X105400406Y-126016503D01*
X105376581Y-126009276D01*
X105261776Y-125986440D01*
X105237000Y-125984000D01*
X104579509Y-125984000D01*
X104501749Y-125968533D01*
X104446430Y-125931570D01*
X104409467Y-125876251D01*
X104394000Y-125798491D01*
X104394000Y-124899509D01*
X104409467Y-124821749D01*
X104446430Y-124766430D01*
X104501749Y-124729467D01*
X104579509Y-124714000D01*
X108780491Y-124714000D01*
X108858251Y-124729467D01*
G37*
%TD.AperFunction*%
%TD*%
D27*
%TO.N,GND*%
X125738001Y-116510987D02*
X125738000Y-157859014D01*
X123199015Y-160398000D01*
X122172618Y-160398000D01*
X122556490Y-160321643D01*
X123150136Y-160075747D01*
X123684404Y-159718761D01*
X124138761Y-159264404D01*
X124495747Y-158730136D01*
X124741643Y-158136490D01*
X124867000Y-157506279D01*
X124867000Y-156863721D01*
X124741643Y-156233510D01*
X124495747Y-155639864D01*
X124138761Y-155105596D01*
X123684404Y-154651239D01*
X123150136Y-154294253D01*
X122556490Y-154048357D01*
X121926279Y-153923000D01*
X121283721Y-153923000D01*
X120653510Y-154048357D01*
X120059864Y-154294253D01*
X119525596Y-154651239D01*
X119071239Y-155105596D01*
X118714253Y-155639864D01*
X118468357Y-156233510D01*
X118343000Y-156863721D01*
X118343000Y-157506279D01*
X118468357Y-158136490D01*
X118714253Y-158730136D01*
X119071239Y-159264404D01*
X119525596Y-159718761D01*
X120059864Y-160075747D01*
X120653510Y-160321643D01*
X121037382Y-160398000D01*
X67172618Y-160398000D01*
X67556490Y-160321643D01*
X68150136Y-160075747D01*
X68684404Y-159718761D01*
X69138761Y-159264404D01*
X69495747Y-158730136D01*
X69741643Y-158136490D01*
X69867000Y-157506279D01*
X69867000Y-156863721D01*
X69741643Y-156233510D01*
X69495747Y-155639864D01*
X69138761Y-155105596D01*
X69138165Y-155105000D01*
X75514313Y-155105000D01*
X75529025Y-155254378D01*
X75572597Y-155398016D01*
X75625495Y-155496980D01*
X75584016Y-155574582D01*
X75531909Y-155746359D01*
X75514314Y-155925000D01*
X75514314Y-156225000D01*
X75531909Y-156403641D01*
X75584016Y-156575418D01*
X75668635Y-156733728D01*
X75782512Y-156872488D01*
X75921272Y-156986365D01*
X76079582Y-157070984D01*
X76251359Y-157123091D01*
X76430000Y-157140686D01*
X78180000Y-157140686D01*
X78358641Y-157123091D01*
X78530418Y-157070984D01*
X78688728Y-156986365D01*
X78827488Y-156872488D01*
X78941365Y-156733728D01*
X79025984Y-156575418D01*
X79078091Y-156403641D01*
X79095686Y-156225000D01*
X79095686Y-155925000D01*
X79078091Y-155746359D01*
X79025984Y-155574582D01*
X78984505Y-155496980D01*
X79037403Y-155398016D01*
X79080975Y-155254378D01*
X79095687Y-155105000D01*
X79092000Y-155041500D01*
X78901500Y-154851000D01*
X77355000Y-154851000D01*
X77355000Y-154875000D01*
X77255000Y-154875000D01*
X77255000Y-154851000D01*
X75708500Y-154851000D01*
X75518000Y-155041500D01*
X75514313Y-155105000D01*
X69138165Y-155105000D01*
X68684404Y-154651239D01*
X68150136Y-154294253D01*
X67556490Y-154048357D01*
X66926279Y-153923000D01*
X66283721Y-153923000D01*
X65653510Y-154048357D01*
X65059864Y-154294253D01*
X64525596Y-154651239D01*
X64071239Y-155105596D01*
X63714253Y-155639864D01*
X63468357Y-156233510D01*
X63343000Y-156863721D01*
X63343000Y-157506279D01*
X63468357Y-158136490D01*
X63714253Y-158730136D01*
X64071239Y-159264404D01*
X64525596Y-159718761D01*
X65059864Y-160075747D01*
X65653510Y-160321643D01*
X66037382Y-160398000D01*
X61930986Y-160398000D01*
X59392000Y-157859015D01*
X59392000Y-151061911D01*
X63043000Y-151061911D01*
X63043000Y-151468089D01*
X63122242Y-151866463D01*
X63277679Y-152241723D01*
X63503340Y-152579448D01*
X63790552Y-152866660D01*
X64128277Y-153092321D01*
X64503537Y-153247758D01*
X64901911Y-153327000D01*
X65308089Y-153327000D01*
X65706463Y-153247758D01*
X66081723Y-153092321D01*
X66419448Y-152866660D01*
X66706660Y-152579448D01*
X66932321Y-152241723D01*
X67087758Y-151866463D01*
X67167000Y-151468089D01*
X67167000Y-151061911D01*
X67087758Y-150663537D01*
X66932321Y-150288277D01*
X66706660Y-149950552D01*
X66419448Y-149663340D01*
X66081723Y-149437679D01*
X65706463Y-149282242D01*
X65308089Y-149203000D01*
X64901911Y-149203000D01*
X64503537Y-149282242D01*
X64128277Y-149437679D01*
X63790552Y-149663340D01*
X63503340Y-149950552D01*
X63277679Y-150288277D01*
X63122242Y-150663537D01*
X63043000Y-151061911D01*
X59392000Y-151061911D01*
X59392000Y-147485000D01*
X63039313Y-147485000D01*
X63054025Y-147634378D01*
X63097597Y-147778016D01*
X63168355Y-147910393D01*
X63263578Y-148026422D01*
X63379607Y-148121645D01*
X63511984Y-148192403D01*
X63655622Y-148235975D01*
X63805000Y-148250687D01*
X64864500Y-148247000D01*
X65055000Y-148056500D01*
X65055000Y-146235000D01*
X65155000Y-146235000D01*
X65155000Y-148056500D01*
X65345500Y-148247000D01*
X66405000Y-148250687D01*
X66554378Y-148235975D01*
X66698016Y-148192403D01*
X66830393Y-148121645D01*
X66946422Y-148026422D01*
X67041645Y-147910393D01*
X67112403Y-147778016D01*
X67155975Y-147634378D01*
X67170687Y-147485000D01*
X67167000Y-146425500D01*
X66976500Y-146235000D01*
X65155000Y-146235000D01*
X65055000Y-146235000D01*
X63233500Y-146235000D01*
X63043000Y-146425500D01*
X63039313Y-147485000D01*
X59392000Y-147485000D01*
X59392000Y-144885000D01*
X63039313Y-144885000D01*
X63043000Y-145944500D01*
X63233500Y-146135000D01*
X65055000Y-146135000D01*
X65055000Y-144313500D01*
X65155000Y-144313500D01*
X65155000Y-146135000D01*
X66976500Y-146135000D01*
X67167000Y-145944500D01*
X67170687Y-144885000D01*
X67155975Y-144735622D01*
X67112403Y-144591984D01*
X67041645Y-144459607D01*
X66946422Y-144343578D01*
X66830393Y-144248355D01*
X66698016Y-144177597D01*
X66554378Y-144134025D01*
X66405000Y-144119313D01*
X65345500Y-144123000D01*
X65155000Y-144313500D01*
X65055000Y-144313500D01*
X64864500Y-144123000D01*
X63805000Y-144119313D01*
X63655622Y-144134025D01*
X63511984Y-144177597D01*
X63379607Y-144248355D01*
X63263578Y-144343578D01*
X63168355Y-144459607D01*
X63097597Y-144591984D01*
X63054025Y-144735622D01*
X63039313Y-144885000D01*
X59392000Y-144885000D01*
X59392000Y-133805000D01*
X63039314Y-133805000D01*
X63039314Y-136405000D01*
X63054026Y-136554378D01*
X63097598Y-136698015D01*
X63168355Y-136830392D01*
X63263578Y-136946422D01*
X63379608Y-137041645D01*
X63511985Y-137112402D01*
X63655622Y-137155974D01*
X63805000Y-137170686D01*
X66405000Y-137170686D01*
X66554378Y-137155974D01*
X66698015Y-137112402D01*
X66830392Y-137041645D01*
X66946422Y-136946422D01*
X67041645Y-136830392D01*
X67112402Y-136698015D01*
X67155974Y-136554378D01*
X67170686Y-136405000D01*
X67170686Y-133805000D01*
X67155974Y-133655622D01*
X67112402Y-133511985D01*
X67041645Y-133379608D01*
X66946422Y-133263578D01*
X66830392Y-133168355D01*
X66698015Y-133097598D01*
X66554378Y-133054026D01*
X66405000Y-133039314D01*
X63805000Y-133039314D01*
X63655622Y-133054026D01*
X63511985Y-133097598D01*
X63379608Y-133168355D01*
X63263578Y-133263578D01*
X63168355Y-133379608D01*
X63097598Y-133511985D01*
X63054026Y-133655622D01*
X63039314Y-133805000D01*
X59392000Y-133805000D01*
X59392000Y-128981911D01*
X63043000Y-128981911D01*
X63043000Y-129388089D01*
X63122242Y-129786463D01*
X63277679Y-130161723D01*
X63503340Y-130499448D01*
X63790552Y-130786660D01*
X64128277Y-131012321D01*
X64503537Y-131167758D01*
X64901911Y-131247000D01*
X65308089Y-131247000D01*
X65706463Y-131167758D01*
X66081723Y-131012321D01*
X66419448Y-130786660D01*
X66706660Y-130499448D01*
X66932321Y-130161723D01*
X67087758Y-129786463D01*
X67167000Y-129388089D01*
X67167000Y-128981911D01*
X67109308Y-128691876D01*
X69591184Y-126210000D01*
X71839313Y-126210000D01*
X71843000Y-126444500D01*
X72033500Y-126635000D01*
X73005000Y-126635000D01*
X73005000Y-125638500D01*
X72814500Y-125448000D01*
X72605000Y-125444313D01*
X72455622Y-125459025D01*
X72311984Y-125502597D01*
X72179607Y-125573355D01*
X72063578Y-125668578D01*
X71968355Y-125784607D01*
X71897597Y-125916984D01*
X71854025Y-126060622D01*
X71839313Y-126210000D01*
X69591184Y-126210000D01*
X70604185Y-125197000D01*
X74538190Y-125197000D01*
X74547598Y-125228015D01*
X74618355Y-125360392D01*
X74687228Y-125444314D01*
X74380000Y-125444314D01*
X74186727Y-125463350D01*
X74000881Y-125519725D01*
X73915470Y-125565378D01*
X73798016Y-125502597D01*
X73654378Y-125459025D01*
X73505000Y-125444313D01*
X73295500Y-125448000D01*
X73105000Y-125638500D01*
X73105000Y-126635000D01*
X73125000Y-126635000D01*
X73125000Y-126735000D01*
X73105000Y-126735000D01*
X73105000Y-126755000D01*
X73005000Y-126755000D01*
X73005000Y-126735000D01*
X72033500Y-126735000D01*
X71843000Y-126925500D01*
X71839313Y-127160000D01*
X71854025Y-127309378D01*
X71897597Y-127453016D01*
X71968355Y-127585393D01*
X72063578Y-127701422D01*
X72070997Y-127707511D01*
X72055622Y-127709025D01*
X71911984Y-127752597D01*
X71779607Y-127823355D01*
X71663578Y-127918578D01*
X71568355Y-128034607D01*
X71497597Y-128166984D01*
X71454025Y-128310622D01*
X71439313Y-128460000D01*
X71443000Y-128944500D01*
X71633500Y-129135000D01*
X72655000Y-129135000D01*
X72655000Y-129115000D01*
X72755000Y-129115000D01*
X72755000Y-129135000D01*
X72775000Y-129135000D01*
X72775000Y-129235000D01*
X72755000Y-129235000D01*
X72755000Y-129255000D01*
X72655000Y-129255000D01*
X72655000Y-129235000D01*
X71633500Y-129235000D01*
X71443000Y-129425500D01*
X71439313Y-129910000D01*
X71454025Y-130059378D01*
X71497597Y-130203016D01*
X71568355Y-130335393D01*
X71663578Y-130451422D01*
X71779607Y-130546645D01*
X71794641Y-130554681D01*
X71741249Y-130634587D01*
X71653655Y-130846057D01*
X71609000Y-131070553D01*
X71609000Y-131299447D01*
X71653655Y-131523943D01*
X71741249Y-131735413D01*
X71864825Y-131920358D01*
X70008606Y-133776577D01*
X69974762Y-133804352D01*
X69863919Y-133939416D01*
X69781554Y-134093509D01*
X69742577Y-134222000D01*
X69730835Y-134260709D01*
X69713709Y-134434590D01*
X69718000Y-134478157D01*
X69718001Y-139194000D01*
X66922781Y-139194000D01*
X66706660Y-138870552D01*
X66419448Y-138583340D01*
X66081723Y-138357679D01*
X65706463Y-138202242D01*
X65308089Y-138123000D01*
X64901911Y-138123000D01*
X64503537Y-138202242D01*
X64128277Y-138357679D01*
X63790552Y-138583340D01*
X63503340Y-138870552D01*
X63277679Y-139208277D01*
X63122242Y-139583537D01*
X63043000Y-139981911D01*
X63043000Y-140388089D01*
X63122242Y-140786463D01*
X63277679Y-141161723D01*
X63503340Y-141499448D01*
X63790552Y-141786660D01*
X64128277Y-142012321D01*
X64503537Y-142167758D01*
X64901911Y-142247000D01*
X65308089Y-142247000D01*
X65706463Y-142167758D01*
X66081723Y-142012321D01*
X66419448Y-141786660D01*
X66706660Y-141499448D01*
X66932321Y-141161723D01*
X67012563Y-140968000D01*
X69718000Y-140968000D01*
X69718001Y-151333423D01*
X69713709Y-151377000D01*
X69730835Y-151550881D01*
X69781555Y-151718082D01*
X69863919Y-151872174D01*
X69943778Y-151969482D01*
X69974763Y-152007238D01*
X70008601Y-152035008D01*
X72104992Y-154131400D01*
X72132762Y-154165238D01*
X72166600Y-154193008D01*
X72166602Y-154193010D01*
X72182683Y-154206207D01*
X72267825Y-154276081D01*
X72421918Y-154358446D01*
X72583352Y-154407416D01*
X72589118Y-154409165D01*
X72763000Y-154426291D01*
X72806567Y-154422000D01*
X75522488Y-154422000D01*
X75514313Y-154505000D01*
X75518000Y-154568500D01*
X75708500Y-154759000D01*
X77255000Y-154759000D01*
X77255000Y-154735000D01*
X77355000Y-154735000D01*
X77355000Y-154759000D01*
X78901500Y-154759000D01*
X79092000Y-154568500D01*
X79095687Y-154505000D01*
X79080975Y-154355622D01*
X79037403Y-154211984D01*
X78984505Y-154113020D01*
X79025984Y-154035418D01*
X79078091Y-153863641D01*
X79095686Y-153685000D01*
X79095686Y-153385000D01*
X79078091Y-153206359D01*
X79025984Y-153034582D01*
X78984505Y-152956980D01*
X79037403Y-152858016D01*
X79080975Y-152714378D01*
X79095687Y-152565000D01*
X79092000Y-152501500D01*
X78901500Y-152311000D01*
X77355000Y-152311000D01*
X77355000Y-152335000D01*
X77255000Y-152335000D01*
X77255000Y-152311000D01*
X75708500Y-152311000D01*
X75518000Y-152501500D01*
X75514313Y-152565000D01*
X75522488Y-152648000D01*
X73130408Y-152648000D01*
X71492000Y-151009593D01*
X71492000Y-150764597D01*
X72318802Y-151591400D01*
X72346572Y-151625238D01*
X72481635Y-151736081D01*
X72615826Y-151807808D01*
X72634228Y-151817644D01*
X72635728Y-151818446D01*
X72802928Y-151869165D01*
X72933243Y-151882000D01*
X72933252Y-151882000D01*
X72976809Y-151886290D01*
X73020366Y-151882000D01*
X75522488Y-151882000D01*
X75514313Y-151965000D01*
X75518000Y-152028500D01*
X75708500Y-152219000D01*
X77255000Y-152219000D01*
X77255000Y-152195000D01*
X77355000Y-152195000D01*
X77355000Y-152219000D01*
X78901500Y-152219000D01*
X79092000Y-152028500D01*
X79095687Y-151965000D01*
X79080975Y-151815622D01*
X79037403Y-151671984D01*
X78984505Y-151573020D01*
X79025984Y-151495418D01*
X79078091Y-151323641D01*
X79095686Y-151145000D01*
X79095686Y-150845000D01*
X79078091Y-150666359D01*
X79025984Y-150494582D01*
X78954048Y-150360000D01*
X79025984Y-150225418D01*
X79078091Y-150053641D01*
X79095686Y-149875000D01*
X79095686Y-149575000D01*
X79078091Y-149396359D01*
X79025984Y-149224582D01*
X78954048Y-149090000D01*
X79025984Y-148955418D01*
X79078091Y-148783641D01*
X79095686Y-148605000D01*
X79095686Y-148305000D01*
X79078091Y-148126359D01*
X79025984Y-147954582D01*
X78954048Y-147820000D01*
X79025984Y-147685418D01*
X79078091Y-147513641D01*
X79095686Y-147335000D01*
X79095686Y-147035000D01*
X79078091Y-146856359D01*
X79025984Y-146684582D01*
X78941365Y-146526272D01*
X78827488Y-146387512D01*
X78688728Y-146273635D01*
X78530418Y-146189016D01*
X78358641Y-146136909D01*
X78180000Y-146119314D01*
X76430000Y-146119314D01*
X76251359Y-146136909D01*
X76079582Y-146189016D01*
X75921272Y-146273635D01*
X75813504Y-146362078D01*
X75801650Y-146241727D01*
X75745275Y-146055881D01*
X75653725Y-145884604D01*
X75530521Y-145734479D01*
X75436000Y-145656908D01*
X75436000Y-143377316D01*
X75451584Y-143361732D01*
X75505346Y-143281272D01*
X75504026Y-143285622D01*
X75489314Y-143435000D01*
X75489314Y-144935000D01*
X75504026Y-145084378D01*
X75547598Y-145228015D01*
X75618355Y-145360392D01*
X75713578Y-145476422D01*
X75829608Y-145571645D01*
X75961985Y-145642402D01*
X76105622Y-145685974D01*
X76255000Y-145700686D01*
X78864501Y-145700686D01*
X79140422Y-145976607D01*
X79146655Y-146007943D01*
X79234249Y-146219413D01*
X79252000Y-146245979D01*
X79252001Y-151969289D01*
X79247105Y-152019000D01*
X79252001Y-152068711D01*
X79266644Y-152217387D01*
X79292489Y-152302584D01*
X79324512Y-152408149D01*
X79418482Y-152583957D01*
X79513257Y-152699441D01*
X79513263Y-152699447D01*
X79544947Y-152738054D01*
X79583554Y-152769738D01*
X81029258Y-154215442D01*
X81060946Y-154254054D01*
X81099558Y-154285742D01*
X81099559Y-154285743D01*
X81123024Y-154305000D01*
X81215043Y-154380518D01*
X81390851Y-154474489D01*
X81581613Y-154532357D01*
X81730289Y-154547000D01*
X81730292Y-154547000D01*
X81780000Y-154551896D01*
X81829708Y-154547000D01*
X84816752Y-154547000D01*
X84818000Y-154568500D01*
X85008500Y-154759000D01*
X86555000Y-154759000D01*
X86555000Y-154735000D01*
X86655000Y-154735000D01*
X86655000Y-154759000D01*
X86675000Y-154759000D01*
X86675000Y-154851000D01*
X86655000Y-154851000D01*
X86655000Y-154875000D01*
X86555000Y-154875000D01*
X86555000Y-154851000D01*
X85008500Y-154851000D01*
X84818000Y-155041500D01*
X84814313Y-155105000D01*
X84829025Y-155254378D01*
X84872597Y-155398016D01*
X84925495Y-155496980D01*
X84884016Y-155574582D01*
X84831909Y-155746359D01*
X84814314Y-155925000D01*
X84814314Y-156225000D01*
X84831909Y-156403641D01*
X84884016Y-156575418D01*
X84968635Y-156733728D01*
X85082512Y-156872488D01*
X85221272Y-156986365D01*
X85379582Y-157070984D01*
X85551359Y-157123091D01*
X85730000Y-157140686D01*
X87480000Y-157140686D01*
X87658641Y-157123091D01*
X87762345Y-157091633D01*
X87765000Y-157091895D01*
X87814701Y-157087000D01*
X87814711Y-157087000D01*
X87963387Y-157072357D01*
X88154149Y-157014489D01*
X88329957Y-156920518D01*
X88388482Y-156872488D01*
X88445441Y-156825743D01*
X88445442Y-156825742D01*
X88484054Y-156794054D01*
X88515742Y-156755442D01*
X89207606Y-156063578D01*
X89238943Y-156057345D01*
X89428609Y-155978782D01*
X89514301Y-156083199D01*
X89668215Y-156209512D01*
X89843813Y-156303372D01*
X90034349Y-156361170D01*
X90232499Y-156380686D01*
X90957501Y-156380686D01*
X91155651Y-156361170D01*
X91346187Y-156303372D01*
X91521785Y-156209512D01*
X91675699Y-156083199D01*
X91802012Y-155929285D01*
X91895872Y-155753687D01*
X91953670Y-155563151D01*
X91973186Y-155365001D01*
X91973186Y-153992998D01*
X92400442Y-153565742D01*
X92439054Y-153534054D01*
X92480027Y-153484128D01*
X92565518Y-153379958D01*
X92629872Y-153259559D01*
X92659489Y-153204149D01*
X92717357Y-153013387D01*
X92732000Y-152864711D01*
X92732000Y-152864702D01*
X92736895Y-152815001D01*
X92732000Y-152765300D01*
X92732000Y-150926810D01*
X92763015Y-150917402D01*
X92895392Y-150846645D01*
X93011422Y-150751422D01*
X93106645Y-150635392D01*
X93177402Y-150503015D01*
X93220974Y-150359378D01*
X93235686Y-150210000D01*
X93235686Y-147510000D01*
X93220974Y-147360622D01*
X93177402Y-147216985D01*
X93106645Y-147084608D01*
X93011422Y-146968578D01*
X92895392Y-146873355D01*
X92763015Y-146802598D01*
X92619378Y-146759026D01*
X92470000Y-146744314D01*
X91035498Y-146744314D01*
X90795742Y-146504558D01*
X90764054Y-146465946D01*
X90715820Y-146426361D01*
X90609957Y-146339482D01*
X90434149Y-146245511D01*
X90352313Y-146220686D01*
X90957501Y-146220686D01*
X91155651Y-146201170D01*
X91346187Y-146143372D01*
X91521785Y-146049512D01*
X91675699Y-145923199D01*
X91802012Y-145769285D01*
X91895872Y-145593687D01*
X91953670Y-145403151D01*
X91973186Y-145205001D01*
X91973186Y-143832998D01*
X92400442Y-143405742D01*
X92439054Y-143374054D01*
X92490298Y-143311613D01*
X92565518Y-143219958D01*
X92629872Y-143099559D01*
X92659489Y-143044149D01*
X92717357Y-142853387D01*
X92732000Y-142704711D01*
X92732000Y-142704702D01*
X92736895Y-142655001D01*
X92732000Y-142605300D01*
X92732000Y-140766810D01*
X92763015Y-140757402D01*
X92895392Y-140686645D01*
X93011422Y-140591422D01*
X93106645Y-140475392D01*
X93177402Y-140343015D01*
X93220974Y-140199378D01*
X93235686Y-140050000D01*
X93235686Y-137350000D01*
X93220974Y-137200622D01*
X93177402Y-137056985D01*
X93106645Y-136924608D01*
X93011422Y-136808578D01*
X92895392Y-136713355D01*
X92763015Y-136642598D01*
X92619378Y-136599026D01*
X92470000Y-136584314D01*
X90970000Y-136584314D01*
X90820622Y-136599026D01*
X90676985Y-136642598D01*
X90544608Y-136713355D01*
X90428578Y-136808578D01*
X90333355Y-136924608D01*
X90262598Y-137056985D01*
X90219026Y-137200622D01*
X90204314Y-137350000D01*
X90204314Y-140050000D01*
X90219026Y-140199378D01*
X90262598Y-140343015D01*
X90333355Y-140475392D01*
X90428578Y-140591422D01*
X90544608Y-140686645D01*
X90676985Y-140757402D01*
X90708001Y-140766810D01*
X90708001Y-141339314D01*
X90232499Y-141339314D01*
X90034349Y-141358830D01*
X89843813Y-141416628D01*
X89668215Y-141510488D01*
X89514301Y-141636801D01*
X89387988Y-141790715D01*
X89294128Y-141966313D01*
X89236330Y-142156849D01*
X89216814Y-142354999D01*
X89216814Y-142388253D01*
X89014447Y-142348000D01*
X88785553Y-142348000D01*
X88561057Y-142392655D01*
X88349587Y-142480249D01*
X88159268Y-142607416D01*
X87997416Y-142769268D01*
X87870249Y-142959587D01*
X87782655Y-143171057D01*
X87738000Y-143395553D01*
X87738000Y-143624447D01*
X87782655Y-143848943D01*
X87870249Y-144060413D01*
X87997416Y-144250732D01*
X88159268Y-144412584D01*
X88349587Y-144539751D01*
X88561057Y-144627345D01*
X88785553Y-144672000D01*
X89014447Y-144672000D01*
X89216814Y-144631747D01*
X89216814Y-145205001D01*
X89236330Y-145403151D01*
X89294128Y-145593687D01*
X89387988Y-145769285D01*
X89514301Y-145923199D01*
X89668215Y-146049512D01*
X89843813Y-146143372D01*
X89941484Y-146173000D01*
X87777619Y-146173000D01*
X87658641Y-146136909D01*
X87480000Y-146119314D01*
X85730000Y-146119314D01*
X85567000Y-146135368D01*
X85567000Y-145578803D01*
X85598199Y-145553199D01*
X85724512Y-145399285D01*
X85818372Y-145223687D01*
X85876170Y-145033151D01*
X85895686Y-144835001D01*
X85895686Y-143534999D01*
X85876170Y-143336849D01*
X85818372Y-143146313D01*
X85724512Y-142970715D01*
X85617000Y-142839710D01*
X85617000Y-142030146D01*
X85653725Y-141985396D01*
X85745275Y-141814119D01*
X85801650Y-141628273D01*
X85820686Y-141435000D01*
X85820686Y-140935000D01*
X85801650Y-140741727D01*
X85745275Y-140555881D01*
X85653725Y-140384604D01*
X85617000Y-140339854D01*
X85617000Y-140234708D01*
X85621896Y-140185000D01*
X85617000Y-140135289D01*
X85602357Y-139986613D01*
X85547629Y-139806202D01*
X85544489Y-139795850D01*
X85450518Y-139620043D01*
X85355743Y-139504559D01*
X85355742Y-139504558D01*
X85324054Y-139465946D01*
X85285442Y-139434258D01*
X84555742Y-138704558D01*
X84524054Y-138665946D01*
X84477816Y-138627999D01*
X84369957Y-138539482D01*
X84362941Y-138535732D01*
X84194149Y-138445511D01*
X84003387Y-138387643D01*
X83854711Y-138373000D01*
X83854701Y-138373000D01*
X83805000Y-138368105D01*
X83755299Y-138373000D01*
X81075316Y-138373000D01*
X81166584Y-138281732D01*
X81293751Y-138091413D01*
X81381345Y-137879943D01*
X81426000Y-137655447D01*
X81426000Y-137426553D01*
X81381345Y-137202057D01*
X81316990Y-137046691D01*
X81316990Y-134456183D01*
X81325289Y-134457000D01*
X81325292Y-134457000D01*
X81375000Y-134461896D01*
X81424708Y-134457000D01*
X84681752Y-134457000D01*
X84683000Y-134478500D01*
X84873500Y-134669000D01*
X86420000Y-134669000D01*
X86420000Y-134645000D01*
X86520000Y-134645000D01*
X86520000Y-134669000D01*
X86540000Y-134669000D01*
X86540000Y-134761000D01*
X86520000Y-134761000D01*
X86520000Y-134785000D01*
X86420000Y-134785000D01*
X86420000Y-134761000D01*
X84873500Y-134761000D01*
X84683000Y-134951500D01*
X84679313Y-135015000D01*
X84694025Y-135164378D01*
X84737597Y-135308016D01*
X84790495Y-135406980D01*
X84749016Y-135484582D01*
X84696909Y-135656359D01*
X84679314Y-135835000D01*
X84679314Y-136135000D01*
X84696909Y-136313641D01*
X84749016Y-136485418D01*
X84833635Y-136643728D01*
X84947512Y-136782488D01*
X85086272Y-136896365D01*
X85244582Y-136980984D01*
X85416359Y-137033091D01*
X85595000Y-137050686D01*
X87345000Y-137050686D01*
X87523641Y-137033091D01*
X87642619Y-136997000D01*
X88247299Y-136997000D01*
X88297000Y-137001895D01*
X88346701Y-136997000D01*
X88346711Y-136997000D01*
X88495387Y-136982357D01*
X88686149Y-136924489D01*
X88861957Y-136830518D01*
X88888691Y-136808578D01*
X88977441Y-136735743D01*
X88977442Y-136735742D01*
X89016054Y-136704054D01*
X89047742Y-136665442D01*
X89334606Y-136378578D01*
X89365943Y-136372345D01*
X89577413Y-136284751D01*
X89583967Y-136280372D01*
X89668215Y-136349512D01*
X89843813Y-136443372D01*
X90034349Y-136501170D01*
X90232499Y-136520686D01*
X90957501Y-136520686D01*
X91155651Y-136501170D01*
X91346187Y-136443372D01*
X91521785Y-136349512D01*
X91675699Y-136223199D01*
X91802012Y-136069285D01*
X91895872Y-135893687D01*
X91953670Y-135703151D01*
X91973186Y-135505001D01*
X91973186Y-134342998D01*
X92400442Y-133915742D01*
X92439054Y-133884054D01*
X92476848Y-133838002D01*
X92565518Y-133729958D01*
X92629025Y-133611144D01*
X92659489Y-133554149D01*
X92717357Y-133363387D01*
X92732000Y-133214711D01*
X92732000Y-133214702D01*
X92736895Y-133165001D01*
X92732000Y-133115300D01*
X92732000Y-131066810D01*
X92763015Y-131057402D01*
X92895392Y-130986645D01*
X93011422Y-130891422D01*
X93106645Y-130775392D01*
X93177402Y-130643015D01*
X93220974Y-130499378D01*
X93235686Y-130350000D01*
X93235686Y-127650000D01*
X93220974Y-127500622D01*
X93177402Y-127356985D01*
X93106645Y-127224608D01*
X93011422Y-127108578D01*
X92895392Y-127013355D01*
X92763015Y-126942598D01*
X92619378Y-126899026D01*
X92470000Y-126884314D01*
X91035498Y-126884314D01*
X90565742Y-126414558D01*
X90534054Y-126375946D01*
X90515460Y-126360686D01*
X90957501Y-126360686D01*
X91155651Y-126341170D01*
X91346187Y-126283372D01*
X91521785Y-126189512D01*
X91675699Y-126063199D01*
X91802012Y-125909285D01*
X91895872Y-125733687D01*
X91953670Y-125543151D01*
X91973186Y-125345001D01*
X91973186Y-123972998D01*
X92400442Y-123545742D01*
X92439054Y-123514054D01*
X92497280Y-123443105D01*
X92565518Y-123359958D01*
X92653416Y-123195511D01*
X92659489Y-123184149D01*
X92717357Y-122993387D01*
X92732000Y-122844711D01*
X92732000Y-122844702D01*
X92736895Y-122795001D01*
X92732000Y-122745300D01*
X92732000Y-120906810D01*
X92763015Y-120897402D01*
X92895392Y-120826645D01*
X93011422Y-120731422D01*
X93106645Y-120615392D01*
X93177402Y-120483015D01*
X93220974Y-120339378D01*
X93235686Y-120190000D01*
X93235686Y-117490000D01*
X95004314Y-117490000D01*
X95004314Y-120190000D01*
X95019026Y-120339378D01*
X95062598Y-120483015D01*
X95133355Y-120615392D01*
X95228578Y-120731422D01*
X95344608Y-120826645D01*
X95476985Y-120897402D01*
X95508001Y-120906811D01*
X95508000Y-121720421D01*
X95439301Y-121776801D01*
X95312988Y-121930715D01*
X95219128Y-122106313D01*
X95161330Y-122296849D01*
X95141814Y-122494999D01*
X95141814Y-125345001D01*
X95161330Y-125543151D01*
X95219128Y-125733687D01*
X95312988Y-125909285D01*
X95439301Y-126063199D01*
X95593215Y-126189512D01*
X95768813Y-126283372D01*
X95959349Y-126341170D01*
X96157499Y-126360686D01*
X96882501Y-126360686D01*
X97080651Y-126341170D01*
X97271187Y-126283372D01*
X97446785Y-126189512D01*
X97600699Y-126063199D01*
X97727012Y-125909285D01*
X97820872Y-125733687D01*
X97878670Y-125543151D01*
X97898186Y-125345001D01*
X97898186Y-122494999D01*
X97878670Y-122296849D01*
X97820872Y-122106313D01*
X97727012Y-121930715D01*
X97600699Y-121776801D01*
X97532000Y-121720422D01*
X97532000Y-120906810D01*
X97563015Y-120897402D01*
X97695392Y-120826645D01*
X97811422Y-120731422D01*
X97906645Y-120615392D01*
X97977402Y-120483015D01*
X98020974Y-120339378D01*
X98035686Y-120190000D01*
X98035686Y-119852000D01*
X98765422Y-119852000D01*
X98821801Y-119920699D01*
X98975715Y-120047012D01*
X99151313Y-120140872D01*
X99341849Y-120198670D01*
X99539999Y-120218186D01*
X102390001Y-120218186D01*
X102588151Y-120198670D01*
X102778687Y-120140872D01*
X102954285Y-120047012D01*
X103108199Y-119920699D01*
X103164578Y-119852000D01*
X103555816Y-119852000D01*
X103659314Y-119955498D01*
X103659314Y-120100000D01*
X103677389Y-120283519D01*
X103693367Y-120336192D01*
X103687598Y-120346985D01*
X103644026Y-120490622D01*
X103629314Y-120640000D01*
X103629314Y-123299963D01*
X103619447Y-123298000D01*
X103390553Y-123298000D01*
X103166057Y-123342655D01*
X102954587Y-123430249D01*
X102848242Y-123501306D01*
X102778687Y-123464128D01*
X102588151Y-123406330D01*
X102390001Y-123386814D01*
X99539999Y-123386814D01*
X99341849Y-123406330D01*
X99151313Y-123464128D01*
X98975715Y-123557988D01*
X98821801Y-123684301D01*
X98695488Y-123838215D01*
X98601628Y-124013813D01*
X98543830Y-124204349D01*
X98524314Y-124402499D01*
X98524314Y-125127501D01*
X98543830Y-125325651D01*
X98601628Y-125516187D01*
X98695488Y-125691785D01*
X98821801Y-125845699D01*
X98975715Y-125972012D01*
X99151313Y-126065872D01*
X99341849Y-126123670D01*
X99539999Y-126143186D01*
X102390001Y-126143186D01*
X102588151Y-126123670D01*
X102778687Y-126065872D01*
X102954285Y-125972012D01*
X103108199Y-125845699D01*
X103163511Y-125778301D01*
X103200000Y-125781895D01*
X103249701Y-125777000D01*
X103249711Y-125777000D01*
X103398387Y-125762357D01*
X103505000Y-125730016D01*
X103505000Y-125811000D01*
X103519641Y-125959658D01*
X103542477Y-126074463D01*
X103585840Y-126217411D01*
X103656257Y-126349150D01*
X103721289Y-126446477D01*
X103816052Y-126561947D01*
X103931523Y-126656711D01*
X104028850Y-126721743D01*
X104160591Y-126792161D01*
X104303537Y-126835523D01*
X104418342Y-126858359D01*
X104567000Y-126873000D01*
X104775000Y-126873000D01*
X104775000Y-127258000D01*
X104739375Y-127258000D01*
X104712809Y-127240249D01*
X104501339Y-127152655D01*
X104276843Y-127108000D01*
X104047949Y-127108000D01*
X103823453Y-127152655D01*
X103611983Y-127240249D01*
X103421664Y-127367416D01*
X103259812Y-127529268D01*
X103132645Y-127719587D01*
X103064705Y-127883607D01*
X102954285Y-127792988D01*
X102778687Y-127699128D01*
X102588151Y-127641330D01*
X102390001Y-127621814D01*
X99539999Y-127621814D01*
X99341849Y-127641330D01*
X99151313Y-127699128D01*
X98975715Y-127792988D01*
X98821801Y-127919301D01*
X98765422Y-127988000D01*
X98035686Y-127988000D01*
X98035686Y-127650000D01*
X98020974Y-127500622D01*
X97977402Y-127356985D01*
X97906645Y-127224608D01*
X97811422Y-127108578D01*
X97695392Y-127013355D01*
X97563015Y-126942598D01*
X97419378Y-126899026D01*
X97270000Y-126884314D01*
X95770000Y-126884314D01*
X95620622Y-126899026D01*
X95476985Y-126942598D01*
X95344608Y-127013355D01*
X95228578Y-127108578D01*
X95133355Y-127224608D01*
X95062598Y-127356985D01*
X95019026Y-127500622D01*
X95004314Y-127650000D01*
X95004314Y-130350000D01*
X95019026Y-130499378D01*
X95062598Y-130643015D01*
X95133355Y-130775392D01*
X95228578Y-130891422D01*
X95344608Y-130986645D01*
X95476985Y-131057402D01*
X95508000Y-131066810D01*
X95508001Y-131880421D01*
X95439301Y-131936801D01*
X95312988Y-132090715D01*
X95219128Y-132266313D01*
X95161330Y-132456849D01*
X95141814Y-132654999D01*
X95141814Y-135505001D01*
X95161330Y-135703151D01*
X95219128Y-135893687D01*
X95312988Y-136069285D01*
X95439301Y-136223199D01*
X95593215Y-136349512D01*
X95768813Y-136443372D01*
X95959349Y-136501170D01*
X96157499Y-136520686D01*
X96882501Y-136520686D01*
X97080651Y-136501170D01*
X97271187Y-136443372D01*
X97446785Y-136349512D01*
X97600699Y-136223199D01*
X97727012Y-136069285D01*
X97820872Y-135893687D01*
X97878670Y-135703151D01*
X97887861Y-135609832D01*
X97915946Y-135644054D01*
X97954558Y-135675742D01*
X98070042Y-135770518D01*
X98135327Y-135805413D01*
X98245851Y-135864489D01*
X98436613Y-135922357D01*
X98585289Y-135937000D01*
X98585298Y-135937000D01*
X98634999Y-135941895D01*
X98684700Y-135937000D01*
X98765422Y-135937000D01*
X98821801Y-136005699D01*
X98975715Y-136132012D01*
X99151313Y-136225872D01*
X99341849Y-136283670D01*
X99539999Y-136303186D01*
X102390001Y-136303186D01*
X102588151Y-136283670D01*
X102778687Y-136225872D01*
X102954285Y-136132012D01*
X103108199Y-136005699D01*
X103163511Y-135938301D01*
X103200000Y-135941895D01*
X103249701Y-135937000D01*
X103249711Y-135937000D01*
X103398387Y-135922357D01*
X103589149Y-135864489D01*
X103659314Y-135826985D01*
X103659314Y-135860000D01*
X103677389Y-136043519D01*
X103730919Y-136219985D01*
X103817848Y-136382617D01*
X103934835Y-136525165D01*
X104077383Y-136642152D01*
X104240015Y-136729081D01*
X104416481Y-136782611D01*
X104600000Y-136800686D01*
X104950000Y-136800686D01*
X105133519Y-136782611D01*
X105309985Y-136729081D01*
X105410000Y-136675622D01*
X105510015Y-136729081D01*
X105551513Y-136741669D01*
X105494587Y-136765249D01*
X105304268Y-136892416D01*
X105142416Y-137054268D01*
X105015249Y-137244587D01*
X104927655Y-137456057D01*
X104883000Y-137680553D01*
X104883000Y-137909447D01*
X104920767Y-138099314D01*
X104805498Y-138099314D01*
X104725742Y-138019558D01*
X104694054Y-137980946D01*
X104539957Y-137854482D01*
X104364149Y-137760511D01*
X104173387Y-137702643D01*
X104024711Y-137688000D01*
X104024701Y-137688000D01*
X103975000Y-137683105D01*
X103925299Y-137688000D01*
X103164578Y-137688000D01*
X103108199Y-137619301D01*
X102954285Y-137492988D01*
X102778687Y-137399128D01*
X102588151Y-137341330D01*
X102390001Y-137321814D01*
X99539999Y-137321814D01*
X99341849Y-137341330D01*
X99151313Y-137399128D01*
X98975715Y-137492988D01*
X98821801Y-137619301D01*
X98765422Y-137688000D01*
X98035686Y-137688000D01*
X98035686Y-137350000D01*
X98020974Y-137200622D01*
X97977402Y-137056985D01*
X97906645Y-136924608D01*
X97811422Y-136808578D01*
X97695392Y-136713355D01*
X97563015Y-136642598D01*
X97419378Y-136599026D01*
X97270000Y-136584314D01*
X95770000Y-136584314D01*
X95620622Y-136599026D01*
X95476985Y-136642598D01*
X95344608Y-136713355D01*
X95228578Y-136808578D01*
X95133355Y-136924608D01*
X95062598Y-137056985D01*
X95019026Y-137200622D01*
X95004314Y-137350000D01*
X95004314Y-140050000D01*
X95019026Y-140199378D01*
X95062598Y-140343015D01*
X95133355Y-140475392D01*
X95228578Y-140591422D01*
X95344608Y-140686645D01*
X95476985Y-140757402D01*
X95508000Y-140766810D01*
X95508001Y-141580421D01*
X95439301Y-141636801D01*
X95312988Y-141790715D01*
X95219128Y-141966313D01*
X95161330Y-142156849D01*
X95141814Y-142354999D01*
X95141814Y-145205001D01*
X95161330Y-145403151D01*
X95219128Y-145593687D01*
X95312988Y-145769285D01*
X95439301Y-145923199D01*
X95593215Y-146049512D01*
X95768813Y-146143372D01*
X95959349Y-146201170D01*
X96157499Y-146220686D01*
X96882501Y-146220686D01*
X97080651Y-146201170D01*
X97271187Y-146143372D01*
X97446785Y-146049512D01*
X97600699Y-145923199D01*
X97727012Y-145769285D01*
X97820872Y-145593687D01*
X97878670Y-145403151D01*
X97898186Y-145205001D01*
X97898186Y-142354999D01*
X97878670Y-142156849D01*
X97820872Y-141966313D01*
X97727012Y-141790715D01*
X97600699Y-141636801D01*
X97532000Y-141580422D01*
X97532000Y-140766810D01*
X97563015Y-140757402D01*
X97695392Y-140686645D01*
X97811422Y-140591422D01*
X97906645Y-140475392D01*
X97977402Y-140343015D01*
X98020974Y-140199378D01*
X98035686Y-140050000D01*
X98035686Y-139712000D01*
X98765422Y-139712000D01*
X98821801Y-139780699D01*
X98975715Y-139907012D01*
X99151313Y-140000872D01*
X99341849Y-140058670D01*
X99539999Y-140078186D01*
X102390001Y-140078186D01*
X102588151Y-140058670D01*
X102778687Y-140000872D01*
X102954285Y-139907012D01*
X103108199Y-139780699D01*
X103164578Y-139712000D01*
X103555816Y-139712000D01*
X103659314Y-139815498D01*
X103659314Y-139960000D01*
X103677389Y-140143519D01*
X103693367Y-140196192D01*
X103687598Y-140206985D01*
X103644026Y-140350622D01*
X103629314Y-140500000D01*
X103629314Y-142984963D01*
X103619447Y-142983000D01*
X103390553Y-142983000D01*
X103166057Y-143027655D01*
X102954587Y-143115249D01*
X102764268Y-143242416D01*
X102704930Y-143301754D01*
X102588151Y-143266330D01*
X102390001Y-143246814D01*
X99539999Y-143246814D01*
X99341849Y-143266330D01*
X99151313Y-143324128D01*
X98975715Y-143417988D01*
X98821801Y-143544301D01*
X98695488Y-143698215D01*
X98601628Y-143873813D01*
X98543830Y-144064349D01*
X98524314Y-144262499D01*
X98524314Y-144987501D01*
X98543830Y-145185651D01*
X98601628Y-145376187D01*
X98695488Y-145551785D01*
X98821801Y-145705699D01*
X98975715Y-145832012D01*
X99151313Y-145925872D01*
X99341849Y-145983670D01*
X99539999Y-146003186D01*
X102390001Y-146003186D01*
X102588151Y-145983670D01*
X102778687Y-145925872D01*
X102954285Y-145832012D01*
X103108199Y-145705699D01*
X103172481Y-145627371D01*
X103223387Y-145622357D01*
X103414149Y-145564489D01*
X103511618Y-145512391D01*
X103519641Y-145593858D01*
X103542477Y-145708663D01*
X103585840Y-145851611D01*
X103656257Y-145983350D01*
X103721289Y-146080677D01*
X103816052Y-146196147D01*
X103931523Y-146290911D01*
X104028850Y-146355943D01*
X104160591Y-146426361D01*
X104303537Y-146469723D01*
X104418342Y-146492559D01*
X104567000Y-146507200D01*
X104902000Y-146507200D01*
X104902000Y-146943000D01*
X104716979Y-146943000D01*
X104690413Y-146925249D01*
X104478943Y-146837655D01*
X104254447Y-146793000D01*
X104025553Y-146793000D01*
X103801057Y-146837655D01*
X103589587Y-146925249D01*
X103399268Y-147052416D01*
X103237416Y-147214268D01*
X103110249Y-147404587D01*
X103022655Y-147616057D01*
X103006745Y-147696041D01*
X102954285Y-147652988D01*
X102778687Y-147559128D01*
X102588151Y-147501330D01*
X102390001Y-147481814D01*
X99539999Y-147481814D01*
X99341849Y-147501330D01*
X99151313Y-147559128D01*
X98975715Y-147652988D01*
X98821801Y-147779301D01*
X98765422Y-147848000D01*
X98035686Y-147848000D01*
X98035686Y-147510000D01*
X98020974Y-147360622D01*
X97977402Y-147216985D01*
X97906645Y-147084608D01*
X97811422Y-146968578D01*
X97695392Y-146873355D01*
X97563015Y-146802598D01*
X97419378Y-146759026D01*
X97270000Y-146744314D01*
X95770000Y-146744314D01*
X95620622Y-146759026D01*
X95476985Y-146802598D01*
X95344608Y-146873355D01*
X95228578Y-146968578D01*
X95133355Y-147084608D01*
X95062598Y-147216985D01*
X95019026Y-147360622D01*
X95004314Y-147510000D01*
X95004314Y-150210000D01*
X95019026Y-150359378D01*
X95062598Y-150503015D01*
X95133355Y-150635392D01*
X95228578Y-150751422D01*
X95344608Y-150846645D01*
X95476985Y-150917402D01*
X95508000Y-150926810D01*
X95508001Y-151740421D01*
X95439301Y-151796801D01*
X95312988Y-151950715D01*
X95219128Y-152126313D01*
X95161330Y-152316849D01*
X95141814Y-152514999D01*
X95141814Y-155365001D01*
X95161330Y-155563151D01*
X95219128Y-155753687D01*
X95312988Y-155929285D01*
X95439301Y-156083199D01*
X95593215Y-156209512D01*
X95768813Y-156303372D01*
X95959349Y-156361170D01*
X96157499Y-156380686D01*
X96882501Y-156380686D01*
X97080651Y-156361170D01*
X97271187Y-156303372D01*
X97446785Y-156209512D01*
X97600699Y-156083199D01*
X97727012Y-155929285D01*
X97820872Y-155753687D01*
X97878670Y-155563151D01*
X97887861Y-155469832D01*
X97915946Y-155504054D01*
X97954558Y-155535742D01*
X98070042Y-155630518D01*
X98163987Y-155680732D01*
X98245851Y-155724489D01*
X98436613Y-155782357D01*
X98585289Y-155797000D01*
X98585298Y-155797000D01*
X98634999Y-155801895D01*
X98684700Y-155797000D01*
X98765422Y-155797000D01*
X98821801Y-155865699D01*
X98975715Y-155992012D01*
X99151313Y-156085872D01*
X99341849Y-156143670D01*
X99539999Y-156163186D01*
X102390001Y-156163186D01*
X102588151Y-156143670D01*
X102778687Y-156085872D01*
X102954285Y-155992012D01*
X103108199Y-155865699D01*
X103172481Y-155787371D01*
X103223387Y-155782357D01*
X103414149Y-155724489D01*
X103589957Y-155630518D01*
X103659314Y-155573598D01*
X103659314Y-155720000D01*
X103677389Y-155903519D01*
X103730919Y-156079985D01*
X103817848Y-156242617D01*
X103934835Y-156385165D01*
X104077383Y-156502152D01*
X104240015Y-156589081D01*
X104416481Y-156642611D01*
X104600000Y-156660686D01*
X104950000Y-156660686D01*
X105133519Y-156642611D01*
X105309985Y-156589081D01*
X105410000Y-156535622D01*
X105510015Y-156589081D01*
X105686481Y-156642611D01*
X105870000Y-156660686D01*
X106220000Y-156660686D01*
X106403519Y-156642611D01*
X106579985Y-156589081D01*
X106680000Y-156535622D01*
X106780015Y-156589081D01*
X106956481Y-156642611D01*
X107140000Y-156660686D01*
X107490000Y-156660686D01*
X107673519Y-156642611D01*
X107791291Y-156606885D01*
X107984356Y-156710081D01*
X108278794Y-156799397D01*
X108508273Y-156821999D01*
X109688280Y-156822001D01*
X109765001Y-156829557D01*
X109841720Y-156822001D01*
X109841725Y-156822001D01*
X110007633Y-156805660D01*
X110071206Y-156799399D01*
X110365645Y-156710082D01*
X110637000Y-156565039D01*
X110815248Y-156418755D01*
X110815253Y-156418750D01*
X110874844Y-156369845D01*
X110923751Y-156310252D01*
X112175252Y-155058751D01*
X112234844Y-155009846D01*
X112283750Y-154950254D01*
X112283754Y-154950250D01*
X112430038Y-154772002D01*
X112430040Y-154772000D01*
X112575082Y-154500645D01*
X112660201Y-154220043D01*
X112664398Y-154206208D01*
X112671078Y-154138386D01*
X112687000Y-153976728D01*
X112687000Y-153976722D01*
X112694556Y-153900003D01*
X112687000Y-153823284D01*
X112687000Y-152317000D01*
X118744283Y-152317000D01*
X118821002Y-152324556D01*
X118897721Y-152317000D01*
X118897728Y-152317000D01*
X119127207Y-152294398D01*
X119421645Y-152205082D01*
X119693001Y-152060039D01*
X119930846Y-151864844D01*
X119979757Y-151805246D01*
X122095247Y-149689756D01*
X122154845Y-149640845D01*
X122350040Y-149403000D01*
X122495083Y-149131644D01*
X122557305Y-148926523D01*
X122584399Y-148837207D01*
X122588259Y-148798015D01*
X122607001Y-148607727D01*
X122607001Y-148607720D01*
X122614557Y-148531001D01*
X122607001Y-148454282D01*
X122607001Y-143727720D01*
X122614557Y-143651001D01*
X122607001Y-143574282D01*
X122607001Y-143574275D01*
X122584399Y-143344796D01*
X122581989Y-143336849D01*
X122546530Y-143219957D01*
X122495083Y-143050358D01*
X122350040Y-142779002D01*
X122209223Y-142607416D01*
X122203755Y-142600753D01*
X122203751Y-142600749D01*
X122154845Y-142541157D01*
X122095254Y-142492252D01*
X120807000Y-141203999D01*
X120807000Y-141147911D01*
X120727758Y-140749537D01*
X120572321Y-140374277D01*
X120346660Y-140036552D01*
X120059448Y-139749340D01*
X119721723Y-139523679D01*
X119346463Y-139368242D01*
X118948089Y-139289000D01*
X118541911Y-139289000D01*
X118143537Y-139368242D01*
X117768277Y-139523679D01*
X117430552Y-139749340D01*
X117143340Y-140036552D01*
X116917679Y-140374277D01*
X116762242Y-140749537D01*
X116683000Y-141147911D01*
X116683000Y-141554089D01*
X116762242Y-141952463D01*
X116917679Y-142327723D01*
X117143340Y-142665448D01*
X117430552Y-142952660D01*
X117768277Y-143178321D01*
X118143537Y-143333758D01*
X118541911Y-143413000D01*
X118597999Y-143413000D01*
X119483001Y-144298003D01*
X119483001Y-144365314D01*
X117445000Y-144365314D01*
X117295622Y-144380026D01*
X117151985Y-144423598D01*
X117019608Y-144494355D01*
X116903578Y-144589578D01*
X116808355Y-144705608D01*
X116737598Y-144837985D01*
X116694026Y-144981622D01*
X116691901Y-145003200D01*
X112253042Y-145003200D01*
X112216422Y-144958578D01*
X112100392Y-144863355D01*
X111968015Y-144792598D01*
X111824378Y-144749026D01*
X111675000Y-144734314D01*
X111612794Y-144734314D01*
X111725643Y-144700082D01*
X111996999Y-144555039D01*
X112234844Y-144359844D01*
X112430039Y-144121999D01*
X112575082Y-143850643D01*
X112664398Y-143556205D01*
X112687000Y-143326726D01*
X112687000Y-141506999D01*
X118778314Y-135415686D01*
X120045000Y-135415686D01*
X120194378Y-135400974D01*
X120338015Y-135357402D01*
X120470392Y-135286645D01*
X120586422Y-135191422D01*
X120681645Y-135075392D01*
X120752402Y-134943015D01*
X120795974Y-134799378D01*
X120810686Y-134650000D01*
X120810686Y-133493315D01*
X122095252Y-132208750D01*
X122154845Y-132159843D01*
X122203751Y-132100251D01*
X122203755Y-132100247D01*
X122265508Y-132025000D01*
X122350040Y-131921998D01*
X122495083Y-131650642D01*
X122571061Y-131400175D01*
X122584399Y-131356205D01*
X122590031Y-131299026D01*
X122607001Y-131126725D01*
X122607001Y-131126718D01*
X122614557Y-131049999D01*
X122607001Y-130973280D01*
X122607001Y-127337725D01*
X122614557Y-127261006D01*
X122607001Y-127184287D01*
X122607001Y-127184281D01*
X122584399Y-126954802D01*
X122575511Y-126925500D01*
X122517723Y-126735000D01*
X122495083Y-126660364D01*
X122350040Y-126389008D01*
X122313036Y-126343919D01*
X122203755Y-126210759D01*
X122203751Y-126210755D01*
X122154845Y-126151163D01*
X122095254Y-126102258D01*
X118507749Y-122514754D01*
X118458838Y-122455156D01*
X118220993Y-122259961D01*
X117949637Y-122114918D01*
X117655199Y-122025602D01*
X117425720Y-122003000D01*
X117425713Y-122003000D01*
X117348994Y-121995444D01*
X117272275Y-122003000D01*
X112687000Y-122003000D01*
X112687000Y-121076716D01*
X112694556Y-120999997D01*
X112687000Y-120923278D01*
X112687000Y-120923272D01*
X112664398Y-120693793D01*
X112658038Y-120672825D01*
X112622038Y-120554149D01*
X112575082Y-120399355D01*
X112430039Y-120127999D01*
X112378699Y-120065441D01*
X112283754Y-119949750D01*
X112283750Y-119949746D01*
X112234844Y-119890154D01*
X112175252Y-119841249D01*
X110923751Y-118589748D01*
X110874844Y-118530155D01*
X110815253Y-118481250D01*
X110815248Y-118481245D01*
X110637000Y-118334961D01*
X110365645Y-118189918D01*
X110071206Y-118100601D01*
X109999899Y-118093578D01*
X109841725Y-118077999D01*
X109841720Y-118077999D01*
X109765001Y-118070443D01*
X109688280Y-118077999D01*
X108508273Y-118078001D01*
X108278794Y-118100603D01*
X107984356Y-118189919D01*
X107791291Y-118293115D01*
X107673519Y-118257389D01*
X107490000Y-118239314D01*
X107204043Y-118239314D01*
X107207000Y-118224447D01*
X107207000Y-117995553D01*
X107180778Y-117863721D01*
X118343000Y-117863721D01*
X118343000Y-118506279D01*
X118468357Y-119136490D01*
X118714253Y-119730136D01*
X119071239Y-120264404D01*
X119525596Y-120718761D01*
X120059864Y-121075747D01*
X120653510Y-121321643D01*
X121283721Y-121447000D01*
X121926279Y-121447000D01*
X122556490Y-121321643D01*
X123150136Y-121075747D01*
X123684404Y-120718761D01*
X124138761Y-120264404D01*
X124495747Y-119730136D01*
X124741643Y-119136490D01*
X124867000Y-118506279D01*
X124867000Y-117863721D01*
X124741643Y-117233510D01*
X124495747Y-116639864D01*
X124138761Y-116105596D01*
X123684404Y-115651239D01*
X123150136Y-115294253D01*
X122556490Y-115048357D01*
X121926279Y-114923000D01*
X121283721Y-114923000D01*
X120653510Y-115048357D01*
X120059864Y-115294253D01*
X119525596Y-115651239D01*
X119071239Y-116105596D01*
X118714253Y-116639864D01*
X118468357Y-117233510D01*
X118343000Y-117863721D01*
X107180778Y-117863721D01*
X107162345Y-117771057D01*
X107074751Y-117559587D01*
X106947584Y-117369268D01*
X106785732Y-117207416D01*
X106595413Y-117080249D01*
X106383943Y-116992655D01*
X106159447Y-116948000D01*
X105930553Y-116948000D01*
X105706057Y-116992655D01*
X105494587Y-117080249D01*
X105304268Y-117207416D01*
X105142416Y-117369268D01*
X105015249Y-117559587D01*
X104927655Y-117771057D01*
X104883000Y-117995553D01*
X104883000Y-118224447D01*
X104885957Y-118239314D01*
X104805498Y-118239314D01*
X104725742Y-118159558D01*
X104694054Y-118120946D01*
X104539957Y-117994482D01*
X104364149Y-117900511D01*
X104173387Y-117842643D01*
X104024711Y-117828000D01*
X104024701Y-117828000D01*
X103975000Y-117823105D01*
X103925299Y-117828000D01*
X103164578Y-117828000D01*
X103108199Y-117759301D01*
X102954285Y-117632988D01*
X102778687Y-117539128D01*
X102588151Y-117481330D01*
X102390001Y-117461814D01*
X99539999Y-117461814D01*
X99341849Y-117481330D01*
X99151313Y-117539128D01*
X98975715Y-117632988D01*
X98821801Y-117759301D01*
X98765422Y-117828000D01*
X98035686Y-117828000D01*
X98035686Y-117490000D01*
X98020974Y-117340622D01*
X97977402Y-117196985D01*
X97906645Y-117064608D01*
X97811422Y-116948578D01*
X97695392Y-116853355D01*
X97563015Y-116782598D01*
X97419378Y-116739026D01*
X97270000Y-116724314D01*
X95770000Y-116724314D01*
X95620622Y-116739026D01*
X95476985Y-116782598D01*
X95344608Y-116853355D01*
X95228578Y-116948578D01*
X95133355Y-117064608D01*
X95062598Y-117196985D01*
X95019026Y-117340622D01*
X95004314Y-117490000D01*
X93235686Y-117490000D01*
X93220974Y-117340622D01*
X93177402Y-117196985D01*
X93106645Y-117064608D01*
X93011422Y-116948578D01*
X92895392Y-116853355D01*
X92763015Y-116782598D01*
X92619378Y-116739026D01*
X92470000Y-116724314D01*
X90970000Y-116724314D01*
X90820622Y-116739026D01*
X90676985Y-116782598D01*
X90544608Y-116853355D01*
X90428578Y-116948578D01*
X90333355Y-117064608D01*
X90262598Y-117196985D01*
X90219026Y-117340622D01*
X90204314Y-117490000D01*
X90204314Y-120190000D01*
X90219026Y-120339378D01*
X90262598Y-120483015D01*
X90333355Y-120615392D01*
X90428578Y-120731422D01*
X90544608Y-120826645D01*
X90676985Y-120897402D01*
X90708001Y-120906810D01*
X90708001Y-121479314D01*
X90232499Y-121479314D01*
X90034349Y-121498830D01*
X89843813Y-121556628D01*
X89668215Y-121650488D01*
X89514301Y-121776801D01*
X89387988Y-121930715D01*
X89294128Y-122106313D01*
X89236330Y-122296849D01*
X89216814Y-122494999D01*
X89216814Y-122677991D01*
X89141447Y-122663000D01*
X88912553Y-122663000D01*
X88688057Y-122707655D01*
X88476587Y-122795249D01*
X88286268Y-122922416D01*
X88124416Y-123084268D01*
X87997249Y-123274587D01*
X87909655Y-123486057D01*
X87865000Y-123710553D01*
X87865000Y-123939447D01*
X87909655Y-124163943D01*
X87997249Y-124375413D01*
X88124416Y-124565732D01*
X88286268Y-124727584D01*
X88476587Y-124854751D01*
X88688057Y-124942345D01*
X88912553Y-124987000D01*
X89141447Y-124987000D01*
X89216814Y-124972009D01*
X89216814Y-125345001D01*
X89236330Y-125543151D01*
X89294128Y-125733687D01*
X89387988Y-125909285D01*
X89514301Y-126063199D01*
X89538429Y-126083000D01*
X87642619Y-126083000D01*
X87523641Y-126046909D01*
X87345000Y-126029314D01*
X85595000Y-126029314D01*
X85567000Y-126032072D01*
X85567000Y-125578803D01*
X85598199Y-125553199D01*
X85724512Y-125399285D01*
X85818372Y-125223687D01*
X85876170Y-125033151D01*
X85895686Y-124835001D01*
X85895686Y-123534999D01*
X85876170Y-123336849D01*
X85818372Y-123146313D01*
X85724512Y-122970715D01*
X85617000Y-122839710D01*
X85617000Y-122030146D01*
X85653725Y-121985396D01*
X85745275Y-121814119D01*
X85801650Y-121628273D01*
X85820686Y-121435000D01*
X85820686Y-120935000D01*
X85801650Y-120741727D01*
X85745275Y-120555881D01*
X85653725Y-120384604D01*
X85617000Y-120339854D01*
X85617000Y-120214708D01*
X85621896Y-120165000D01*
X85617000Y-120115289D01*
X85602357Y-119966613D01*
X85544489Y-119775851D01*
X85450518Y-119600043D01*
X85402180Y-119541143D01*
X85355743Y-119484559D01*
X85355742Y-119484558D01*
X85324054Y-119445946D01*
X85285442Y-119414258D01*
X84575742Y-118704558D01*
X84544054Y-118665946D01*
X84484544Y-118617107D01*
X84389957Y-118539482D01*
X84360885Y-118523943D01*
X84214149Y-118445511D01*
X84023387Y-118387643D01*
X83874711Y-118373000D01*
X83874701Y-118373000D01*
X83825000Y-118368105D01*
X83775299Y-118373000D01*
X78671810Y-118373000D01*
X78662402Y-118341985D01*
X78591645Y-118209608D01*
X78496422Y-118093578D01*
X78380392Y-117998355D01*
X78248015Y-117927598D01*
X78104378Y-117884026D01*
X77955000Y-117869314D01*
X75255000Y-117869314D01*
X75105622Y-117884026D01*
X74961985Y-117927598D01*
X74829608Y-117998355D01*
X74713578Y-118093578D01*
X74618355Y-118209608D01*
X74547598Y-118341985D01*
X74504026Y-118485622D01*
X74489314Y-118635000D01*
X74489314Y-120135000D01*
X74504026Y-120284378D01*
X74547598Y-120428015D01*
X74618355Y-120560392D01*
X74713578Y-120676422D01*
X74829608Y-120771645D01*
X74961985Y-120842402D01*
X75105622Y-120885974D01*
X75255000Y-120900686D01*
X77955000Y-120900686D01*
X78104378Y-120885974D01*
X78248015Y-120842402D01*
X78380392Y-120771645D01*
X78496422Y-120676422D01*
X78591645Y-120560392D01*
X78662402Y-120428015D01*
X78671810Y-120397000D01*
X81379957Y-120397000D01*
X81295946Y-120465946D01*
X81264254Y-120504563D01*
X80924559Y-120844257D01*
X80885946Y-120875946D01*
X80854258Y-120914558D01*
X80854257Y-120914559D01*
X80829243Y-120945039D01*
X80759482Y-121030043D01*
X80665511Y-121205852D01*
X80607643Y-121396614D01*
X80593000Y-121545290D01*
X80593000Y-121545299D01*
X80588105Y-121595000D01*
X80593000Y-121644701D01*
X80593000Y-122791196D01*
X80561801Y-122816801D01*
X80435488Y-122970715D01*
X80341628Y-123146313D01*
X80283830Y-123336849D01*
X80264314Y-123534999D01*
X80264314Y-124553130D01*
X79215742Y-123504558D01*
X79184054Y-123465946D01*
X79029957Y-123339482D01*
X78854149Y-123245511D01*
X78677556Y-123191941D01*
X78662402Y-123141985D01*
X78591645Y-123009608D01*
X78496422Y-122893578D01*
X78380392Y-122798355D01*
X78248015Y-122727598D01*
X78104378Y-122684026D01*
X77955000Y-122669314D01*
X75255000Y-122669314D01*
X75105622Y-122684026D01*
X74961985Y-122727598D01*
X74829608Y-122798355D01*
X74713578Y-122893578D01*
X74618355Y-123009608D01*
X74547598Y-123141985D01*
X74538190Y-123173000D01*
X70234701Y-123173000D01*
X70185000Y-123168105D01*
X70135299Y-123173000D01*
X70135289Y-123173000D01*
X69986613Y-123187643D01*
X69840250Y-123232043D01*
X69795850Y-123245511D01*
X69620042Y-123339482D01*
X69504558Y-123434257D01*
X69504553Y-123434262D01*
X69465946Y-123465946D01*
X69434262Y-123504553D01*
X65727755Y-127211061D01*
X65706463Y-127202242D01*
X65308089Y-127123000D01*
X64901911Y-127123000D01*
X64503537Y-127202242D01*
X64128277Y-127357679D01*
X63790552Y-127583340D01*
X63503340Y-127870552D01*
X63277679Y-128208277D01*
X63122242Y-128583537D01*
X63043000Y-128981911D01*
X59392000Y-128981911D01*
X59392000Y-122805000D01*
X63039314Y-122805000D01*
X63039314Y-125405000D01*
X63054026Y-125554378D01*
X63097598Y-125698015D01*
X63168355Y-125830392D01*
X63263578Y-125946422D01*
X63379608Y-126041645D01*
X63511985Y-126112402D01*
X63655622Y-126155974D01*
X63805000Y-126170686D01*
X66405000Y-126170686D01*
X66554378Y-126155974D01*
X66698015Y-126112402D01*
X66830392Y-126041645D01*
X66946422Y-125946422D01*
X67041645Y-125830392D01*
X67112402Y-125698015D01*
X67155974Y-125554378D01*
X67170686Y-125405000D01*
X67170686Y-122805000D01*
X67155974Y-122655622D01*
X67112402Y-122511985D01*
X67041645Y-122379608D01*
X66946422Y-122263578D01*
X66830392Y-122168355D01*
X66698015Y-122097598D01*
X66554378Y-122054026D01*
X66405000Y-122039314D01*
X63805000Y-122039314D01*
X63655622Y-122054026D01*
X63511985Y-122097598D01*
X63379608Y-122168355D01*
X63263578Y-122263578D01*
X63168355Y-122379608D01*
X63097598Y-122511985D01*
X63054026Y-122655622D01*
X63039314Y-122805000D01*
X59392000Y-122805000D01*
X59392000Y-117555096D01*
X63343000Y-117555096D01*
X63343000Y-118197654D01*
X63468357Y-118827865D01*
X63714253Y-119421511D01*
X64071239Y-119955779D01*
X64525596Y-120410136D01*
X65059864Y-120767122D01*
X65653510Y-121013018D01*
X66283721Y-121138375D01*
X66926279Y-121138375D01*
X67556490Y-121013018D01*
X68150136Y-120767122D01*
X68684404Y-120410136D01*
X69138761Y-119955779D01*
X69495747Y-119421511D01*
X69741643Y-118827865D01*
X69867000Y-118197654D01*
X69867000Y-117555096D01*
X69741643Y-116924885D01*
X69495747Y-116331239D01*
X69138761Y-115796971D01*
X68684404Y-115342614D01*
X68150136Y-114985628D01*
X67556490Y-114739732D01*
X66926279Y-114614375D01*
X66283721Y-114614375D01*
X65653510Y-114739732D01*
X65059864Y-114985628D01*
X64525596Y-115342614D01*
X64071239Y-115796971D01*
X63714253Y-116331239D01*
X63468357Y-116924885D01*
X63343000Y-117555096D01*
X59392000Y-117555096D01*
X59392000Y-116510985D01*
X61930986Y-113972000D01*
X123199015Y-113972000D01*
X125738001Y-116510987D01*
%TA.AperFunction,Conductor*%
D26*
G36*
X125738001Y-116510987D02*
G01*
X125738000Y-157859014D01*
X123199015Y-160398000D01*
X122172618Y-160398000D01*
X122556490Y-160321643D01*
X123150136Y-160075747D01*
X123684404Y-159718761D01*
X124138761Y-159264404D01*
X124495747Y-158730136D01*
X124741643Y-158136490D01*
X124867000Y-157506279D01*
X124867000Y-156863721D01*
X124741643Y-156233510D01*
X124495747Y-155639864D01*
X124138761Y-155105596D01*
X123684404Y-154651239D01*
X123150136Y-154294253D01*
X122556490Y-154048357D01*
X121926279Y-153923000D01*
X121283721Y-153923000D01*
X120653510Y-154048357D01*
X120059864Y-154294253D01*
X119525596Y-154651239D01*
X119071239Y-155105596D01*
X118714253Y-155639864D01*
X118468357Y-156233510D01*
X118343000Y-156863721D01*
X118343000Y-157506279D01*
X118468357Y-158136490D01*
X118714253Y-158730136D01*
X119071239Y-159264404D01*
X119525596Y-159718761D01*
X120059864Y-160075747D01*
X120653510Y-160321643D01*
X121037382Y-160398000D01*
X67172618Y-160398000D01*
X67556490Y-160321643D01*
X68150136Y-160075747D01*
X68684404Y-159718761D01*
X69138761Y-159264404D01*
X69495747Y-158730136D01*
X69741643Y-158136490D01*
X69867000Y-157506279D01*
X69867000Y-156863721D01*
X69741643Y-156233510D01*
X69495747Y-155639864D01*
X69138761Y-155105596D01*
X69138165Y-155105000D01*
X75514313Y-155105000D01*
X75529025Y-155254378D01*
X75572597Y-155398016D01*
X75625495Y-155496980D01*
X75584016Y-155574582D01*
X75531909Y-155746359D01*
X75514314Y-155925000D01*
X75514314Y-156225000D01*
X75531909Y-156403641D01*
X75584016Y-156575418D01*
X75668635Y-156733728D01*
X75782512Y-156872488D01*
X75921272Y-156986365D01*
X76079582Y-157070984D01*
X76251359Y-157123091D01*
X76430000Y-157140686D01*
X78180000Y-157140686D01*
X78358641Y-157123091D01*
X78530418Y-157070984D01*
X78688728Y-156986365D01*
X78827488Y-156872488D01*
X78941365Y-156733728D01*
X79025984Y-156575418D01*
X79078091Y-156403641D01*
X79095686Y-156225000D01*
X79095686Y-155925000D01*
X79078091Y-155746359D01*
X79025984Y-155574582D01*
X78984505Y-155496980D01*
X79037403Y-155398016D01*
X79080975Y-155254378D01*
X79095687Y-155105000D01*
X79092000Y-155041500D01*
X78901500Y-154851000D01*
X77355000Y-154851000D01*
X77355000Y-154875000D01*
X77255000Y-154875000D01*
X77255000Y-154851000D01*
X75708500Y-154851000D01*
X75518000Y-155041500D01*
X75514313Y-155105000D01*
X69138165Y-155105000D01*
X68684404Y-154651239D01*
X68150136Y-154294253D01*
X67556490Y-154048357D01*
X66926279Y-153923000D01*
X66283721Y-153923000D01*
X65653510Y-154048357D01*
X65059864Y-154294253D01*
X64525596Y-154651239D01*
X64071239Y-155105596D01*
X63714253Y-155639864D01*
X63468357Y-156233510D01*
X63343000Y-156863721D01*
X63343000Y-157506279D01*
X63468357Y-158136490D01*
X63714253Y-158730136D01*
X64071239Y-159264404D01*
X64525596Y-159718761D01*
X65059864Y-160075747D01*
X65653510Y-160321643D01*
X66037382Y-160398000D01*
X61930986Y-160398000D01*
X59392000Y-157859015D01*
X59392000Y-151061911D01*
X63043000Y-151061911D01*
X63043000Y-151468089D01*
X63122242Y-151866463D01*
X63277679Y-152241723D01*
X63503340Y-152579448D01*
X63790552Y-152866660D01*
X64128277Y-153092321D01*
X64503537Y-153247758D01*
X64901911Y-153327000D01*
X65308089Y-153327000D01*
X65706463Y-153247758D01*
X66081723Y-153092321D01*
X66419448Y-152866660D01*
X66706660Y-152579448D01*
X66932321Y-152241723D01*
X67087758Y-151866463D01*
X67167000Y-151468089D01*
X67167000Y-151061911D01*
X67087758Y-150663537D01*
X66932321Y-150288277D01*
X66706660Y-149950552D01*
X66419448Y-149663340D01*
X66081723Y-149437679D01*
X65706463Y-149282242D01*
X65308089Y-149203000D01*
X64901911Y-149203000D01*
X64503537Y-149282242D01*
X64128277Y-149437679D01*
X63790552Y-149663340D01*
X63503340Y-149950552D01*
X63277679Y-150288277D01*
X63122242Y-150663537D01*
X63043000Y-151061911D01*
X59392000Y-151061911D01*
X59392000Y-147485000D01*
X63039313Y-147485000D01*
X63054025Y-147634378D01*
X63097597Y-147778016D01*
X63168355Y-147910393D01*
X63263578Y-148026422D01*
X63379607Y-148121645D01*
X63511984Y-148192403D01*
X63655622Y-148235975D01*
X63805000Y-148250687D01*
X64864500Y-148247000D01*
X65055000Y-148056500D01*
X65055000Y-146235000D01*
X65155000Y-146235000D01*
X65155000Y-148056500D01*
X65345500Y-148247000D01*
X66405000Y-148250687D01*
X66554378Y-148235975D01*
X66698016Y-148192403D01*
X66830393Y-148121645D01*
X66946422Y-148026422D01*
X67041645Y-147910393D01*
X67112403Y-147778016D01*
X67155975Y-147634378D01*
X67170687Y-147485000D01*
X67167000Y-146425500D01*
X66976500Y-146235000D01*
X65155000Y-146235000D01*
X65055000Y-146235000D01*
X63233500Y-146235000D01*
X63043000Y-146425500D01*
X63039313Y-147485000D01*
X59392000Y-147485000D01*
X59392000Y-144885000D01*
X63039313Y-144885000D01*
X63043000Y-145944500D01*
X63233500Y-146135000D01*
X65055000Y-146135000D01*
X65055000Y-144313500D01*
X65155000Y-144313500D01*
X65155000Y-146135000D01*
X66976500Y-146135000D01*
X67167000Y-145944500D01*
X67170687Y-144885000D01*
X67155975Y-144735622D01*
X67112403Y-144591984D01*
X67041645Y-144459607D01*
X66946422Y-144343578D01*
X66830393Y-144248355D01*
X66698016Y-144177597D01*
X66554378Y-144134025D01*
X66405000Y-144119313D01*
X65345500Y-144123000D01*
X65155000Y-144313500D01*
X65055000Y-144313500D01*
X64864500Y-144123000D01*
X63805000Y-144119313D01*
X63655622Y-144134025D01*
X63511984Y-144177597D01*
X63379607Y-144248355D01*
X63263578Y-144343578D01*
X63168355Y-144459607D01*
X63097597Y-144591984D01*
X63054025Y-144735622D01*
X63039313Y-144885000D01*
X59392000Y-144885000D01*
X59392000Y-133805000D01*
X63039314Y-133805000D01*
X63039314Y-136405000D01*
X63054026Y-136554378D01*
X63097598Y-136698015D01*
X63168355Y-136830392D01*
X63263578Y-136946422D01*
X63379608Y-137041645D01*
X63511985Y-137112402D01*
X63655622Y-137155974D01*
X63805000Y-137170686D01*
X66405000Y-137170686D01*
X66554378Y-137155974D01*
X66698015Y-137112402D01*
X66830392Y-137041645D01*
X66946422Y-136946422D01*
X67041645Y-136830392D01*
X67112402Y-136698015D01*
X67155974Y-136554378D01*
X67170686Y-136405000D01*
X67170686Y-133805000D01*
X67155974Y-133655622D01*
X67112402Y-133511985D01*
X67041645Y-133379608D01*
X66946422Y-133263578D01*
X66830392Y-133168355D01*
X66698015Y-133097598D01*
X66554378Y-133054026D01*
X66405000Y-133039314D01*
X63805000Y-133039314D01*
X63655622Y-133054026D01*
X63511985Y-133097598D01*
X63379608Y-133168355D01*
X63263578Y-133263578D01*
X63168355Y-133379608D01*
X63097598Y-133511985D01*
X63054026Y-133655622D01*
X63039314Y-133805000D01*
X59392000Y-133805000D01*
X59392000Y-128981911D01*
X63043000Y-128981911D01*
X63043000Y-129388089D01*
X63122242Y-129786463D01*
X63277679Y-130161723D01*
X63503340Y-130499448D01*
X63790552Y-130786660D01*
X64128277Y-131012321D01*
X64503537Y-131167758D01*
X64901911Y-131247000D01*
X65308089Y-131247000D01*
X65706463Y-131167758D01*
X66081723Y-131012321D01*
X66419448Y-130786660D01*
X66706660Y-130499448D01*
X66932321Y-130161723D01*
X67087758Y-129786463D01*
X67167000Y-129388089D01*
X67167000Y-128981911D01*
X67109308Y-128691876D01*
X69591184Y-126210000D01*
X71839313Y-126210000D01*
X71843000Y-126444500D01*
X72033500Y-126635000D01*
X73005000Y-126635000D01*
X73005000Y-125638500D01*
X72814500Y-125448000D01*
X72605000Y-125444313D01*
X72455622Y-125459025D01*
X72311984Y-125502597D01*
X72179607Y-125573355D01*
X72063578Y-125668578D01*
X71968355Y-125784607D01*
X71897597Y-125916984D01*
X71854025Y-126060622D01*
X71839313Y-126210000D01*
X69591184Y-126210000D01*
X70604185Y-125197000D01*
X74538190Y-125197000D01*
X74547598Y-125228015D01*
X74618355Y-125360392D01*
X74687228Y-125444314D01*
X74380000Y-125444314D01*
X74186727Y-125463350D01*
X74000881Y-125519725D01*
X73915470Y-125565378D01*
X73798016Y-125502597D01*
X73654378Y-125459025D01*
X73505000Y-125444313D01*
X73295500Y-125448000D01*
X73105000Y-125638500D01*
X73105000Y-126635000D01*
X73125000Y-126635000D01*
X73125000Y-126735000D01*
X73105000Y-126735000D01*
X73105000Y-126755000D01*
X73005000Y-126755000D01*
X73005000Y-126735000D01*
X72033500Y-126735000D01*
X71843000Y-126925500D01*
X71839313Y-127160000D01*
X71854025Y-127309378D01*
X71897597Y-127453016D01*
X71968355Y-127585393D01*
X72063578Y-127701422D01*
X72070997Y-127707511D01*
X72055622Y-127709025D01*
X71911984Y-127752597D01*
X71779607Y-127823355D01*
X71663578Y-127918578D01*
X71568355Y-128034607D01*
X71497597Y-128166984D01*
X71454025Y-128310622D01*
X71439313Y-128460000D01*
X71443000Y-128944500D01*
X71633500Y-129135000D01*
X72655000Y-129135000D01*
X72655000Y-129115000D01*
X72755000Y-129115000D01*
X72755000Y-129135000D01*
X72775000Y-129135000D01*
X72775000Y-129235000D01*
X72755000Y-129235000D01*
X72755000Y-129255000D01*
X72655000Y-129255000D01*
X72655000Y-129235000D01*
X71633500Y-129235000D01*
X71443000Y-129425500D01*
X71439313Y-129910000D01*
X71454025Y-130059378D01*
X71497597Y-130203016D01*
X71568355Y-130335393D01*
X71663578Y-130451422D01*
X71779607Y-130546645D01*
X71794641Y-130554681D01*
X71741249Y-130634587D01*
X71653655Y-130846057D01*
X71609000Y-131070553D01*
X71609000Y-131299447D01*
X71653655Y-131523943D01*
X71741249Y-131735413D01*
X71864825Y-131920358D01*
X70008606Y-133776577D01*
X69974762Y-133804352D01*
X69863919Y-133939416D01*
X69781554Y-134093509D01*
X69742577Y-134222000D01*
X69730835Y-134260709D01*
X69713709Y-134434590D01*
X69718000Y-134478157D01*
X69718001Y-139194000D01*
X66922781Y-139194000D01*
X66706660Y-138870552D01*
X66419448Y-138583340D01*
X66081723Y-138357679D01*
X65706463Y-138202242D01*
X65308089Y-138123000D01*
X64901911Y-138123000D01*
X64503537Y-138202242D01*
X64128277Y-138357679D01*
X63790552Y-138583340D01*
X63503340Y-138870552D01*
X63277679Y-139208277D01*
X63122242Y-139583537D01*
X63043000Y-139981911D01*
X63043000Y-140388089D01*
X63122242Y-140786463D01*
X63277679Y-141161723D01*
X63503340Y-141499448D01*
X63790552Y-141786660D01*
X64128277Y-142012321D01*
X64503537Y-142167758D01*
X64901911Y-142247000D01*
X65308089Y-142247000D01*
X65706463Y-142167758D01*
X66081723Y-142012321D01*
X66419448Y-141786660D01*
X66706660Y-141499448D01*
X66932321Y-141161723D01*
X67012563Y-140968000D01*
X69718000Y-140968000D01*
X69718001Y-151333423D01*
X69713709Y-151377000D01*
X69730835Y-151550881D01*
X69781555Y-151718082D01*
X69863919Y-151872174D01*
X69943778Y-151969482D01*
X69974763Y-152007238D01*
X70008601Y-152035008D01*
X72104992Y-154131400D01*
X72132762Y-154165238D01*
X72166600Y-154193008D01*
X72166602Y-154193010D01*
X72182683Y-154206207D01*
X72267825Y-154276081D01*
X72421918Y-154358446D01*
X72583352Y-154407416D01*
X72589118Y-154409165D01*
X72763000Y-154426291D01*
X72806567Y-154422000D01*
X75522488Y-154422000D01*
X75514313Y-154505000D01*
X75518000Y-154568500D01*
X75708500Y-154759000D01*
X77255000Y-154759000D01*
X77255000Y-154735000D01*
X77355000Y-154735000D01*
X77355000Y-154759000D01*
X78901500Y-154759000D01*
X79092000Y-154568500D01*
X79095687Y-154505000D01*
X79080975Y-154355622D01*
X79037403Y-154211984D01*
X78984505Y-154113020D01*
X79025984Y-154035418D01*
X79078091Y-153863641D01*
X79095686Y-153685000D01*
X79095686Y-153385000D01*
X79078091Y-153206359D01*
X79025984Y-153034582D01*
X78984505Y-152956980D01*
X79037403Y-152858016D01*
X79080975Y-152714378D01*
X79095687Y-152565000D01*
X79092000Y-152501500D01*
X78901500Y-152311000D01*
X77355000Y-152311000D01*
X77355000Y-152335000D01*
X77255000Y-152335000D01*
X77255000Y-152311000D01*
X75708500Y-152311000D01*
X75518000Y-152501500D01*
X75514313Y-152565000D01*
X75522488Y-152648000D01*
X73130408Y-152648000D01*
X71492000Y-151009593D01*
X71492000Y-150764597D01*
X72318802Y-151591400D01*
X72346572Y-151625238D01*
X72481635Y-151736081D01*
X72615826Y-151807808D01*
X72634228Y-151817644D01*
X72635728Y-151818446D01*
X72802928Y-151869165D01*
X72933243Y-151882000D01*
X72933252Y-151882000D01*
X72976809Y-151886290D01*
X73020366Y-151882000D01*
X75522488Y-151882000D01*
X75514313Y-151965000D01*
X75518000Y-152028500D01*
X75708500Y-152219000D01*
X77255000Y-152219000D01*
X77255000Y-152195000D01*
X77355000Y-152195000D01*
X77355000Y-152219000D01*
X78901500Y-152219000D01*
X79092000Y-152028500D01*
X79095687Y-151965000D01*
X79080975Y-151815622D01*
X79037403Y-151671984D01*
X78984505Y-151573020D01*
X79025984Y-151495418D01*
X79078091Y-151323641D01*
X79095686Y-151145000D01*
X79095686Y-150845000D01*
X79078091Y-150666359D01*
X79025984Y-150494582D01*
X78954048Y-150360000D01*
X79025984Y-150225418D01*
X79078091Y-150053641D01*
X79095686Y-149875000D01*
X79095686Y-149575000D01*
X79078091Y-149396359D01*
X79025984Y-149224582D01*
X78954048Y-149090000D01*
X79025984Y-148955418D01*
X79078091Y-148783641D01*
X79095686Y-148605000D01*
X79095686Y-148305000D01*
X79078091Y-148126359D01*
X79025984Y-147954582D01*
X78954048Y-147820000D01*
X79025984Y-147685418D01*
X79078091Y-147513641D01*
X79095686Y-147335000D01*
X79095686Y-147035000D01*
X79078091Y-146856359D01*
X79025984Y-146684582D01*
X78941365Y-146526272D01*
X78827488Y-146387512D01*
X78688728Y-146273635D01*
X78530418Y-146189016D01*
X78358641Y-146136909D01*
X78180000Y-146119314D01*
X76430000Y-146119314D01*
X76251359Y-146136909D01*
X76079582Y-146189016D01*
X75921272Y-146273635D01*
X75813504Y-146362078D01*
X75801650Y-146241727D01*
X75745275Y-146055881D01*
X75653725Y-145884604D01*
X75530521Y-145734479D01*
X75436000Y-145656908D01*
X75436000Y-143377316D01*
X75451584Y-143361732D01*
X75505346Y-143281272D01*
X75504026Y-143285622D01*
X75489314Y-143435000D01*
X75489314Y-144935000D01*
X75504026Y-145084378D01*
X75547598Y-145228015D01*
X75618355Y-145360392D01*
X75713578Y-145476422D01*
X75829608Y-145571645D01*
X75961985Y-145642402D01*
X76105622Y-145685974D01*
X76255000Y-145700686D01*
X78864501Y-145700686D01*
X79140422Y-145976607D01*
X79146655Y-146007943D01*
X79234249Y-146219413D01*
X79252000Y-146245979D01*
X79252001Y-151969289D01*
X79247105Y-152019000D01*
X79252001Y-152068711D01*
X79266644Y-152217387D01*
X79292489Y-152302584D01*
X79324512Y-152408149D01*
X79418482Y-152583957D01*
X79513257Y-152699441D01*
X79513263Y-152699447D01*
X79544947Y-152738054D01*
X79583554Y-152769738D01*
X81029258Y-154215442D01*
X81060946Y-154254054D01*
X81099558Y-154285742D01*
X81099559Y-154285743D01*
X81123024Y-154305000D01*
X81215043Y-154380518D01*
X81390851Y-154474489D01*
X81581613Y-154532357D01*
X81730289Y-154547000D01*
X81730292Y-154547000D01*
X81780000Y-154551896D01*
X81829708Y-154547000D01*
X84816752Y-154547000D01*
X84818000Y-154568500D01*
X85008500Y-154759000D01*
X86555000Y-154759000D01*
X86555000Y-154735000D01*
X86655000Y-154735000D01*
X86655000Y-154759000D01*
X86675000Y-154759000D01*
X86675000Y-154851000D01*
X86655000Y-154851000D01*
X86655000Y-154875000D01*
X86555000Y-154875000D01*
X86555000Y-154851000D01*
X85008500Y-154851000D01*
X84818000Y-155041500D01*
X84814313Y-155105000D01*
X84829025Y-155254378D01*
X84872597Y-155398016D01*
X84925495Y-155496980D01*
X84884016Y-155574582D01*
X84831909Y-155746359D01*
X84814314Y-155925000D01*
X84814314Y-156225000D01*
X84831909Y-156403641D01*
X84884016Y-156575418D01*
X84968635Y-156733728D01*
X85082512Y-156872488D01*
X85221272Y-156986365D01*
X85379582Y-157070984D01*
X85551359Y-157123091D01*
X85730000Y-157140686D01*
X87480000Y-157140686D01*
X87658641Y-157123091D01*
X87762345Y-157091633D01*
X87765000Y-157091895D01*
X87814701Y-157087000D01*
X87814711Y-157087000D01*
X87963387Y-157072357D01*
X88154149Y-157014489D01*
X88329957Y-156920518D01*
X88388482Y-156872488D01*
X88445441Y-156825743D01*
X88445442Y-156825742D01*
X88484054Y-156794054D01*
X88515742Y-156755442D01*
X89207606Y-156063578D01*
X89238943Y-156057345D01*
X89428609Y-155978782D01*
X89514301Y-156083199D01*
X89668215Y-156209512D01*
X89843813Y-156303372D01*
X90034349Y-156361170D01*
X90232499Y-156380686D01*
X90957501Y-156380686D01*
X91155651Y-156361170D01*
X91346187Y-156303372D01*
X91521785Y-156209512D01*
X91675699Y-156083199D01*
X91802012Y-155929285D01*
X91895872Y-155753687D01*
X91953670Y-155563151D01*
X91973186Y-155365001D01*
X91973186Y-153992998D01*
X92400442Y-153565742D01*
X92439054Y-153534054D01*
X92480027Y-153484128D01*
X92565518Y-153379958D01*
X92629872Y-153259559D01*
X92659489Y-153204149D01*
X92717357Y-153013387D01*
X92732000Y-152864711D01*
X92732000Y-152864702D01*
X92736895Y-152815001D01*
X92732000Y-152765300D01*
X92732000Y-150926810D01*
X92763015Y-150917402D01*
X92895392Y-150846645D01*
X93011422Y-150751422D01*
X93106645Y-150635392D01*
X93177402Y-150503015D01*
X93220974Y-150359378D01*
X93235686Y-150210000D01*
X93235686Y-147510000D01*
X93220974Y-147360622D01*
X93177402Y-147216985D01*
X93106645Y-147084608D01*
X93011422Y-146968578D01*
X92895392Y-146873355D01*
X92763015Y-146802598D01*
X92619378Y-146759026D01*
X92470000Y-146744314D01*
X91035498Y-146744314D01*
X90795742Y-146504558D01*
X90764054Y-146465946D01*
X90715820Y-146426361D01*
X90609957Y-146339482D01*
X90434149Y-146245511D01*
X90352313Y-146220686D01*
X90957501Y-146220686D01*
X91155651Y-146201170D01*
X91346187Y-146143372D01*
X91521785Y-146049512D01*
X91675699Y-145923199D01*
X91802012Y-145769285D01*
X91895872Y-145593687D01*
X91953670Y-145403151D01*
X91973186Y-145205001D01*
X91973186Y-143832998D01*
X92400442Y-143405742D01*
X92439054Y-143374054D01*
X92490298Y-143311613D01*
X92565518Y-143219958D01*
X92629872Y-143099559D01*
X92659489Y-143044149D01*
X92717357Y-142853387D01*
X92732000Y-142704711D01*
X92732000Y-142704702D01*
X92736895Y-142655001D01*
X92732000Y-142605300D01*
X92732000Y-140766810D01*
X92763015Y-140757402D01*
X92895392Y-140686645D01*
X93011422Y-140591422D01*
X93106645Y-140475392D01*
X93177402Y-140343015D01*
X93220974Y-140199378D01*
X93235686Y-140050000D01*
X93235686Y-137350000D01*
X93220974Y-137200622D01*
X93177402Y-137056985D01*
X93106645Y-136924608D01*
X93011422Y-136808578D01*
X92895392Y-136713355D01*
X92763015Y-136642598D01*
X92619378Y-136599026D01*
X92470000Y-136584314D01*
X90970000Y-136584314D01*
X90820622Y-136599026D01*
X90676985Y-136642598D01*
X90544608Y-136713355D01*
X90428578Y-136808578D01*
X90333355Y-136924608D01*
X90262598Y-137056985D01*
X90219026Y-137200622D01*
X90204314Y-137350000D01*
X90204314Y-140050000D01*
X90219026Y-140199378D01*
X90262598Y-140343015D01*
X90333355Y-140475392D01*
X90428578Y-140591422D01*
X90544608Y-140686645D01*
X90676985Y-140757402D01*
X90708001Y-140766810D01*
X90708001Y-141339314D01*
X90232499Y-141339314D01*
X90034349Y-141358830D01*
X89843813Y-141416628D01*
X89668215Y-141510488D01*
X89514301Y-141636801D01*
X89387988Y-141790715D01*
X89294128Y-141966313D01*
X89236330Y-142156849D01*
X89216814Y-142354999D01*
X89216814Y-142388253D01*
X89014447Y-142348000D01*
X88785553Y-142348000D01*
X88561057Y-142392655D01*
X88349587Y-142480249D01*
X88159268Y-142607416D01*
X87997416Y-142769268D01*
X87870249Y-142959587D01*
X87782655Y-143171057D01*
X87738000Y-143395553D01*
X87738000Y-143624447D01*
X87782655Y-143848943D01*
X87870249Y-144060413D01*
X87997416Y-144250732D01*
X88159268Y-144412584D01*
X88349587Y-144539751D01*
X88561057Y-144627345D01*
X88785553Y-144672000D01*
X89014447Y-144672000D01*
X89216814Y-144631747D01*
X89216814Y-145205001D01*
X89236330Y-145403151D01*
X89294128Y-145593687D01*
X89387988Y-145769285D01*
X89514301Y-145923199D01*
X89668215Y-146049512D01*
X89843813Y-146143372D01*
X89941484Y-146173000D01*
X87777619Y-146173000D01*
X87658641Y-146136909D01*
X87480000Y-146119314D01*
X85730000Y-146119314D01*
X85567000Y-146135368D01*
X85567000Y-145578803D01*
X85598199Y-145553199D01*
X85724512Y-145399285D01*
X85818372Y-145223687D01*
X85876170Y-145033151D01*
X85895686Y-144835001D01*
X85895686Y-143534999D01*
X85876170Y-143336849D01*
X85818372Y-143146313D01*
X85724512Y-142970715D01*
X85617000Y-142839710D01*
X85617000Y-142030146D01*
X85653725Y-141985396D01*
X85745275Y-141814119D01*
X85801650Y-141628273D01*
X85820686Y-141435000D01*
X85820686Y-140935000D01*
X85801650Y-140741727D01*
X85745275Y-140555881D01*
X85653725Y-140384604D01*
X85617000Y-140339854D01*
X85617000Y-140234708D01*
X85621896Y-140185000D01*
X85617000Y-140135289D01*
X85602357Y-139986613D01*
X85547629Y-139806202D01*
X85544489Y-139795850D01*
X85450518Y-139620043D01*
X85355743Y-139504559D01*
X85355742Y-139504558D01*
X85324054Y-139465946D01*
X85285442Y-139434258D01*
X84555742Y-138704558D01*
X84524054Y-138665946D01*
X84477816Y-138627999D01*
X84369957Y-138539482D01*
X84362941Y-138535732D01*
X84194149Y-138445511D01*
X84003387Y-138387643D01*
X83854711Y-138373000D01*
X83854701Y-138373000D01*
X83805000Y-138368105D01*
X83755299Y-138373000D01*
X81075316Y-138373000D01*
X81166584Y-138281732D01*
X81293751Y-138091413D01*
X81381345Y-137879943D01*
X81426000Y-137655447D01*
X81426000Y-137426553D01*
X81381345Y-137202057D01*
X81316990Y-137046691D01*
X81316990Y-134456183D01*
X81325289Y-134457000D01*
X81325292Y-134457000D01*
X81375000Y-134461896D01*
X81424708Y-134457000D01*
X84681752Y-134457000D01*
X84683000Y-134478500D01*
X84873500Y-134669000D01*
X86420000Y-134669000D01*
X86420000Y-134645000D01*
X86520000Y-134645000D01*
X86520000Y-134669000D01*
X86540000Y-134669000D01*
X86540000Y-134761000D01*
X86520000Y-134761000D01*
X86520000Y-134785000D01*
X86420000Y-134785000D01*
X86420000Y-134761000D01*
X84873500Y-134761000D01*
X84683000Y-134951500D01*
X84679313Y-135015000D01*
X84694025Y-135164378D01*
X84737597Y-135308016D01*
X84790495Y-135406980D01*
X84749016Y-135484582D01*
X84696909Y-135656359D01*
X84679314Y-135835000D01*
X84679314Y-136135000D01*
X84696909Y-136313641D01*
X84749016Y-136485418D01*
X84833635Y-136643728D01*
X84947512Y-136782488D01*
X85086272Y-136896365D01*
X85244582Y-136980984D01*
X85416359Y-137033091D01*
X85595000Y-137050686D01*
X87345000Y-137050686D01*
X87523641Y-137033091D01*
X87642619Y-136997000D01*
X88247299Y-136997000D01*
X88297000Y-137001895D01*
X88346701Y-136997000D01*
X88346711Y-136997000D01*
X88495387Y-136982357D01*
X88686149Y-136924489D01*
X88861957Y-136830518D01*
X88888691Y-136808578D01*
X88977441Y-136735743D01*
X88977442Y-136735742D01*
X89016054Y-136704054D01*
X89047742Y-136665442D01*
X89334606Y-136378578D01*
X89365943Y-136372345D01*
X89577413Y-136284751D01*
X89583967Y-136280372D01*
X89668215Y-136349512D01*
X89843813Y-136443372D01*
X90034349Y-136501170D01*
X90232499Y-136520686D01*
X90957501Y-136520686D01*
X91155651Y-136501170D01*
X91346187Y-136443372D01*
X91521785Y-136349512D01*
X91675699Y-136223199D01*
X91802012Y-136069285D01*
X91895872Y-135893687D01*
X91953670Y-135703151D01*
X91973186Y-135505001D01*
X91973186Y-134342998D01*
X92400442Y-133915742D01*
X92439054Y-133884054D01*
X92476848Y-133838002D01*
X92565518Y-133729958D01*
X92629025Y-133611144D01*
X92659489Y-133554149D01*
X92717357Y-133363387D01*
X92732000Y-133214711D01*
X92732000Y-133214702D01*
X92736895Y-133165001D01*
X92732000Y-133115300D01*
X92732000Y-131066810D01*
X92763015Y-131057402D01*
X92895392Y-130986645D01*
X93011422Y-130891422D01*
X93106645Y-130775392D01*
X93177402Y-130643015D01*
X93220974Y-130499378D01*
X93235686Y-130350000D01*
X93235686Y-127650000D01*
X93220974Y-127500622D01*
X93177402Y-127356985D01*
X93106645Y-127224608D01*
X93011422Y-127108578D01*
X92895392Y-127013355D01*
X92763015Y-126942598D01*
X92619378Y-126899026D01*
X92470000Y-126884314D01*
X91035498Y-126884314D01*
X90565742Y-126414558D01*
X90534054Y-126375946D01*
X90515460Y-126360686D01*
X90957501Y-126360686D01*
X91155651Y-126341170D01*
X91346187Y-126283372D01*
X91521785Y-126189512D01*
X91675699Y-126063199D01*
X91802012Y-125909285D01*
X91895872Y-125733687D01*
X91953670Y-125543151D01*
X91973186Y-125345001D01*
X91973186Y-123972998D01*
X92400442Y-123545742D01*
X92439054Y-123514054D01*
X92497280Y-123443105D01*
X92565518Y-123359958D01*
X92653416Y-123195511D01*
X92659489Y-123184149D01*
X92717357Y-122993387D01*
X92732000Y-122844711D01*
X92732000Y-122844702D01*
X92736895Y-122795001D01*
X92732000Y-122745300D01*
X92732000Y-120906810D01*
X92763015Y-120897402D01*
X92895392Y-120826645D01*
X93011422Y-120731422D01*
X93106645Y-120615392D01*
X93177402Y-120483015D01*
X93220974Y-120339378D01*
X93235686Y-120190000D01*
X93235686Y-117490000D01*
X95004314Y-117490000D01*
X95004314Y-120190000D01*
X95019026Y-120339378D01*
X95062598Y-120483015D01*
X95133355Y-120615392D01*
X95228578Y-120731422D01*
X95344608Y-120826645D01*
X95476985Y-120897402D01*
X95508001Y-120906811D01*
X95508000Y-121720421D01*
X95439301Y-121776801D01*
X95312988Y-121930715D01*
X95219128Y-122106313D01*
X95161330Y-122296849D01*
X95141814Y-122494999D01*
X95141814Y-125345001D01*
X95161330Y-125543151D01*
X95219128Y-125733687D01*
X95312988Y-125909285D01*
X95439301Y-126063199D01*
X95593215Y-126189512D01*
X95768813Y-126283372D01*
X95959349Y-126341170D01*
X96157499Y-126360686D01*
X96882501Y-126360686D01*
X97080651Y-126341170D01*
X97271187Y-126283372D01*
X97446785Y-126189512D01*
X97600699Y-126063199D01*
X97727012Y-125909285D01*
X97820872Y-125733687D01*
X97878670Y-125543151D01*
X97898186Y-125345001D01*
X97898186Y-122494999D01*
X97878670Y-122296849D01*
X97820872Y-122106313D01*
X97727012Y-121930715D01*
X97600699Y-121776801D01*
X97532000Y-121720422D01*
X97532000Y-120906810D01*
X97563015Y-120897402D01*
X97695392Y-120826645D01*
X97811422Y-120731422D01*
X97906645Y-120615392D01*
X97977402Y-120483015D01*
X98020974Y-120339378D01*
X98035686Y-120190000D01*
X98035686Y-119852000D01*
X98765422Y-119852000D01*
X98821801Y-119920699D01*
X98975715Y-120047012D01*
X99151313Y-120140872D01*
X99341849Y-120198670D01*
X99539999Y-120218186D01*
X102390001Y-120218186D01*
X102588151Y-120198670D01*
X102778687Y-120140872D01*
X102954285Y-120047012D01*
X103108199Y-119920699D01*
X103164578Y-119852000D01*
X103555816Y-119852000D01*
X103659314Y-119955498D01*
X103659314Y-120100000D01*
X103677389Y-120283519D01*
X103693367Y-120336192D01*
X103687598Y-120346985D01*
X103644026Y-120490622D01*
X103629314Y-120640000D01*
X103629314Y-123299963D01*
X103619447Y-123298000D01*
X103390553Y-123298000D01*
X103166057Y-123342655D01*
X102954587Y-123430249D01*
X102848242Y-123501306D01*
X102778687Y-123464128D01*
X102588151Y-123406330D01*
X102390001Y-123386814D01*
X99539999Y-123386814D01*
X99341849Y-123406330D01*
X99151313Y-123464128D01*
X98975715Y-123557988D01*
X98821801Y-123684301D01*
X98695488Y-123838215D01*
X98601628Y-124013813D01*
X98543830Y-124204349D01*
X98524314Y-124402499D01*
X98524314Y-125127501D01*
X98543830Y-125325651D01*
X98601628Y-125516187D01*
X98695488Y-125691785D01*
X98821801Y-125845699D01*
X98975715Y-125972012D01*
X99151313Y-126065872D01*
X99341849Y-126123670D01*
X99539999Y-126143186D01*
X102390001Y-126143186D01*
X102588151Y-126123670D01*
X102778687Y-126065872D01*
X102954285Y-125972012D01*
X103108199Y-125845699D01*
X103163511Y-125778301D01*
X103200000Y-125781895D01*
X103249701Y-125777000D01*
X103249711Y-125777000D01*
X103398387Y-125762357D01*
X103505000Y-125730016D01*
X103505000Y-125811000D01*
X103519641Y-125959658D01*
X103542477Y-126074463D01*
X103585840Y-126217411D01*
X103656257Y-126349150D01*
X103721289Y-126446477D01*
X103816052Y-126561947D01*
X103931523Y-126656711D01*
X104028850Y-126721743D01*
X104160591Y-126792161D01*
X104303537Y-126835523D01*
X104418342Y-126858359D01*
X104567000Y-126873000D01*
X104775000Y-126873000D01*
X104775000Y-127258000D01*
X104739375Y-127258000D01*
X104712809Y-127240249D01*
X104501339Y-127152655D01*
X104276843Y-127108000D01*
X104047949Y-127108000D01*
X103823453Y-127152655D01*
X103611983Y-127240249D01*
X103421664Y-127367416D01*
X103259812Y-127529268D01*
X103132645Y-127719587D01*
X103064705Y-127883607D01*
X102954285Y-127792988D01*
X102778687Y-127699128D01*
X102588151Y-127641330D01*
X102390001Y-127621814D01*
X99539999Y-127621814D01*
X99341849Y-127641330D01*
X99151313Y-127699128D01*
X98975715Y-127792988D01*
X98821801Y-127919301D01*
X98765422Y-127988000D01*
X98035686Y-127988000D01*
X98035686Y-127650000D01*
X98020974Y-127500622D01*
X97977402Y-127356985D01*
X97906645Y-127224608D01*
X97811422Y-127108578D01*
X97695392Y-127013355D01*
X97563015Y-126942598D01*
X97419378Y-126899026D01*
X97270000Y-126884314D01*
X95770000Y-126884314D01*
X95620622Y-126899026D01*
X95476985Y-126942598D01*
X95344608Y-127013355D01*
X95228578Y-127108578D01*
X95133355Y-127224608D01*
X95062598Y-127356985D01*
X95019026Y-127500622D01*
X95004314Y-127650000D01*
X95004314Y-130350000D01*
X95019026Y-130499378D01*
X95062598Y-130643015D01*
X95133355Y-130775392D01*
X95228578Y-130891422D01*
X95344608Y-130986645D01*
X95476985Y-131057402D01*
X95508000Y-131066810D01*
X95508001Y-131880421D01*
X95439301Y-131936801D01*
X95312988Y-132090715D01*
X95219128Y-132266313D01*
X95161330Y-132456849D01*
X95141814Y-132654999D01*
X95141814Y-135505001D01*
X95161330Y-135703151D01*
X95219128Y-135893687D01*
X95312988Y-136069285D01*
X95439301Y-136223199D01*
X95593215Y-136349512D01*
X95768813Y-136443372D01*
X95959349Y-136501170D01*
X96157499Y-136520686D01*
X96882501Y-136520686D01*
X97080651Y-136501170D01*
X97271187Y-136443372D01*
X97446785Y-136349512D01*
X97600699Y-136223199D01*
X97727012Y-136069285D01*
X97820872Y-135893687D01*
X97878670Y-135703151D01*
X97887861Y-135609832D01*
X97915946Y-135644054D01*
X97954558Y-135675742D01*
X98070042Y-135770518D01*
X98135327Y-135805413D01*
X98245851Y-135864489D01*
X98436613Y-135922357D01*
X98585289Y-135937000D01*
X98585298Y-135937000D01*
X98634999Y-135941895D01*
X98684700Y-135937000D01*
X98765422Y-135937000D01*
X98821801Y-136005699D01*
X98975715Y-136132012D01*
X99151313Y-136225872D01*
X99341849Y-136283670D01*
X99539999Y-136303186D01*
X102390001Y-136303186D01*
X102588151Y-136283670D01*
X102778687Y-136225872D01*
X102954285Y-136132012D01*
X103108199Y-136005699D01*
X103163511Y-135938301D01*
X103200000Y-135941895D01*
X103249701Y-135937000D01*
X103249711Y-135937000D01*
X103398387Y-135922357D01*
X103589149Y-135864489D01*
X103659314Y-135826985D01*
X103659314Y-135860000D01*
X103677389Y-136043519D01*
X103730919Y-136219985D01*
X103817848Y-136382617D01*
X103934835Y-136525165D01*
X104077383Y-136642152D01*
X104240015Y-136729081D01*
X104416481Y-136782611D01*
X104600000Y-136800686D01*
X104950000Y-136800686D01*
X105133519Y-136782611D01*
X105309985Y-136729081D01*
X105410000Y-136675622D01*
X105510015Y-136729081D01*
X105551513Y-136741669D01*
X105494587Y-136765249D01*
X105304268Y-136892416D01*
X105142416Y-137054268D01*
X105015249Y-137244587D01*
X104927655Y-137456057D01*
X104883000Y-137680553D01*
X104883000Y-137909447D01*
X104920767Y-138099314D01*
X104805498Y-138099314D01*
X104725742Y-138019558D01*
X104694054Y-137980946D01*
X104539957Y-137854482D01*
X104364149Y-137760511D01*
X104173387Y-137702643D01*
X104024711Y-137688000D01*
X104024701Y-137688000D01*
X103975000Y-137683105D01*
X103925299Y-137688000D01*
X103164578Y-137688000D01*
X103108199Y-137619301D01*
X102954285Y-137492988D01*
X102778687Y-137399128D01*
X102588151Y-137341330D01*
X102390001Y-137321814D01*
X99539999Y-137321814D01*
X99341849Y-137341330D01*
X99151313Y-137399128D01*
X98975715Y-137492988D01*
X98821801Y-137619301D01*
X98765422Y-137688000D01*
X98035686Y-137688000D01*
X98035686Y-137350000D01*
X98020974Y-137200622D01*
X97977402Y-137056985D01*
X97906645Y-136924608D01*
X97811422Y-136808578D01*
X97695392Y-136713355D01*
X97563015Y-136642598D01*
X97419378Y-136599026D01*
X97270000Y-136584314D01*
X95770000Y-136584314D01*
X95620622Y-136599026D01*
X95476985Y-136642598D01*
X95344608Y-136713355D01*
X95228578Y-136808578D01*
X95133355Y-136924608D01*
X95062598Y-137056985D01*
X95019026Y-137200622D01*
X95004314Y-137350000D01*
X95004314Y-140050000D01*
X95019026Y-140199378D01*
X95062598Y-140343015D01*
X95133355Y-140475392D01*
X95228578Y-140591422D01*
X95344608Y-140686645D01*
X95476985Y-140757402D01*
X95508000Y-140766810D01*
X95508001Y-141580421D01*
X95439301Y-141636801D01*
X95312988Y-141790715D01*
X95219128Y-141966313D01*
X95161330Y-142156849D01*
X95141814Y-142354999D01*
X95141814Y-145205001D01*
X95161330Y-145403151D01*
X95219128Y-145593687D01*
X95312988Y-145769285D01*
X95439301Y-145923199D01*
X95593215Y-146049512D01*
X95768813Y-146143372D01*
X95959349Y-146201170D01*
X96157499Y-146220686D01*
X96882501Y-146220686D01*
X97080651Y-146201170D01*
X97271187Y-146143372D01*
X97446785Y-146049512D01*
X97600699Y-145923199D01*
X97727012Y-145769285D01*
X97820872Y-145593687D01*
X97878670Y-145403151D01*
X97898186Y-145205001D01*
X97898186Y-142354999D01*
X97878670Y-142156849D01*
X97820872Y-141966313D01*
X97727012Y-141790715D01*
X97600699Y-141636801D01*
X97532000Y-141580422D01*
X97532000Y-140766810D01*
X97563015Y-140757402D01*
X97695392Y-140686645D01*
X97811422Y-140591422D01*
X97906645Y-140475392D01*
X97977402Y-140343015D01*
X98020974Y-140199378D01*
X98035686Y-140050000D01*
X98035686Y-139712000D01*
X98765422Y-139712000D01*
X98821801Y-139780699D01*
X98975715Y-139907012D01*
X99151313Y-140000872D01*
X99341849Y-140058670D01*
X99539999Y-140078186D01*
X102390001Y-140078186D01*
X102588151Y-140058670D01*
X102778687Y-140000872D01*
X102954285Y-139907012D01*
X103108199Y-139780699D01*
X103164578Y-139712000D01*
X103555816Y-139712000D01*
X103659314Y-139815498D01*
X103659314Y-139960000D01*
X103677389Y-140143519D01*
X103693367Y-140196192D01*
X103687598Y-140206985D01*
X103644026Y-140350622D01*
X103629314Y-140500000D01*
X103629314Y-142984963D01*
X103619447Y-142983000D01*
X103390553Y-142983000D01*
X103166057Y-143027655D01*
X102954587Y-143115249D01*
X102764268Y-143242416D01*
X102704930Y-143301754D01*
X102588151Y-143266330D01*
X102390001Y-143246814D01*
X99539999Y-143246814D01*
X99341849Y-143266330D01*
X99151313Y-143324128D01*
X98975715Y-143417988D01*
X98821801Y-143544301D01*
X98695488Y-143698215D01*
X98601628Y-143873813D01*
X98543830Y-144064349D01*
X98524314Y-144262499D01*
X98524314Y-144987501D01*
X98543830Y-145185651D01*
X98601628Y-145376187D01*
X98695488Y-145551785D01*
X98821801Y-145705699D01*
X98975715Y-145832012D01*
X99151313Y-145925872D01*
X99341849Y-145983670D01*
X99539999Y-146003186D01*
X102390001Y-146003186D01*
X102588151Y-145983670D01*
X102778687Y-145925872D01*
X102954285Y-145832012D01*
X103108199Y-145705699D01*
X103172481Y-145627371D01*
X103223387Y-145622357D01*
X103414149Y-145564489D01*
X103511618Y-145512391D01*
X103519641Y-145593858D01*
X103542477Y-145708663D01*
X103585840Y-145851611D01*
X103656257Y-145983350D01*
X103721289Y-146080677D01*
X103816052Y-146196147D01*
X103931523Y-146290911D01*
X104028850Y-146355943D01*
X104160591Y-146426361D01*
X104303537Y-146469723D01*
X104418342Y-146492559D01*
X104567000Y-146507200D01*
X104902000Y-146507200D01*
X104902000Y-146943000D01*
X104716979Y-146943000D01*
X104690413Y-146925249D01*
X104478943Y-146837655D01*
X104254447Y-146793000D01*
X104025553Y-146793000D01*
X103801057Y-146837655D01*
X103589587Y-146925249D01*
X103399268Y-147052416D01*
X103237416Y-147214268D01*
X103110249Y-147404587D01*
X103022655Y-147616057D01*
X103006745Y-147696041D01*
X102954285Y-147652988D01*
X102778687Y-147559128D01*
X102588151Y-147501330D01*
X102390001Y-147481814D01*
X99539999Y-147481814D01*
X99341849Y-147501330D01*
X99151313Y-147559128D01*
X98975715Y-147652988D01*
X98821801Y-147779301D01*
X98765422Y-147848000D01*
X98035686Y-147848000D01*
X98035686Y-147510000D01*
X98020974Y-147360622D01*
X97977402Y-147216985D01*
X97906645Y-147084608D01*
X97811422Y-146968578D01*
X97695392Y-146873355D01*
X97563015Y-146802598D01*
X97419378Y-146759026D01*
X97270000Y-146744314D01*
X95770000Y-146744314D01*
X95620622Y-146759026D01*
X95476985Y-146802598D01*
X95344608Y-146873355D01*
X95228578Y-146968578D01*
X95133355Y-147084608D01*
X95062598Y-147216985D01*
X95019026Y-147360622D01*
X95004314Y-147510000D01*
X95004314Y-150210000D01*
X95019026Y-150359378D01*
X95062598Y-150503015D01*
X95133355Y-150635392D01*
X95228578Y-150751422D01*
X95344608Y-150846645D01*
X95476985Y-150917402D01*
X95508000Y-150926810D01*
X95508001Y-151740421D01*
X95439301Y-151796801D01*
X95312988Y-151950715D01*
X95219128Y-152126313D01*
X95161330Y-152316849D01*
X95141814Y-152514999D01*
X95141814Y-155365001D01*
X95161330Y-155563151D01*
X95219128Y-155753687D01*
X95312988Y-155929285D01*
X95439301Y-156083199D01*
X95593215Y-156209512D01*
X95768813Y-156303372D01*
X95959349Y-156361170D01*
X96157499Y-156380686D01*
X96882501Y-156380686D01*
X97080651Y-156361170D01*
X97271187Y-156303372D01*
X97446785Y-156209512D01*
X97600699Y-156083199D01*
X97727012Y-155929285D01*
X97820872Y-155753687D01*
X97878670Y-155563151D01*
X97887861Y-155469832D01*
X97915946Y-155504054D01*
X97954558Y-155535742D01*
X98070042Y-155630518D01*
X98163987Y-155680732D01*
X98245851Y-155724489D01*
X98436613Y-155782357D01*
X98585289Y-155797000D01*
X98585298Y-155797000D01*
X98634999Y-155801895D01*
X98684700Y-155797000D01*
X98765422Y-155797000D01*
X98821801Y-155865699D01*
X98975715Y-155992012D01*
X99151313Y-156085872D01*
X99341849Y-156143670D01*
X99539999Y-156163186D01*
X102390001Y-156163186D01*
X102588151Y-156143670D01*
X102778687Y-156085872D01*
X102954285Y-155992012D01*
X103108199Y-155865699D01*
X103172481Y-155787371D01*
X103223387Y-155782357D01*
X103414149Y-155724489D01*
X103589957Y-155630518D01*
X103659314Y-155573598D01*
X103659314Y-155720000D01*
X103677389Y-155903519D01*
X103730919Y-156079985D01*
X103817848Y-156242617D01*
X103934835Y-156385165D01*
X104077383Y-156502152D01*
X104240015Y-156589081D01*
X104416481Y-156642611D01*
X104600000Y-156660686D01*
X104950000Y-156660686D01*
X105133519Y-156642611D01*
X105309985Y-156589081D01*
X105410000Y-156535622D01*
X105510015Y-156589081D01*
X105686481Y-156642611D01*
X105870000Y-156660686D01*
X106220000Y-156660686D01*
X106403519Y-156642611D01*
X106579985Y-156589081D01*
X106680000Y-156535622D01*
X106780015Y-156589081D01*
X106956481Y-156642611D01*
X107140000Y-156660686D01*
X107490000Y-156660686D01*
X107673519Y-156642611D01*
X107791291Y-156606885D01*
X107984356Y-156710081D01*
X108278794Y-156799397D01*
X108508273Y-156821999D01*
X109688280Y-156822001D01*
X109765001Y-156829557D01*
X109841720Y-156822001D01*
X109841725Y-156822001D01*
X110007633Y-156805660D01*
X110071206Y-156799399D01*
X110365645Y-156710082D01*
X110637000Y-156565039D01*
X110815248Y-156418755D01*
X110815253Y-156418750D01*
X110874844Y-156369845D01*
X110923751Y-156310252D01*
X112175252Y-155058751D01*
X112234844Y-155009846D01*
X112283750Y-154950254D01*
X112283754Y-154950250D01*
X112430038Y-154772002D01*
X112430040Y-154772000D01*
X112575082Y-154500645D01*
X112660201Y-154220043D01*
X112664398Y-154206208D01*
X112671078Y-154138386D01*
X112687000Y-153976728D01*
X112687000Y-153976722D01*
X112694556Y-153900003D01*
X112687000Y-153823284D01*
X112687000Y-152317000D01*
X118744283Y-152317000D01*
X118821002Y-152324556D01*
X118897721Y-152317000D01*
X118897728Y-152317000D01*
X119127207Y-152294398D01*
X119421645Y-152205082D01*
X119693001Y-152060039D01*
X119930846Y-151864844D01*
X119979757Y-151805246D01*
X122095247Y-149689756D01*
X122154845Y-149640845D01*
X122350040Y-149403000D01*
X122495083Y-149131644D01*
X122557305Y-148926523D01*
X122584399Y-148837207D01*
X122588259Y-148798015D01*
X122607001Y-148607727D01*
X122607001Y-148607720D01*
X122614557Y-148531001D01*
X122607001Y-148454282D01*
X122607001Y-143727720D01*
X122614557Y-143651001D01*
X122607001Y-143574282D01*
X122607001Y-143574275D01*
X122584399Y-143344796D01*
X122581989Y-143336849D01*
X122546530Y-143219957D01*
X122495083Y-143050358D01*
X122350040Y-142779002D01*
X122209223Y-142607416D01*
X122203755Y-142600753D01*
X122203751Y-142600749D01*
X122154845Y-142541157D01*
X122095254Y-142492252D01*
X120807000Y-141203999D01*
X120807000Y-141147911D01*
X120727758Y-140749537D01*
X120572321Y-140374277D01*
X120346660Y-140036552D01*
X120059448Y-139749340D01*
X119721723Y-139523679D01*
X119346463Y-139368242D01*
X118948089Y-139289000D01*
X118541911Y-139289000D01*
X118143537Y-139368242D01*
X117768277Y-139523679D01*
X117430552Y-139749340D01*
X117143340Y-140036552D01*
X116917679Y-140374277D01*
X116762242Y-140749537D01*
X116683000Y-141147911D01*
X116683000Y-141554089D01*
X116762242Y-141952463D01*
X116917679Y-142327723D01*
X117143340Y-142665448D01*
X117430552Y-142952660D01*
X117768277Y-143178321D01*
X118143537Y-143333758D01*
X118541911Y-143413000D01*
X118597999Y-143413000D01*
X119483001Y-144298003D01*
X119483001Y-144365314D01*
X117445000Y-144365314D01*
X117295622Y-144380026D01*
X117151985Y-144423598D01*
X117019608Y-144494355D01*
X116903578Y-144589578D01*
X116808355Y-144705608D01*
X116737598Y-144837985D01*
X116694026Y-144981622D01*
X116691901Y-145003200D01*
X112253042Y-145003200D01*
X112216422Y-144958578D01*
X112100392Y-144863355D01*
X111968015Y-144792598D01*
X111824378Y-144749026D01*
X111675000Y-144734314D01*
X111612794Y-144734314D01*
X111725643Y-144700082D01*
X111996999Y-144555039D01*
X112234844Y-144359844D01*
X112430039Y-144121999D01*
X112575082Y-143850643D01*
X112664398Y-143556205D01*
X112687000Y-143326726D01*
X112687000Y-141506999D01*
X118778314Y-135415686D01*
X120045000Y-135415686D01*
X120194378Y-135400974D01*
X120338015Y-135357402D01*
X120470392Y-135286645D01*
X120586422Y-135191422D01*
X120681645Y-135075392D01*
X120752402Y-134943015D01*
X120795974Y-134799378D01*
X120810686Y-134650000D01*
X120810686Y-133493315D01*
X122095252Y-132208750D01*
X122154845Y-132159843D01*
X122203751Y-132100251D01*
X122203755Y-132100247D01*
X122265508Y-132025000D01*
X122350040Y-131921998D01*
X122495083Y-131650642D01*
X122571061Y-131400175D01*
X122584399Y-131356205D01*
X122590031Y-131299026D01*
X122607001Y-131126725D01*
X122607001Y-131126718D01*
X122614557Y-131049999D01*
X122607001Y-130973280D01*
X122607001Y-127337725D01*
X122614557Y-127261006D01*
X122607001Y-127184287D01*
X122607001Y-127184281D01*
X122584399Y-126954802D01*
X122575511Y-126925500D01*
X122517723Y-126735000D01*
X122495083Y-126660364D01*
X122350040Y-126389008D01*
X122313036Y-126343919D01*
X122203755Y-126210759D01*
X122203751Y-126210755D01*
X122154845Y-126151163D01*
X122095254Y-126102258D01*
X118507749Y-122514754D01*
X118458838Y-122455156D01*
X118220993Y-122259961D01*
X117949637Y-122114918D01*
X117655199Y-122025602D01*
X117425720Y-122003000D01*
X117425713Y-122003000D01*
X117348994Y-121995444D01*
X117272275Y-122003000D01*
X112687000Y-122003000D01*
X112687000Y-121076716D01*
X112694556Y-120999997D01*
X112687000Y-120923278D01*
X112687000Y-120923272D01*
X112664398Y-120693793D01*
X112658038Y-120672825D01*
X112622038Y-120554149D01*
X112575082Y-120399355D01*
X112430039Y-120127999D01*
X112378699Y-120065441D01*
X112283754Y-119949750D01*
X112283750Y-119949746D01*
X112234844Y-119890154D01*
X112175252Y-119841249D01*
X110923751Y-118589748D01*
X110874844Y-118530155D01*
X110815253Y-118481250D01*
X110815248Y-118481245D01*
X110637000Y-118334961D01*
X110365645Y-118189918D01*
X110071206Y-118100601D01*
X109999899Y-118093578D01*
X109841725Y-118077999D01*
X109841720Y-118077999D01*
X109765001Y-118070443D01*
X109688280Y-118077999D01*
X108508273Y-118078001D01*
X108278794Y-118100603D01*
X107984356Y-118189919D01*
X107791291Y-118293115D01*
X107673519Y-118257389D01*
X107490000Y-118239314D01*
X107204043Y-118239314D01*
X107207000Y-118224447D01*
X107207000Y-117995553D01*
X107180778Y-117863721D01*
X118343000Y-117863721D01*
X118343000Y-118506279D01*
X118468357Y-119136490D01*
X118714253Y-119730136D01*
X119071239Y-120264404D01*
X119525596Y-120718761D01*
X120059864Y-121075747D01*
X120653510Y-121321643D01*
X121283721Y-121447000D01*
X121926279Y-121447000D01*
X122556490Y-121321643D01*
X123150136Y-121075747D01*
X123684404Y-120718761D01*
X124138761Y-120264404D01*
X124495747Y-119730136D01*
X124741643Y-119136490D01*
X124867000Y-118506279D01*
X124867000Y-117863721D01*
X124741643Y-117233510D01*
X124495747Y-116639864D01*
X124138761Y-116105596D01*
X123684404Y-115651239D01*
X123150136Y-115294253D01*
X122556490Y-115048357D01*
X121926279Y-114923000D01*
X121283721Y-114923000D01*
X120653510Y-115048357D01*
X120059864Y-115294253D01*
X119525596Y-115651239D01*
X119071239Y-116105596D01*
X118714253Y-116639864D01*
X118468357Y-117233510D01*
X118343000Y-117863721D01*
X107180778Y-117863721D01*
X107162345Y-117771057D01*
X107074751Y-117559587D01*
X106947584Y-117369268D01*
X106785732Y-117207416D01*
X106595413Y-117080249D01*
X106383943Y-116992655D01*
X106159447Y-116948000D01*
X105930553Y-116948000D01*
X105706057Y-116992655D01*
X105494587Y-117080249D01*
X105304268Y-117207416D01*
X105142416Y-117369268D01*
X105015249Y-117559587D01*
X104927655Y-117771057D01*
X104883000Y-117995553D01*
X104883000Y-118224447D01*
X104885957Y-118239314D01*
X104805498Y-118239314D01*
X104725742Y-118159558D01*
X104694054Y-118120946D01*
X104539957Y-117994482D01*
X104364149Y-117900511D01*
X104173387Y-117842643D01*
X104024711Y-117828000D01*
X104024701Y-117828000D01*
X103975000Y-117823105D01*
X103925299Y-117828000D01*
X103164578Y-117828000D01*
X103108199Y-117759301D01*
X102954285Y-117632988D01*
X102778687Y-117539128D01*
X102588151Y-117481330D01*
X102390001Y-117461814D01*
X99539999Y-117461814D01*
X99341849Y-117481330D01*
X99151313Y-117539128D01*
X98975715Y-117632988D01*
X98821801Y-117759301D01*
X98765422Y-117828000D01*
X98035686Y-117828000D01*
X98035686Y-117490000D01*
X98020974Y-117340622D01*
X97977402Y-117196985D01*
X97906645Y-117064608D01*
X97811422Y-116948578D01*
X97695392Y-116853355D01*
X97563015Y-116782598D01*
X97419378Y-116739026D01*
X97270000Y-116724314D01*
X95770000Y-116724314D01*
X95620622Y-116739026D01*
X95476985Y-116782598D01*
X95344608Y-116853355D01*
X95228578Y-116948578D01*
X95133355Y-117064608D01*
X95062598Y-117196985D01*
X95019026Y-117340622D01*
X95004314Y-117490000D01*
X93235686Y-117490000D01*
X93220974Y-117340622D01*
X93177402Y-117196985D01*
X93106645Y-117064608D01*
X93011422Y-116948578D01*
X92895392Y-116853355D01*
X92763015Y-116782598D01*
X92619378Y-116739026D01*
X92470000Y-116724314D01*
X90970000Y-116724314D01*
X90820622Y-116739026D01*
X90676985Y-116782598D01*
X90544608Y-116853355D01*
X90428578Y-116948578D01*
X90333355Y-117064608D01*
X90262598Y-117196985D01*
X90219026Y-117340622D01*
X90204314Y-117490000D01*
X90204314Y-120190000D01*
X90219026Y-120339378D01*
X90262598Y-120483015D01*
X90333355Y-120615392D01*
X90428578Y-120731422D01*
X90544608Y-120826645D01*
X90676985Y-120897402D01*
X90708001Y-120906810D01*
X90708001Y-121479314D01*
X90232499Y-121479314D01*
X90034349Y-121498830D01*
X89843813Y-121556628D01*
X89668215Y-121650488D01*
X89514301Y-121776801D01*
X89387988Y-121930715D01*
X89294128Y-122106313D01*
X89236330Y-122296849D01*
X89216814Y-122494999D01*
X89216814Y-122677991D01*
X89141447Y-122663000D01*
X88912553Y-122663000D01*
X88688057Y-122707655D01*
X88476587Y-122795249D01*
X88286268Y-122922416D01*
X88124416Y-123084268D01*
X87997249Y-123274587D01*
X87909655Y-123486057D01*
X87865000Y-123710553D01*
X87865000Y-123939447D01*
X87909655Y-124163943D01*
X87997249Y-124375413D01*
X88124416Y-124565732D01*
X88286268Y-124727584D01*
X88476587Y-124854751D01*
X88688057Y-124942345D01*
X88912553Y-124987000D01*
X89141447Y-124987000D01*
X89216814Y-124972009D01*
X89216814Y-125345001D01*
X89236330Y-125543151D01*
X89294128Y-125733687D01*
X89387988Y-125909285D01*
X89514301Y-126063199D01*
X89538429Y-126083000D01*
X87642619Y-126083000D01*
X87523641Y-126046909D01*
X87345000Y-126029314D01*
X85595000Y-126029314D01*
X85567000Y-126032072D01*
X85567000Y-125578803D01*
X85598199Y-125553199D01*
X85724512Y-125399285D01*
X85818372Y-125223687D01*
X85876170Y-125033151D01*
X85895686Y-124835001D01*
X85895686Y-123534999D01*
X85876170Y-123336849D01*
X85818372Y-123146313D01*
X85724512Y-122970715D01*
X85617000Y-122839710D01*
X85617000Y-122030146D01*
X85653725Y-121985396D01*
X85745275Y-121814119D01*
X85801650Y-121628273D01*
X85820686Y-121435000D01*
X85820686Y-120935000D01*
X85801650Y-120741727D01*
X85745275Y-120555881D01*
X85653725Y-120384604D01*
X85617000Y-120339854D01*
X85617000Y-120214708D01*
X85621896Y-120165000D01*
X85617000Y-120115289D01*
X85602357Y-119966613D01*
X85544489Y-119775851D01*
X85450518Y-119600043D01*
X85402180Y-119541143D01*
X85355743Y-119484559D01*
X85355742Y-119484558D01*
X85324054Y-119445946D01*
X85285442Y-119414258D01*
X84575742Y-118704558D01*
X84544054Y-118665946D01*
X84484544Y-118617107D01*
X84389957Y-118539482D01*
X84360885Y-118523943D01*
X84214149Y-118445511D01*
X84023387Y-118387643D01*
X83874711Y-118373000D01*
X83874701Y-118373000D01*
X83825000Y-118368105D01*
X83775299Y-118373000D01*
X78671810Y-118373000D01*
X78662402Y-118341985D01*
X78591645Y-118209608D01*
X78496422Y-118093578D01*
X78380392Y-117998355D01*
X78248015Y-117927598D01*
X78104378Y-117884026D01*
X77955000Y-117869314D01*
X75255000Y-117869314D01*
X75105622Y-117884026D01*
X74961985Y-117927598D01*
X74829608Y-117998355D01*
X74713578Y-118093578D01*
X74618355Y-118209608D01*
X74547598Y-118341985D01*
X74504026Y-118485622D01*
X74489314Y-118635000D01*
X74489314Y-120135000D01*
X74504026Y-120284378D01*
X74547598Y-120428015D01*
X74618355Y-120560392D01*
X74713578Y-120676422D01*
X74829608Y-120771645D01*
X74961985Y-120842402D01*
X75105622Y-120885974D01*
X75255000Y-120900686D01*
X77955000Y-120900686D01*
X78104378Y-120885974D01*
X78248015Y-120842402D01*
X78380392Y-120771645D01*
X78496422Y-120676422D01*
X78591645Y-120560392D01*
X78662402Y-120428015D01*
X78671810Y-120397000D01*
X81379957Y-120397000D01*
X81295946Y-120465946D01*
X81264254Y-120504563D01*
X80924559Y-120844257D01*
X80885946Y-120875946D01*
X80854258Y-120914558D01*
X80854257Y-120914559D01*
X80829243Y-120945039D01*
X80759482Y-121030043D01*
X80665511Y-121205852D01*
X80607643Y-121396614D01*
X80593000Y-121545290D01*
X80593000Y-121545299D01*
X80588105Y-121595000D01*
X80593000Y-121644701D01*
X80593000Y-122791196D01*
X80561801Y-122816801D01*
X80435488Y-122970715D01*
X80341628Y-123146313D01*
X80283830Y-123336849D01*
X80264314Y-123534999D01*
X80264314Y-124553130D01*
X79215742Y-123504558D01*
X79184054Y-123465946D01*
X79029957Y-123339482D01*
X78854149Y-123245511D01*
X78677556Y-123191941D01*
X78662402Y-123141985D01*
X78591645Y-123009608D01*
X78496422Y-122893578D01*
X78380392Y-122798355D01*
X78248015Y-122727598D01*
X78104378Y-122684026D01*
X77955000Y-122669314D01*
X75255000Y-122669314D01*
X75105622Y-122684026D01*
X74961985Y-122727598D01*
X74829608Y-122798355D01*
X74713578Y-122893578D01*
X74618355Y-123009608D01*
X74547598Y-123141985D01*
X74538190Y-123173000D01*
X70234701Y-123173000D01*
X70185000Y-123168105D01*
X70135299Y-123173000D01*
X70135289Y-123173000D01*
X69986613Y-123187643D01*
X69840250Y-123232043D01*
X69795850Y-123245511D01*
X69620042Y-123339482D01*
X69504558Y-123434257D01*
X69504553Y-123434262D01*
X69465946Y-123465946D01*
X69434262Y-123504553D01*
X65727755Y-127211061D01*
X65706463Y-127202242D01*
X65308089Y-127123000D01*
X64901911Y-127123000D01*
X64503537Y-127202242D01*
X64128277Y-127357679D01*
X63790552Y-127583340D01*
X63503340Y-127870552D01*
X63277679Y-128208277D01*
X63122242Y-128583537D01*
X63043000Y-128981911D01*
X59392000Y-128981911D01*
X59392000Y-122805000D01*
X63039314Y-122805000D01*
X63039314Y-125405000D01*
X63054026Y-125554378D01*
X63097598Y-125698015D01*
X63168355Y-125830392D01*
X63263578Y-125946422D01*
X63379608Y-126041645D01*
X63511985Y-126112402D01*
X63655622Y-126155974D01*
X63805000Y-126170686D01*
X66405000Y-126170686D01*
X66554378Y-126155974D01*
X66698015Y-126112402D01*
X66830392Y-126041645D01*
X66946422Y-125946422D01*
X67041645Y-125830392D01*
X67112402Y-125698015D01*
X67155974Y-125554378D01*
X67170686Y-125405000D01*
X67170686Y-122805000D01*
X67155974Y-122655622D01*
X67112402Y-122511985D01*
X67041645Y-122379608D01*
X66946422Y-122263578D01*
X66830392Y-122168355D01*
X66698015Y-122097598D01*
X66554378Y-122054026D01*
X66405000Y-122039314D01*
X63805000Y-122039314D01*
X63655622Y-122054026D01*
X63511985Y-122097598D01*
X63379608Y-122168355D01*
X63263578Y-122263578D01*
X63168355Y-122379608D01*
X63097598Y-122511985D01*
X63054026Y-122655622D01*
X63039314Y-122805000D01*
X59392000Y-122805000D01*
X59392000Y-117555096D01*
X63343000Y-117555096D01*
X63343000Y-118197654D01*
X63468357Y-118827865D01*
X63714253Y-119421511D01*
X64071239Y-119955779D01*
X64525596Y-120410136D01*
X65059864Y-120767122D01*
X65653510Y-121013018D01*
X66283721Y-121138375D01*
X66926279Y-121138375D01*
X67556490Y-121013018D01*
X68150136Y-120767122D01*
X68684404Y-120410136D01*
X69138761Y-119955779D01*
X69495747Y-119421511D01*
X69741643Y-118827865D01*
X69867000Y-118197654D01*
X69867000Y-117555096D01*
X69741643Y-116924885D01*
X69495747Y-116331239D01*
X69138761Y-115796971D01*
X68684404Y-115342614D01*
X68150136Y-114985628D01*
X67556490Y-114739732D01*
X66926279Y-114614375D01*
X66283721Y-114614375D01*
X65653510Y-114739732D01*
X65059864Y-114985628D01*
X64525596Y-115342614D01*
X64071239Y-115796971D01*
X63714253Y-116331239D01*
X63468357Y-116924885D01*
X63343000Y-117555096D01*
X59392000Y-117555096D01*
X59392000Y-116510985D01*
X61930986Y-113972000D01*
X123199015Y-113972000D01*
X125738001Y-116510987D01*
G37*
%TD.AperFunction*%
D27*
X84829262Y-150405447D02*
X84860946Y-150444054D01*
X84895755Y-150472621D01*
X84884016Y-150494582D01*
X84831909Y-150666359D01*
X84814314Y-150845000D01*
X84814314Y-151145000D01*
X84831909Y-151323641D01*
X84884016Y-151495418D01*
X84955952Y-151630000D01*
X84884016Y-151764582D01*
X84831909Y-151936359D01*
X84814314Y-152115000D01*
X84814314Y-152415000D01*
X84824951Y-152523000D01*
X82199184Y-152523000D01*
X81276000Y-151599816D01*
X81276000Y-146852184D01*
X84829262Y-150405447D01*
%TA.AperFunction,Conductor*%
D26*
G36*
X84829262Y-150405447D02*
G01*
X84860946Y-150444054D01*
X84895755Y-150472621D01*
X84884016Y-150494582D01*
X84831909Y-150666359D01*
X84814314Y-150845000D01*
X84814314Y-151145000D01*
X84831909Y-151323641D01*
X84884016Y-151495418D01*
X84955952Y-151630000D01*
X84884016Y-151764582D01*
X84831909Y-151936359D01*
X84814314Y-152115000D01*
X84814314Y-152415000D01*
X84824951Y-152523000D01*
X82199184Y-152523000D01*
X81276000Y-151599816D01*
X81276000Y-146852184D01*
X84829262Y-150405447D01*
G37*
%TD.AperFunction*%
D27*
X72755000Y-149135000D02*
X72775000Y-149135000D01*
X72775000Y-149235000D01*
X72755000Y-149235000D01*
X72755000Y-149255000D01*
X72655000Y-149255000D01*
X72655000Y-149235000D01*
X72635000Y-149235000D01*
X72635000Y-149135000D01*
X72655000Y-149135000D01*
X72655000Y-149115000D01*
X72755000Y-149115000D01*
X72755000Y-149135000D01*
%TA.AperFunction,Conductor*%
D26*
G36*
X72755000Y-149135000D02*
G01*
X72775000Y-149135000D01*
X72775000Y-149235000D01*
X72755000Y-149235000D01*
X72755000Y-149255000D01*
X72655000Y-149255000D01*
X72655000Y-149235000D01*
X72635000Y-149235000D01*
X72635000Y-149135000D01*
X72655000Y-149135000D01*
X72655000Y-149115000D01*
X72755000Y-149115000D01*
X72755000Y-149135000D01*
G37*
%TD.AperFunction*%
D27*
X79292990Y-126444174D02*
X79292991Y-132325270D01*
X79292990Y-132325280D01*
X79292990Y-132325289D01*
X79288095Y-132374990D01*
X79292990Y-132424691D01*
X79292991Y-136902674D01*
X79234249Y-136990587D01*
X79146655Y-137202057D01*
X79102000Y-137426553D01*
X79102000Y-137655447D01*
X79146655Y-137879943D01*
X79154665Y-137899280D01*
X79104378Y-137884026D01*
X78955000Y-137869314D01*
X76255000Y-137869314D01*
X76105622Y-137884026D01*
X75961985Y-137927598D01*
X75829608Y-137998355D01*
X75713578Y-138093578D01*
X75618355Y-138209608D01*
X75547598Y-138341985D01*
X75504026Y-138485622D01*
X75489314Y-138635000D01*
X75489314Y-140135000D01*
X75504026Y-140284378D01*
X75547598Y-140428015D01*
X75618355Y-140560392D01*
X75713578Y-140676422D01*
X75829608Y-140771645D01*
X75961985Y-140842402D01*
X76105622Y-140885974D01*
X76255000Y-140900686D01*
X78955000Y-140900686D01*
X79104378Y-140885974D01*
X79248015Y-140842402D01*
X79380392Y-140771645D01*
X79496422Y-140676422D01*
X79591645Y-140560392D01*
X79662402Y-140428015D01*
X79671810Y-140397000D01*
X81699956Y-140397000D01*
X81654558Y-140434257D01*
X81654553Y-140434262D01*
X81615946Y-140465946D01*
X81584262Y-140504553D01*
X80924558Y-141164258D01*
X80885946Y-141195946D01*
X80759482Y-141350043D01*
X80665511Y-141525852D01*
X80607643Y-141716614D01*
X80593000Y-141865290D01*
X80593000Y-141865299D01*
X80588105Y-141915000D01*
X80593000Y-141964701D01*
X80593000Y-142791197D01*
X80561801Y-142816801D01*
X80435488Y-142970715D01*
X80341628Y-143146313D01*
X80283830Y-143336849D01*
X80264314Y-143534999D01*
X80264314Y-144238129D01*
X79720686Y-143694502D01*
X79720686Y-143435000D01*
X79705974Y-143285622D01*
X79662402Y-143141985D01*
X79591645Y-143009608D01*
X79496422Y-142893578D01*
X79380392Y-142798355D01*
X79248015Y-142727598D01*
X79104378Y-142684026D01*
X78955000Y-142669314D01*
X76255000Y-142669314D01*
X76105622Y-142684026D01*
X75961985Y-142727598D01*
X75829608Y-142798355D01*
X75713578Y-142893578D01*
X75668658Y-142948313D01*
X75711000Y-142735447D01*
X75711000Y-142506553D01*
X75666345Y-142282057D01*
X75578751Y-142070587D01*
X75451584Y-141880268D01*
X75289732Y-141718416D01*
X75099413Y-141591249D01*
X74887943Y-141503655D01*
X74663447Y-141459000D01*
X74434553Y-141459000D01*
X74210057Y-141503655D01*
X73998587Y-141591249D01*
X73808268Y-141718416D01*
X73646416Y-141880268D01*
X73519249Y-142070587D01*
X73431655Y-142282057D01*
X73387000Y-142506553D01*
X73387000Y-142735447D01*
X73431655Y-142959943D01*
X73519249Y-143171413D01*
X73646416Y-143361732D01*
X73662000Y-143377316D01*
X73662000Y-145461337D01*
X73654378Y-145459025D01*
X73505000Y-145444313D01*
X73295500Y-145448000D01*
X73105000Y-145638500D01*
X73105000Y-146635000D01*
X73125000Y-146635000D01*
X73125000Y-146735000D01*
X73105000Y-146735000D01*
X73105000Y-146755000D01*
X73005000Y-146755000D01*
X73005000Y-146735000D01*
X72985000Y-146735000D01*
X72985000Y-146635000D01*
X73005000Y-146635000D01*
X73005000Y-145638500D01*
X72814500Y-145448000D01*
X72605000Y-145444313D01*
X72492000Y-145455442D01*
X72492000Y-135757316D01*
X72507584Y-135741732D01*
X72634751Y-135551413D01*
X72722345Y-135339943D01*
X72767000Y-135115447D01*
X72767000Y-135093407D01*
X72845407Y-135015000D01*
X75379313Y-135015000D01*
X75394025Y-135164378D01*
X75437597Y-135308016D01*
X75490495Y-135406980D01*
X75449016Y-135484582D01*
X75396909Y-135656359D01*
X75379314Y-135835000D01*
X75379314Y-136135000D01*
X75396909Y-136313641D01*
X75449016Y-136485418D01*
X75533635Y-136643728D01*
X75647512Y-136782488D01*
X75786272Y-136896365D01*
X75944582Y-136980984D01*
X76116359Y-137033091D01*
X76295000Y-137050686D01*
X78045000Y-137050686D01*
X78223641Y-137033091D01*
X78395418Y-136980984D01*
X78553728Y-136896365D01*
X78692488Y-136782488D01*
X78806365Y-136643728D01*
X78890984Y-136485418D01*
X78943091Y-136313641D01*
X78960686Y-136135000D01*
X78960686Y-135835000D01*
X78943091Y-135656359D01*
X78890984Y-135484582D01*
X78849505Y-135406980D01*
X78902403Y-135308016D01*
X78945975Y-135164378D01*
X78960687Y-135015000D01*
X78957000Y-134951500D01*
X78766500Y-134761000D01*
X77220000Y-134761000D01*
X77220000Y-134785000D01*
X77120000Y-134785000D01*
X77120000Y-134761000D01*
X75573500Y-134761000D01*
X75383000Y-134951500D01*
X75379313Y-135015000D01*
X72845407Y-135015000D01*
X73528408Y-134332000D01*
X75387488Y-134332000D01*
X75379313Y-134415000D01*
X75383000Y-134478500D01*
X75573500Y-134669000D01*
X77120000Y-134669000D01*
X77120000Y-134645000D01*
X77220000Y-134645000D01*
X77220000Y-134669000D01*
X78766500Y-134669000D01*
X78957000Y-134478500D01*
X78960687Y-134415000D01*
X78945975Y-134265622D01*
X78902403Y-134121984D01*
X78849505Y-134023020D01*
X78890984Y-133945418D01*
X78943091Y-133773641D01*
X78960686Y-133595000D01*
X78960686Y-133295000D01*
X78943091Y-133116359D01*
X78890984Y-132944582D01*
X78849505Y-132866980D01*
X78902403Y-132768016D01*
X78945975Y-132624378D01*
X78960687Y-132475000D01*
X78957000Y-132411500D01*
X78766500Y-132221000D01*
X77220000Y-132221000D01*
X77220000Y-132245000D01*
X77120000Y-132245000D01*
X77120000Y-132221000D01*
X75573500Y-132221000D01*
X75383000Y-132411500D01*
X75379313Y-132475000D01*
X75387488Y-132558000D01*
X73735998Y-132558000D01*
X74501998Y-131792000D01*
X75387488Y-131792000D01*
X75379313Y-131875000D01*
X75383000Y-131938500D01*
X75573500Y-132129000D01*
X77120000Y-132129000D01*
X77120000Y-132105000D01*
X77220000Y-132105000D01*
X77220000Y-132129000D01*
X78766500Y-132129000D01*
X78957000Y-131938500D01*
X78960687Y-131875000D01*
X78945975Y-131725622D01*
X78902403Y-131581984D01*
X78849505Y-131483020D01*
X78890984Y-131405418D01*
X78943091Y-131233641D01*
X78960686Y-131055000D01*
X78960686Y-130755000D01*
X78943091Y-130576359D01*
X78890984Y-130404582D01*
X78819048Y-130270000D01*
X78890984Y-130135418D01*
X78943091Y-129963641D01*
X78960686Y-129785000D01*
X78960686Y-129485000D01*
X78943091Y-129306359D01*
X78890984Y-129134582D01*
X78819048Y-129000000D01*
X78890984Y-128865418D01*
X78943091Y-128693641D01*
X78960686Y-128515000D01*
X78960686Y-128215000D01*
X78943091Y-128036359D01*
X78890984Y-127864582D01*
X78819048Y-127730000D01*
X78890984Y-127595418D01*
X78943091Y-127423641D01*
X78960686Y-127245000D01*
X78960686Y-126945000D01*
X78943091Y-126766359D01*
X78890984Y-126594582D01*
X78806365Y-126436272D01*
X78692488Y-126297512D01*
X78553728Y-126183635D01*
X78395418Y-126099016D01*
X78223641Y-126046909D01*
X78045000Y-126029314D01*
X76295000Y-126029314D01*
X76116359Y-126046909D01*
X75944582Y-126099016D01*
X75786272Y-126183635D01*
X75784475Y-126185109D01*
X75745275Y-126055881D01*
X75653725Y-125884604D01*
X75530521Y-125734479D01*
X75489344Y-125700686D01*
X77955000Y-125700686D01*
X78104378Y-125685974D01*
X78248015Y-125642402D01*
X78380392Y-125571645D01*
X78402400Y-125553584D01*
X79292990Y-126444174D01*
%TA.AperFunction,Conductor*%
D26*
G36*
X79292990Y-126444174D02*
G01*
X79292991Y-132325270D01*
X79292990Y-132325280D01*
X79292990Y-132325289D01*
X79288095Y-132374990D01*
X79292990Y-132424691D01*
X79292991Y-136902674D01*
X79234249Y-136990587D01*
X79146655Y-137202057D01*
X79102000Y-137426553D01*
X79102000Y-137655447D01*
X79146655Y-137879943D01*
X79154665Y-137899280D01*
X79104378Y-137884026D01*
X78955000Y-137869314D01*
X76255000Y-137869314D01*
X76105622Y-137884026D01*
X75961985Y-137927598D01*
X75829608Y-137998355D01*
X75713578Y-138093578D01*
X75618355Y-138209608D01*
X75547598Y-138341985D01*
X75504026Y-138485622D01*
X75489314Y-138635000D01*
X75489314Y-140135000D01*
X75504026Y-140284378D01*
X75547598Y-140428015D01*
X75618355Y-140560392D01*
X75713578Y-140676422D01*
X75829608Y-140771645D01*
X75961985Y-140842402D01*
X76105622Y-140885974D01*
X76255000Y-140900686D01*
X78955000Y-140900686D01*
X79104378Y-140885974D01*
X79248015Y-140842402D01*
X79380392Y-140771645D01*
X79496422Y-140676422D01*
X79591645Y-140560392D01*
X79662402Y-140428015D01*
X79671810Y-140397000D01*
X81699956Y-140397000D01*
X81654558Y-140434257D01*
X81654553Y-140434262D01*
X81615946Y-140465946D01*
X81584262Y-140504553D01*
X80924558Y-141164258D01*
X80885946Y-141195946D01*
X80759482Y-141350043D01*
X80665511Y-141525852D01*
X80607643Y-141716614D01*
X80593000Y-141865290D01*
X80593000Y-141865299D01*
X80588105Y-141915000D01*
X80593000Y-141964701D01*
X80593000Y-142791197D01*
X80561801Y-142816801D01*
X80435488Y-142970715D01*
X80341628Y-143146313D01*
X80283830Y-143336849D01*
X80264314Y-143534999D01*
X80264314Y-144238129D01*
X79720686Y-143694502D01*
X79720686Y-143435000D01*
X79705974Y-143285622D01*
X79662402Y-143141985D01*
X79591645Y-143009608D01*
X79496422Y-142893578D01*
X79380392Y-142798355D01*
X79248015Y-142727598D01*
X79104378Y-142684026D01*
X78955000Y-142669314D01*
X76255000Y-142669314D01*
X76105622Y-142684026D01*
X75961985Y-142727598D01*
X75829608Y-142798355D01*
X75713578Y-142893578D01*
X75668658Y-142948313D01*
X75711000Y-142735447D01*
X75711000Y-142506553D01*
X75666345Y-142282057D01*
X75578751Y-142070587D01*
X75451584Y-141880268D01*
X75289732Y-141718416D01*
X75099413Y-141591249D01*
X74887943Y-141503655D01*
X74663447Y-141459000D01*
X74434553Y-141459000D01*
X74210057Y-141503655D01*
X73998587Y-141591249D01*
X73808268Y-141718416D01*
X73646416Y-141880268D01*
X73519249Y-142070587D01*
X73431655Y-142282057D01*
X73387000Y-142506553D01*
X73387000Y-142735447D01*
X73431655Y-142959943D01*
X73519249Y-143171413D01*
X73646416Y-143361732D01*
X73662000Y-143377316D01*
X73662000Y-145461337D01*
X73654378Y-145459025D01*
X73505000Y-145444313D01*
X73295500Y-145448000D01*
X73105000Y-145638500D01*
X73105000Y-146635000D01*
X73125000Y-146635000D01*
X73125000Y-146735000D01*
X73105000Y-146735000D01*
X73105000Y-146755000D01*
X73005000Y-146755000D01*
X73005000Y-146735000D01*
X72985000Y-146735000D01*
X72985000Y-146635000D01*
X73005000Y-146635000D01*
X73005000Y-145638500D01*
X72814500Y-145448000D01*
X72605000Y-145444313D01*
X72492000Y-145455442D01*
X72492000Y-135757316D01*
X72507584Y-135741732D01*
X72634751Y-135551413D01*
X72722345Y-135339943D01*
X72767000Y-135115447D01*
X72767000Y-135093407D01*
X72845407Y-135015000D01*
X75379313Y-135015000D01*
X75394025Y-135164378D01*
X75437597Y-135308016D01*
X75490495Y-135406980D01*
X75449016Y-135484582D01*
X75396909Y-135656359D01*
X75379314Y-135835000D01*
X75379314Y-136135000D01*
X75396909Y-136313641D01*
X75449016Y-136485418D01*
X75533635Y-136643728D01*
X75647512Y-136782488D01*
X75786272Y-136896365D01*
X75944582Y-136980984D01*
X76116359Y-137033091D01*
X76295000Y-137050686D01*
X78045000Y-137050686D01*
X78223641Y-137033091D01*
X78395418Y-136980984D01*
X78553728Y-136896365D01*
X78692488Y-136782488D01*
X78806365Y-136643728D01*
X78890984Y-136485418D01*
X78943091Y-136313641D01*
X78960686Y-136135000D01*
X78960686Y-135835000D01*
X78943091Y-135656359D01*
X78890984Y-135484582D01*
X78849505Y-135406980D01*
X78902403Y-135308016D01*
X78945975Y-135164378D01*
X78960687Y-135015000D01*
X78957000Y-134951500D01*
X78766500Y-134761000D01*
X77220000Y-134761000D01*
X77220000Y-134785000D01*
X77120000Y-134785000D01*
X77120000Y-134761000D01*
X75573500Y-134761000D01*
X75383000Y-134951500D01*
X75379313Y-135015000D01*
X72845407Y-135015000D01*
X73528408Y-134332000D01*
X75387488Y-134332000D01*
X75379313Y-134415000D01*
X75383000Y-134478500D01*
X75573500Y-134669000D01*
X77120000Y-134669000D01*
X77120000Y-134645000D01*
X77220000Y-134645000D01*
X77220000Y-134669000D01*
X78766500Y-134669000D01*
X78957000Y-134478500D01*
X78960687Y-134415000D01*
X78945975Y-134265622D01*
X78902403Y-134121984D01*
X78849505Y-134023020D01*
X78890984Y-133945418D01*
X78943091Y-133773641D01*
X78960686Y-133595000D01*
X78960686Y-133295000D01*
X78943091Y-133116359D01*
X78890984Y-132944582D01*
X78849505Y-132866980D01*
X78902403Y-132768016D01*
X78945975Y-132624378D01*
X78960687Y-132475000D01*
X78957000Y-132411500D01*
X78766500Y-132221000D01*
X77220000Y-132221000D01*
X77220000Y-132245000D01*
X77120000Y-132245000D01*
X77120000Y-132221000D01*
X75573500Y-132221000D01*
X75383000Y-132411500D01*
X75379313Y-132475000D01*
X75387488Y-132558000D01*
X73735998Y-132558000D01*
X74501998Y-131792000D01*
X75387488Y-131792000D01*
X75379313Y-131875000D01*
X75383000Y-131938500D01*
X75573500Y-132129000D01*
X77120000Y-132129000D01*
X77120000Y-132105000D01*
X77220000Y-132105000D01*
X77220000Y-132129000D01*
X78766500Y-132129000D01*
X78957000Y-131938500D01*
X78960687Y-131875000D01*
X78945975Y-131725622D01*
X78902403Y-131581984D01*
X78849505Y-131483020D01*
X78890984Y-131405418D01*
X78943091Y-131233641D01*
X78960686Y-131055000D01*
X78960686Y-130755000D01*
X78943091Y-130576359D01*
X78890984Y-130404582D01*
X78819048Y-130270000D01*
X78890984Y-130135418D01*
X78943091Y-129963641D01*
X78960686Y-129785000D01*
X78960686Y-129485000D01*
X78943091Y-129306359D01*
X78890984Y-129134582D01*
X78819048Y-129000000D01*
X78890984Y-128865418D01*
X78943091Y-128693641D01*
X78960686Y-128515000D01*
X78960686Y-128215000D01*
X78943091Y-128036359D01*
X78890984Y-127864582D01*
X78819048Y-127730000D01*
X78890984Y-127595418D01*
X78943091Y-127423641D01*
X78960686Y-127245000D01*
X78960686Y-126945000D01*
X78943091Y-126766359D01*
X78890984Y-126594582D01*
X78806365Y-126436272D01*
X78692488Y-126297512D01*
X78553728Y-126183635D01*
X78395418Y-126099016D01*
X78223641Y-126046909D01*
X78045000Y-126029314D01*
X76295000Y-126029314D01*
X76116359Y-126046909D01*
X75944582Y-126099016D01*
X75786272Y-126183635D01*
X75784475Y-126185109D01*
X75745275Y-126055881D01*
X75653725Y-125884604D01*
X75530521Y-125734479D01*
X75489344Y-125700686D01*
X77955000Y-125700686D01*
X78104378Y-125685974D01*
X78248015Y-125642402D01*
X78380392Y-125571645D01*
X78402400Y-125553584D01*
X79292990Y-126444174D01*
G37*
%TD.AperFunction*%
D27*
X84729311Y-130070458D02*
X84749016Y-130135418D01*
X84820952Y-130270000D01*
X84749016Y-130404582D01*
X84696909Y-130576359D01*
X84679314Y-130755000D01*
X84679314Y-131055000D01*
X84696909Y-131233641D01*
X84749016Y-131405418D01*
X84820952Y-131540000D01*
X84749016Y-131674582D01*
X84696909Y-131846359D01*
X84679314Y-132025000D01*
X84679314Y-132325000D01*
X84689951Y-132433000D01*
X81794184Y-132433000D01*
X81316990Y-131955806D01*
X81316990Y-126658137D01*
X84729311Y-130070458D01*
%TA.AperFunction,Conductor*%
D26*
G36*
X84729311Y-130070458D02*
G01*
X84749016Y-130135418D01*
X84820952Y-130270000D01*
X84749016Y-130404582D01*
X84696909Y-130576359D01*
X84679314Y-130755000D01*
X84679314Y-131055000D01*
X84696909Y-131233641D01*
X84749016Y-131405418D01*
X84820952Y-131540000D01*
X84749016Y-131674582D01*
X84696909Y-131846359D01*
X84679314Y-132025000D01*
X84679314Y-132325000D01*
X84689951Y-132433000D01*
X81794184Y-132433000D01*
X81316990Y-131955806D01*
X81316990Y-126658137D01*
X84729311Y-130070458D01*
G37*
%TD.AperFunction*%
D27*
X98821801Y-149940699D02*
X98975715Y-150067012D01*
X99151313Y-150160872D01*
X99341849Y-150218670D01*
X99539999Y-150238186D01*
X102390001Y-150238186D01*
X102588151Y-150218670D01*
X102778687Y-150160872D01*
X102954285Y-150067012D01*
X103108199Y-149940699D01*
X103164578Y-149872000D01*
X103555816Y-149872000D01*
X103659314Y-149975498D01*
X103659314Y-150120000D01*
X103677389Y-150303519D01*
X103693367Y-150356192D01*
X103687598Y-150366985D01*
X103644026Y-150510622D01*
X103629314Y-150660000D01*
X103629314Y-153144963D01*
X103619447Y-153143000D01*
X103390553Y-153143000D01*
X103166057Y-153187655D01*
X102954587Y-153275249D01*
X102764268Y-153402416D01*
X102704930Y-153461754D01*
X102588151Y-153426330D01*
X102390001Y-153406814D01*
X99539999Y-153406814D01*
X99341849Y-153426330D01*
X99151313Y-153484128D01*
X98975715Y-153577988D01*
X98911704Y-153630520D01*
X98802000Y-153520816D01*
X98802000Y-151976979D01*
X98819751Y-151950413D01*
X98907345Y-151738943D01*
X98952000Y-151514447D01*
X98952000Y-151285553D01*
X98907345Y-151061057D01*
X98819751Y-150849587D01*
X98692584Y-150659268D01*
X98530732Y-150497416D01*
X98340413Y-150370249D01*
X98128943Y-150282655D01*
X98030460Y-150263065D01*
X98035686Y-150210000D01*
X98035686Y-149872000D01*
X98765422Y-149872000D01*
X98821801Y-149940699D01*
%TA.AperFunction,Conductor*%
D26*
G36*
X98821801Y-149940699D02*
G01*
X98975715Y-150067012D01*
X99151313Y-150160872D01*
X99341849Y-150218670D01*
X99539999Y-150238186D01*
X102390001Y-150238186D01*
X102588151Y-150218670D01*
X102778687Y-150160872D01*
X102954285Y-150067012D01*
X103108199Y-149940699D01*
X103164578Y-149872000D01*
X103555816Y-149872000D01*
X103659314Y-149975498D01*
X103659314Y-150120000D01*
X103677389Y-150303519D01*
X103693367Y-150356192D01*
X103687598Y-150366985D01*
X103644026Y-150510622D01*
X103629314Y-150660000D01*
X103629314Y-153144963D01*
X103619447Y-153143000D01*
X103390553Y-153143000D01*
X103166057Y-153187655D01*
X102954587Y-153275249D01*
X102764268Y-153402416D01*
X102704930Y-153461754D01*
X102588151Y-153426330D01*
X102390001Y-153406814D01*
X99539999Y-153406814D01*
X99341849Y-153426330D01*
X99151313Y-153484128D01*
X98975715Y-153577988D01*
X98911704Y-153630520D01*
X98802000Y-153520816D01*
X98802000Y-151976979D01*
X98819751Y-151950413D01*
X98907345Y-151738943D01*
X98952000Y-151514447D01*
X98952000Y-151285553D01*
X98907345Y-151061057D01*
X98819751Y-150849587D01*
X98692584Y-150659268D01*
X98530732Y-150497416D01*
X98340413Y-150370249D01*
X98128943Y-150282655D01*
X98030460Y-150263065D01*
X98035686Y-150210000D01*
X98035686Y-149872000D01*
X98765422Y-149872000D01*
X98821801Y-149940699D01*
G37*
%TD.AperFunction*%
D27*
X111979752Y-136794754D02*
X112158000Y-136941038D01*
X112429355Y-137086081D01*
X112629272Y-137146725D01*
X111125000Y-138650997D01*
X110923751Y-138449748D01*
X110874844Y-138390155D01*
X110815253Y-138341250D01*
X110815248Y-138341245D01*
X110637000Y-138194961D01*
X110365645Y-138049918D01*
X110071206Y-137960601D01*
X110007633Y-137954340D01*
X109841725Y-137937999D01*
X109841720Y-137937999D01*
X109765001Y-137930443D01*
X109688280Y-137937999D01*
X108508273Y-137938001D01*
X108278794Y-137960603D01*
X107984356Y-138049919D01*
X107791291Y-138153115D01*
X107673519Y-138117389D01*
X107490000Y-138099314D01*
X107169233Y-138099314D01*
X107207000Y-137909447D01*
X107207000Y-137680553D01*
X107162345Y-137456057D01*
X107074751Y-137244587D01*
X106947584Y-137054268D01*
X106785732Y-136892416D01*
X106595413Y-136765249D01*
X106538487Y-136741669D01*
X106579985Y-136729081D01*
X106680000Y-136675622D01*
X106780015Y-136729081D01*
X106956481Y-136782611D01*
X107140000Y-136800686D01*
X107490000Y-136800686D01*
X107673519Y-136782611D01*
X107791291Y-136746885D01*
X107984356Y-136850081D01*
X108278794Y-136939397D01*
X108508273Y-136961999D01*
X109688280Y-136962001D01*
X109765001Y-136969557D01*
X109841720Y-136962001D01*
X109841725Y-136962001D01*
X110007633Y-136945660D01*
X110071206Y-136939399D01*
X110365645Y-136850082D01*
X110637000Y-136705039D01*
X110815248Y-136558755D01*
X110815253Y-136558750D01*
X110874844Y-136509845D01*
X110923751Y-136450252D01*
X111279501Y-136094502D01*
X111979752Y-136794754D01*
%TA.AperFunction,Conductor*%
D26*
G36*
X111979752Y-136794754D02*
G01*
X112158000Y-136941038D01*
X112429355Y-137086081D01*
X112629272Y-137146725D01*
X111125000Y-138650997D01*
X110923751Y-138449748D01*
X110874844Y-138390155D01*
X110815253Y-138341250D01*
X110815248Y-138341245D01*
X110637000Y-138194961D01*
X110365645Y-138049918D01*
X110071206Y-137960601D01*
X110007633Y-137954340D01*
X109841725Y-137937999D01*
X109841720Y-137937999D01*
X109765001Y-137930443D01*
X109688280Y-137937999D01*
X108508273Y-137938001D01*
X108278794Y-137960603D01*
X107984356Y-138049919D01*
X107791291Y-138153115D01*
X107673519Y-138117389D01*
X107490000Y-138099314D01*
X107169233Y-138099314D01*
X107207000Y-137909447D01*
X107207000Y-137680553D01*
X107162345Y-137456057D01*
X107074751Y-137244587D01*
X106947584Y-137054268D01*
X106785732Y-136892416D01*
X106595413Y-136765249D01*
X106538487Y-136741669D01*
X106579985Y-136729081D01*
X106680000Y-136675622D01*
X106780015Y-136729081D01*
X106956481Y-136782611D01*
X107140000Y-136800686D01*
X107490000Y-136800686D01*
X107673519Y-136782611D01*
X107791291Y-136746885D01*
X107984356Y-136850081D01*
X108278794Y-136939397D01*
X108508273Y-136961999D01*
X109688280Y-136962001D01*
X109765001Y-136969557D01*
X109841720Y-136962001D01*
X109841725Y-136962001D01*
X110007633Y-136945660D01*
X110071206Y-136939399D01*
X110365645Y-136850082D01*
X110637000Y-136705039D01*
X110815248Y-136558755D01*
X110815253Y-136558750D01*
X110874844Y-136509845D01*
X110923751Y-136450252D01*
X111279501Y-136094502D01*
X111979752Y-136794754D01*
G37*
%TD.AperFunction*%
D27*
X117000950Y-129371347D02*
X117143340Y-129584448D01*
X117430552Y-129871660D01*
X117768277Y-130097321D01*
X118143537Y-130252758D01*
X118541911Y-130332000D01*
X118948089Y-130332000D01*
X119346463Y-130252758D01*
X119483002Y-130196202D01*
X119483002Y-130402996D01*
X118601685Y-131284314D01*
X117445000Y-131284314D01*
X117295622Y-131299026D01*
X117151985Y-131342598D01*
X117019608Y-131413355D01*
X116903578Y-131508578D01*
X116808355Y-131624608D01*
X116737598Y-131756985D01*
X116694026Y-131900622D01*
X116679314Y-132050000D01*
X116679314Y-133096682D01*
X114540725Y-135235271D01*
X114480081Y-135035355D01*
X114335038Y-134764000D01*
X114188754Y-134585752D01*
X112687000Y-133083999D01*
X112687000Y-130993274D01*
X112664398Y-130763795D01*
X112575082Y-130469357D01*
X112430039Y-130198001D01*
X112234844Y-129960156D01*
X111996999Y-129764961D01*
X111725643Y-129619918D01*
X111612794Y-129585686D01*
X111675000Y-129585686D01*
X111824378Y-129570974D01*
X111968015Y-129527402D01*
X112100392Y-129456645D01*
X112216422Y-129361422D01*
X112273887Y-129291400D01*
X116921003Y-129291400D01*
X117000950Y-129371347D01*
%TA.AperFunction,Conductor*%
D26*
G36*
X117000950Y-129371347D02*
G01*
X117143340Y-129584448D01*
X117430552Y-129871660D01*
X117768277Y-130097321D01*
X118143537Y-130252758D01*
X118541911Y-130332000D01*
X118948089Y-130332000D01*
X119346463Y-130252758D01*
X119483002Y-130196202D01*
X119483002Y-130402996D01*
X118601685Y-131284314D01*
X117445000Y-131284314D01*
X117295622Y-131299026D01*
X117151985Y-131342598D01*
X117019608Y-131413355D01*
X116903578Y-131508578D01*
X116808355Y-131624608D01*
X116737598Y-131756985D01*
X116694026Y-131900622D01*
X116679314Y-132050000D01*
X116679314Y-133096682D01*
X114540725Y-135235271D01*
X114480081Y-135035355D01*
X114335038Y-134764000D01*
X114188754Y-134585752D01*
X112687000Y-133083999D01*
X112687000Y-130993274D01*
X112664398Y-130763795D01*
X112575082Y-130469357D01*
X112430039Y-130198001D01*
X112234844Y-129960156D01*
X111996999Y-129764961D01*
X111725643Y-129619918D01*
X111612794Y-129585686D01*
X111675000Y-129585686D01*
X111824378Y-129570974D01*
X111968015Y-129527402D01*
X112100392Y-129456645D01*
X112216422Y-129361422D01*
X112273887Y-129291400D01*
X116921003Y-129291400D01*
X117000950Y-129371347D01*
G37*
%TD.AperFunction*%
D27*
X98821801Y-130080699D02*
X98975715Y-130207012D01*
X99151313Y-130300872D01*
X99341849Y-130358670D01*
X99539999Y-130378186D01*
X100912002Y-130378186D01*
X101014258Y-130480442D01*
X101045946Y-130519054D01*
X101084558Y-130550742D01*
X101084559Y-130550743D01*
X101200043Y-130645518D01*
X101375850Y-130739489D01*
X101390042Y-130743794D01*
X101566613Y-130797357D01*
X101715289Y-130812000D01*
X101715292Y-130812000D01*
X101765000Y-130816896D01*
X101814708Y-130812000D01*
X103629314Y-130812000D01*
X103629314Y-133459963D01*
X103619447Y-133458000D01*
X103390553Y-133458000D01*
X103166057Y-133502655D01*
X102954587Y-133590249D01*
X102848242Y-133661306D01*
X102778687Y-133624128D01*
X102588151Y-133566330D01*
X102390001Y-133546814D01*
X99539999Y-133546814D01*
X99341849Y-133566330D01*
X99151313Y-133624128D01*
X98975715Y-133717988D01*
X98911704Y-133770520D01*
X98802000Y-133660816D01*
X98802000Y-132116979D01*
X98819751Y-132090413D01*
X98907345Y-131878943D01*
X98952000Y-131654447D01*
X98952000Y-131425553D01*
X98907345Y-131201057D01*
X98819751Y-130989587D01*
X98692584Y-130799268D01*
X98530732Y-130637416D01*
X98340413Y-130510249D01*
X98128943Y-130422655D01*
X98030460Y-130403065D01*
X98035686Y-130350000D01*
X98035686Y-130012000D01*
X98765422Y-130012000D01*
X98821801Y-130080699D01*
%TA.AperFunction,Conductor*%
D26*
G36*
X98821801Y-130080699D02*
G01*
X98975715Y-130207012D01*
X99151313Y-130300872D01*
X99341849Y-130358670D01*
X99539999Y-130378186D01*
X100912002Y-130378186D01*
X101014258Y-130480442D01*
X101045946Y-130519054D01*
X101084558Y-130550742D01*
X101084559Y-130550743D01*
X101200043Y-130645518D01*
X101375850Y-130739489D01*
X101390042Y-130743794D01*
X101566613Y-130797357D01*
X101715289Y-130812000D01*
X101715292Y-130812000D01*
X101765000Y-130816896D01*
X101814708Y-130812000D01*
X103629314Y-130812000D01*
X103629314Y-133459963D01*
X103619447Y-133458000D01*
X103390553Y-133458000D01*
X103166057Y-133502655D01*
X102954587Y-133590249D01*
X102848242Y-133661306D01*
X102778687Y-133624128D01*
X102588151Y-133566330D01*
X102390001Y-133546814D01*
X99539999Y-133546814D01*
X99341849Y-133566330D01*
X99151313Y-133624128D01*
X98975715Y-133717988D01*
X98911704Y-133770520D01*
X98802000Y-133660816D01*
X98802000Y-132116979D01*
X98819751Y-132090413D01*
X98907345Y-131878943D01*
X98952000Y-131654447D01*
X98952000Y-131425553D01*
X98907345Y-131201057D01*
X98819751Y-130989587D01*
X98692584Y-130799268D01*
X98530732Y-130637416D01*
X98340413Y-130510249D01*
X98128943Y-130422655D01*
X98030460Y-130403065D01*
X98035686Y-130350000D01*
X98035686Y-130012000D01*
X98765422Y-130012000D01*
X98821801Y-130080699D01*
G37*
%TD.AperFunction*%
%TD*%
D25*
%TO.N,HV+*%
X108858251Y-154777667D02*
X108913570Y-154814630D01*
X108950533Y-154869949D01*
X108966000Y-154947709D01*
X108966000Y-155592691D01*
X108950533Y-155670451D01*
X108913570Y-155725770D01*
X108858251Y-155762733D01*
X108780491Y-155778200D01*
X104579509Y-155778200D01*
X104501749Y-155762733D01*
X104446430Y-155725770D01*
X104409467Y-155670451D01*
X104394000Y-155592691D01*
X104394000Y-154947709D01*
X104409467Y-154869949D01*
X104446430Y-154814630D01*
X104501749Y-154777667D01*
X104579509Y-154762200D01*
X108780491Y-154762200D01*
X108858251Y-154777667D01*
%TA.AperFunction,Conductor*%
D26*
G36*
X108858251Y-154777667D02*
G01*
X108913570Y-154814630D01*
X108950533Y-154869949D01*
X108966000Y-154947709D01*
X108966000Y-155592691D01*
X108950533Y-155670451D01*
X108913570Y-155725770D01*
X108858251Y-155762733D01*
X108780491Y-155778200D01*
X104579509Y-155778200D01*
X104501749Y-155762733D01*
X104446430Y-155725770D01*
X104409467Y-155670451D01*
X104394000Y-155592691D01*
X104394000Y-154947709D01*
X104409467Y-154869949D01*
X104446430Y-154814630D01*
X104501749Y-154777667D01*
X104579509Y-154762200D01*
X108780491Y-154762200D01*
X108858251Y-154777667D01*
G37*
%TD.AperFunction*%
%TD*%
M02*
