%TF.GenerationSoftware,KiCad,Pcbnew,(5.1.9)-1*%
%TF.CreationDate,2021-03-05T12:04:40-05:00*%
%TF.ProjectId,driver_board,64726976-6572-45f6-926f-6172642e6b69,rev?*%
%TF.SameCoordinates,Original*%
%TF.FileFunction,Copper,L2,Bot*%
%TF.FilePolarity,Positive*%
%FSLAX46Y46*%
G04 Gerber Fmt 4.6, Leading zero omitted, Abs format (unit mm)*
G04 Created by KiCad (PCBNEW (5.1.9)-1) date 2021-03-05 12:04:40*
%MOMM*%
%LPD*%
G01*
G04 APERTURE LIST*
%TA.AperFunction,SMDPad,CuDef*%
%ADD10R,4.570000X3.600000*%
%TD*%
%TA.AperFunction,ComponentPad*%
%ADD11C,0.810000*%
%TD*%
%TA.AperFunction,ComponentPad*%
%ADD12C,0.800000*%
%TD*%
%TA.AperFunction,ComponentPad*%
%ADD13C,5.000000*%
%TD*%
%TA.AperFunction,ComponentPad*%
%ADD14C,2.600000*%
%TD*%
%TA.AperFunction,ComponentPad*%
%ADD15R,2.600000X2.600000*%
%TD*%
%TA.AperFunction,ViaPad*%
%ADD16C,0.800000*%
%TD*%
%TA.AperFunction,Conductor*%
%ADD17C,0.500000*%
%TD*%
%TA.AperFunction,Conductor*%
%ADD18C,0.250000*%
%TD*%
%TA.AperFunction,Conductor*%
%ADD19C,1.600000*%
%TD*%
%TA.AperFunction,Conductor*%
%ADD20C,0.254000*%
%TD*%
%TA.AperFunction,Conductor*%
%ADD21C,0.100000*%
%TD*%
G04 APERTURE END LIST*
D10*
%TO.P,Q1,9*%
%TO.N,N/C*%
X106680000Y-152460000D03*
D11*
X105410000Y-153460000D03*
X105410000Y-151460000D03*
X106680000Y-153460000D03*
X106680000Y-151460000D03*
X107950000Y-153460000D03*
X107950000Y-151460000D03*
%TD*%
D10*
%TO.P,Q2,9*%
%TO.N,N/C*%
X106680000Y-142300000D03*
D11*
X105410000Y-143300000D03*
X105410000Y-141300000D03*
X106680000Y-143300000D03*
X106680000Y-141300000D03*
X107950000Y-143300000D03*
X107950000Y-141300000D03*
%TD*%
D10*
%TO.P,Q5,9*%
%TO.N,N/C*%
X106680000Y-132600000D03*
D11*
X105410000Y-133600000D03*
X105410000Y-131600000D03*
X106680000Y-133600000D03*
X106680000Y-131600000D03*
X107950000Y-133600000D03*
X107950000Y-131600000D03*
%TD*%
D10*
%TO.P,Q6,9*%
%TO.N,N/C*%
X106680000Y-122440000D03*
D11*
X105410000Y-123440000D03*
X105410000Y-121440000D03*
X106680000Y-123440000D03*
X106680000Y-121440000D03*
X107950000Y-123440000D03*
X107950000Y-121440000D03*
%TD*%
D12*
%TO.P,REF\u002A\u002A,1*%
%TO.N,N/C*%
X122930825Y-116859175D03*
X121605000Y-116310000D03*
X120279175Y-116859175D03*
X119730000Y-118185000D03*
X120279175Y-119510825D03*
X121605000Y-120060000D03*
X122930825Y-119510825D03*
X123480000Y-118185000D03*
D13*
X121605000Y-118185000D03*
%TD*%
D12*
%TO.P,REF\u002A\u002A,1*%
%TO.N,N/C*%
X122930825Y-155859175D03*
X121605000Y-155310000D03*
X120279175Y-155859175D03*
X119730000Y-157185000D03*
X120279175Y-158510825D03*
X121605000Y-159060000D03*
X122930825Y-158510825D03*
X123480000Y-157185000D03*
D13*
X121605000Y-157185000D03*
%TD*%
%TO.P,REF\u002A\u002A,1*%
%TO.N,N/C*%
X66605000Y-157185000D03*
D12*
X68480000Y-157185000D03*
X67930825Y-158510825D03*
X66605000Y-159060000D03*
X65279175Y-158510825D03*
X64730000Y-157185000D03*
X65279175Y-155859175D03*
X66605000Y-155310000D03*
X67930825Y-155859175D03*
%TD*%
%TO.P,REF\u002A\u002A,1*%
%TO.N,N/C*%
X67930825Y-116550550D03*
X66605000Y-116001375D03*
X65279175Y-116550550D03*
X64730000Y-117876375D03*
X65279175Y-119202200D03*
X66605000Y-119751375D03*
X67930825Y-119202200D03*
X68480000Y-117876375D03*
D13*
X66605000Y-117876375D03*
%TD*%
D14*
%TO.P,J5,2*%
%TO.N,+3V3*%
X65105000Y-151265000D03*
D15*
%TO.P,J5,1*%
%TO.N,GND*%
X65105000Y-146185000D03*
%TD*%
D14*
%TO.P,J4,2*%
%TO.N,PWM1*%
X65105000Y-140185000D03*
D15*
%TO.P,J4,1*%
%TO.N,PWM0*%
X65105000Y-135105000D03*
%TD*%
D14*
%TO.P,J3,2*%
%TO.N,+12V*%
X65105000Y-129185000D03*
D15*
%TO.P,J3,1*%
%TO.N,Net-(J3-Pad1)*%
X65105000Y-124105000D03*
%TD*%
D14*
%TO.P,J2,2*%
%TO.N,M-*%
X118745000Y-128270000D03*
D15*
%TO.P,J2,1*%
%TO.N,HV-*%
X118745000Y-133350000D03*
%TD*%
D14*
%TO.P,J1,2*%
%TO.N,HV+*%
X118745000Y-141351000D03*
D15*
%TO.P,J1,1*%
%TO.N,M+*%
X118745000Y-146431000D03*
%TD*%
D16*
%TO.N,GND*%
X71605000Y-158185000D03*
X74105000Y-158185000D03*
X76605000Y-158185000D03*
X79105000Y-158185000D03*
X81605000Y-158185000D03*
X84105000Y-158185000D03*
X86605000Y-158185000D03*
X89105000Y-158185000D03*
X91605000Y-158185000D03*
X94105000Y-158185000D03*
X96605000Y-158185000D03*
X101605000Y-158185000D03*
X99105000Y-158185000D03*
X104105000Y-158185000D03*
X106605000Y-158185000D03*
X109105000Y-158185000D03*
X111605000Y-158185000D03*
X114105000Y-158185000D03*
X116605000Y-158185000D03*
X114065000Y-155685000D03*
X125208000Y-150685000D03*
X125208000Y-148185000D03*
X125208000Y-145685000D03*
X125208000Y-143185000D03*
X125208000Y-140685000D03*
X125208000Y-138185000D03*
X125208000Y-135685000D03*
X125208000Y-133185000D03*
X125208000Y-130685000D03*
X125208000Y-128185000D03*
X125208000Y-125685000D03*
X125208000Y-123185000D03*
X116605000Y-115685000D03*
X116605000Y-118185000D03*
X114105000Y-115685000D03*
X109105000Y-115685000D03*
X111605000Y-115685000D03*
X106605000Y-115685000D03*
X104105000Y-115685000D03*
X101605000Y-115685000D03*
X99105000Y-115685000D03*
X94105000Y-115685000D03*
X96605000Y-115685000D03*
X91605000Y-115685000D03*
X86605000Y-115685000D03*
X89105000Y-115685000D03*
X84105000Y-115685000D03*
X79105000Y-115685000D03*
X81605000Y-115685000D03*
X76605000Y-115685000D03*
X74105000Y-115685000D03*
X71605000Y-115685000D03*
X71605000Y-118185000D03*
X74105000Y-118185000D03*
X71605000Y-120685000D03*
X74105000Y-120685000D03*
X69105000Y-120685000D03*
X69105000Y-123185000D03*
X61605000Y-123185000D03*
X94105000Y-118185000D03*
X94105000Y-120685000D03*
X94105000Y-123185000D03*
X94105000Y-125685000D03*
X94105000Y-128185000D03*
X94105000Y-133185000D03*
X94105000Y-135685000D03*
X94105000Y-138185000D03*
X94105000Y-140685000D03*
X94105000Y-143185000D03*
X94105000Y-145685000D03*
X94105000Y-148185000D03*
X94105000Y-153185000D03*
X94105000Y-155685000D03*
X84105000Y-130685000D03*
X81605000Y-130685000D03*
X81605000Y-135685000D03*
X84105000Y-135685000D03*
X84105000Y-150685000D03*
X81605000Y-150685000D03*
X81605000Y-155685000D03*
X84105000Y-155685000D03*
X99105000Y-140685000D03*
X101605000Y-140685000D03*
X99105000Y-130685000D03*
X101605000Y-130685000D03*
X99105000Y-133185000D03*
X101605000Y-133185000D03*
X99105000Y-120685000D03*
X101605000Y-120685000D03*
X99105000Y-150685000D03*
X101605000Y-150685000D03*
X99105000Y-153185000D03*
X101605000Y-153185000D03*
X73605000Y-137185000D03*
X73605000Y-139185000D03*
X73605000Y-141185000D03*
X73605000Y-144185000D03*
X100605000Y-142185000D03*
X102605000Y-142185000D03*
X101605000Y-146185000D03*
X99605000Y-146185000D03*
X98605000Y-137185000D03*
X98605000Y-127185000D03*
X101605000Y-127185000D03*
X100605000Y-122185000D03*
X102605000Y-122185000D03*
X121065000Y-122185000D03*
X121065000Y-153185000D03*
X73605000Y-155185000D03*
X70605000Y-155185000D03*
X68605000Y-153185000D03*
X77605000Y-122185000D03*
X75605000Y-122185000D03*
X79605000Y-123185000D03*
X78105000Y-141685000D03*
X76105000Y-141685000D03*
X82105000Y-137685000D03*
X83105000Y-152185000D03*
X80105000Y-154185000D03*
X94105000Y-130185000D03*
X94105000Y-150185000D03*
X61605000Y-135685000D03*
X61605000Y-125685000D03*
X61605000Y-128185000D03*
X61605000Y-133185000D03*
X61605000Y-130685000D03*
X61605000Y-140685000D03*
X61605000Y-138185000D03*
X61605000Y-148185000D03*
X61605000Y-153185000D03*
X61605000Y-150685000D03*
X61605000Y-145685000D03*
X61605000Y-143185000D03*
X68605000Y-150185000D03*
X68605000Y-147185000D03*
X68605000Y-144185000D03*
X68605000Y-141185000D03*
X68605000Y-138185000D03*
X68605000Y-136185000D03*
X68605000Y-133185000D03*
X68605000Y-130185000D03*
X68605000Y-128185000D03*
X70605000Y-128185000D03*
X70605000Y-130185000D03*
X73605000Y-135185000D03*
X74605000Y-152185000D03*
X61605000Y-158185000D03*
X61605000Y-155685000D03*
X61605000Y-115685000D03*
X61605000Y-118185000D03*
X61605000Y-120685000D03*
X86605000Y-118185000D03*
X89105000Y-118185000D03*
X86605000Y-120685000D03*
X89105000Y-120685000D03*
X86605000Y-123185000D03*
X86605000Y-125185000D03*
X86605000Y-138185000D03*
X89105000Y-138185000D03*
X86605000Y-140685000D03*
X89105000Y-140185000D03*
X86605000Y-143185000D03*
X86605000Y-145185000D03*
X111605000Y-118185000D03*
X114105000Y-118185000D03*
X114105000Y-120685000D03*
X116605000Y-120685000D03*
X121605000Y-133185000D03*
X121605000Y-135685000D03*
X121605000Y-138185000D03*
X121605000Y-140685000D03*
X124105000Y-153185000D03*
X116605000Y-153185000D03*
X116605000Y-155685000D03*
X114105000Y-153185000D03*
X114105000Y-133185000D03*
X114105000Y-130685000D03*
X116605000Y-130685000D03*
X114105000Y-144145000D03*
X116967000Y-143637000D03*
X114427000Y-140843000D03*
X108331000Y-137795000D03*
X111379000Y-136525000D03*
X111125000Y-138049000D03*
X103505000Y-146177000D03*
X103251000Y-136525000D03*
X100965000Y-136779000D03*
X100457000Y-152019000D03*
X81661000Y-148209000D03*
X82931000Y-149733000D03*
X81661000Y-140335000D03*
X84201000Y-137795000D03*
X81661000Y-127889000D03*
X82931000Y-129413000D03*
X82169000Y-131953000D03*
X84201000Y-131953000D03*
X83947000Y-117729000D03*
X81661000Y-117729000D03*
X79121000Y-117729000D03*
X107315000Y-137033000D03*
%TO.N,+12V*%
X80264000Y-137541000D03*
X80264000Y-145669000D03*
%TO.N,Net-(D6-Pad1)*%
X89027000Y-135255000D03*
X89027000Y-123825000D03*
%TO.N,+3V3*%
X74549000Y-142621000D03*
X72771000Y-131185000D03*
%TO.N,M+*%
X97790000Y-151400000D03*
X90170000Y-149860000D03*
X103505000Y-154305000D03*
X104140000Y-147955000D03*
%TO.N,M-*%
X97790000Y-131540000D03*
X90043000Y-129667000D03*
X103505000Y-134620000D03*
X104162396Y-128270000D03*
%TO.N,Net-(D4-Pad1)*%
X88900000Y-154940000D03*
X88900000Y-143510000D03*
%TO.N,HV+*%
X113030000Y-135636000D03*
%TO.N,HV-*%
X103505000Y-124460000D03*
X106045000Y-118110000D03*
X103505000Y-144145000D03*
X106045000Y-137795000D03*
%TO.N,PWM0*%
X71605000Y-135001000D03*
%TD*%
D17*
%TO.N,+12V*%
X80264000Y-137541000D02*
X80264000Y-145669000D01*
%TO.N,Net-(D6-Pad1)*%
X89027000Y-135255000D02*
X89027000Y-123825000D01*
D18*
%TO.N,+3V3*%
X74549000Y-132963000D02*
X74549000Y-133241000D01*
X72771000Y-131185000D02*
X74549000Y-132963000D01*
X74549000Y-142621000D02*
X74549000Y-133241000D01*
X74549000Y-142621000D02*
X64169000Y-142621000D01*
X62330001Y-144459999D02*
X62330001Y-148910001D01*
X64169000Y-142621000D02*
X62330001Y-144459999D01*
X64169000Y-150749000D02*
X65105000Y-150749000D01*
X62330001Y-148910001D02*
X64169000Y-150749000D01*
D17*
%TO.N,M+*%
X91075000Y-151400000D02*
X97790000Y-151400000D01*
X90170000Y-150495000D02*
X91075000Y-151400000D01*
X90170000Y-149860000D02*
X90170000Y-150495000D01*
X103505000Y-154305000D02*
X103505000Y-148590000D01*
X103505000Y-148590000D02*
X104140000Y-147955000D01*
X104140000Y-147955000D02*
X104140000Y-147955000D01*
%TO.N,M-*%
X90043000Y-129667000D02*
X90043000Y-130937000D01*
X90646000Y-131540000D02*
X97790000Y-131540000D01*
X90043000Y-130937000D02*
X90646000Y-131540000D01*
X103505000Y-134620000D02*
X103505000Y-128927396D01*
X103505000Y-128927396D02*
X104162396Y-128270000D01*
%TO.N,Net-(D4-Pad1)*%
X88900000Y-154940000D02*
X88900000Y-143510000D01*
D19*
%TO.N,HV+*%
X118745000Y-141351000D02*
X117445001Y-140051001D01*
X117445001Y-140051001D02*
X113030000Y-135636000D01*
D17*
%TO.N,HV-*%
X103505000Y-124460000D02*
X103505000Y-120719998D01*
X103505000Y-120719998D02*
X103505000Y-119380000D01*
X103505000Y-119380000D02*
X103505000Y-118745000D01*
X104140000Y-118110000D02*
X106045000Y-118110000D01*
X103505000Y-118745000D02*
X104140000Y-118110000D01*
X103505000Y-144145000D02*
X103505000Y-138430000D01*
X104140000Y-137795000D02*
X106045000Y-137795000D01*
X103505000Y-138430000D02*
X104140000Y-137795000D01*
D18*
%TO.N,PWM0*%
X65209000Y-135001000D02*
X65105000Y-135105000D01*
X71605000Y-135001000D02*
X65209000Y-135001000D01*
%TD*%
D20*
%TO.N,GND*%
X125865001Y-116458382D02*
X125865000Y-157911619D01*
X123251620Y-160525000D01*
X61878381Y-160525000D01*
X59265000Y-157911620D01*
X59265000Y-156876229D01*
X63470000Y-156876229D01*
X63470000Y-157493771D01*
X63590476Y-158099446D01*
X63826799Y-158669979D01*
X64169886Y-159183446D01*
X64606554Y-159620114D01*
X65120021Y-159963201D01*
X65690554Y-160199524D01*
X66296229Y-160320000D01*
X66913771Y-160320000D01*
X67519446Y-160199524D01*
X68089979Y-159963201D01*
X68603446Y-159620114D01*
X69040114Y-159183446D01*
X69383201Y-158669979D01*
X69619524Y-158099446D01*
X69740000Y-157493771D01*
X69740000Y-156876229D01*
X118470000Y-156876229D01*
X118470000Y-157493771D01*
X118590476Y-158099446D01*
X118826799Y-158669979D01*
X119169886Y-159183446D01*
X119606554Y-159620114D01*
X120120021Y-159963201D01*
X120690554Y-160199524D01*
X121296229Y-160320000D01*
X121913771Y-160320000D01*
X122519446Y-160199524D01*
X123089979Y-159963201D01*
X123603446Y-159620114D01*
X124040114Y-159183446D01*
X124383201Y-158669979D01*
X124619524Y-158099446D01*
X124740000Y-157493771D01*
X124740000Y-156876229D01*
X124619524Y-156270554D01*
X124383201Y-155700021D01*
X124040114Y-155186554D01*
X123603446Y-154749886D01*
X123089979Y-154406799D01*
X122519446Y-154170476D01*
X121913771Y-154050000D01*
X121296229Y-154050000D01*
X120690554Y-154170476D01*
X120120021Y-154406799D01*
X119606554Y-154749886D01*
X119169886Y-155186554D01*
X118826799Y-155700021D01*
X118590476Y-156270554D01*
X118470000Y-156876229D01*
X69740000Y-156876229D01*
X69619524Y-156270554D01*
X69383201Y-155700021D01*
X69040114Y-155186554D01*
X68603446Y-154749886D01*
X68089979Y-154406799D01*
X67519446Y-154170476D01*
X66913771Y-154050000D01*
X66296229Y-154050000D01*
X65690554Y-154170476D01*
X65120021Y-154406799D01*
X64606554Y-154749886D01*
X64169886Y-155186554D01*
X63826799Y-155700021D01*
X63590476Y-156270554D01*
X63470000Y-156876229D01*
X59265000Y-156876229D01*
X59265000Y-144459999D01*
X61566325Y-144459999D01*
X61570001Y-144497322D01*
X61570002Y-148872669D01*
X61566325Y-148910001D01*
X61570002Y-148947334D01*
X61580999Y-149058987D01*
X61594181Y-149102443D01*
X61624455Y-149202247D01*
X61695027Y-149334277D01*
X61752544Y-149404361D01*
X61790001Y-149450002D01*
X61818999Y-149473800D01*
X63211414Y-150866216D01*
X63170000Y-151074419D01*
X63170000Y-151455581D01*
X63244361Y-151829419D01*
X63390225Y-152181566D01*
X63601987Y-152498491D01*
X63871509Y-152768013D01*
X64188434Y-152979775D01*
X64540581Y-153125639D01*
X64914419Y-153200000D01*
X65295581Y-153200000D01*
X65669419Y-153125639D01*
X66021566Y-152979775D01*
X66338491Y-152768013D01*
X66608013Y-152498491D01*
X66819775Y-152181566D01*
X66965639Y-151829419D01*
X67040000Y-151455581D01*
X67040000Y-151074419D01*
X66965639Y-150700581D01*
X66819775Y-150348434D01*
X66608013Y-150031509D01*
X66338491Y-149761987D01*
X66021566Y-149550225D01*
X65669419Y-149404361D01*
X65295581Y-149330000D01*
X64914419Y-149330000D01*
X64540581Y-149404361D01*
X64188434Y-149550225D01*
X64102468Y-149607666D01*
X63090001Y-148595200D01*
X63090001Y-147485000D01*
X63166928Y-147485000D01*
X63179188Y-147609482D01*
X63215498Y-147729180D01*
X63274463Y-147839494D01*
X63353815Y-147936185D01*
X63450506Y-148015537D01*
X63560820Y-148074502D01*
X63680518Y-148110812D01*
X63805000Y-148123072D01*
X64819250Y-148120000D01*
X64978000Y-147961250D01*
X64978000Y-146312000D01*
X65232000Y-146312000D01*
X65232000Y-147961250D01*
X65390750Y-148120000D01*
X66405000Y-148123072D01*
X66529482Y-148110812D01*
X66649180Y-148074502D01*
X66759494Y-148015537D01*
X66856185Y-147936185D01*
X66935537Y-147839494D01*
X66994502Y-147729180D01*
X67030812Y-147609482D01*
X67043072Y-147485000D01*
X67040000Y-146470750D01*
X66881250Y-146312000D01*
X65232000Y-146312000D01*
X64978000Y-146312000D01*
X63328750Y-146312000D01*
X63170000Y-146470750D01*
X63166928Y-147485000D01*
X63090001Y-147485000D01*
X63090001Y-144774800D01*
X63211804Y-144652997D01*
X63179188Y-144760518D01*
X63166928Y-144885000D01*
X63170000Y-145899250D01*
X63328750Y-146058000D01*
X64978000Y-146058000D01*
X64978000Y-144408750D01*
X65232000Y-144408750D01*
X65232000Y-146058000D01*
X66881250Y-146058000D01*
X67040000Y-145899250D01*
X67043072Y-144885000D01*
X67030812Y-144760518D01*
X66994502Y-144640820D01*
X66935537Y-144530506D01*
X66856185Y-144433815D01*
X66759494Y-144354463D01*
X66649180Y-144295498D01*
X66529482Y-144259188D01*
X66405000Y-144246928D01*
X65390750Y-144250000D01*
X65232000Y-144408750D01*
X64978000Y-144408750D01*
X64819250Y-144250000D01*
X63805000Y-144246928D01*
X63680518Y-144259188D01*
X63572997Y-144291804D01*
X64483802Y-143381000D01*
X73845289Y-143381000D01*
X73889226Y-143424937D01*
X74058744Y-143538205D01*
X74247102Y-143616226D01*
X74447061Y-143656000D01*
X74650939Y-143656000D01*
X74850898Y-143616226D01*
X75039256Y-143538205D01*
X75208774Y-143424937D01*
X75352937Y-143280774D01*
X75466205Y-143111256D01*
X75544226Y-142922898D01*
X75584000Y-142722939D01*
X75584000Y-142519061D01*
X75544226Y-142319102D01*
X75466205Y-142130744D01*
X75352937Y-141961226D01*
X75309000Y-141917289D01*
X75309000Y-137439061D01*
X79229000Y-137439061D01*
X79229000Y-137642939D01*
X79268774Y-137842898D01*
X79346795Y-138031256D01*
X79379000Y-138079454D01*
X79379001Y-145130544D01*
X79346795Y-145178744D01*
X79268774Y-145367102D01*
X79229000Y-145567061D01*
X79229000Y-145770939D01*
X79268774Y-145970898D01*
X79346795Y-146159256D01*
X79460063Y-146328774D01*
X79604226Y-146472937D01*
X79773744Y-146586205D01*
X79962102Y-146664226D01*
X80162061Y-146704000D01*
X80365939Y-146704000D01*
X80565898Y-146664226D01*
X80754256Y-146586205D01*
X80923774Y-146472937D01*
X81067937Y-146328774D01*
X81181205Y-146159256D01*
X81259226Y-145970898D01*
X81299000Y-145770939D01*
X81299000Y-145567061D01*
X81259226Y-145367102D01*
X81181205Y-145178744D01*
X81149000Y-145130546D01*
X81149000Y-143408061D01*
X87865000Y-143408061D01*
X87865000Y-143611939D01*
X87904774Y-143811898D01*
X87982795Y-144000256D01*
X88015001Y-144048456D01*
X88015000Y-154401546D01*
X87982795Y-154449744D01*
X87904774Y-154638102D01*
X87865000Y-154838061D01*
X87865000Y-155041939D01*
X87904774Y-155241898D01*
X87982795Y-155430256D01*
X88096063Y-155599774D01*
X88240226Y-155743937D01*
X88409744Y-155857205D01*
X88598102Y-155935226D01*
X88798061Y-155975000D01*
X89001939Y-155975000D01*
X89201898Y-155935226D01*
X89390256Y-155857205D01*
X89559774Y-155743937D01*
X89703937Y-155599774D01*
X89817205Y-155430256D01*
X89895226Y-155241898D01*
X89935000Y-155041939D01*
X89935000Y-154838061D01*
X89895226Y-154638102D01*
X89817205Y-154449744D01*
X89785000Y-154401546D01*
X89785000Y-154203061D01*
X102470000Y-154203061D01*
X102470000Y-154406939D01*
X102509774Y-154606898D01*
X102587795Y-154795256D01*
X102701063Y-154964774D01*
X102845226Y-155108937D01*
X103014744Y-155222205D01*
X103203102Y-155300226D01*
X103403061Y-155340000D01*
X103606939Y-155340000D01*
X103806898Y-155300226D01*
X103995256Y-155222205D01*
X104164774Y-155108937D01*
X104308937Y-154964774D01*
X104356068Y-154894238D01*
X104395000Y-154898072D01*
X108965000Y-154898072D01*
X109089482Y-154885812D01*
X109209180Y-154849502D01*
X109319494Y-154790537D01*
X109416185Y-154711185D01*
X109495537Y-154614494D01*
X109554502Y-154504180D01*
X109590812Y-154384482D01*
X109603072Y-154260000D01*
X109603072Y-150660000D01*
X109590812Y-150535518D01*
X109554502Y-150415820D01*
X109495537Y-150305506D01*
X109416185Y-150208815D01*
X109319494Y-150129463D01*
X109209180Y-150070498D01*
X109089482Y-150034188D01*
X108965000Y-150021928D01*
X104395000Y-150021928D01*
X104390000Y-150022420D01*
X104390000Y-148960549D01*
X104441898Y-148950226D01*
X104630256Y-148872205D01*
X104799774Y-148758937D01*
X104943937Y-148614774D01*
X105057205Y-148445256D01*
X105135226Y-148256898D01*
X105175000Y-148056939D01*
X105175000Y-147853061D01*
X105135226Y-147653102D01*
X105057205Y-147464744D01*
X104943937Y-147295226D01*
X104799774Y-147151063D01*
X104630256Y-147037795D01*
X104441898Y-146959774D01*
X104241939Y-146920000D01*
X104038061Y-146920000D01*
X103838102Y-146959774D01*
X103649744Y-147037795D01*
X103480226Y-147151063D01*
X103336063Y-147295226D01*
X103222795Y-147464744D01*
X103144774Y-147653102D01*
X103133465Y-147709957D01*
X102909951Y-147933471D01*
X102876184Y-147961183D01*
X102848471Y-147994951D01*
X102848468Y-147994954D01*
X102765590Y-148095941D01*
X102683412Y-148249687D01*
X102632805Y-148416510D01*
X102615719Y-148590000D01*
X102620001Y-148633479D01*
X102620000Y-153766546D01*
X102587795Y-153814744D01*
X102509774Y-154003102D01*
X102470000Y-154203061D01*
X89785000Y-154203061D01*
X89785000Y-151361578D01*
X90418470Y-151995049D01*
X90446183Y-152028817D01*
X90479951Y-152056530D01*
X90479953Y-152056532D01*
X90551452Y-152115210D01*
X90580941Y-152139411D01*
X90734687Y-152221589D01*
X90901510Y-152272195D01*
X91031523Y-152285000D01*
X91031533Y-152285000D01*
X91074999Y-152289281D01*
X91118465Y-152285000D01*
X97251546Y-152285000D01*
X97299744Y-152317205D01*
X97488102Y-152395226D01*
X97688061Y-152435000D01*
X97891939Y-152435000D01*
X98091898Y-152395226D01*
X98280256Y-152317205D01*
X98449774Y-152203937D01*
X98593937Y-152059774D01*
X98707205Y-151890256D01*
X98785226Y-151701898D01*
X98825000Y-151501939D01*
X98825000Y-151298061D01*
X98785226Y-151098102D01*
X98707205Y-150909744D01*
X98593937Y-150740226D01*
X98449774Y-150596063D01*
X98280256Y-150482795D01*
X98091898Y-150404774D01*
X97891939Y-150365000D01*
X97688061Y-150365000D01*
X97488102Y-150404774D01*
X97299744Y-150482795D01*
X97251546Y-150515000D01*
X91441579Y-150515000D01*
X91142746Y-150216168D01*
X91165226Y-150161898D01*
X91205000Y-149961939D01*
X91205000Y-149758061D01*
X91165226Y-149558102D01*
X91087205Y-149369744D01*
X90973937Y-149200226D01*
X90829774Y-149056063D01*
X90660256Y-148942795D01*
X90471898Y-148864774D01*
X90271939Y-148825000D01*
X90068061Y-148825000D01*
X89868102Y-148864774D01*
X89785000Y-148899196D01*
X89785000Y-144048454D01*
X89788603Y-144043061D01*
X102470000Y-144043061D01*
X102470000Y-144246939D01*
X102509774Y-144446898D01*
X102587795Y-144635256D01*
X102701063Y-144804774D01*
X102845226Y-144948937D01*
X103014744Y-145062205D01*
X103203102Y-145140226D01*
X103403061Y-145180000D01*
X103606939Y-145180000D01*
X103806898Y-145140226D01*
X103829171Y-145131000D01*
X116806928Y-145131000D01*
X116806928Y-147731000D01*
X116819188Y-147855482D01*
X116855498Y-147975180D01*
X116914463Y-148085494D01*
X116993815Y-148182185D01*
X117090506Y-148261537D01*
X117200820Y-148320502D01*
X117320518Y-148356812D01*
X117445000Y-148369072D01*
X120045000Y-148369072D01*
X120169482Y-148356812D01*
X120289180Y-148320502D01*
X120399494Y-148261537D01*
X120496185Y-148182185D01*
X120575537Y-148085494D01*
X120634502Y-147975180D01*
X120670812Y-147855482D01*
X120683072Y-147731000D01*
X120683072Y-145131000D01*
X120670812Y-145006518D01*
X120634502Y-144886820D01*
X120575537Y-144776506D01*
X120496185Y-144679815D01*
X120399494Y-144600463D01*
X120289180Y-144541498D01*
X120169482Y-144505188D01*
X120045000Y-144492928D01*
X117445000Y-144492928D01*
X117320518Y-144505188D01*
X117200820Y-144541498D01*
X117090506Y-144600463D01*
X116993815Y-144679815D01*
X116914463Y-144776506D01*
X116855498Y-144886820D01*
X116819188Y-145006518D01*
X116806928Y-145131000D01*
X103829171Y-145131000D01*
X103995256Y-145062205D01*
X104164774Y-144948937D01*
X104308937Y-144804774D01*
X104356068Y-144734238D01*
X104395000Y-144738072D01*
X108965000Y-144738072D01*
X109089482Y-144725812D01*
X109209180Y-144689502D01*
X109319494Y-144630537D01*
X109416185Y-144551185D01*
X109495537Y-144454494D01*
X109554502Y-144344180D01*
X109590812Y-144224482D01*
X109603072Y-144100000D01*
X109603072Y-140500000D01*
X109590812Y-140375518D01*
X109554502Y-140255820D01*
X109495537Y-140145506D01*
X109416185Y-140048815D01*
X109319494Y-139969463D01*
X109209180Y-139910498D01*
X109089482Y-139874188D01*
X108965000Y-139861928D01*
X104395000Y-139861928D01*
X104390000Y-139862420D01*
X104390000Y-138796578D01*
X104506579Y-138680000D01*
X105506546Y-138680000D01*
X105554744Y-138712205D01*
X105743102Y-138790226D01*
X105943061Y-138830000D01*
X106146939Y-138830000D01*
X106346898Y-138790226D01*
X106535256Y-138712205D01*
X106704774Y-138598937D01*
X106848937Y-138454774D01*
X106962205Y-138285256D01*
X107040226Y-138096898D01*
X107080000Y-137896939D01*
X107080000Y-137693061D01*
X107040226Y-137493102D01*
X106962205Y-137304744D01*
X106848937Y-137135226D01*
X106704774Y-136991063D01*
X106535256Y-136877795D01*
X106346898Y-136799774D01*
X106146939Y-136760000D01*
X105943061Y-136760000D01*
X105743102Y-136799774D01*
X105554744Y-136877795D01*
X105506546Y-136910000D01*
X104183469Y-136910000D01*
X104140000Y-136905719D01*
X104096531Y-136910000D01*
X104096523Y-136910000D01*
X103966510Y-136922805D01*
X103799686Y-136973411D01*
X103645941Y-137055589D01*
X103544953Y-137138468D01*
X103544951Y-137138470D01*
X103511183Y-137166183D01*
X103483470Y-137199951D01*
X102909951Y-137773471D01*
X102876184Y-137801183D01*
X102848471Y-137834951D01*
X102848468Y-137834954D01*
X102765590Y-137935941D01*
X102683412Y-138089687D01*
X102632805Y-138256510D01*
X102615719Y-138430000D01*
X102620001Y-138473479D01*
X102620000Y-143606546D01*
X102587795Y-143654744D01*
X102509774Y-143843102D01*
X102470000Y-144043061D01*
X89788603Y-144043061D01*
X89817205Y-144000256D01*
X89895226Y-143811898D01*
X89935000Y-143611939D01*
X89935000Y-143408061D01*
X89895226Y-143208102D01*
X89817205Y-143019744D01*
X89703937Y-142850226D01*
X89559774Y-142706063D01*
X89390256Y-142592795D01*
X89201898Y-142514774D01*
X89001939Y-142475000D01*
X88798061Y-142475000D01*
X88598102Y-142514774D01*
X88409744Y-142592795D01*
X88240226Y-142706063D01*
X88096063Y-142850226D01*
X87982795Y-143019744D01*
X87904774Y-143208102D01*
X87865000Y-143408061D01*
X81149000Y-143408061D01*
X81149000Y-138079454D01*
X81181205Y-138031256D01*
X81259226Y-137842898D01*
X81299000Y-137642939D01*
X81299000Y-137439061D01*
X81259226Y-137239102D01*
X81181205Y-137050744D01*
X81067937Y-136881226D01*
X80923774Y-136737063D01*
X80754256Y-136623795D01*
X80565898Y-136545774D01*
X80365939Y-136506000D01*
X80162061Y-136506000D01*
X79962102Y-136545774D01*
X79773744Y-136623795D01*
X79604226Y-136737063D01*
X79460063Y-136881226D01*
X79346795Y-137050744D01*
X79268774Y-137239102D01*
X79229000Y-137439061D01*
X75309000Y-137439061D01*
X75309000Y-133000325D01*
X75312676Y-132963000D01*
X75309000Y-132925675D01*
X75309000Y-132925667D01*
X75298003Y-132814014D01*
X75254546Y-132670753D01*
X75183974Y-132538724D01*
X75089001Y-132422999D01*
X75060004Y-132399202D01*
X73806000Y-131145199D01*
X73806000Y-131083061D01*
X73766226Y-130883102D01*
X73688205Y-130694744D01*
X73574937Y-130525226D01*
X73430774Y-130381063D01*
X73261256Y-130267795D01*
X73072898Y-130189774D01*
X72872939Y-130150000D01*
X72669061Y-130150000D01*
X72469102Y-130189774D01*
X72280744Y-130267795D01*
X72111226Y-130381063D01*
X71967063Y-130525226D01*
X71853795Y-130694744D01*
X71775774Y-130883102D01*
X71736000Y-131083061D01*
X71736000Y-131286939D01*
X71775774Y-131486898D01*
X71853795Y-131675256D01*
X71967063Y-131844774D01*
X72111226Y-131988937D01*
X72280744Y-132102205D01*
X72469102Y-132180226D01*
X72669061Y-132220000D01*
X72731199Y-132220000D01*
X73789000Y-133277802D01*
X73789000Y-133278333D01*
X73789001Y-133278343D01*
X73789000Y-141861000D01*
X66079597Y-141861000D01*
X66338491Y-141688013D01*
X66608013Y-141418491D01*
X66819775Y-141101566D01*
X66965639Y-140749419D01*
X67040000Y-140375581D01*
X67040000Y-139994419D01*
X66965639Y-139620581D01*
X66819775Y-139268434D01*
X66608013Y-138951509D01*
X66338491Y-138681987D01*
X66021566Y-138470225D01*
X65669419Y-138324361D01*
X65295581Y-138250000D01*
X64914419Y-138250000D01*
X64540581Y-138324361D01*
X64188434Y-138470225D01*
X63871509Y-138681987D01*
X63601987Y-138951509D01*
X63390225Y-139268434D01*
X63244361Y-139620581D01*
X63170000Y-139994419D01*
X63170000Y-140375581D01*
X63244361Y-140749419D01*
X63390225Y-141101566D01*
X63601987Y-141418491D01*
X63871509Y-141688013D01*
X64130565Y-141861109D01*
X64020014Y-141871997D01*
X63876753Y-141915454D01*
X63744724Y-141986026D01*
X63628999Y-142080999D01*
X63605201Y-142109997D01*
X61819004Y-143896195D01*
X61790000Y-143919998D01*
X61754742Y-143962961D01*
X61695027Y-144035723D01*
X61691105Y-144043061D01*
X61624455Y-144167753D01*
X61580998Y-144311014D01*
X61570001Y-144422667D01*
X61570001Y-144422677D01*
X61566325Y-144459999D01*
X59265000Y-144459999D01*
X59265000Y-133805000D01*
X63166928Y-133805000D01*
X63166928Y-136405000D01*
X63179188Y-136529482D01*
X63215498Y-136649180D01*
X63274463Y-136759494D01*
X63353815Y-136856185D01*
X63450506Y-136935537D01*
X63560820Y-136994502D01*
X63680518Y-137030812D01*
X63805000Y-137043072D01*
X66405000Y-137043072D01*
X66529482Y-137030812D01*
X66649180Y-136994502D01*
X66759494Y-136935537D01*
X66856185Y-136856185D01*
X66935537Y-136759494D01*
X66994502Y-136649180D01*
X67030812Y-136529482D01*
X67043072Y-136405000D01*
X67043072Y-135761000D01*
X70901289Y-135761000D01*
X70945226Y-135804937D01*
X71114744Y-135918205D01*
X71303102Y-135996226D01*
X71503061Y-136036000D01*
X71706939Y-136036000D01*
X71906898Y-135996226D01*
X72095256Y-135918205D01*
X72264774Y-135804937D01*
X72408937Y-135660774D01*
X72522205Y-135491256D01*
X72600226Y-135302898D01*
X72640000Y-135102939D01*
X72640000Y-134899061D01*
X72600226Y-134699102D01*
X72522205Y-134510744D01*
X72408937Y-134341226D01*
X72264774Y-134197063D01*
X72095256Y-134083795D01*
X71906898Y-134005774D01*
X71706939Y-133966000D01*
X71503061Y-133966000D01*
X71303102Y-134005774D01*
X71114744Y-134083795D01*
X70945226Y-134197063D01*
X70901289Y-134241000D01*
X67043072Y-134241000D01*
X67043072Y-133805000D01*
X67030812Y-133680518D01*
X66994502Y-133560820D01*
X66935537Y-133450506D01*
X66856185Y-133353815D01*
X66759494Y-133274463D01*
X66649180Y-133215498D01*
X66529482Y-133179188D01*
X66405000Y-133166928D01*
X63805000Y-133166928D01*
X63680518Y-133179188D01*
X63560820Y-133215498D01*
X63450506Y-133274463D01*
X63353815Y-133353815D01*
X63274463Y-133450506D01*
X63215498Y-133560820D01*
X63179188Y-133680518D01*
X63166928Y-133805000D01*
X59265000Y-133805000D01*
X59265000Y-128994419D01*
X63170000Y-128994419D01*
X63170000Y-129375581D01*
X63244361Y-129749419D01*
X63390225Y-130101566D01*
X63601987Y-130418491D01*
X63871509Y-130688013D01*
X64188434Y-130899775D01*
X64540581Y-131045639D01*
X64914419Y-131120000D01*
X65295581Y-131120000D01*
X65669419Y-131045639D01*
X66021566Y-130899775D01*
X66338491Y-130688013D01*
X66608013Y-130418491D01*
X66819775Y-130101566D01*
X66965639Y-129749419D01*
X67040000Y-129375581D01*
X67040000Y-128994419D01*
X66965639Y-128620581D01*
X66819775Y-128268434D01*
X66608013Y-127951509D01*
X66338491Y-127681987D01*
X66021566Y-127470225D01*
X65669419Y-127324361D01*
X65295581Y-127250000D01*
X64914419Y-127250000D01*
X64540581Y-127324361D01*
X64188434Y-127470225D01*
X63871509Y-127681987D01*
X63601987Y-127951509D01*
X63390225Y-128268434D01*
X63244361Y-128620581D01*
X63170000Y-128994419D01*
X59265000Y-128994419D01*
X59265000Y-122805000D01*
X63166928Y-122805000D01*
X63166928Y-125405000D01*
X63179188Y-125529482D01*
X63215498Y-125649180D01*
X63274463Y-125759494D01*
X63353815Y-125856185D01*
X63450506Y-125935537D01*
X63560820Y-125994502D01*
X63680518Y-126030812D01*
X63805000Y-126043072D01*
X66405000Y-126043072D01*
X66529482Y-126030812D01*
X66649180Y-125994502D01*
X66759494Y-125935537D01*
X66856185Y-125856185D01*
X66935537Y-125759494D01*
X66994502Y-125649180D01*
X67030812Y-125529482D01*
X67043072Y-125405000D01*
X67043072Y-123723061D01*
X87992000Y-123723061D01*
X87992000Y-123926939D01*
X88031774Y-124126898D01*
X88109795Y-124315256D01*
X88142001Y-124363456D01*
X88142000Y-134716546D01*
X88109795Y-134764744D01*
X88031774Y-134953102D01*
X87992000Y-135153061D01*
X87992000Y-135356939D01*
X88031774Y-135556898D01*
X88109795Y-135745256D01*
X88223063Y-135914774D01*
X88367226Y-136058937D01*
X88536744Y-136172205D01*
X88725102Y-136250226D01*
X88925061Y-136290000D01*
X89128939Y-136290000D01*
X89328898Y-136250226D01*
X89517256Y-136172205D01*
X89686774Y-136058937D01*
X89830937Y-135914774D01*
X89944205Y-135745256D01*
X90022226Y-135556898D01*
X90062000Y-135356939D01*
X90062000Y-135153061D01*
X90022226Y-134953102D01*
X89944205Y-134764744D01*
X89912000Y-134716546D01*
X89912000Y-134518061D01*
X102470000Y-134518061D01*
X102470000Y-134721939D01*
X102509774Y-134921898D01*
X102587795Y-135110256D01*
X102701063Y-135279774D01*
X102845226Y-135423937D01*
X103014744Y-135537205D01*
X103203102Y-135615226D01*
X103403061Y-135655000D01*
X103606939Y-135655000D01*
X103702459Y-135636000D01*
X111588057Y-135636000D01*
X111615764Y-135917308D01*
X111697818Y-136187807D01*
X111831069Y-136437100D01*
X111965457Y-136600852D01*
X116480147Y-141115544D01*
X116480157Y-141115553D01*
X116810000Y-141445396D01*
X116810000Y-141541581D01*
X116884361Y-141915419D01*
X117030225Y-142267566D01*
X117241987Y-142584491D01*
X117511509Y-142854013D01*
X117828434Y-143065775D01*
X118180581Y-143211639D01*
X118554419Y-143286000D01*
X118935581Y-143286000D01*
X119309419Y-143211639D01*
X119661566Y-143065775D01*
X119978491Y-142854013D01*
X120248013Y-142584491D01*
X120459775Y-142267566D01*
X120605639Y-141915419D01*
X120680000Y-141541581D01*
X120680000Y-141160419D01*
X120605639Y-140786581D01*
X120459775Y-140434434D01*
X120248013Y-140117509D01*
X119978491Y-139847987D01*
X119661566Y-139636225D01*
X119309419Y-139490361D01*
X118935581Y-139416000D01*
X118839396Y-139416000D01*
X118509553Y-139086157D01*
X118509544Y-139086147D01*
X113994852Y-134571457D01*
X113831100Y-134437069D01*
X113581807Y-134303818D01*
X113311308Y-134221764D01*
X113030000Y-134194057D01*
X112748692Y-134221764D01*
X112478193Y-134303818D01*
X112228900Y-134437069D01*
X112010393Y-134616393D01*
X111831069Y-134834900D01*
X111697818Y-135084193D01*
X111615764Y-135354692D01*
X111588057Y-135636000D01*
X103702459Y-135636000D01*
X103806898Y-135615226D01*
X103995256Y-135537205D01*
X104164774Y-135423937D01*
X104308937Y-135279774D01*
X104422205Y-135110256D01*
X104452105Y-135038072D01*
X108965000Y-135038072D01*
X109089482Y-135025812D01*
X109209180Y-134989502D01*
X109319494Y-134930537D01*
X109416185Y-134851185D01*
X109495537Y-134754494D01*
X109554502Y-134644180D01*
X109590812Y-134524482D01*
X109603072Y-134400000D01*
X109603072Y-132050000D01*
X116806928Y-132050000D01*
X116806928Y-134650000D01*
X116819188Y-134774482D01*
X116855498Y-134894180D01*
X116914463Y-135004494D01*
X116993815Y-135101185D01*
X117090506Y-135180537D01*
X117200820Y-135239502D01*
X117320518Y-135275812D01*
X117445000Y-135288072D01*
X120045000Y-135288072D01*
X120169482Y-135275812D01*
X120289180Y-135239502D01*
X120399494Y-135180537D01*
X120496185Y-135101185D01*
X120575537Y-135004494D01*
X120634502Y-134894180D01*
X120670812Y-134774482D01*
X120683072Y-134650000D01*
X120683072Y-132050000D01*
X120670812Y-131925518D01*
X120634502Y-131805820D01*
X120575537Y-131695506D01*
X120496185Y-131598815D01*
X120399494Y-131519463D01*
X120289180Y-131460498D01*
X120169482Y-131424188D01*
X120045000Y-131411928D01*
X117445000Y-131411928D01*
X117320518Y-131424188D01*
X117200820Y-131460498D01*
X117090506Y-131519463D01*
X116993815Y-131598815D01*
X116914463Y-131695506D01*
X116855498Y-131805820D01*
X116819188Y-131925518D01*
X116806928Y-132050000D01*
X109603072Y-132050000D01*
X109603072Y-130800000D01*
X109590812Y-130675518D01*
X109554502Y-130555820D01*
X109495537Y-130445506D01*
X109416185Y-130348815D01*
X109319494Y-130269463D01*
X109209180Y-130210498D01*
X109089482Y-130174188D01*
X108965000Y-130161928D01*
X104395000Y-130161928D01*
X104390000Y-130162420D01*
X104390000Y-129293974D01*
X104407439Y-129276535D01*
X104464294Y-129265226D01*
X104652652Y-129187205D01*
X104822170Y-129073937D01*
X104966333Y-128929774D01*
X105079601Y-128760256D01*
X105157622Y-128571898D01*
X105197396Y-128371939D01*
X105197396Y-128168061D01*
X105179765Y-128079419D01*
X116810000Y-128079419D01*
X116810000Y-128460581D01*
X116884361Y-128834419D01*
X117030225Y-129186566D01*
X117241987Y-129503491D01*
X117511509Y-129773013D01*
X117828434Y-129984775D01*
X118180581Y-130130639D01*
X118554419Y-130205000D01*
X118935581Y-130205000D01*
X119309419Y-130130639D01*
X119661566Y-129984775D01*
X119978491Y-129773013D01*
X120248013Y-129503491D01*
X120459775Y-129186566D01*
X120605639Y-128834419D01*
X120680000Y-128460581D01*
X120680000Y-128079419D01*
X120605639Y-127705581D01*
X120459775Y-127353434D01*
X120248013Y-127036509D01*
X119978491Y-126766987D01*
X119661566Y-126555225D01*
X119309419Y-126409361D01*
X118935581Y-126335000D01*
X118554419Y-126335000D01*
X118180581Y-126409361D01*
X117828434Y-126555225D01*
X117511509Y-126766987D01*
X117241987Y-127036509D01*
X117030225Y-127353434D01*
X116884361Y-127705581D01*
X116810000Y-128079419D01*
X105179765Y-128079419D01*
X105157622Y-127968102D01*
X105079601Y-127779744D01*
X104966333Y-127610226D01*
X104822170Y-127466063D01*
X104652652Y-127352795D01*
X104464294Y-127274774D01*
X104264335Y-127235000D01*
X104060457Y-127235000D01*
X103860498Y-127274774D01*
X103672140Y-127352795D01*
X103502622Y-127466063D01*
X103358459Y-127610226D01*
X103245191Y-127779744D01*
X103167170Y-127968102D01*
X103155861Y-128024957D01*
X102909951Y-128270867D01*
X102876184Y-128298579D01*
X102848471Y-128332347D01*
X102848468Y-128332350D01*
X102765590Y-128433337D01*
X102683412Y-128587083D01*
X102632805Y-128753906D01*
X102615719Y-128927396D01*
X102620001Y-128970875D01*
X102620000Y-134081546D01*
X102587795Y-134129744D01*
X102509774Y-134318102D01*
X102470000Y-134518061D01*
X89912000Y-134518061D01*
X89912000Y-132057579D01*
X89989470Y-132135049D01*
X90017183Y-132168817D01*
X90050951Y-132196530D01*
X90050953Y-132196532D01*
X90131897Y-132262961D01*
X90151941Y-132279411D01*
X90305687Y-132361589D01*
X90472510Y-132412195D01*
X90602523Y-132425000D01*
X90602531Y-132425000D01*
X90646000Y-132429281D01*
X90689469Y-132425000D01*
X97251546Y-132425000D01*
X97299744Y-132457205D01*
X97488102Y-132535226D01*
X97688061Y-132575000D01*
X97891939Y-132575000D01*
X98091898Y-132535226D01*
X98280256Y-132457205D01*
X98449774Y-132343937D01*
X98593937Y-132199774D01*
X98707205Y-132030256D01*
X98785226Y-131841898D01*
X98825000Y-131641939D01*
X98825000Y-131438061D01*
X98785226Y-131238102D01*
X98707205Y-131049744D01*
X98593937Y-130880226D01*
X98449774Y-130736063D01*
X98280256Y-130622795D01*
X98091898Y-130544774D01*
X97891939Y-130505000D01*
X97688061Y-130505000D01*
X97488102Y-130544774D01*
X97299744Y-130622795D01*
X97251546Y-130655000D01*
X91012579Y-130655000D01*
X90928000Y-130570422D01*
X90928000Y-130205454D01*
X90960205Y-130157256D01*
X91038226Y-129968898D01*
X91078000Y-129768939D01*
X91078000Y-129565061D01*
X91038226Y-129365102D01*
X90960205Y-129176744D01*
X90846937Y-129007226D01*
X90702774Y-128863063D01*
X90533256Y-128749795D01*
X90344898Y-128671774D01*
X90144939Y-128632000D01*
X89941061Y-128632000D01*
X89912000Y-128637781D01*
X89912000Y-124363454D01*
X89915603Y-124358061D01*
X102470000Y-124358061D01*
X102470000Y-124561939D01*
X102509774Y-124761898D01*
X102587795Y-124950256D01*
X102701063Y-125119774D01*
X102845226Y-125263937D01*
X103014744Y-125377205D01*
X103203102Y-125455226D01*
X103403061Y-125495000D01*
X103606939Y-125495000D01*
X103806898Y-125455226D01*
X103995256Y-125377205D01*
X104164774Y-125263937D01*
X104308937Y-125119774D01*
X104422205Y-124950256D01*
X104452105Y-124878072D01*
X108965000Y-124878072D01*
X109089482Y-124865812D01*
X109209180Y-124829502D01*
X109319494Y-124770537D01*
X109416185Y-124691185D01*
X109495537Y-124594494D01*
X109554502Y-124484180D01*
X109590812Y-124364482D01*
X109603072Y-124240000D01*
X109603072Y-120640000D01*
X109590812Y-120515518D01*
X109554502Y-120395820D01*
X109495537Y-120285506D01*
X109416185Y-120188815D01*
X109319494Y-120109463D01*
X109209180Y-120050498D01*
X109089482Y-120014188D01*
X108965000Y-120001928D01*
X104395000Y-120001928D01*
X104390000Y-120002420D01*
X104390000Y-119111578D01*
X104506579Y-118995000D01*
X105506546Y-118995000D01*
X105554744Y-119027205D01*
X105743102Y-119105226D01*
X105943061Y-119145000D01*
X106146939Y-119145000D01*
X106346898Y-119105226D01*
X106535256Y-119027205D01*
X106704774Y-118913937D01*
X106848937Y-118769774D01*
X106962205Y-118600256D01*
X107040226Y-118411898D01*
X107080000Y-118211939D01*
X107080000Y-118008061D01*
X107053778Y-117876229D01*
X118470000Y-117876229D01*
X118470000Y-118493771D01*
X118590476Y-119099446D01*
X118826799Y-119669979D01*
X119169886Y-120183446D01*
X119606554Y-120620114D01*
X120120021Y-120963201D01*
X120690554Y-121199524D01*
X121296229Y-121320000D01*
X121913771Y-121320000D01*
X122519446Y-121199524D01*
X123089979Y-120963201D01*
X123603446Y-120620114D01*
X124040114Y-120183446D01*
X124383201Y-119669979D01*
X124619524Y-119099446D01*
X124740000Y-118493771D01*
X124740000Y-117876229D01*
X124619524Y-117270554D01*
X124383201Y-116700021D01*
X124040114Y-116186554D01*
X123603446Y-115749886D01*
X123089979Y-115406799D01*
X122519446Y-115170476D01*
X121913771Y-115050000D01*
X121296229Y-115050000D01*
X120690554Y-115170476D01*
X120120021Y-115406799D01*
X119606554Y-115749886D01*
X119169886Y-116186554D01*
X118826799Y-116700021D01*
X118590476Y-117270554D01*
X118470000Y-117876229D01*
X107053778Y-117876229D01*
X107040226Y-117808102D01*
X106962205Y-117619744D01*
X106848937Y-117450226D01*
X106704774Y-117306063D01*
X106535256Y-117192795D01*
X106346898Y-117114774D01*
X106146939Y-117075000D01*
X105943061Y-117075000D01*
X105743102Y-117114774D01*
X105554744Y-117192795D01*
X105506546Y-117225000D01*
X104183469Y-117225000D01*
X104140000Y-117220719D01*
X104096531Y-117225000D01*
X104096523Y-117225000D01*
X103966510Y-117237805D01*
X103799686Y-117288411D01*
X103645941Y-117370589D01*
X103544953Y-117453468D01*
X103544951Y-117453470D01*
X103511183Y-117481183D01*
X103483470Y-117514951D01*
X102909951Y-118088471D01*
X102876184Y-118116183D01*
X102848471Y-118149951D01*
X102848468Y-118149954D01*
X102819587Y-118185146D01*
X102765590Y-118250941D01*
X102683412Y-118404687D01*
X102632805Y-118571510D01*
X102620000Y-118701523D01*
X102620000Y-118701531D01*
X102615719Y-118745000D01*
X102620000Y-118788469D01*
X102620000Y-119423476D01*
X102620001Y-119423486D01*
X102620000Y-120763474D01*
X102620001Y-120763484D01*
X102620000Y-123921545D01*
X102587795Y-123969744D01*
X102509774Y-124158102D01*
X102470000Y-124358061D01*
X89915603Y-124358061D01*
X89944205Y-124315256D01*
X90022226Y-124126898D01*
X90062000Y-123926939D01*
X90062000Y-123723061D01*
X90022226Y-123523102D01*
X89944205Y-123334744D01*
X89830937Y-123165226D01*
X89686774Y-123021063D01*
X89517256Y-122907795D01*
X89328898Y-122829774D01*
X89128939Y-122790000D01*
X88925061Y-122790000D01*
X88725102Y-122829774D01*
X88536744Y-122907795D01*
X88367226Y-123021063D01*
X88223063Y-123165226D01*
X88109795Y-123334744D01*
X88031774Y-123523102D01*
X87992000Y-123723061D01*
X67043072Y-123723061D01*
X67043072Y-122805000D01*
X67030812Y-122680518D01*
X66994502Y-122560820D01*
X66935537Y-122450506D01*
X66856185Y-122353815D01*
X66759494Y-122274463D01*
X66649180Y-122215498D01*
X66529482Y-122179188D01*
X66405000Y-122166928D01*
X63805000Y-122166928D01*
X63680518Y-122179188D01*
X63560820Y-122215498D01*
X63450506Y-122274463D01*
X63353815Y-122353815D01*
X63274463Y-122450506D01*
X63215498Y-122560820D01*
X63179188Y-122680518D01*
X63166928Y-122805000D01*
X59265000Y-122805000D01*
X59265000Y-117567604D01*
X63470000Y-117567604D01*
X63470000Y-118185146D01*
X63590476Y-118790821D01*
X63826799Y-119361354D01*
X64169886Y-119874821D01*
X64606554Y-120311489D01*
X65120021Y-120654576D01*
X65690554Y-120890899D01*
X66296229Y-121011375D01*
X66913771Y-121011375D01*
X67519446Y-120890899D01*
X68089979Y-120654576D01*
X68603446Y-120311489D01*
X69040114Y-119874821D01*
X69383201Y-119361354D01*
X69619524Y-118790821D01*
X69740000Y-118185146D01*
X69740000Y-117567604D01*
X69619524Y-116961929D01*
X69383201Y-116391396D01*
X69040114Y-115877929D01*
X68603446Y-115441261D01*
X68089979Y-115098174D01*
X67519446Y-114861851D01*
X66913771Y-114741375D01*
X66296229Y-114741375D01*
X65690554Y-114861851D01*
X65120021Y-115098174D01*
X64606554Y-115441261D01*
X64169886Y-115877929D01*
X63826799Y-116391396D01*
X63590476Y-116961929D01*
X63470000Y-117567604D01*
X59265000Y-117567604D01*
X59265000Y-116458380D01*
X61878381Y-113845000D01*
X123251620Y-113845000D01*
X125865001Y-116458382D01*
%TA.AperFunction,Conductor*%
D21*
G36*
X125865001Y-116458382D02*
G01*
X125865000Y-157911619D01*
X123251620Y-160525000D01*
X61878381Y-160525000D01*
X59265000Y-157911620D01*
X59265000Y-156876229D01*
X63470000Y-156876229D01*
X63470000Y-157493771D01*
X63590476Y-158099446D01*
X63826799Y-158669979D01*
X64169886Y-159183446D01*
X64606554Y-159620114D01*
X65120021Y-159963201D01*
X65690554Y-160199524D01*
X66296229Y-160320000D01*
X66913771Y-160320000D01*
X67519446Y-160199524D01*
X68089979Y-159963201D01*
X68603446Y-159620114D01*
X69040114Y-159183446D01*
X69383201Y-158669979D01*
X69619524Y-158099446D01*
X69740000Y-157493771D01*
X69740000Y-156876229D01*
X118470000Y-156876229D01*
X118470000Y-157493771D01*
X118590476Y-158099446D01*
X118826799Y-158669979D01*
X119169886Y-159183446D01*
X119606554Y-159620114D01*
X120120021Y-159963201D01*
X120690554Y-160199524D01*
X121296229Y-160320000D01*
X121913771Y-160320000D01*
X122519446Y-160199524D01*
X123089979Y-159963201D01*
X123603446Y-159620114D01*
X124040114Y-159183446D01*
X124383201Y-158669979D01*
X124619524Y-158099446D01*
X124740000Y-157493771D01*
X124740000Y-156876229D01*
X124619524Y-156270554D01*
X124383201Y-155700021D01*
X124040114Y-155186554D01*
X123603446Y-154749886D01*
X123089979Y-154406799D01*
X122519446Y-154170476D01*
X121913771Y-154050000D01*
X121296229Y-154050000D01*
X120690554Y-154170476D01*
X120120021Y-154406799D01*
X119606554Y-154749886D01*
X119169886Y-155186554D01*
X118826799Y-155700021D01*
X118590476Y-156270554D01*
X118470000Y-156876229D01*
X69740000Y-156876229D01*
X69619524Y-156270554D01*
X69383201Y-155700021D01*
X69040114Y-155186554D01*
X68603446Y-154749886D01*
X68089979Y-154406799D01*
X67519446Y-154170476D01*
X66913771Y-154050000D01*
X66296229Y-154050000D01*
X65690554Y-154170476D01*
X65120021Y-154406799D01*
X64606554Y-154749886D01*
X64169886Y-155186554D01*
X63826799Y-155700021D01*
X63590476Y-156270554D01*
X63470000Y-156876229D01*
X59265000Y-156876229D01*
X59265000Y-144459999D01*
X61566325Y-144459999D01*
X61570001Y-144497322D01*
X61570002Y-148872669D01*
X61566325Y-148910001D01*
X61570002Y-148947334D01*
X61580999Y-149058987D01*
X61594181Y-149102443D01*
X61624455Y-149202247D01*
X61695027Y-149334277D01*
X61752544Y-149404361D01*
X61790001Y-149450002D01*
X61818999Y-149473800D01*
X63211414Y-150866216D01*
X63170000Y-151074419D01*
X63170000Y-151455581D01*
X63244361Y-151829419D01*
X63390225Y-152181566D01*
X63601987Y-152498491D01*
X63871509Y-152768013D01*
X64188434Y-152979775D01*
X64540581Y-153125639D01*
X64914419Y-153200000D01*
X65295581Y-153200000D01*
X65669419Y-153125639D01*
X66021566Y-152979775D01*
X66338491Y-152768013D01*
X66608013Y-152498491D01*
X66819775Y-152181566D01*
X66965639Y-151829419D01*
X67040000Y-151455581D01*
X67040000Y-151074419D01*
X66965639Y-150700581D01*
X66819775Y-150348434D01*
X66608013Y-150031509D01*
X66338491Y-149761987D01*
X66021566Y-149550225D01*
X65669419Y-149404361D01*
X65295581Y-149330000D01*
X64914419Y-149330000D01*
X64540581Y-149404361D01*
X64188434Y-149550225D01*
X64102468Y-149607666D01*
X63090001Y-148595200D01*
X63090001Y-147485000D01*
X63166928Y-147485000D01*
X63179188Y-147609482D01*
X63215498Y-147729180D01*
X63274463Y-147839494D01*
X63353815Y-147936185D01*
X63450506Y-148015537D01*
X63560820Y-148074502D01*
X63680518Y-148110812D01*
X63805000Y-148123072D01*
X64819250Y-148120000D01*
X64978000Y-147961250D01*
X64978000Y-146312000D01*
X65232000Y-146312000D01*
X65232000Y-147961250D01*
X65390750Y-148120000D01*
X66405000Y-148123072D01*
X66529482Y-148110812D01*
X66649180Y-148074502D01*
X66759494Y-148015537D01*
X66856185Y-147936185D01*
X66935537Y-147839494D01*
X66994502Y-147729180D01*
X67030812Y-147609482D01*
X67043072Y-147485000D01*
X67040000Y-146470750D01*
X66881250Y-146312000D01*
X65232000Y-146312000D01*
X64978000Y-146312000D01*
X63328750Y-146312000D01*
X63170000Y-146470750D01*
X63166928Y-147485000D01*
X63090001Y-147485000D01*
X63090001Y-144774800D01*
X63211804Y-144652997D01*
X63179188Y-144760518D01*
X63166928Y-144885000D01*
X63170000Y-145899250D01*
X63328750Y-146058000D01*
X64978000Y-146058000D01*
X64978000Y-144408750D01*
X65232000Y-144408750D01*
X65232000Y-146058000D01*
X66881250Y-146058000D01*
X67040000Y-145899250D01*
X67043072Y-144885000D01*
X67030812Y-144760518D01*
X66994502Y-144640820D01*
X66935537Y-144530506D01*
X66856185Y-144433815D01*
X66759494Y-144354463D01*
X66649180Y-144295498D01*
X66529482Y-144259188D01*
X66405000Y-144246928D01*
X65390750Y-144250000D01*
X65232000Y-144408750D01*
X64978000Y-144408750D01*
X64819250Y-144250000D01*
X63805000Y-144246928D01*
X63680518Y-144259188D01*
X63572997Y-144291804D01*
X64483802Y-143381000D01*
X73845289Y-143381000D01*
X73889226Y-143424937D01*
X74058744Y-143538205D01*
X74247102Y-143616226D01*
X74447061Y-143656000D01*
X74650939Y-143656000D01*
X74850898Y-143616226D01*
X75039256Y-143538205D01*
X75208774Y-143424937D01*
X75352937Y-143280774D01*
X75466205Y-143111256D01*
X75544226Y-142922898D01*
X75584000Y-142722939D01*
X75584000Y-142519061D01*
X75544226Y-142319102D01*
X75466205Y-142130744D01*
X75352937Y-141961226D01*
X75309000Y-141917289D01*
X75309000Y-137439061D01*
X79229000Y-137439061D01*
X79229000Y-137642939D01*
X79268774Y-137842898D01*
X79346795Y-138031256D01*
X79379000Y-138079454D01*
X79379001Y-145130544D01*
X79346795Y-145178744D01*
X79268774Y-145367102D01*
X79229000Y-145567061D01*
X79229000Y-145770939D01*
X79268774Y-145970898D01*
X79346795Y-146159256D01*
X79460063Y-146328774D01*
X79604226Y-146472937D01*
X79773744Y-146586205D01*
X79962102Y-146664226D01*
X80162061Y-146704000D01*
X80365939Y-146704000D01*
X80565898Y-146664226D01*
X80754256Y-146586205D01*
X80923774Y-146472937D01*
X81067937Y-146328774D01*
X81181205Y-146159256D01*
X81259226Y-145970898D01*
X81299000Y-145770939D01*
X81299000Y-145567061D01*
X81259226Y-145367102D01*
X81181205Y-145178744D01*
X81149000Y-145130546D01*
X81149000Y-143408061D01*
X87865000Y-143408061D01*
X87865000Y-143611939D01*
X87904774Y-143811898D01*
X87982795Y-144000256D01*
X88015001Y-144048456D01*
X88015000Y-154401546D01*
X87982795Y-154449744D01*
X87904774Y-154638102D01*
X87865000Y-154838061D01*
X87865000Y-155041939D01*
X87904774Y-155241898D01*
X87982795Y-155430256D01*
X88096063Y-155599774D01*
X88240226Y-155743937D01*
X88409744Y-155857205D01*
X88598102Y-155935226D01*
X88798061Y-155975000D01*
X89001939Y-155975000D01*
X89201898Y-155935226D01*
X89390256Y-155857205D01*
X89559774Y-155743937D01*
X89703937Y-155599774D01*
X89817205Y-155430256D01*
X89895226Y-155241898D01*
X89935000Y-155041939D01*
X89935000Y-154838061D01*
X89895226Y-154638102D01*
X89817205Y-154449744D01*
X89785000Y-154401546D01*
X89785000Y-154203061D01*
X102470000Y-154203061D01*
X102470000Y-154406939D01*
X102509774Y-154606898D01*
X102587795Y-154795256D01*
X102701063Y-154964774D01*
X102845226Y-155108937D01*
X103014744Y-155222205D01*
X103203102Y-155300226D01*
X103403061Y-155340000D01*
X103606939Y-155340000D01*
X103806898Y-155300226D01*
X103995256Y-155222205D01*
X104164774Y-155108937D01*
X104308937Y-154964774D01*
X104356068Y-154894238D01*
X104395000Y-154898072D01*
X108965000Y-154898072D01*
X109089482Y-154885812D01*
X109209180Y-154849502D01*
X109319494Y-154790537D01*
X109416185Y-154711185D01*
X109495537Y-154614494D01*
X109554502Y-154504180D01*
X109590812Y-154384482D01*
X109603072Y-154260000D01*
X109603072Y-150660000D01*
X109590812Y-150535518D01*
X109554502Y-150415820D01*
X109495537Y-150305506D01*
X109416185Y-150208815D01*
X109319494Y-150129463D01*
X109209180Y-150070498D01*
X109089482Y-150034188D01*
X108965000Y-150021928D01*
X104395000Y-150021928D01*
X104390000Y-150022420D01*
X104390000Y-148960549D01*
X104441898Y-148950226D01*
X104630256Y-148872205D01*
X104799774Y-148758937D01*
X104943937Y-148614774D01*
X105057205Y-148445256D01*
X105135226Y-148256898D01*
X105175000Y-148056939D01*
X105175000Y-147853061D01*
X105135226Y-147653102D01*
X105057205Y-147464744D01*
X104943937Y-147295226D01*
X104799774Y-147151063D01*
X104630256Y-147037795D01*
X104441898Y-146959774D01*
X104241939Y-146920000D01*
X104038061Y-146920000D01*
X103838102Y-146959774D01*
X103649744Y-147037795D01*
X103480226Y-147151063D01*
X103336063Y-147295226D01*
X103222795Y-147464744D01*
X103144774Y-147653102D01*
X103133465Y-147709957D01*
X102909951Y-147933471D01*
X102876184Y-147961183D01*
X102848471Y-147994951D01*
X102848468Y-147994954D01*
X102765590Y-148095941D01*
X102683412Y-148249687D01*
X102632805Y-148416510D01*
X102615719Y-148590000D01*
X102620001Y-148633479D01*
X102620000Y-153766546D01*
X102587795Y-153814744D01*
X102509774Y-154003102D01*
X102470000Y-154203061D01*
X89785000Y-154203061D01*
X89785000Y-151361578D01*
X90418470Y-151995049D01*
X90446183Y-152028817D01*
X90479951Y-152056530D01*
X90479953Y-152056532D01*
X90551452Y-152115210D01*
X90580941Y-152139411D01*
X90734687Y-152221589D01*
X90901510Y-152272195D01*
X91031523Y-152285000D01*
X91031533Y-152285000D01*
X91074999Y-152289281D01*
X91118465Y-152285000D01*
X97251546Y-152285000D01*
X97299744Y-152317205D01*
X97488102Y-152395226D01*
X97688061Y-152435000D01*
X97891939Y-152435000D01*
X98091898Y-152395226D01*
X98280256Y-152317205D01*
X98449774Y-152203937D01*
X98593937Y-152059774D01*
X98707205Y-151890256D01*
X98785226Y-151701898D01*
X98825000Y-151501939D01*
X98825000Y-151298061D01*
X98785226Y-151098102D01*
X98707205Y-150909744D01*
X98593937Y-150740226D01*
X98449774Y-150596063D01*
X98280256Y-150482795D01*
X98091898Y-150404774D01*
X97891939Y-150365000D01*
X97688061Y-150365000D01*
X97488102Y-150404774D01*
X97299744Y-150482795D01*
X97251546Y-150515000D01*
X91441579Y-150515000D01*
X91142746Y-150216168D01*
X91165226Y-150161898D01*
X91205000Y-149961939D01*
X91205000Y-149758061D01*
X91165226Y-149558102D01*
X91087205Y-149369744D01*
X90973937Y-149200226D01*
X90829774Y-149056063D01*
X90660256Y-148942795D01*
X90471898Y-148864774D01*
X90271939Y-148825000D01*
X90068061Y-148825000D01*
X89868102Y-148864774D01*
X89785000Y-148899196D01*
X89785000Y-144048454D01*
X89788603Y-144043061D01*
X102470000Y-144043061D01*
X102470000Y-144246939D01*
X102509774Y-144446898D01*
X102587795Y-144635256D01*
X102701063Y-144804774D01*
X102845226Y-144948937D01*
X103014744Y-145062205D01*
X103203102Y-145140226D01*
X103403061Y-145180000D01*
X103606939Y-145180000D01*
X103806898Y-145140226D01*
X103829171Y-145131000D01*
X116806928Y-145131000D01*
X116806928Y-147731000D01*
X116819188Y-147855482D01*
X116855498Y-147975180D01*
X116914463Y-148085494D01*
X116993815Y-148182185D01*
X117090506Y-148261537D01*
X117200820Y-148320502D01*
X117320518Y-148356812D01*
X117445000Y-148369072D01*
X120045000Y-148369072D01*
X120169482Y-148356812D01*
X120289180Y-148320502D01*
X120399494Y-148261537D01*
X120496185Y-148182185D01*
X120575537Y-148085494D01*
X120634502Y-147975180D01*
X120670812Y-147855482D01*
X120683072Y-147731000D01*
X120683072Y-145131000D01*
X120670812Y-145006518D01*
X120634502Y-144886820D01*
X120575537Y-144776506D01*
X120496185Y-144679815D01*
X120399494Y-144600463D01*
X120289180Y-144541498D01*
X120169482Y-144505188D01*
X120045000Y-144492928D01*
X117445000Y-144492928D01*
X117320518Y-144505188D01*
X117200820Y-144541498D01*
X117090506Y-144600463D01*
X116993815Y-144679815D01*
X116914463Y-144776506D01*
X116855498Y-144886820D01*
X116819188Y-145006518D01*
X116806928Y-145131000D01*
X103829171Y-145131000D01*
X103995256Y-145062205D01*
X104164774Y-144948937D01*
X104308937Y-144804774D01*
X104356068Y-144734238D01*
X104395000Y-144738072D01*
X108965000Y-144738072D01*
X109089482Y-144725812D01*
X109209180Y-144689502D01*
X109319494Y-144630537D01*
X109416185Y-144551185D01*
X109495537Y-144454494D01*
X109554502Y-144344180D01*
X109590812Y-144224482D01*
X109603072Y-144100000D01*
X109603072Y-140500000D01*
X109590812Y-140375518D01*
X109554502Y-140255820D01*
X109495537Y-140145506D01*
X109416185Y-140048815D01*
X109319494Y-139969463D01*
X109209180Y-139910498D01*
X109089482Y-139874188D01*
X108965000Y-139861928D01*
X104395000Y-139861928D01*
X104390000Y-139862420D01*
X104390000Y-138796578D01*
X104506579Y-138680000D01*
X105506546Y-138680000D01*
X105554744Y-138712205D01*
X105743102Y-138790226D01*
X105943061Y-138830000D01*
X106146939Y-138830000D01*
X106346898Y-138790226D01*
X106535256Y-138712205D01*
X106704774Y-138598937D01*
X106848937Y-138454774D01*
X106962205Y-138285256D01*
X107040226Y-138096898D01*
X107080000Y-137896939D01*
X107080000Y-137693061D01*
X107040226Y-137493102D01*
X106962205Y-137304744D01*
X106848937Y-137135226D01*
X106704774Y-136991063D01*
X106535256Y-136877795D01*
X106346898Y-136799774D01*
X106146939Y-136760000D01*
X105943061Y-136760000D01*
X105743102Y-136799774D01*
X105554744Y-136877795D01*
X105506546Y-136910000D01*
X104183469Y-136910000D01*
X104140000Y-136905719D01*
X104096531Y-136910000D01*
X104096523Y-136910000D01*
X103966510Y-136922805D01*
X103799686Y-136973411D01*
X103645941Y-137055589D01*
X103544953Y-137138468D01*
X103544951Y-137138470D01*
X103511183Y-137166183D01*
X103483470Y-137199951D01*
X102909951Y-137773471D01*
X102876184Y-137801183D01*
X102848471Y-137834951D01*
X102848468Y-137834954D01*
X102765590Y-137935941D01*
X102683412Y-138089687D01*
X102632805Y-138256510D01*
X102615719Y-138430000D01*
X102620001Y-138473479D01*
X102620000Y-143606546D01*
X102587795Y-143654744D01*
X102509774Y-143843102D01*
X102470000Y-144043061D01*
X89788603Y-144043061D01*
X89817205Y-144000256D01*
X89895226Y-143811898D01*
X89935000Y-143611939D01*
X89935000Y-143408061D01*
X89895226Y-143208102D01*
X89817205Y-143019744D01*
X89703937Y-142850226D01*
X89559774Y-142706063D01*
X89390256Y-142592795D01*
X89201898Y-142514774D01*
X89001939Y-142475000D01*
X88798061Y-142475000D01*
X88598102Y-142514774D01*
X88409744Y-142592795D01*
X88240226Y-142706063D01*
X88096063Y-142850226D01*
X87982795Y-143019744D01*
X87904774Y-143208102D01*
X87865000Y-143408061D01*
X81149000Y-143408061D01*
X81149000Y-138079454D01*
X81181205Y-138031256D01*
X81259226Y-137842898D01*
X81299000Y-137642939D01*
X81299000Y-137439061D01*
X81259226Y-137239102D01*
X81181205Y-137050744D01*
X81067937Y-136881226D01*
X80923774Y-136737063D01*
X80754256Y-136623795D01*
X80565898Y-136545774D01*
X80365939Y-136506000D01*
X80162061Y-136506000D01*
X79962102Y-136545774D01*
X79773744Y-136623795D01*
X79604226Y-136737063D01*
X79460063Y-136881226D01*
X79346795Y-137050744D01*
X79268774Y-137239102D01*
X79229000Y-137439061D01*
X75309000Y-137439061D01*
X75309000Y-133000325D01*
X75312676Y-132963000D01*
X75309000Y-132925675D01*
X75309000Y-132925667D01*
X75298003Y-132814014D01*
X75254546Y-132670753D01*
X75183974Y-132538724D01*
X75089001Y-132422999D01*
X75060004Y-132399202D01*
X73806000Y-131145199D01*
X73806000Y-131083061D01*
X73766226Y-130883102D01*
X73688205Y-130694744D01*
X73574937Y-130525226D01*
X73430774Y-130381063D01*
X73261256Y-130267795D01*
X73072898Y-130189774D01*
X72872939Y-130150000D01*
X72669061Y-130150000D01*
X72469102Y-130189774D01*
X72280744Y-130267795D01*
X72111226Y-130381063D01*
X71967063Y-130525226D01*
X71853795Y-130694744D01*
X71775774Y-130883102D01*
X71736000Y-131083061D01*
X71736000Y-131286939D01*
X71775774Y-131486898D01*
X71853795Y-131675256D01*
X71967063Y-131844774D01*
X72111226Y-131988937D01*
X72280744Y-132102205D01*
X72469102Y-132180226D01*
X72669061Y-132220000D01*
X72731199Y-132220000D01*
X73789000Y-133277802D01*
X73789000Y-133278333D01*
X73789001Y-133278343D01*
X73789000Y-141861000D01*
X66079597Y-141861000D01*
X66338491Y-141688013D01*
X66608013Y-141418491D01*
X66819775Y-141101566D01*
X66965639Y-140749419D01*
X67040000Y-140375581D01*
X67040000Y-139994419D01*
X66965639Y-139620581D01*
X66819775Y-139268434D01*
X66608013Y-138951509D01*
X66338491Y-138681987D01*
X66021566Y-138470225D01*
X65669419Y-138324361D01*
X65295581Y-138250000D01*
X64914419Y-138250000D01*
X64540581Y-138324361D01*
X64188434Y-138470225D01*
X63871509Y-138681987D01*
X63601987Y-138951509D01*
X63390225Y-139268434D01*
X63244361Y-139620581D01*
X63170000Y-139994419D01*
X63170000Y-140375581D01*
X63244361Y-140749419D01*
X63390225Y-141101566D01*
X63601987Y-141418491D01*
X63871509Y-141688013D01*
X64130565Y-141861109D01*
X64020014Y-141871997D01*
X63876753Y-141915454D01*
X63744724Y-141986026D01*
X63628999Y-142080999D01*
X63605201Y-142109997D01*
X61819004Y-143896195D01*
X61790000Y-143919998D01*
X61754742Y-143962961D01*
X61695027Y-144035723D01*
X61691105Y-144043061D01*
X61624455Y-144167753D01*
X61580998Y-144311014D01*
X61570001Y-144422667D01*
X61570001Y-144422677D01*
X61566325Y-144459999D01*
X59265000Y-144459999D01*
X59265000Y-133805000D01*
X63166928Y-133805000D01*
X63166928Y-136405000D01*
X63179188Y-136529482D01*
X63215498Y-136649180D01*
X63274463Y-136759494D01*
X63353815Y-136856185D01*
X63450506Y-136935537D01*
X63560820Y-136994502D01*
X63680518Y-137030812D01*
X63805000Y-137043072D01*
X66405000Y-137043072D01*
X66529482Y-137030812D01*
X66649180Y-136994502D01*
X66759494Y-136935537D01*
X66856185Y-136856185D01*
X66935537Y-136759494D01*
X66994502Y-136649180D01*
X67030812Y-136529482D01*
X67043072Y-136405000D01*
X67043072Y-135761000D01*
X70901289Y-135761000D01*
X70945226Y-135804937D01*
X71114744Y-135918205D01*
X71303102Y-135996226D01*
X71503061Y-136036000D01*
X71706939Y-136036000D01*
X71906898Y-135996226D01*
X72095256Y-135918205D01*
X72264774Y-135804937D01*
X72408937Y-135660774D01*
X72522205Y-135491256D01*
X72600226Y-135302898D01*
X72640000Y-135102939D01*
X72640000Y-134899061D01*
X72600226Y-134699102D01*
X72522205Y-134510744D01*
X72408937Y-134341226D01*
X72264774Y-134197063D01*
X72095256Y-134083795D01*
X71906898Y-134005774D01*
X71706939Y-133966000D01*
X71503061Y-133966000D01*
X71303102Y-134005774D01*
X71114744Y-134083795D01*
X70945226Y-134197063D01*
X70901289Y-134241000D01*
X67043072Y-134241000D01*
X67043072Y-133805000D01*
X67030812Y-133680518D01*
X66994502Y-133560820D01*
X66935537Y-133450506D01*
X66856185Y-133353815D01*
X66759494Y-133274463D01*
X66649180Y-133215498D01*
X66529482Y-133179188D01*
X66405000Y-133166928D01*
X63805000Y-133166928D01*
X63680518Y-133179188D01*
X63560820Y-133215498D01*
X63450506Y-133274463D01*
X63353815Y-133353815D01*
X63274463Y-133450506D01*
X63215498Y-133560820D01*
X63179188Y-133680518D01*
X63166928Y-133805000D01*
X59265000Y-133805000D01*
X59265000Y-128994419D01*
X63170000Y-128994419D01*
X63170000Y-129375581D01*
X63244361Y-129749419D01*
X63390225Y-130101566D01*
X63601987Y-130418491D01*
X63871509Y-130688013D01*
X64188434Y-130899775D01*
X64540581Y-131045639D01*
X64914419Y-131120000D01*
X65295581Y-131120000D01*
X65669419Y-131045639D01*
X66021566Y-130899775D01*
X66338491Y-130688013D01*
X66608013Y-130418491D01*
X66819775Y-130101566D01*
X66965639Y-129749419D01*
X67040000Y-129375581D01*
X67040000Y-128994419D01*
X66965639Y-128620581D01*
X66819775Y-128268434D01*
X66608013Y-127951509D01*
X66338491Y-127681987D01*
X66021566Y-127470225D01*
X65669419Y-127324361D01*
X65295581Y-127250000D01*
X64914419Y-127250000D01*
X64540581Y-127324361D01*
X64188434Y-127470225D01*
X63871509Y-127681987D01*
X63601987Y-127951509D01*
X63390225Y-128268434D01*
X63244361Y-128620581D01*
X63170000Y-128994419D01*
X59265000Y-128994419D01*
X59265000Y-122805000D01*
X63166928Y-122805000D01*
X63166928Y-125405000D01*
X63179188Y-125529482D01*
X63215498Y-125649180D01*
X63274463Y-125759494D01*
X63353815Y-125856185D01*
X63450506Y-125935537D01*
X63560820Y-125994502D01*
X63680518Y-126030812D01*
X63805000Y-126043072D01*
X66405000Y-126043072D01*
X66529482Y-126030812D01*
X66649180Y-125994502D01*
X66759494Y-125935537D01*
X66856185Y-125856185D01*
X66935537Y-125759494D01*
X66994502Y-125649180D01*
X67030812Y-125529482D01*
X67043072Y-125405000D01*
X67043072Y-123723061D01*
X87992000Y-123723061D01*
X87992000Y-123926939D01*
X88031774Y-124126898D01*
X88109795Y-124315256D01*
X88142001Y-124363456D01*
X88142000Y-134716546D01*
X88109795Y-134764744D01*
X88031774Y-134953102D01*
X87992000Y-135153061D01*
X87992000Y-135356939D01*
X88031774Y-135556898D01*
X88109795Y-135745256D01*
X88223063Y-135914774D01*
X88367226Y-136058937D01*
X88536744Y-136172205D01*
X88725102Y-136250226D01*
X88925061Y-136290000D01*
X89128939Y-136290000D01*
X89328898Y-136250226D01*
X89517256Y-136172205D01*
X89686774Y-136058937D01*
X89830937Y-135914774D01*
X89944205Y-135745256D01*
X90022226Y-135556898D01*
X90062000Y-135356939D01*
X90062000Y-135153061D01*
X90022226Y-134953102D01*
X89944205Y-134764744D01*
X89912000Y-134716546D01*
X89912000Y-134518061D01*
X102470000Y-134518061D01*
X102470000Y-134721939D01*
X102509774Y-134921898D01*
X102587795Y-135110256D01*
X102701063Y-135279774D01*
X102845226Y-135423937D01*
X103014744Y-135537205D01*
X103203102Y-135615226D01*
X103403061Y-135655000D01*
X103606939Y-135655000D01*
X103702459Y-135636000D01*
X111588057Y-135636000D01*
X111615764Y-135917308D01*
X111697818Y-136187807D01*
X111831069Y-136437100D01*
X111965457Y-136600852D01*
X116480147Y-141115544D01*
X116480157Y-141115553D01*
X116810000Y-141445396D01*
X116810000Y-141541581D01*
X116884361Y-141915419D01*
X117030225Y-142267566D01*
X117241987Y-142584491D01*
X117511509Y-142854013D01*
X117828434Y-143065775D01*
X118180581Y-143211639D01*
X118554419Y-143286000D01*
X118935581Y-143286000D01*
X119309419Y-143211639D01*
X119661566Y-143065775D01*
X119978491Y-142854013D01*
X120248013Y-142584491D01*
X120459775Y-142267566D01*
X120605639Y-141915419D01*
X120680000Y-141541581D01*
X120680000Y-141160419D01*
X120605639Y-140786581D01*
X120459775Y-140434434D01*
X120248013Y-140117509D01*
X119978491Y-139847987D01*
X119661566Y-139636225D01*
X119309419Y-139490361D01*
X118935581Y-139416000D01*
X118839396Y-139416000D01*
X118509553Y-139086157D01*
X118509544Y-139086147D01*
X113994852Y-134571457D01*
X113831100Y-134437069D01*
X113581807Y-134303818D01*
X113311308Y-134221764D01*
X113030000Y-134194057D01*
X112748692Y-134221764D01*
X112478193Y-134303818D01*
X112228900Y-134437069D01*
X112010393Y-134616393D01*
X111831069Y-134834900D01*
X111697818Y-135084193D01*
X111615764Y-135354692D01*
X111588057Y-135636000D01*
X103702459Y-135636000D01*
X103806898Y-135615226D01*
X103995256Y-135537205D01*
X104164774Y-135423937D01*
X104308937Y-135279774D01*
X104422205Y-135110256D01*
X104452105Y-135038072D01*
X108965000Y-135038072D01*
X109089482Y-135025812D01*
X109209180Y-134989502D01*
X109319494Y-134930537D01*
X109416185Y-134851185D01*
X109495537Y-134754494D01*
X109554502Y-134644180D01*
X109590812Y-134524482D01*
X109603072Y-134400000D01*
X109603072Y-132050000D01*
X116806928Y-132050000D01*
X116806928Y-134650000D01*
X116819188Y-134774482D01*
X116855498Y-134894180D01*
X116914463Y-135004494D01*
X116993815Y-135101185D01*
X117090506Y-135180537D01*
X117200820Y-135239502D01*
X117320518Y-135275812D01*
X117445000Y-135288072D01*
X120045000Y-135288072D01*
X120169482Y-135275812D01*
X120289180Y-135239502D01*
X120399494Y-135180537D01*
X120496185Y-135101185D01*
X120575537Y-135004494D01*
X120634502Y-134894180D01*
X120670812Y-134774482D01*
X120683072Y-134650000D01*
X120683072Y-132050000D01*
X120670812Y-131925518D01*
X120634502Y-131805820D01*
X120575537Y-131695506D01*
X120496185Y-131598815D01*
X120399494Y-131519463D01*
X120289180Y-131460498D01*
X120169482Y-131424188D01*
X120045000Y-131411928D01*
X117445000Y-131411928D01*
X117320518Y-131424188D01*
X117200820Y-131460498D01*
X117090506Y-131519463D01*
X116993815Y-131598815D01*
X116914463Y-131695506D01*
X116855498Y-131805820D01*
X116819188Y-131925518D01*
X116806928Y-132050000D01*
X109603072Y-132050000D01*
X109603072Y-130800000D01*
X109590812Y-130675518D01*
X109554502Y-130555820D01*
X109495537Y-130445506D01*
X109416185Y-130348815D01*
X109319494Y-130269463D01*
X109209180Y-130210498D01*
X109089482Y-130174188D01*
X108965000Y-130161928D01*
X104395000Y-130161928D01*
X104390000Y-130162420D01*
X104390000Y-129293974D01*
X104407439Y-129276535D01*
X104464294Y-129265226D01*
X104652652Y-129187205D01*
X104822170Y-129073937D01*
X104966333Y-128929774D01*
X105079601Y-128760256D01*
X105157622Y-128571898D01*
X105197396Y-128371939D01*
X105197396Y-128168061D01*
X105179765Y-128079419D01*
X116810000Y-128079419D01*
X116810000Y-128460581D01*
X116884361Y-128834419D01*
X117030225Y-129186566D01*
X117241987Y-129503491D01*
X117511509Y-129773013D01*
X117828434Y-129984775D01*
X118180581Y-130130639D01*
X118554419Y-130205000D01*
X118935581Y-130205000D01*
X119309419Y-130130639D01*
X119661566Y-129984775D01*
X119978491Y-129773013D01*
X120248013Y-129503491D01*
X120459775Y-129186566D01*
X120605639Y-128834419D01*
X120680000Y-128460581D01*
X120680000Y-128079419D01*
X120605639Y-127705581D01*
X120459775Y-127353434D01*
X120248013Y-127036509D01*
X119978491Y-126766987D01*
X119661566Y-126555225D01*
X119309419Y-126409361D01*
X118935581Y-126335000D01*
X118554419Y-126335000D01*
X118180581Y-126409361D01*
X117828434Y-126555225D01*
X117511509Y-126766987D01*
X117241987Y-127036509D01*
X117030225Y-127353434D01*
X116884361Y-127705581D01*
X116810000Y-128079419D01*
X105179765Y-128079419D01*
X105157622Y-127968102D01*
X105079601Y-127779744D01*
X104966333Y-127610226D01*
X104822170Y-127466063D01*
X104652652Y-127352795D01*
X104464294Y-127274774D01*
X104264335Y-127235000D01*
X104060457Y-127235000D01*
X103860498Y-127274774D01*
X103672140Y-127352795D01*
X103502622Y-127466063D01*
X103358459Y-127610226D01*
X103245191Y-127779744D01*
X103167170Y-127968102D01*
X103155861Y-128024957D01*
X102909951Y-128270867D01*
X102876184Y-128298579D01*
X102848471Y-128332347D01*
X102848468Y-128332350D01*
X102765590Y-128433337D01*
X102683412Y-128587083D01*
X102632805Y-128753906D01*
X102615719Y-128927396D01*
X102620001Y-128970875D01*
X102620000Y-134081546D01*
X102587795Y-134129744D01*
X102509774Y-134318102D01*
X102470000Y-134518061D01*
X89912000Y-134518061D01*
X89912000Y-132057579D01*
X89989470Y-132135049D01*
X90017183Y-132168817D01*
X90050951Y-132196530D01*
X90050953Y-132196532D01*
X90131897Y-132262961D01*
X90151941Y-132279411D01*
X90305687Y-132361589D01*
X90472510Y-132412195D01*
X90602523Y-132425000D01*
X90602531Y-132425000D01*
X90646000Y-132429281D01*
X90689469Y-132425000D01*
X97251546Y-132425000D01*
X97299744Y-132457205D01*
X97488102Y-132535226D01*
X97688061Y-132575000D01*
X97891939Y-132575000D01*
X98091898Y-132535226D01*
X98280256Y-132457205D01*
X98449774Y-132343937D01*
X98593937Y-132199774D01*
X98707205Y-132030256D01*
X98785226Y-131841898D01*
X98825000Y-131641939D01*
X98825000Y-131438061D01*
X98785226Y-131238102D01*
X98707205Y-131049744D01*
X98593937Y-130880226D01*
X98449774Y-130736063D01*
X98280256Y-130622795D01*
X98091898Y-130544774D01*
X97891939Y-130505000D01*
X97688061Y-130505000D01*
X97488102Y-130544774D01*
X97299744Y-130622795D01*
X97251546Y-130655000D01*
X91012579Y-130655000D01*
X90928000Y-130570422D01*
X90928000Y-130205454D01*
X90960205Y-130157256D01*
X91038226Y-129968898D01*
X91078000Y-129768939D01*
X91078000Y-129565061D01*
X91038226Y-129365102D01*
X90960205Y-129176744D01*
X90846937Y-129007226D01*
X90702774Y-128863063D01*
X90533256Y-128749795D01*
X90344898Y-128671774D01*
X90144939Y-128632000D01*
X89941061Y-128632000D01*
X89912000Y-128637781D01*
X89912000Y-124363454D01*
X89915603Y-124358061D01*
X102470000Y-124358061D01*
X102470000Y-124561939D01*
X102509774Y-124761898D01*
X102587795Y-124950256D01*
X102701063Y-125119774D01*
X102845226Y-125263937D01*
X103014744Y-125377205D01*
X103203102Y-125455226D01*
X103403061Y-125495000D01*
X103606939Y-125495000D01*
X103806898Y-125455226D01*
X103995256Y-125377205D01*
X104164774Y-125263937D01*
X104308937Y-125119774D01*
X104422205Y-124950256D01*
X104452105Y-124878072D01*
X108965000Y-124878072D01*
X109089482Y-124865812D01*
X109209180Y-124829502D01*
X109319494Y-124770537D01*
X109416185Y-124691185D01*
X109495537Y-124594494D01*
X109554502Y-124484180D01*
X109590812Y-124364482D01*
X109603072Y-124240000D01*
X109603072Y-120640000D01*
X109590812Y-120515518D01*
X109554502Y-120395820D01*
X109495537Y-120285506D01*
X109416185Y-120188815D01*
X109319494Y-120109463D01*
X109209180Y-120050498D01*
X109089482Y-120014188D01*
X108965000Y-120001928D01*
X104395000Y-120001928D01*
X104390000Y-120002420D01*
X104390000Y-119111578D01*
X104506579Y-118995000D01*
X105506546Y-118995000D01*
X105554744Y-119027205D01*
X105743102Y-119105226D01*
X105943061Y-119145000D01*
X106146939Y-119145000D01*
X106346898Y-119105226D01*
X106535256Y-119027205D01*
X106704774Y-118913937D01*
X106848937Y-118769774D01*
X106962205Y-118600256D01*
X107040226Y-118411898D01*
X107080000Y-118211939D01*
X107080000Y-118008061D01*
X107053778Y-117876229D01*
X118470000Y-117876229D01*
X118470000Y-118493771D01*
X118590476Y-119099446D01*
X118826799Y-119669979D01*
X119169886Y-120183446D01*
X119606554Y-120620114D01*
X120120021Y-120963201D01*
X120690554Y-121199524D01*
X121296229Y-121320000D01*
X121913771Y-121320000D01*
X122519446Y-121199524D01*
X123089979Y-120963201D01*
X123603446Y-120620114D01*
X124040114Y-120183446D01*
X124383201Y-119669979D01*
X124619524Y-119099446D01*
X124740000Y-118493771D01*
X124740000Y-117876229D01*
X124619524Y-117270554D01*
X124383201Y-116700021D01*
X124040114Y-116186554D01*
X123603446Y-115749886D01*
X123089979Y-115406799D01*
X122519446Y-115170476D01*
X121913771Y-115050000D01*
X121296229Y-115050000D01*
X120690554Y-115170476D01*
X120120021Y-115406799D01*
X119606554Y-115749886D01*
X119169886Y-116186554D01*
X118826799Y-116700021D01*
X118590476Y-117270554D01*
X118470000Y-117876229D01*
X107053778Y-117876229D01*
X107040226Y-117808102D01*
X106962205Y-117619744D01*
X106848937Y-117450226D01*
X106704774Y-117306063D01*
X106535256Y-117192795D01*
X106346898Y-117114774D01*
X106146939Y-117075000D01*
X105943061Y-117075000D01*
X105743102Y-117114774D01*
X105554744Y-117192795D01*
X105506546Y-117225000D01*
X104183469Y-117225000D01*
X104140000Y-117220719D01*
X104096531Y-117225000D01*
X104096523Y-117225000D01*
X103966510Y-117237805D01*
X103799686Y-117288411D01*
X103645941Y-117370589D01*
X103544953Y-117453468D01*
X103544951Y-117453470D01*
X103511183Y-117481183D01*
X103483470Y-117514951D01*
X102909951Y-118088471D01*
X102876184Y-118116183D01*
X102848471Y-118149951D01*
X102848468Y-118149954D01*
X102819587Y-118185146D01*
X102765590Y-118250941D01*
X102683412Y-118404687D01*
X102632805Y-118571510D01*
X102620000Y-118701523D01*
X102620000Y-118701531D01*
X102615719Y-118745000D01*
X102620000Y-118788469D01*
X102620000Y-119423476D01*
X102620001Y-119423486D01*
X102620000Y-120763474D01*
X102620001Y-120763484D01*
X102620000Y-123921545D01*
X102587795Y-123969744D01*
X102509774Y-124158102D01*
X102470000Y-124358061D01*
X89915603Y-124358061D01*
X89944205Y-124315256D01*
X90022226Y-124126898D01*
X90062000Y-123926939D01*
X90062000Y-123723061D01*
X90022226Y-123523102D01*
X89944205Y-123334744D01*
X89830937Y-123165226D01*
X89686774Y-123021063D01*
X89517256Y-122907795D01*
X89328898Y-122829774D01*
X89128939Y-122790000D01*
X88925061Y-122790000D01*
X88725102Y-122829774D01*
X88536744Y-122907795D01*
X88367226Y-123021063D01*
X88223063Y-123165226D01*
X88109795Y-123334744D01*
X88031774Y-123523102D01*
X87992000Y-123723061D01*
X67043072Y-123723061D01*
X67043072Y-122805000D01*
X67030812Y-122680518D01*
X66994502Y-122560820D01*
X66935537Y-122450506D01*
X66856185Y-122353815D01*
X66759494Y-122274463D01*
X66649180Y-122215498D01*
X66529482Y-122179188D01*
X66405000Y-122166928D01*
X63805000Y-122166928D01*
X63680518Y-122179188D01*
X63560820Y-122215498D01*
X63450506Y-122274463D01*
X63353815Y-122353815D01*
X63274463Y-122450506D01*
X63215498Y-122560820D01*
X63179188Y-122680518D01*
X63166928Y-122805000D01*
X59265000Y-122805000D01*
X59265000Y-117567604D01*
X63470000Y-117567604D01*
X63470000Y-118185146D01*
X63590476Y-118790821D01*
X63826799Y-119361354D01*
X64169886Y-119874821D01*
X64606554Y-120311489D01*
X65120021Y-120654576D01*
X65690554Y-120890899D01*
X66296229Y-121011375D01*
X66913771Y-121011375D01*
X67519446Y-120890899D01*
X68089979Y-120654576D01*
X68603446Y-120311489D01*
X69040114Y-119874821D01*
X69383201Y-119361354D01*
X69619524Y-118790821D01*
X69740000Y-118185146D01*
X69740000Y-117567604D01*
X69619524Y-116961929D01*
X69383201Y-116391396D01*
X69040114Y-115877929D01*
X68603446Y-115441261D01*
X68089979Y-115098174D01*
X67519446Y-114861851D01*
X66913771Y-114741375D01*
X66296229Y-114741375D01*
X65690554Y-114861851D01*
X65120021Y-115098174D01*
X64606554Y-115441261D01*
X64169886Y-115877929D01*
X63826799Y-116391396D01*
X63590476Y-116961929D01*
X63470000Y-117567604D01*
X59265000Y-117567604D01*
X59265000Y-116458380D01*
X61878381Y-113845000D01*
X123251620Y-113845000D01*
X125865001Y-116458382D01*
G37*
%TD.AperFunction*%
%TD*%
M02*
