%TF.GenerationSoftware,KiCad,Pcbnew,(5.1.9)-1*%
%TF.CreationDate,2021-03-04T13:54:21-05:00*%
%TF.ProjectId,driver_board,64726976-6572-45f6-926f-6172642e6b69,rev?*%
%TF.SameCoordinates,Original*%
%TF.FileFunction,Soldermask,Bot*%
%TF.FilePolarity,Negative*%
%FSLAX46Y46*%
G04 Gerber Fmt 4.6, Leading zero omitted, Abs format (unit mm)*
G04 Created by KiCad (PCBNEW (5.1.9)-1) date 2021-03-04 13:54:21*
%MOMM*%
%LPD*%
G01*
G04 APERTURE LIST*
%ADD10C,2.600000*%
%ADD11R,2.600000X2.600000*%
%ADD12C,0.800000*%
%ADD13C,5.000000*%
G04 APERTURE END LIST*
D10*
%TO.C,J5*%
X65105000Y-151265000D03*
D11*
X65105000Y-146185000D03*
%TD*%
D10*
%TO.C,J4*%
X65105000Y-140185000D03*
D11*
X65105000Y-135105000D03*
%TD*%
D10*
%TO.C,J3*%
X65105000Y-129185000D03*
D11*
X65105000Y-124105000D03*
%TD*%
D10*
%TO.C,J2*%
X121285000Y-128270000D03*
D11*
X121285000Y-133350000D03*
%TD*%
D10*
%TO.C,J1*%
X121285000Y-141351000D03*
D11*
X121285000Y-146431000D03*
%TD*%
D12*
%TO.C,REF\u002A\u002A*%
X122930825Y-116859175D03*
X121605000Y-116310000D03*
X120279175Y-116859175D03*
X119730000Y-118185000D03*
X120279175Y-119510825D03*
X121605000Y-120060000D03*
X122930825Y-119510825D03*
X123480000Y-118185000D03*
D13*
X121605000Y-118185000D03*
%TD*%
D12*
%TO.C,REF\u002A\u002A*%
X122930825Y-155859175D03*
X121605000Y-155310000D03*
X120279175Y-155859175D03*
X119730000Y-157185000D03*
X120279175Y-158510825D03*
X121605000Y-159060000D03*
X122930825Y-158510825D03*
X123480000Y-157185000D03*
D13*
X121605000Y-157185000D03*
%TD*%
%TO.C,REF\u002A\u002A*%
X66605000Y-157185000D03*
D12*
X68480000Y-157185000D03*
X67930825Y-158510825D03*
X66605000Y-159060000D03*
X65279175Y-158510825D03*
X64730000Y-157185000D03*
X65279175Y-155859175D03*
X66605000Y-155310000D03*
X67930825Y-155859175D03*
%TD*%
%TO.C,REF\u002A\u002A*%
X67930825Y-116550550D03*
X66605000Y-116001375D03*
X65279175Y-116550550D03*
X64730000Y-117876375D03*
X65279175Y-119202200D03*
X66605000Y-119751375D03*
X67930825Y-119202200D03*
X68480000Y-117876375D03*
D13*
X66605000Y-117876375D03*
%TD*%
M02*
