M48
; DRILL file {KiCad (5.1.9)-1} date 02/11/21 14:06:27
; FORMAT={-:-/ absolute / inch / decimal}
; #@! TF.CreationDate,2021-02-11T14:06:27-05:00
; #@! TF.GenerationSoftware,Kicad,Pcbnew,(5.1.9)-1
FMAT,2
INCH
T1C0.0157
T2C0.0315
T3C0.0354
T4C0.0394
T5C0.0433
T6C0.0472
T7C0.0630
T8C0.1260
%
G90
G05
T1
X4.145Y-4.055
X4.2184Y-4.1187
X4.2935Y-4.0227
X4.3154Y-4.0554
X5.23Y-3.685
T2
X2.275Y-5.175
X2.275Y-5.475
X2.375Y-5.175
X2.375Y-5.475
X2.4031Y-5.025
X2.425Y-4.6
X2.425Y-4.9
X2.475Y-5.175
X2.475Y-5.475
X2.575Y-4.6
X2.575Y-4.9
X2.575Y-5.175
X2.575Y-5.475
X2.6Y-5.025
X2.675Y-5.175
X2.675Y-5.475
X2.725Y-4.575
X2.725Y-4.7719
X2.725Y-4.8781
X2.725Y-5.075
X2.775Y-5.175
X2.775Y-5.475
X2.875Y-5.175
X2.875Y-5.475
X3.025Y-5.6781
X3.025Y-5.875
X3.15Y-5.625
X3.15Y-5.725
X3.15Y-5.825
X3.15Y-5.925
X3.175Y-5.175
X3.175Y-5.475
X3.275Y-5.175
X3.275Y-5.475
X3.3031Y-5.025
X3.325Y-4.6
X3.325Y-4.9
X3.375Y-5.175
X3.375Y-5.475
X3.45Y-5.625
X3.45Y-5.725
X3.45Y-5.825
X3.45Y-5.925
X3.475Y-4.6
X3.475Y-4.9
X3.475Y-5.175
X3.475Y-5.475
X3.5Y-5.025
X3.575Y-5.175
X3.575Y-5.475
X3.625Y-4.5781
X3.625Y-4.775
X3.625Y-4.8781
X3.625Y-5.075
X3.625Y-5.625
X3.625Y-5.925
X3.675Y-5.175
X3.675Y-5.475
X3.775Y-5.175
X3.775Y-5.475
X3.775Y-5.625
X3.775Y-5.925
X4.075Y-5.175
X4.075Y-5.475
X4.175Y-5.175
X4.175Y-5.475
X4.2031Y-5.025
X4.225Y-4.575
X4.225Y-4.875
X4.275Y-5.175
X4.275Y-5.475
X4.375Y-4.575
X4.375Y-4.875
X4.375Y-5.175
X4.375Y-5.475
X4.4Y-5.025
X4.475Y-5.175
X4.475Y-5.475
X4.525Y-4.575
X4.525Y-4.7719
X4.525Y-4.8781
X4.525Y-5.075
X4.575Y-5.175
X4.575Y-5.475
X4.675Y-5.175
X4.675Y-5.475
X4.825Y-5.6681
X4.825Y-5.865
X4.95Y-5.625
X4.95Y-5.725
X4.95Y-5.825
X4.95Y-5.925
X4.975Y-5.175
X4.975Y-5.475
X5.075Y-5.175
X5.075Y-5.475
X5.1031Y-5.025
X5.125Y-4.575
X5.125Y-4.875
X5.175Y-5.175
X5.175Y-5.475
X5.25Y-5.625
X5.25Y-5.725
X5.25Y-5.825
X5.25Y-5.925
X5.275Y-4.575
X5.275Y-4.875
X5.275Y-5.175
X5.275Y-5.475
X5.3Y-5.025
X5.375Y-5.175
X5.375Y-5.475
X5.425Y-4.5781
X5.425Y-4.775
X5.425Y-4.8781
X5.425Y-5.075
X5.425Y-5.625
X5.425Y-5.925
X5.475Y-5.175
X5.475Y-5.475
X5.575Y-5.175
X5.575Y-5.475
X5.575Y-5.625
X5.575Y-5.925
T3
X7.175Y-2.775
X7.275Y-2.775
T4
X3.325Y-6.125
X3.325Y-6.225
X3.425Y-6.125
X3.425Y-6.225
X3.525Y-6.125
X3.525Y-6.225
X3.625Y-6.125
X3.625Y-6.225
X3.725Y-6.125
X3.725Y-6.225
X3.825Y-6.125
X3.825Y-6.225
X3.925Y-6.125
X3.925Y-6.225
X4.025Y-6.125
X4.025Y-6.225
X4.125Y-6.125
X4.125Y-6.225
X4.225Y-6.125
X4.225Y-6.225
X4.325Y-6.125
X4.325Y-6.225
X4.425Y-6.125
X4.425Y-6.225
X4.525Y-6.125
X4.525Y-6.225
X4.625Y-6.125
X4.625Y-6.225
X4.725Y-6.125
X4.725Y-6.225
X4.7563Y-2.6409
X4.7563Y-2.8659
X4.825Y-6.125
X4.825Y-6.225
X4.925Y-6.125
X4.925Y-6.225
X5.025Y-6.125
X5.025Y-6.225
X5.125Y-6.125
X5.125Y-6.225
X5.15Y-2.7
X5.15Y-2.925
X5.225Y-6.125
X5.225Y-6.225
X5.825Y-4.35
X5.825Y-4.85
X5.825Y-5.35
X5.825Y-5.85
X6.0219Y-4.35
X6.0219Y-4.85
X6.0219Y-5.35
X6.0219Y-5.85
X6.275Y-4.35
X6.275Y-4.85
X6.275Y-5.35
X6.275Y-5.85
X6.4719Y-4.35
X6.4719Y-4.85
X6.4719Y-5.35
X6.4719Y-5.85
X6.851Y-5.47
X6.851Y-6.206
X6.951Y-5.47
X6.951Y-6.206
X7.29Y-5.47
X7.29Y-6.206
X7.39Y-5.47
X7.39Y-6.206
T5
X2.125Y-4.625
X2.125Y-5.025
X2.275Y-4.625
X2.275Y-5.025
X2.875Y-4.625
X2.875Y-5.025
X3.0222Y-4.625
X3.0222Y-5.025
X3.175Y-4.625
X3.175Y-5.025
X3.775Y-4.625
X3.775Y-5.025
X3.925Y-4.625
X3.925Y-5.025
X4.075Y-4.625
X4.075Y-5.025
X4.275Y-3.2
X4.275Y-3.45
X4.275Y-3.7
X4.275Y-3.95
X4.375Y-3.2
X4.375Y-3.45
X4.375Y-3.7
X4.375Y-3.95
X4.475Y-3.2
X4.475Y-3.45
X4.475Y-3.7
X4.475Y-3.95
X4.675Y-4.625
X4.675Y-5.025
X4.725Y-3.2
X4.725Y-3.45
X4.725Y-3.7
X4.725Y-3.95
X4.825Y-3.2
X4.825Y-3.45
X4.825Y-3.7
X4.825Y-3.95
X4.825Y-4.625
X4.825Y-5.025
X4.925Y-3.2
X4.925Y-3.45
X4.925Y-3.7
X4.925Y-3.95
X4.975Y-4.625
X4.975Y-5.025
X5.3Y-3.2
X5.3Y-3.45
X5.3Y-3.7
X5.3Y-3.95
X5.4Y-3.2
X5.4Y-3.45
X5.4Y-3.7
X5.4Y-3.95
X5.5Y-3.2
X5.5Y-3.45
X5.5Y-3.7
X5.5Y-3.95
X5.575Y-4.625
X5.575Y-5.025
X5.75Y-3.2
X5.75Y-3.45
X5.75Y-3.7
X5.75Y-3.95
X5.85Y-3.2
X5.85Y-3.45
X5.85Y-3.7
X5.85Y-3.95
X5.95Y-3.2
X5.95Y-3.45
X5.95Y-3.7
X5.95Y-3.95
X6.225Y-3.3
X6.325Y-3.3
X6.425Y-3.3
T6
X2.125Y-4.175
X2.125Y-4.425
X2.275Y-5.675
X2.275Y-5.875
X2.3Y-2.9173
X2.3Y-4.0
X2.725Y-4.175
X2.725Y-4.425
X2.8Y-2.9173
X2.8Y-4.0
X2.875Y-5.675
X2.875Y-5.875
X3.025Y-4.175
X3.025Y-4.425
X3.3Y-2.9173
X3.3Y-4.0
X3.625Y-4.175
X3.625Y-4.425
X3.8Y-2.9173
X3.8Y-4.0
X4.075Y-4.175
X4.075Y-4.425
X4.075Y-5.675
X4.075Y-5.875
X4.675Y-4.175
X4.675Y-4.425
X4.675Y-5.675
X4.675Y-5.875
X4.975Y-4.175
X4.975Y-4.425
X5.575Y-4.175
X5.575Y-4.425
X6.125Y-3.675
X6.125Y-3.925
X6.525Y-3.675
X6.525Y-3.925
X6.68Y-5.825
X6.68Y-6.225
X6.825Y-3.075
X6.825Y-5.275
X7.275Y-3.075
X7.275Y-5.275
T7
X4.175Y-2.775
X4.375Y-2.775
X5.525Y-2.775
X5.725Y-2.775
X6.225Y-2.775
X6.425Y-2.775
X6.725Y-2.775
X6.925Y-2.775
T8
X2.025Y-6.175
X2.0317Y-2.6844
X7.7404Y-2.6844
X7.7404Y-6.1884
T0
M30
