%TF.GenerationSoftware,KiCad,Pcbnew,(5.1.9)-1*%
%TF.CreationDate,2021-02-11T14:24:59-05:00*%
%TF.ProjectId,driver_board,64726976-6572-45f6-926f-6172642e6b69,rev?*%
%TF.SameCoordinates,Original*%
%TF.FileFunction,Soldermask,Top*%
%TF.FilePolarity,Negative*%
%FSLAX46Y46*%
G04 Gerber Fmt 4.6, Leading zero omitted, Abs format (unit mm)*
G04 Created by KiCad (PCBNEW (5.1.9)-1) date 2021-02-11 14:24:59*
%MOMM*%
%LPD*%
G01*
G04 APERTURE LIST*
%ADD10C,3.200000*%
%ADD11O,2.400000X2.400000*%
%ADD12C,2.400000*%
%ADD13R,2.400000X2.400000*%
%ADD14R,1.800000X1.800000*%
%ADD15C,1.800000*%
%ADD16O,1.905000X2.000000*%
%ADD17R,1.905000X2.000000*%
%ADD18O,1.700000X1.700000*%
%ADD19R,1.700000X1.700000*%
%ADD20O,1.600000X1.600000*%
%ADD21R,1.600000X1.600000*%
%ADD22C,1.600000*%
%ADD23R,3.000000X3.000000*%
%ADD24C,3.000000*%
%ADD25C,2.000000*%
%ADD26O,2.200000X2.200000*%
%ADD27R,2.200000X2.200000*%
%ADD28R,2.000000X2.000000*%
G04 APERTURE END LIST*
D10*
%TO.C,REF\u002A\u002A*%
X196605000Y-157185000D03*
%TD*%
%TO.C,REF\u002A\u002A*%
X51435000Y-156845000D03*
%TD*%
%TO.C,REF\u002A\u002A*%
X196605000Y-68185000D03*
%TD*%
%TO.C,REF\u002A\u002A*%
X51605000Y-68185000D03*
%TD*%
D11*
%TO.C,R22*%
X53975000Y-106045000D03*
D12*
X69215000Y-106045000D03*
%TD*%
D11*
%TO.C,R24*%
X76835000Y-112395000D03*
D12*
X92075000Y-112395000D03*
%TD*%
%TO.C,C9*%
X71120000Y-74100000D03*
X71120000Y-101600000D03*
%TD*%
%TO.C,C7*%
X58420000Y-74100000D03*
X58420000Y-101600000D03*
%TD*%
%TO.C,C3*%
X83820000Y-74100000D03*
X83820000Y-101600000D03*
%TD*%
%TO.C,C5*%
X96520000Y-74100000D03*
X96520000Y-101600000D03*
%TD*%
D11*
%TO.C,D23*%
X165735000Y-93345000D03*
D13*
X155575000Y-93345000D03*
%TD*%
D14*
%TO.C,U8*%
X174015000Y-157632000D03*
X176555000Y-157632000D03*
D15*
X185166000Y-157632000D03*
X187706000Y-157632000D03*
D14*
X174015000Y-138938000D03*
X176555000Y-138938000D03*
D15*
X185166000Y-138938000D03*
X187706000Y-138938000D03*
%TD*%
D16*
%TO.C,Q4*%
X151130000Y-87630000D03*
X148590000Y-87630000D03*
D17*
X146050000Y-87630000D03*
%TD*%
D11*
%TO.C,D24*%
X169672000Y-147955000D03*
D13*
X169672000Y-158115000D03*
%TD*%
D11*
%TO.C,R21*%
X53975000Y-112395000D03*
D12*
X69215000Y-112395000D03*
%TD*%
D18*
%TO.C,J5*%
X84455000Y-158115000D03*
X84455000Y-155575000D03*
X86995000Y-158115000D03*
X86995000Y-155575000D03*
X89535000Y-158115000D03*
X89535000Y-155575000D03*
X92075000Y-158115000D03*
X92075000Y-155575000D03*
X94615000Y-158115000D03*
X94615000Y-155575000D03*
X97155000Y-158115000D03*
X97155000Y-155575000D03*
X99695000Y-158115000D03*
X99695000Y-155575000D03*
X102235000Y-158115000D03*
X102235000Y-155575000D03*
X104775000Y-158115000D03*
X104775000Y-155575000D03*
X107315000Y-158115000D03*
X107315000Y-155575000D03*
X109855000Y-158115000D03*
X109855000Y-155575000D03*
X112395000Y-158115000D03*
X112395000Y-155575000D03*
X114935000Y-158115000D03*
X114935000Y-155575000D03*
X117475000Y-158115000D03*
X117475000Y-155575000D03*
X120015000Y-158115000D03*
X120015000Y-155575000D03*
X122555000Y-158115000D03*
X122555000Y-155575000D03*
X125095000Y-158115000D03*
X125095000Y-155575000D03*
X127635000Y-158115000D03*
X127635000Y-155575000D03*
X130175000Y-158115000D03*
X130175000Y-155575000D03*
X132715000Y-158115000D03*
D19*
X132715000Y-155575000D03*
%TD*%
D11*
%TO.C,R20*%
X141605000Y-106045000D03*
D12*
X126365000Y-106045000D03*
%TD*%
D20*
%TO.C,U1*%
X125730000Y-150495000D03*
X133350000Y-142875000D03*
X125730000Y-147955000D03*
X133350000Y-145415000D03*
X125730000Y-145415000D03*
X133350000Y-147955000D03*
X125730000Y-142875000D03*
D21*
X133350000Y-150495000D03*
%TD*%
D16*
%TO.C,D15*%
X151130000Y-93980000D03*
X148590000Y-93980000D03*
D17*
X146050000Y-93980000D03*
%TD*%
D22*
%TO.C,C14*%
X92075000Y-123905000D03*
X92075000Y-128905000D03*
%TD*%
%TO.C,C18*%
X88900000Y-127635000D03*
X83900000Y-127635000D03*
%TD*%
D11*
%TO.C,R19*%
X126365000Y-112395000D03*
D12*
X141605000Y-112395000D03*
%TD*%
D22*
%TO.C,C16*%
X134620000Y-127635000D03*
X129620000Y-127635000D03*
%TD*%
%TO.C,C12*%
X137795000Y-123905000D03*
X137795000Y-128905000D03*
%TD*%
D16*
%TO.C,D20*%
X125095000Y-81280000D03*
X122555000Y-81280000D03*
D17*
X120015000Y-81280000D03*
%TD*%
D16*
%TO.C,D19*%
X125095000Y-93980000D03*
X122555000Y-93980000D03*
D17*
X120015000Y-93980000D03*
%TD*%
D16*
%TO.C,U7*%
X163195000Y-83820000D03*
X160655000Y-83820000D03*
D17*
X158115000Y-83820000D03*
%TD*%
D20*
%TO.C,U6*%
X95885000Y-139065000D03*
X80645000Y-131445000D03*
X93345000Y-139065000D03*
X83185000Y-131445000D03*
X90805000Y-139065000D03*
X85725000Y-131445000D03*
X88265000Y-139065000D03*
X88265000Y-131445000D03*
X85725000Y-139065000D03*
X90805000Y-131445000D03*
X83185000Y-139065000D03*
X93345000Y-131445000D03*
X80645000Y-139065000D03*
D21*
X95885000Y-131445000D03*
%TD*%
D20*
%TO.C,U5*%
X73025000Y-139065000D03*
X57785000Y-131445000D03*
X70485000Y-139065000D03*
X60325000Y-131445000D03*
X67945000Y-139065000D03*
X62865000Y-131445000D03*
X65405000Y-139065000D03*
X65405000Y-131445000D03*
X62865000Y-139065000D03*
X67945000Y-131445000D03*
X60325000Y-139065000D03*
X70485000Y-131445000D03*
X57785000Y-139065000D03*
D21*
X73025000Y-131445000D03*
%TD*%
D20*
%TO.C,U4*%
X141605000Y-139065000D03*
X126365000Y-131445000D03*
X139065000Y-139065000D03*
X128905000Y-131445000D03*
X136525000Y-139065000D03*
X131445000Y-131445000D03*
X133985000Y-139065000D03*
X133985000Y-131445000D03*
X131445000Y-139065000D03*
X136525000Y-131445000D03*
X128905000Y-139065000D03*
X139065000Y-131445000D03*
X126365000Y-139065000D03*
D21*
X141605000Y-131445000D03*
%TD*%
D20*
%TO.C,U3*%
X118745000Y-139065000D03*
X103505000Y-131445000D03*
X116205000Y-139065000D03*
X106045000Y-131445000D03*
X113665000Y-139065000D03*
X108585000Y-131445000D03*
X111125000Y-139065000D03*
X111125000Y-131445000D03*
X108585000Y-139065000D03*
X113665000Y-131445000D03*
X106045000Y-139065000D03*
X116205000Y-131445000D03*
X103505000Y-139065000D03*
D21*
X118745000Y-131445000D03*
%TD*%
D20*
%TO.C,U2*%
X80010000Y-150495000D03*
X87630000Y-142875000D03*
X80010000Y-147955000D03*
X87630000Y-145415000D03*
X80010000Y-145415000D03*
X87630000Y-147955000D03*
X80010000Y-142875000D03*
D21*
X87630000Y-150495000D03*
%TD*%
D11*
%TO.C,R26*%
X173355000Y-78105000D03*
D12*
X173355000Y-133985000D03*
%TD*%
D11*
%TO.C,R25*%
X184785000Y-78105000D03*
D12*
X184785000Y-133985000D03*
%TD*%
D11*
%TO.C,R23*%
X76835000Y-106045000D03*
D12*
X92075000Y-106045000D03*
%TD*%
D11*
%TO.C,R18*%
X118745000Y-106045000D03*
D12*
X103505000Y-106045000D03*
%TD*%
D11*
%TO.C,R17*%
X103505000Y-112395000D03*
D12*
X118745000Y-112395000D03*
%TD*%
D20*
%TO.C,R16*%
X88265000Y-116840000D03*
D22*
X88265000Y-124460000D03*
%TD*%
D20*
%TO.C,R15*%
X84455000Y-116840000D03*
D22*
X84455000Y-124460000D03*
%TD*%
D20*
%TO.C,R14*%
X65405000Y-116840000D03*
D22*
X65405000Y-124460000D03*
%TD*%
D20*
%TO.C,R13*%
X61595000Y-116840000D03*
D22*
X61595000Y-124460000D03*
%TD*%
D20*
%TO.C,R12*%
X133985000Y-116205000D03*
D22*
X133985000Y-123825000D03*
%TD*%
D20*
%TO.C,R11*%
X130175000Y-116205000D03*
D22*
X130175000Y-123825000D03*
%TD*%
D20*
%TO.C,R10*%
X111125000Y-116205000D03*
D22*
X111125000Y-123825000D03*
%TD*%
D20*
%TO.C,R9*%
X107315000Y-116205000D03*
D22*
X107315000Y-123825000D03*
%TD*%
D11*
%TO.C,R8*%
X73025000Y-149225000D03*
D12*
X57785000Y-149225000D03*
%TD*%
D11*
%TO.C,R7*%
X118745000Y-149225000D03*
D12*
X103505000Y-149225000D03*
%TD*%
D11*
%TO.C,R6*%
X73025000Y-144145000D03*
D12*
X57785000Y-144145000D03*
%TD*%
D11*
%TO.C,R5*%
X118745000Y-144145000D03*
D12*
X103505000Y-144145000D03*
%TD*%
D20*
%TO.C,R4*%
X95885000Y-142875000D03*
D22*
X95885000Y-150495000D03*
%TD*%
D20*
%TO.C,R3*%
X92075000Y-142875000D03*
D22*
X92075000Y-150495000D03*
%TD*%
D20*
%TO.C,R2*%
X141605000Y-142875000D03*
D22*
X141605000Y-150495000D03*
%TD*%
D20*
%TO.C,R1*%
X137795000Y-142875000D03*
D22*
X137795000Y-150495000D03*
%TD*%
D16*
%TO.C,Q8*%
X125095000Y-87630000D03*
X122555000Y-87630000D03*
D17*
X120015000Y-87630000D03*
%TD*%
D16*
%TO.C,Q7*%
X125095000Y-100330000D03*
X122555000Y-100330000D03*
D17*
X120015000Y-100330000D03*
%TD*%
D16*
%TO.C,Q6*%
X113665000Y-87630000D03*
X111125000Y-87630000D03*
D17*
X108585000Y-87630000D03*
%TD*%
D16*
%TO.C,Q5*%
X113665000Y-100330000D03*
X111125000Y-100330000D03*
D17*
X108585000Y-100330000D03*
%TD*%
D16*
%TO.C,Q3*%
X151130000Y-100330000D03*
X148590000Y-100330000D03*
D17*
X146050000Y-100330000D03*
%TD*%
D16*
%TO.C,Q2*%
X139700000Y-87630000D03*
X137160000Y-87630000D03*
D17*
X134620000Y-87630000D03*
%TD*%
D16*
%TO.C,Q1*%
X139700000Y-100330000D03*
X137160000Y-100330000D03*
D17*
X134620000Y-100330000D03*
%TD*%
D23*
%TO.C,J4*%
X175895000Y-70485000D03*
D24*
X170815000Y-70485000D03*
%TD*%
D23*
%TO.C,J3*%
X163195000Y-70485000D03*
D24*
X158115000Y-70485000D03*
%TD*%
D23*
%TO.C,J2*%
X111125000Y-70485000D03*
D24*
X106045000Y-70485000D03*
%TD*%
D23*
%TO.C,J1*%
X145415000Y-70485000D03*
D24*
X140335000Y-70485000D03*
%TD*%
D25*
%TO.C,F2*%
X130810000Y-68580000D03*
X120810000Y-67080000D03*
%TD*%
%TO.C,F1*%
X120810000Y-72795000D03*
X130810000Y-74295000D03*
%TD*%
D15*
%TO.C,D22*%
X184785000Y-70485000D03*
D14*
X182245000Y-70485000D03*
%TD*%
D11*
%TO.C,D21*%
X165735000Y-99695000D03*
D13*
X155575000Y-99695000D03*
%TD*%
D16*
%TO.C,D18*%
X113665000Y-81280000D03*
X111125000Y-81280000D03*
D17*
X108585000Y-81280000D03*
%TD*%
D16*
%TO.C,D17*%
X113665000Y-93980000D03*
X111125000Y-93980000D03*
D17*
X108585000Y-93980000D03*
%TD*%
D16*
%TO.C,D16*%
X151130000Y-81280000D03*
X148590000Y-81280000D03*
D17*
X146050000Y-81280000D03*
%TD*%
D16*
%TO.C,D14*%
X139700000Y-81280000D03*
X137160000Y-81280000D03*
D17*
X134620000Y-81280000D03*
%TD*%
D16*
%TO.C,D13*%
X139700000Y-93980000D03*
X137160000Y-93980000D03*
D17*
X134620000Y-93980000D03*
%TD*%
D26*
%TO.C,D12*%
X95885000Y-117475000D03*
D27*
X95885000Y-127635000D03*
%TD*%
D26*
%TO.C,D11*%
X80645000Y-117475000D03*
D27*
X80645000Y-127635000D03*
%TD*%
D26*
%TO.C,D10*%
X73025000Y-117475000D03*
D27*
X73025000Y-127635000D03*
%TD*%
D26*
%TO.C,D9*%
X57785000Y-117475000D03*
D27*
X57785000Y-127635000D03*
%TD*%
D26*
%TO.C,D8*%
X141605000Y-117475000D03*
D27*
X141605000Y-127635000D03*
%TD*%
D26*
%TO.C,D7*%
X126365000Y-117475000D03*
D27*
X126365000Y-127635000D03*
%TD*%
D26*
%TO.C,D6*%
X118745000Y-117475000D03*
D27*
X118745000Y-127635000D03*
%TD*%
D26*
%TO.C,D5*%
X103505000Y-117475000D03*
D27*
X103505000Y-127635000D03*
%TD*%
D26*
%TO.C,D4*%
X76765000Y-117475000D03*
D27*
X76765000Y-127635000D03*
%TD*%
D26*
%TO.C,D3*%
X53975000Y-117475000D03*
D27*
X53975000Y-127635000D03*
%TD*%
D26*
%TO.C,D2*%
X122555000Y-117475000D03*
D27*
X122555000Y-127635000D03*
%TD*%
D26*
%TO.C,D1*%
X99695000Y-117475000D03*
D27*
X99695000Y-127635000D03*
%TD*%
D25*
%TO.C,C26*%
X152955000Y-148590000D03*
D28*
X147955000Y-148590000D03*
%TD*%
D25*
%TO.C,C25*%
X164385000Y-135890000D03*
D28*
X159385000Y-135890000D03*
%TD*%
D25*
%TO.C,C24*%
X164385000Y-148590000D03*
D28*
X159385000Y-148590000D03*
%TD*%
D25*
%TO.C,C23*%
X152955000Y-135890000D03*
D28*
X147955000Y-135890000D03*
%TD*%
D25*
%TO.C,C22*%
X152955000Y-123190000D03*
D28*
X147955000Y-123190000D03*
%TD*%
D25*
%TO.C,C21*%
X164385000Y-110490000D03*
D28*
X159385000Y-110490000D03*
%TD*%
D25*
%TO.C,C20*%
X152955000Y-110490000D03*
D28*
X147955000Y-110490000D03*
%TD*%
D25*
%TO.C,C19*%
X164385000Y-123190000D03*
D28*
X159385000Y-123190000D03*
%TD*%
D22*
%TO.C,C17*%
X66040000Y-127635000D03*
X61040000Y-127635000D03*
%TD*%
%TO.C,C15*%
X111760000Y-127635000D03*
X106760000Y-127635000D03*
%TD*%
%TO.C,C13*%
X69215000Y-123905000D03*
X69215000Y-128905000D03*
%TD*%
%TO.C,C11*%
X114935000Y-123905000D03*
X114935000Y-128905000D03*
%TD*%
%TO.C,C10*%
X92075000Y-116285000D03*
X92075000Y-121285000D03*
%TD*%
%TO.C,C8*%
X69215000Y-116205000D03*
X69215000Y-121205000D03*
%TD*%
%TO.C,C6*%
X137795000Y-116285000D03*
X137795000Y-121285000D03*
%TD*%
%TO.C,C4*%
X114935000Y-116205000D03*
X114935000Y-121205000D03*
%TD*%
%TO.C,C2*%
X76835000Y-144225000D03*
X76835000Y-149225000D03*
%TD*%
%TO.C,C1*%
X122555000Y-143971000D03*
X122555000Y-148971000D03*
%TD*%
M02*
